G04 #@! TF.GenerationSoftware,KiCad,Pcbnew,8.0.7*
G04 #@! TF.CreationDate,2025-12-14T15:56:06+09:00*
G04 #@! TF.ProjectId,GBA_Main,4742415f-4d61-4696-9e2e-6b696361645f,rev?*
G04 #@! TF.SameCoordinates,Original*
G04 #@! TF.FileFunction,Paste,Top*
G04 #@! TF.FilePolarity,Positive*
%FSLAX46Y46*%
G04 Gerber Fmt 4.6, Leading zero omitted, Abs format (unit mm)*
G04 Created by KiCad (PCBNEW 8.0.7) date 2025-12-14 15:56:06*
%MOMM*%
%LPD*%
G01*
G04 APERTURE LIST*
G04 Aperture macros list*
%AMRoundRect*
0 Rectangle with rounded corners*
0 $1 Rounding radius*
0 $2 $3 $4 $5 $6 $7 $8 $9 X,Y pos of 4 corners*
0 Add a 4 corners polygon primitive as box body*
4,1,4,$2,$3,$4,$5,$6,$7,$8,$9,$2,$3,0*
0 Add four circle primitives for the rounded corners*
1,1,$1+$1,$2,$3*
1,1,$1+$1,$4,$5*
1,1,$1+$1,$6,$7*
1,1,$1+$1,$8,$9*
0 Add four rect primitives between the rounded corners*
20,1,$1+$1,$2,$3,$4,$5,0*
20,1,$1+$1,$4,$5,$6,$7,0*
20,1,$1+$1,$6,$7,$8,$9,0*
20,1,$1+$1,$8,$9,$2,$3,0*%
G04 Aperture macros list end*
%ADD10O,0.900000X1.400000*%
%ADD11O,1.400000X0.900000*%
%ADD12O,1.200000X0.900000*%
%ADD13RoundRect,0.200000X0.200000X0.275000X-0.200000X0.275000X-0.200000X-0.275000X0.200000X-0.275000X0*%
%ADD14RoundRect,0.200000X-0.200000X-0.275000X0.200000X-0.275000X0.200000X0.275000X-0.200000X0.275000X0*%
%ADD15R,0.500000X0.425000*%
%ADD16R,0.500000X0.250000*%
G04 APERTURE END LIST*
D10*
X144470000Y-123180000D03*
X143200000Y-123180000D03*
X141930000Y-123180000D03*
X140660000Y-123180000D03*
X139390000Y-123180000D03*
X138120000Y-123180000D03*
X136850000Y-123180000D03*
X135580000Y-123180000D03*
D11*
X133290000Y-125470000D03*
X133290000Y-126740000D03*
X133290000Y-128010000D03*
X133290000Y-129280000D03*
X133290000Y-130550000D03*
X133290000Y-131820000D03*
X133290000Y-133090000D03*
X133290000Y-134360000D03*
D10*
X135580000Y-136650000D03*
X136850000Y-136650000D03*
X138120000Y-136650000D03*
X139390000Y-136650000D03*
X140660000Y-136650000D03*
X141930000Y-136650000D03*
X143200000Y-136650000D03*
X144470000Y-136650000D03*
D11*
X146760000Y-134360000D03*
X146760000Y-133090000D03*
X146760000Y-131820000D03*
X146760000Y-130550000D03*
X146760000Y-129280000D03*
X146760000Y-128010000D03*
D12*
X146860000Y-126740000D03*
X146860000Y-125470000D03*
D13*
X141350000Y-114400000D03*
X139700000Y-114400000D03*
X141350000Y-116000000D03*
X139700000Y-116000000D03*
D14*
X134775000Y-117500000D03*
X136425000Y-117500000D03*
D13*
X141325000Y-112800000D03*
X139675000Y-112800000D03*
X141375000Y-117550000D03*
X139725000Y-117550000D03*
D15*
X135200000Y-142862500D03*
D16*
X135200000Y-143450000D03*
X135200000Y-143950000D03*
X135200000Y-144450000D03*
X135200000Y-144950000D03*
X135200000Y-145450000D03*
X135200000Y-145950000D03*
D15*
X135200000Y-146537500D03*
X136700000Y-146537500D03*
D16*
X136700000Y-145950000D03*
X136700000Y-145450000D03*
X136700000Y-144950000D03*
X136700000Y-144450000D03*
X136700000Y-143950000D03*
X136700000Y-143450000D03*
D15*
X136700000Y-142862500D03*
D14*
X134750000Y-115850000D03*
X136400000Y-115850000D03*
M02*
