G04 #@! TF.GenerationSoftware,KiCad,Pcbnew,8.0.7*
G04 #@! TF.CreationDate,2025-12-14T15:56:06+09:00*
G04 #@! TF.ProjectId,GBA_Main,4742415f-4d61-4696-9e2e-6b696361645f,rev?*
G04 #@! TF.SameCoordinates,Original*
G04 #@! TF.FileFunction,Copper,L1,Top*
G04 #@! TF.FilePolarity,Positive*
%FSLAX46Y46*%
G04 Gerber Fmt 4.6, Leading zero omitted, Abs format (unit mm)*
G04 Created by KiCad (PCBNEW 8.0.7) date 2025-12-14 15:56:06*
%MOMM*%
%LPD*%
G01*
G04 APERTURE LIST*
G04 Aperture macros list*
%AMRoundRect*
0 Rectangle with rounded corners*
0 $1 Rounding radius*
0 $2 $3 $4 $5 $6 $7 $8 $9 X,Y pos of 4 corners*
0 Add a 4 corners polygon primitive as box body*
4,1,4,$2,$3,$4,$5,$6,$7,$8,$9,$2,$3,0*
0 Add four circle primitives for the rounded corners*
1,1,$1+$1,$2,$3*
1,1,$1+$1,$4,$5*
1,1,$1+$1,$6,$7*
1,1,$1+$1,$8,$9*
0 Add four rect primitives between the rounded corners*
20,1,$1+$1,$2,$3,$4,$5,0*
20,1,$1+$1,$4,$5,$6,$7,0*
20,1,$1+$1,$6,$7,$8,$9,0*
20,1,$1+$1,$8,$9,$2,$3,0*%
G04 Aperture macros list end*
G04 #@! TA.AperFunction,ComponentPad*
%ADD10R,1.700000X1.700000*%
G04 #@! TD*
G04 #@! TA.AperFunction,ComponentPad*
%ADD11O,1.700000X1.700000*%
G04 #@! TD*
G04 #@! TA.AperFunction,SMDPad,CuDef*
%ADD12O,0.900000X1.400000*%
G04 #@! TD*
G04 #@! TA.AperFunction,SMDPad,CuDef*
%ADD13O,1.400000X0.900000*%
G04 #@! TD*
G04 #@! TA.AperFunction,SMDPad,CuDef*
%ADD14O,1.200000X0.900000*%
G04 #@! TD*
G04 #@! TA.AperFunction,SMDPad,CuDef*
%ADD15RoundRect,0.200000X0.200000X0.275000X-0.200000X0.275000X-0.200000X-0.275000X0.200000X-0.275000X0*%
G04 #@! TD*
G04 #@! TA.AperFunction,SMDPad,CuDef*
%ADD16RoundRect,0.200000X-0.200000X-0.275000X0.200000X-0.275000X0.200000X0.275000X-0.200000X0.275000X0*%
G04 #@! TD*
G04 #@! TA.AperFunction,ComponentPad*
%ADD17R,1.600000X1.600000*%
G04 #@! TD*
G04 #@! TA.AperFunction,ComponentPad*
%ADD18O,1.600000X1.600000*%
G04 #@! TD*
G04 #@! TA.AperFunction,SMDPad,CuDef*
%ADD19R,0.500000X0.425000*%
G04 #@! TD*
G04 #@! TA.AperFunction,SMDPad,CuDef*
%ADD20R,0.500000X0.250000*%
G04 #@! TD*
G04 #@! TA.AperFunction,ComponentPad*
%ADD21RoundRect,0.250000X-0.750000X0.600000X-0.750000X-0.600000X0.750000X-0.600000X0.750000X0.600000X0*%
G04 #@! TD*
G04 #@! TA.AperFunction,ComponentPad*
%ADD22O,2.000000X1.700000*%
G04 #@! TD*
G04 #@! TA.AperFunction,ComponentPad*
%ADD23R,1.350000X1.350000*%
G04 #@! TD*
G04 #@! TA.AperFunction,ComponentPad*
%ADD24O,1.350000X1.350000*%
G04 #@! TD*
G04 #@! TA.AperFunction,ViaPad*
%ADD25C,0.600000*%
G04 #@! TD*
G04 #@! TA.AperFunction,Conductor*
%ADD26C,1.000000*%
G04 #@! TD*
G04 #@! TA.AperFunction,Conductor*
%ADD27C,0.250000*%
G04 #@! TD*
G04 APERTURE END LIST*
D10*
X68580000Y-140970000D03*
D11*
X71120000Y-140970000D03*
X73660000Y-140970000D03*
X76200000Y-140970000D03*
X78740000Y-140970000D03*
X81280000Y-140970000D03*
X83820000Y-140970000D03*
D12*
X144470000Y-123180000D03*
X143200000Y-123180000D03*
X141930000Y-123180000D03*
X140660000Y-123180000D03*
X139390000Y-123180000D03*
X138120000Y-123180000D03*
X136850000Y-123180000D03*
X135580000Y-123180000D03*
D13*
X133290000Y-125470000D03*
X133290000Y-126740000D03*
X133290000Y-128010000D03*
X133290000Y-129280000D03*
X133290000Y-130550000D03*
X133290000Y-131820000D03*
X133290000Y-133090000D03*
X133290000Y-134360000D03*
D12*
X135580000Y-136650000D03*
X136850000Y-136650000D03*
X138120000Y-136650000D03*
X139390000Y-136650000D03*
X140660000Y-136650000D03*
X141930000Y-136650000D03*
X143200000Y-136650000D03*
X144470000Y-136650000D03*
D13*
X146760000Y-134360000D03*
X146760000Y-133090000D03*
X146760000Y-131820000D03*
X146760000Y-130550000D03*
X146760000Y-129280000D03*
X146760000Y-128010000D03*
D14*
X146860000Y-126740000D03*
X146860000Y-125470000D03*
D10*
X64770000Y-53340000D03*
D11*
X67310000Y-53340000D03*
X69850000Y-53340000D03*
D15*
X141350000Y-114400000D03*
X139700000Y-114400000D03*
X141350000Y-116000000D03*
X139700000Y-116000000D03*
D10*
X139700000Y-73660000D03*
D11*
X139700000Y-76200000D03*
X139700000Y-78740000D03*
X139700000Y-81280000D03*
D10*
X53340000Y-81280000D03*
D11*
X55880000Y-81280000D03*
X58420000Y-81280000D03*
X60960000Y-81280000D03*
X63500000Y-81280000D03*
D16*
X134775000Y-117500000D03*
X136425000Y-117500000D03*
D10*
X147320000Y-81280000D03*
D11*
X147320000Y-78740000D03*
X147320000Y-76200000D03*
X147320000Y-73660000D03*
X147320000Y-71120000D03*
X147320000Y-68580000D03*
X147320000Y-66040000D03*
D10*
X77470000Y-53340000D03*
D11*
X80010000Y-53340000D03*
X82550000Y-53340000D03*
D15*
X141325000Y-112800000D03*
X139675000Y-112800000D03*
D10*
X53340000Y-121920000D03*
D11*
X55880000Y-121920000D03*
X58420000Y-121920000D03*
D10*
X53340000Y-124460000D03*
D11*
X55880000Y-124460000D03*
X58420000Y-124460000D03*
D17*
X129540000Y-140970000D03*
D18*
X127000000Y-140970000D03*
X124460000Y-140970000D03*
X121920000Y-140970000D03*
X119380000Y-140970000D03*
X116840000Y-140970000D03*
X114300000Y-140970000D03*
X111760000Y-140970000D03*
X111760000Y-148590000D03*
X114300000Y-148590000D03*
X116840000Y-148590000D03*
X119380000Y-148590000D03*
X121920000Y-148590000D03*
X124460000Y-148590000D03*
X127000000Y-148590000D03*
X129540000Y-148590000D03*
D15*
X141375000Y-117550000D03*
X139725000Y-117550000D03*
D19*
X135200000Y-142862500D03*
D20*
X135200000Y-143450000D03*
X135200000Y-143950000D03*
X135200000Y-144450000D03*
X135200000Y-144950000D03*
X135200000Y-145450000D03*
X135200000Y-145950000D03*
D19*
X135200000Y-146537500D03*
X136700000Y-146537500D03*
D20*
X136700000Y-145950000D03*
X136700000Y-145450000D03*
X136700000Y-144950000D03*
X136700000Y-144450000D03*
X136700000Y-143950000D03*
X136700000Y-143450000D03*
D19*
X136700000Y-142862500D03*
D10*
X53340000Y-129540000D03*
D11*
X55880000Y-129540000D03*
X58420000Y-129540000D03*
D10*
X91440000Y-140970000D03*
D11*
X93980000Y-140970000D03*
X96520000Y-140970000D03*
X99060000Y-140970000D03*
X101600000Y-140970000D03*
X104140000Y-140970000D03*
D21*
X58420000Y-71120000D03*
D22*
X58420000Y-73620000D03*
D23*
X96000000Y-58500000D03*
D24*
X98000000Y-58500000D03*
X100000000Y-58500000D03*
X102000000Y-58500000D03*
X104000000Y-58500000D03*
D23*
X141500000Y-96000000D03*
D24*
X141500000Y-98000000D03*
X141500000Y-100000000D03*
X141500000Y-102000000D03*
X141500000Y-104000000D03*
D16*
X134750000Y-115850000D03*
X136400000Y-115850000D03*
D10*
X53340000Y-132080000D03*
D11*
X55880000Y-132080000D03*
X58420000Y-132080000D03*
D25*
X140000000Y-67500000D03*
X147500000Y-140000000D03*
X147500000Y-115000000D03*
X60000000Y-90000000D03*
X60000000Y-57500000D03*
X139800000Y-138050000D03*
X110000000Y-145000000D03*
X132500000Y-52500000D03*
X90000000Y-62500000D03*
X112500000Y-52500000D03*
X107500000Y-52500000D03*
X130000000Y-67500000D03*
X129885202Y-72189798D03*
X135000000Y-72500000D03*
X145000000Y-140000000D03*
X60000000Y-105000000D03*
X147500000Y-120000000D03*
X95000000Y-55000000D03*
X60000000Y-62500000D03*
X145000000Y-148000000D03*
X113000000Y-145000000D03*
X148050000Y-126750000D03*
X60000000Y-115000000D03*
X55000000Y-105000000D03*
X142500000Y-148000000D03*
X144850000Y-138050000D03*
X145000000Y-142500000D03*
X125000000Y-72500000D03*
X60000000Y-67500000D03*
X137500000Y-52500000D03*
X147500000Y-110000000D03*
X148000000Y-128050000D03*
X147500000Y-85000000D03*
X102500000Y-52500000D03*
X125097702Y-67402298D03*
X147500000Y-105000000D03*
X120000000Y-67500000D03*
X55000000Y-137500000D03*
X65000000Y-115000000D03*
X55000000Y-95000000D03*
X129250000Y-56225000D03*
X142500000Y-142500000D03*
X74852463Y-64852463D03*
X55000000Y-90000000D03*
X132500000Y-120000000D03*
X147500000Y-95000000D03*
X52500000Y-67500000D03*
X142500000Y-90000000D03*
X147500000Y-90000000D03*
X55000000Y-100000000D03*
X122500000Y-52500000D03*
X110000000Y-147500000D03*
X130000000Y-77500000D03*
X87500000Y-147500000D03*
X147500000Y-100000000D03*
X127500000Y-52500000D03*
X55000000Y-110000000D03*
X97500000Y-147500000D03*
X60000000Y-100000000D03*
X65000000Y-137500000D03*
X142500000Y-75000000D03*
X148050000Y-130500000D03*
X62500000Y-147500000D03*
X147500000Y-142500000D03*
X142500000Y-140000000D03*
X147500000Y-148000000D03*
X148100000Y-125500000D03*
X55000000Y-115000000D03*
X117500000Y-52500000D03*
X60000000Y-110000000D03*
X60000000Y-95000000D03*
X80000000Y-62500000D03*
X127550000Y-127250000D03*
X65000000Y-90000000D03*
X52500000Y-62500000D03*
X85000000Y-62500000D03*
X142500000Y-85000000D03*
X90000000Y-55000000D03*
X142500000Y-77500000D03*
X75000000Y-147500000D03*
X147500000Y-60000000D03*
X72500000Y-137500000D03*
X95000000Y-62500000D03*
X142300000Y-116000000D03*
X143850000Y-116000000D03*
X78600000Y-135400000D03*
X125644558Y-124689884D03*
X127500000Y-124700000D03*
X142300000Y-112800000D03*
X145100000Y-112800000D03*
X108065424Y-60550000D03*
X132050000Y-131800000D03*
X133400000Y-115950000D03*
X140000000Y-72100000D03*
X136100000Y-133750000D03*
X134750000Y-118650000D03*
X63800000Y-125050000D03*
X128400000Y-132750000D03*
X129527298Y-132922702D03*
X131527298Y-128077298D03*
X63125000Y-123400000D03*
X70027298Y-131822702D03*
X137407029Y-134701912D03*
X137350000Y-135550000D03*
X66350000Y-129550000D03*
X62950000Y-127250000D03*
X137399704Y-133851942D03*
X131850000Y-126800000D03*
X62350000Y-121800000D03*
X140212500Y-139787500D03*
X133750000Y-142700000D03*
X133750000Y-145100000D03*
X133750000Y-145900000D03*
X133750000Y-141900000D03*
X136800000Y-124600000D03*
X138025000Y-138950000D03*
X133750000Y-146700000D03*
X133750000Y-143500000D03*
X133750000Y-144300000D03*
X133750000Y-147500000D03*
X138925000Y-139125000D03*
X138100000Y-124650000D03*
D26*
X70725000Y-51000000D02*
X82275000Y-51000000D01*
X67750000Y-51000000D02*
X64010000Y-51000000D01*
X58420000Y-71120000D02*
X58420000Y-56920000D01*
X69850000Y-53340000D02*
X69850000Y-51875000D01*
X82275000Y-51000000D02*
X82550000Y-51275000D01*
X58420000Y-56920000D02*
X58255000Y-56755000D01*
X69850000Y-51875000D02*
X70725000Y-51000000D01*
X82550000Y-51275000D02*
X82550000Y-53340000D01*
X67750000Y-51000000D02*
X70725000Y-51000000D01*
X64010000Y-51000000D02*
X58255000Y-56755000D01*
X139390000Y-137640000D02*
X139800000Y-138050000D01*
X58420000Y-73620000D02*
X58620430Y-73620000D01*
D27*
X147700000Y-128010000D02*
X147960000Y-128010000D01*
D26*
X146760000Y-130550000D02*
X148000000Y-130550000D01*
X146860000Y-125470000D02*
X148070000Y-125470000D01*
X146860000Y-126740000D02*
X148040000Y-126740000D01*
X139390000Y-136650000D02*
X139390000Y-137640000D01*
X148000000Y-130550000D02*
X148050000Y-130500000D01*
X147960000Y-128010000D02*
X148000000Y-128050000D01*
X146760000Y-128010000D02*
X147960000Y-128010000D01*
X148040000Y-126740000D02*
X148050000Y-126750000D01*
X58219570Y-73620000D02*
X58420000Y-73620000D01*
X148070000Y-125470000D02*
X148100000Y-125500000D01*
X146760000Y-128010000D02*
X147700000Y-128010000D01*
X138100000Y-116250000D02*
X138100000Y-117450000D01*
X138100000Y-99950000D02*
X138100000Y-112900000D01*
X51600000Y-99900000D02*
X51600000Y-116437919D01*
X64770000Y-71830000D02*
X64770000Y-53340000D01*
X138100000Y-70828601D02*
X131300000Y-64028601D01*
D27*
X138050000Y-117500000D02*
X138100000Y-117450000D01*
D26*
X64770000Y-54610000D02*
X68660000Y-58500000D01*
X54670000Y-76850000D02*
X59750000Y-76850000D01*
D27*
X139725000Y-117550000D02*
X138200000Y-117550000D01*
D26*
X139700000Y-81280000D02*
X138120000Y-81280000D01*
X138100000Y-114350000D02*
X138100000Y-116250000D01*
X101528601Y-64028601D02*
X131300000Y-64028601D01*
X51600000Y-116437919D02*
X55880000Y-120717919D01*
X55880000Y-121920000D02*
X55880000Y-132080000D01*
D27*
X138200000Y-117550000D02*
X138100000Y-117450000D01*
X139675000Y-112800000D02*
X138200000Y-112800000D01*
D26*
X139390000Y-119840000D02*
X139390000Y-123180000D01*
D27*
X136400000Y-115850000D02*
X137700000Y-115850000D01*
D26*
X68660000Y-58500000D02*
X96000000Y-58500000D01*
X138100000Y-117450000D02*
X138100000Y-118550000D01*
X51600000Y-79920000D02*
X54670000Y-76850000D01*
X64770000Y-53340000D02*
X64770000Y-54610000D01*
D27*
X138150000Y-114400000D02*
X138100000Y-114350000D01*
D26*
X138100000Y-118550000D02*
X139390000Y-119840000D01*
X59750000Y-76850000D02*
X64770000Y-71830000D01*
D27*
X139700000Y-114400000D02*
X138150000Y-114400000D01*
X139700000Y-116000000D02*
X138350000Y-116000000D01*
X136425000Y-117500000D02*
X138050000Y-117500000D01*
D26*
X138120000Y-81280000D02*
X138100000Y-81300000D01*
X138100000Y-112900000D02*
X138100000Y-114350000D01*
X139700000Y-81280000D02*
X147320000Y-81280000D01*
X141500000Y-96000000D02*
X138100000Y-99400000D01*
D27*
X137700000Y-115850000D02*
X138100000Y-116250000D01*
X138350000Y-116000000D02*
X138100000Y-116250000D01*
D26*
X51600000Y-99900000D02*
X51600000Y-79920000D01*
X138100000Y-99400000D02*
X138100000Y-81300000D01*
X138100000Y-99400000D02*
X138100000Y-99950000D01*
X55880000Y-120717919D02*
X55880000Y-121920000D01*
X51640000Y-99900000D02*
X51600000Y-99900000D01*
X96000000Y-58500000D02*
X101528601Y-64028601D01*
D27*
X138200000Y-112800000D02*
X138100000Y-112900000D01*
D26*
X138100000Y-81300000D02*
X138100000Y-70828601D01*
D27*
X141350000Y-114400000D02*
X140800000Y-114400000D01*
X140500000Y-123020000D02*
X140500000Y-114100000D01*
X140500000Y-114100000D02*
X140500000Y-99000000D01*
X140660000Y-123180000D02*
X140500000Y-123020000D01*
X140800000Y-114400000D02*
X140500000Y-114100000D01*
X140500000Y-99000000D02*
X141500000Y-98000000D01*
X144470000Y-123180000D02*
X144470000Y-116500000D01*
X144470000Y-102970000D02*
X141500000Y-100000000D01*
X144470000Y-116500000D02*
X144470000Y-102970000D01*
X143970000Y-116000000D02*
X144470000Y-116500000D01*
X143850000Y-116000000D02*
X143970000Y-116000000D01*
X141350000Y-116000000D02*
X142300000Y-116000000D01*
X141375000Y-117550000D02*
X142750000Y-117550000D01*
X135375000Y-124650000D02*
X136015000Y-125290000D01*
X78627504Y-135427504D02*
X114672112Y-135427504D01*
X125604674Y-124650000D02*
X125644558Y-124689884D01*
X143200000Y-123180000D02*
X142800000Y-122780000D01*
X143200000Y-103700000D02*
X141500000Y-102000000D01*
X142750000Y-117550000D02*
X143200000Y-118000000D01*
X125449616Y-124650000D02*
X125604674Y-124650000D01*
X141340000Y-125290000D02*
X143200000Y-123430000D01*
X114672112Y-135427504D02*
X125449616Y-124650000D01*
X143200000Y-123430000D02*
X143200000Y-123180000D01*
X127500000Y-124700000D02*
X127550000Y-124650000D01*
X143200000Y-123180000D02*
X143200000Y-118000000D01*
X127550000Y-124650000D02*
X135375000Y-124650000D01*
X143200000Y-118000000D02*
X143200000Y-103700000D01*
X136015000Y-125290000D02*
X141340000Y-125290000D01*
X78600000Y-135400000D02*
X78627504Y-135427504D01*
X100050000Y-60550000D02*
X108065424Y-60550000D01*
X98000000Y-58500000D02*
X100050000Y-60550000D01*
X145750000Y-120000000D02*
X145750000Y-113450000D01*
X141325000Y-112800000D02*
X142300000Y-112800000D01*
X144470000Y-136650000D02*
X145816016Y-136650000D01*
X145816016Y-136650000D02*
X148925000Y-133541016D01*
X145750000Y-113450000D02*
X145100000Y-112800000D01*
X148925000Y-123175000D02*
X145750000Y-120000000D01*
X148925000Y-133541016D02*
X148925000Y-123175000D01*
X133290000Y-131820000D02*
X132070000Y-131820000D01*
X132070000Y-131820000D02*
X132050000Y-131800000D01*
X133500000Y-115850000D02*
X133400000Y-115950000D01*
X139700000Y-73660000D02*
X147320000Y-73660000D01*
X134750000Y-115850000D02*
X133500000Y-115850000D01*
X135580000Y-135700000D02*
X136100000Y-135180000D01*
X140980000Y-71120000D02*
X140000000Y-72100000D01*
X136100000Y-135180000D02*
X136100000Y-133750000D01*
X134775000Y-118625000D02*
X134750000Y-118650000D01*
X135580000Y-136650000D02*
X135580000Y-135700000D01*
X134775000Y-117500000D02*
X134775000Y-118625000D01*
X147320000Y-71120000D02*
X140980000Y-71120000D01*
X130010000Y-134360000D02*
X133290000Y-134360000D01*
X63800000Y-84120000D02*
X60960000Y-81280000D01*
X63800000Y-125050000D02*
X63800000Y-84120000D01*
X128400000Y-132750000D02*
X130010000Y-134360000D01*
X133290000Y-133090000D02*
X129694596Y-133090000D01*
X129694596Y-133090000D02*
X129527298Y-132922702D01*
X131594596Y-128010000D02*
X131527298Y-128077298D01*
X63125000Y-123400000D02*
X63125000Y-85985000D01*
X63125000Y-85985000D02*
X58420000Y-81280000D01*
X133290000Y-128010000D02*
X131594596Y-128010000D01*
X96520000Y-140970000D02*
X101140000Y-136350000D01*
X127100000Y-125470000D02*
X133290000Y-125470000D01*
X116220000Y-136350000D02*
X127100000Y-125470000D01*
X101140000Y-136350000D02*
X116220000Y-136350000D01*
X92805000Y-142145000D02*
X93980000Y-140970000D01*
X115411533Y-135877504D02*
X128109037Y-123180000D01*
X72295000Y-142145000D02*
X92805000Y-142145000D01*
X71120000Y-140970000D02*
X72295000Y-142145000D01*
X99072496Y-135877504D02*
X115411533Y-135877504D01*
X93980000Y-140970000D02*
X99072496Y-135877504D01*
X128109037Y-123180000D02*
X135580000Y-123180000D01*
X137407029Y-134701912D02*
X141501912Y-134701912D01*
X141501912Y-134701912D02*
X143200000Y-136400000D01*
X58420000Y-132080000D02*
X58677298Y-131822702D01*
X143200000Y-136400000D02*
X143200000Y-136650000D01*
X58677298Y-131822702D02*
X70027298Y-131822702D01*
X141930000Y-136650000D02*
X141930000Y-135930000D01*
X137350000Y-135550000D02*
X141550000Y-135550000D01*
X66340000Y-129540000D02*
X66350000Y-129550000D01*
X141930000Y-135930000D02*
X141550000Y-135550000D01*
X58420000Y-129540000D02*
X66340000Y-129540000D01*
X60160000Y-124460000D02*
X58420000Y-124460000D01*
X146550000Y-134150000D02*
X146760000Y-134360000D01*
X137399704Y-133851942D02*
X144501942Y-133851942D01*
X145010000Y-134360000D02*
X146760000Y-134360000D01*
X62950000Y-127250000D02*
X60160000Y-124460000D01*
X144501942Y-133851942D02*
X145010000Y-134360000D01*
X131910000Y-126740000D02*
X131850000Y-126800000D01*
X62230000Y-121920000D02*
X58420000Y-121920000D01*
X62350000Y-121800000D02*
X62230000Y-121920000D01*
X133290000Y-126740000D02*
X131910000Y-126740000D01*
X140660000Y-139340000D02*
X140212500Y-139787500D01*
X140660000Y-137650000D02*
X140660000Y-139340000D01*
X140660000Y-136650000D02*
X140660000Y-137650000D01*
X127000000Y-136150000D02*
X127565000Y-135585000D01*
X133833884Y-142700000D02*
X133750000Y-142700000D01*
X135200000Y-143450000D02*
X134583884Y-143450000D01*
X134583884Y-143450000D02*
X133833884Y-142700000D01*
X134765000Y-132335000D02*
X135280000Y-131820000D01*
X134765000Y-134867412D02*
X134765000Y-132335000D01*
X127000000Y-140970000D02*
X127000000Y-136150000D01*
X135280000Y-131820000D02*
X146760000Y-131820000D01*
X134047412Y-135585000D02*
X134765000Y-134867412D01*
X127565000Y-135585000D02*
X134047412Y-135585000D01*
X135500000Y-138250000D02*
X134377208Y-138250000D01*
X133900000Y-144950000D02*
X133750000Y-145100000D01*
X134377208Y-138250000D02*
X130532208Y-142095000D01*
X120505000Y-142095000D02*
X119380000Y-140970000D01*
X135200000Y-144950000D02*
X133900000Y-144950000D01*
X136850000Y-136650000D02*
X136850000Y-136900000D01*
X130532208Y-142095000D02*
X120505000Y-142095000D01*
X136850000Y-136900000D02*
X135500000Y-138250000D01*
X118415000Y-142545000D02*
X116840000Y-140970000D01*
X130718604Y-142545000D02*
X118415000Y-142545000D01*
X138120000Y-136900000D02*
X136320000Y-138700000D01*
X134283884Y-145450000D02*
X133833884Y-145900000D01*
X138120000Y-136650000D02*
X138120000Y-136900000D01*
X133833884Y-145900000D02*
X133750000Y-145900000D01*
X134563604Y-138700000D02*
X130718604Y-142545000D01*
X135200000Y-145450000D02*
X134283884Y-145450000D01*
X136320000Y-138700000D02*
X134563604Y-138700000D01*
X135215000Y-135053808D02*
X135215000Y-133485000D01*
X135610000Y-133090000D02*
X146760000Y-133090000D01*
X129990596Y-136159404D02*
X134109404Y-136159404D01*
X134237500Y-141900000D02*
X133750000Y-141900000D01*
X129540000Y-136610000D02*
X129990596Y-136159404D01*
X129540000Y-140970000D02*
X129540000Y-136610000D01*
X135200000Y-142862500D02*
X134237500Y-141900000D01*
X135215000Y-133485000D02*
X135610000Y-133090000D01*
X134109404Y-136159404D02*
X135215000Y-135053808D01*
X134882792Y-139150000D02*
X137825000Y-139150000D01*
X135200000Y-145950000D02*
X134675000Y-145950000D01*
X134675000Y-145950000D02*
X133925000Y-146700000D01*
X137825000Y-139150000D02*
X138025000Y-138950000D01*
X136850000Y-123180000D02*
X136850000Y-124550000D01*
X116325000Y-142995000D02*
X131037792Y-142995000D01*
X114300000Y-140970000D02*
X116325000Y-142995000D01*
X131037792Y-142995000D02*
X134882792Y-139150000D01*
X133925000Y-146700000D02*
X133750000Y-146700000D01*
X136850000Y-124550000D02*
X136800000Y-124600000D01*
X134315000Y-131125000D02*
X133740000Y-130550000D01*
X124460000Y-140970000D02*
X124460000Y-136190000D01*
X135200000Y-143950000D02*
X134354595Y-143950000D01*
X125515000Y-135135000D02*
X133861016Y-135135000D01*
X133740000Y-130550000D02*
X133290000Y-130550000D01*
X134354595Y-143950000D02*
X133904595Y-143500000D01*
X133904595Y-143500000D02*
X133750000Y-143500000D01*
X134315000Y-134681016D02*
X134315000Y-131125000D01*
X124460000Y-136190000D02*
X125515000Y-135135000D01*
X133861016Y-135135000D02*
X134315000Y-134681016D01*
X121920000Y-133480000D02*
X126120000Y-129280000D01*
X133900000Y-144450000D02*
X133750000Y-144300000D01*
X121920000Y-140970000D02*
X121920000Y-133480000D01*
X135200000Y-144450000D02*
X133900000Y-144450000D01*
X126120000Y-129280000D02*
X133290000Y-129280000D01*
X135200000Y-146537500D02*
X135112500Y-146537500D01*
X138925000Y-139125000D02*
X138925000Y-139175000D01*
X135112500Y-146537500D02*
X134150000Y-147500000D01*
X114235000Y-143445000D02*
X111760000Y-140970000D01*
X138120000Y-123180000D02*
X138120000Y-124630000D01*
X138120000Y-124630000D02*
X138100000Y-124650000D01*
X131321116Y-143445000D02*
X135141116Y-139625000D01*
X134150000Y-147500000D02*
X133750000Y-147500000D01*
X114235000Y-143445000D02*
X131321116Y-143445000D01*
X135141116Y-139625000D02*
X138425000Y-139625000D01*
X138425000Y-139625000D02*
X138925000Y-139125000D01*
G04 #@! TA.AperFunction,Conductor*
G36*
X63062256Y-50320185D02*
G01*
X63108011Y-50372989D01*
X63117955Y-50442147D01*
X63088930Y-50505703D01*
X63082898Y-50512181D01*
X60299146Y-53295934D01*
X57617219Y-55977861D01*
X57547539Y-56047541D01*
X57477859Y-56117220D01*
X57368372Y-56281079D01*
X57368367Y-56281089D01*
X57292949Y-56463163D01*
X57292947Y-56463171D01*
X57254500Y-56656455D01*
X57254500Y-56853544D01*
X57288689Y-57025420D01*
X57292949Y-57046836D01*
X57368369Y-57228914D01*
X57398602Y-57274161D01*
X57419480Y-57340838D01*
X57419500Y-57343052D01*
X57419500Y-69724091D01*
X57399815Y-69791130D01*
X57355731Y-69829641D01*
X57356813Y-69831395D01*
X57350667Y-69835185D01*
X57350666Y-69835186D01*
X57326649Y-69850000D01*
X57201342Y-69927289D01*
X57077289Y-70051342D01*
X56985187Y-70200663D01*
X56985185Y-70200668D01*
X56957349Y-70284670D01*
X56930001Y-70367203D01*
X56930001Y-70367204D01*
X56930000Y-70367204D01*
X56919500Y-70469983D01*
X56919500Y-71770001D01*
X56919501Y-71770018D01*
X56930000Y-71872796D01*
X56930001Y-71872799D01*
X56969303Y-71991402D01*
X56985186Y-72039334D01*
X57077288Y-72188656D01*
X57201344Y-72312712D01*
X57350666Y-72404814D01*
X57517203Y-72459999D01*
X57619991Y-72470500D01*
X59220008Y-72470499D01*
X59322797Y-72459999D01*
X59489334Y-72404814D01*
X59638656Y-72312712D01*
X59762712Y-72188656D01*
X59854814Y-72039334D01*
X59909999Y-71872797D01*
X59920500Y-71770009D01*
X59920499Y-70469992D01*
X59909999Y-70367203D01*
X59854814Y-70200666D01*
X59762712Y-70051344D01*
X59638656Y-69927288D01*
X59489334Y-69835186D01*
X59489332Y-69835185D01*
X59483187Y-69831395D01*
X59484290Y-69829605D01*
X59439649Y-69790290D01*
X59420500Y-69724091D01*
X59420500Y-57055781D01*
X59440185Y-56988742D01*
X59456814Y-56968105D01*
X63207821Y-53217097D01*
X63269142Y-53183614D01*
X63338834Y-53188598D01*
X63394767Y-53230470D01*
X63419184Y-53295934D01*
X63419500Y-53304780D01*
X63419500Y-54237870D01*
X63419501Y-54237876D01*
X63425908Y-54297483D01*
X63476202Y-54432328D01*
X63476206Y-54432335D01*
X63562452Y-54547544D01*
X63562455Y-54547547D01*
X63677665Y-54633794D01*
X63677667Y-54633794D01*
X63677669Y-54633796D01*
X63688830Y-54637958D01*
X63744764Y-54679826D01*
X63769184Y-54745289D01*
X63769500Y-54754141D01*
X63769500Y-71364218D01*
X63749815Y-71431257D01*
X63733181Y-71451899D01*
X59371899Y-75813181D01*
X59310576Y-75846666D01*
X59284218Y-75849500D01*
X54571454Y-75849500D01*
X54539391Y-75855876D01*
X54539392Y-75855877D01*
X54378170Y-75887946D01*
X54378164Y-75887948D01*
X54196088Y-75963366D01*
X54196079Y-75963371D01*
X54032219Y-76072859D01*
X54032215Y-76072862D01*
X51600493Y-78504586D01*
X50962220Y-79142859D01*
X50962218Y-79142861D01*
X50901424Y-79203655D01*
X50822859Y-79282219D01*
X50713371Y-79446079D01*
X50713364Y-79446092D01*
X50637950Y-79628160D01*
X50637947Y-79628170D01*
X50599500Y-79821456D01*
X50599500Y-79821459D01*
X50599500Y-99801459D01*
X50599500Y-116536460D01*
X50612430Y-116601463D01*
X50627214Y-116675789D01*
X50627214Y-116675791D01*
X50637947Y-116729748D01*
X50637949Y-116729756D01*
X50713364Y-116911826D01*
X50713371Y-116911839D01*
X50822860Y-117075700D01*
X50822863Y-117075704D01*
X50966537Y-117219378D01*
X50966559Y-117219398D01*
X54749092Y-121001931D01*
X54782577Y-121063254D01*
X54777593Y-121132946D01*
X54762987Y-121160734D01*
X54705964Y-121242172D01*
X54606097Y-121456335D01*
X54606094Y-121456344D01*
X54544938Y-121684586D01*
X54544936Y-121684596D01*
X54524341Y-121919999D01*
X54524341Y-121920000D01*
X54544936Y-122155403D01*
X54544938Y-122155413D01*
X54606094Y-122383655D01*
X54606096Y-122383659D01*
X54606097Y-122383663D01*
X54610000Y-122392032D01*
X54705965Y-122597830D01*
X54705967Y-122597834D01*
X54767734Y-122686045D01*
X54841501Y-122791396D01*
X54841506Y-122791402D01*
X54843181Y-122793077D01*
X54843682Y-122793995D01*
X54844982Y-122795544D01*
X54844670Y-122795805D01*
X54876666Y-122854400D01*
X54879500Y-122880758D01*
X54879500Y-123499241D01*
X54859815Y-123566280D01*
X54843181Y-123586922D01*
X54841505Y-123588597D01*
X54705965Y-123782169D01*
X54705964Y-123782171D01*
X54606098Y-123996335D01*
X54606094Y-123996344D01*
X54544938Y-124224586D01*
X54544936Y-124224596D01*
X54524341Y-124459999D01*
X54524341Y-124460000D01*
X54544936Y-124695403D01*
X54544938Y-124695413D01*
X54606094Y-124923655D01*
X54606096Y-124923659D01*
X54606097Y-124923663D01*
X54681563Y-125085500D01*
X54705965Y-125137830D01*
X54705967Y-125137834D01*
X54814281Y-125292521D01*
X54841501Y-125331396D01*
X54841506Y-125331402D01*
X54843181Y-125333077D01*
X54843682Y-125333995D01*
X54844982Y-125335544D01*
X54844670Y-125335805D01*
X54876666Y-125394400D01*
X54879500Y-125420758D01*
X54879500Y-128579241D01*
X54859815Y-128646280D01*
X54843181Y-128666922D01*
X54841505Y-128668597D01*
X54705965Y-128862169D01*
X54705964Y-128862171D01*
X54606098Y-129076335D01*
X54606094Y-129076344D01*
X54544938Y-129304586D01*
X54544936Y-129304596D01*
X54524341Y-129539999D01*
X54524341Y-129540000D01*
X54544936Y-129775403D01*
X54544938Y-129775413D01*
X54606094Y-130003655D01*
X54606096Y-130003659D01*
X54606097Y-130003663D01*
X54650269Y-130098390D01*
X54705965Y-130217830D01*
X54705967Y-130217834D01*
X54746548Y-130275789D01*
X54841501Y-130411396D01*
X54841506Y-130411402D01*
X54843181Y-130413077D01*
X54843682Y-130413995D01*
X54844982Y-130415544D01*
X54844670Y-130415805D01*
X54876666Y-130474400D01*
X54879500Y-130500758D01*
X54879500Y-131119241D01*
X54859815Y-131186280D01*
X54843181Y-131206922D01*
X54841505Y-131208597D01*
X54705965Y-131402169D01*
X54705964Y-131402171D01*
X54606098Y-131616335D01*
X54606094Y-131616344D01*
X54544938Y-131844586D01*
X54544936Y-131844596D01*
X54524341Y-132079999D01*
X54524341Y-132080000D01*
X54544936Y-132315403D01*
X54544938Y-132315413D01*
X54606094Y-132543655D01*
X54606096Y-132543659D01*
X54606097Y-132543663D01*
X54610000Y-132552032D01*
X54705965Y-132757830D01*
X54705967Y-132757834D01*
X54814281Y-132912521D01*
X54841505Y-132951401D01*
X55008599Y-133118495D01*
X55101734Y-133183709D01*
X55202165Y-133254032D01*
X55202167Y-133254033D01*
X55202170Y-133254035D01*
X55416337Y-133353903D01*
X55644592Y-133415063D01*
X55832918Y-133431539D01*
X55879999Y-133435659D01*
X55880000Y-133435659D01*
X55880001Y-133435659D01*
X55919234Y-133432226D01*
X56115408Y-133415063D01*
X56343663Y-133353903D01*
X56557830Y-133254035D01*
X56751401Y-133118495D01*
X56918495Y-132951401D01*
X57048425Y-132765842D01*
X57103002Y-132722217D01*
X57172500Y-132715023D01*
X57234855Y-132746546D01*
X57251575Y-132765842D01*
X57381500Y-132951395D01*
X57381505Y-132951401D01*
X57548599Y-133118495D01*
X57641734Y-133183709D01*
X57742165Y-133254032D01*
X57742167Y-133254033D01*
X57742170Y-133254035D01*
X57956337Y-133353903D01*
X58184592Y-133415063D01*
X58372918Y-133431539D01*
X58419999Y-133435659D01*
X58420000Y-133435659D01*
X58420001Y-133435659D01*
X58459234Y-133432226D01*
X58655408Y-133415063D01*
X58883663Y-133353903D01*
X59097830Y-133254035D01*
X59291401Y-133118495D01*
X59458495Y-132951401D01*
X59594035Y-132757830D01*
X59693903Y-132543663D01*
X59694854Y-132540112D01*
X59695700Y-132538723D01*
X59695756Y-132538572D01*
X59695786Y-132538583D01*
X59731216Y-132480452D01*
X59794062Y-132449920D01*
X59814630Y-132448202D01*
X69482443Y-132448202D01*
X69548415Y-132467208D01*
X69670093Y-132543664D01*
X69677776Y-132548491D01*
X69741389Y-132570750D01*
X69848043Y-132608070D01*
X69848048Y-132608071D01*
X70027294Y-132628267D01*
X70027298Y-132628267D01*
X70027302Y-132628267D01*
X70206547Y-132608071D01*
X70206550Y-132608070D01*
X70206553Y-132608070D01*
X70376820Y-132548491D01*
X70529560Y-132452518D01*
X70657114Y-132324964D01*
X70753087Y-132172224D01*
X70812666Y-132001957D01*
X70815225Y-131979249D01*
X70832863Y-131822705D01*
X70832863Y-131822698D01*
X70812667Y-131643452D01*
X70812666Y-131643447D01*
X70800251Y-131607967D01*
X70753087Y-131473180D01*
X70738822Y-131450478D01*
X70657113Y-131320439D01*
X70529560Y-131192886D01*
X70376821Y-131096913D01*
X70206552Y-131037333D01*
X70206547Y-131037332D01*
X70027302Y-131017137D01*
X70027294Y-131017137D01*
X69848048Y-131037332D01*
X69848043Y-131037333D01*
X69677774Y-131096913D01*
X69548415Y-131178196D01*
X69482443Y-131197202D01*
X59498460Y-131197202D01*
X59431421Y-131177517D01*
X59410779Y-131160883D01*
X59291402Y-131041506D01*
X59291396Y-131041501D01*
X59105842Y-130911575D01*
X59062217Y-130856998D01*
X59055023Y-130787500D01*
X59086546Y-130725145D01*
X59105842Y-130708425D01*
X59198393Y-130643620D01*
X59291401Y-130578495D01*
X59458495Y-130411401D01*
X59593652Y-130218377D01*
X59648229Y-130174752D01*
X59695227Y-130165500D01*
X65789230Y-130165500D01*
X65855202Y-130184506D01*
X65995639Y-130272749D01*
X66000478Y-130275789D01*
X66170745Y-130335368D01*
X66170750Y-130335369D01*
X66349996Y-130355565D01*
X66350000Y-130355565D01*
X66350004Y-130355565D01*
X66529249Y-130335369D01*
X66529252Y-130335368D01*
X66529255Y-130335368D01*
X66699522Y-130275789D01*
X66852262Y-130179816D01*
X66979816Y-130052262D01*
X67075789Y-129899522D01*
X67135368Y-129729255D01*
X67155565Y-129550000D01*
X67154438Y-129540000D01*
X67135369Y-129370750D01*
X67135368Y-129370745D01*
X67075788Y-129200476D01*
X66997786Y-129076337D01*
X66979816Y-129047738D01*
X66852262Y-128920184D01*
X66777892Y-128873454D01*
X66699523Y-128824211D01*
X66529254Y-128764631D01*
X66529249Y-128764630D01*
X66350004Y-128744435D01*
X66349996Y-128744435D01*
X66170750Y-128764630D01*
X66170745Y-128764631D01*
X66000476Y-128824211D01*
X65922108Y-128873454D01*
X65888113Y-128894815D01*
X65887032Y-128895494D01*
X65821060Y-128914500D01*
X59695227Y-128914500D01*
X59628188Y-128894815D01*
X59593652Y-128861623D01*
X59458494Y-128668597D01*
X59291402Y-128501506D01*
X59291395Y-128501501D01*
X59097834Y-128365967D01*
X59097830Y-128365965D01*
X59097828Y-128365964D01*
X58883663Y-128266097D01*
X58883659Y-128266096D01*
X58883655Y-128266094D01*
X58655413Y-128204938D01*
X58655403Y-128204936D01*
X58420001Y-128184341D01*
X58419999Y-128184341D01*
X58184596Y-128204936D01*
X58184586Y-128204938D01*
X57956344Y-128266094D01*
X57956335Y-128266098D01*
X57742171Y-128365964D01*
X57742169Y-128365965D01*
X57548597Y-128501505D01*
X57381505Y-128668597D01*
X57251575Y-128854158D01*
X57196998Y-128897783D01*
X57127500Y-128904977D01*
X57065145Y-128873454D01*
X57048425Y-128854158D01*
X56918494Y-128668597D01*
X56916819Y-128666922D01*
X56916315Y-128666000D01*
X56915014Y-128664449D01*
X56915325Y-128664187D01*
X56883334Y-128605599D01*
X56880500Y-128579241D01*
X56880500Y-125420758D01*
X56900185Y-125353719D01*
X56916819Y-125333077D01*
X56918495Y-125331401D01*
X57048425Y-125145842D01*
X57103002Y-125102217D01*
X57172500Y-125095023D01*
X57234855Y-125126546D01*
X57251575Y-125145842D01*
X57381500Y-125331395D01*
X57381505Y-125331401D01*
X57548599Y-125498495D01*
X57625386Y-125552262D01*
X57742165Y-125634032D01*
X57742167Y-125634033D01*
X57742170Y-125634035D01*
X57956337Y-125733903D01*
X58184592Y-125795063D01*
X58372918Y-125811539D01*
X58419999Y-125815659D01*
X58420000Y-125815659D01*
X58420001Y-125815659D01*
X58459234Y-125812226D01*
X58655408Y-125795063D01*
X58883663Y-125733903D01*
X59097830Y-125634035D01*
X59291401Y-125498495D01*
X59458495Y-125331401D01*
X59593652Y-125138377D01*
X59648229Y-125094752D01*
X59695227Y-125085500D01*
X59849548Y-125085500D01*
X59916587Y-125105185D01*
X59937229Y-125121819D01*
X62123787Y-127308377D01*
X62157272Y-127369700D01*
X62159326Y-127382173D01*
X62164630Y-127429249D01*
X62224210Y-127599521D01*
X62292162Y-127707665D01*
X62320184Y-127752262D01*
X62447738Y-127879816D01*
X62600478Y-127975789D01*
X62770745Y-128035368D01*
X62770750Y-128035369D01*
X62949996Y-128055565D01*
X62950000Y-128055565D01*
X62950004Y-128055565D01*
X63129249Y-128035369D01*
X63129252Y-128035368D01*
X63129255Y-128035368D01*
X63299522Y-127975789D01*
X63452262Y-127879816D01*
X63579816Y-127752262D01*
X63675789Y-127599522D01*
X63735368Y-127429255D01*
X63740673Y-127382173D01*
X63755565Y-127250003D01*
X63755565Y-127249996D01*
X63735369Y-127070750D01*
X63735368Y-127070745D01*
X63703352Y-126979249D01*
X63675789Y-126900478D01*
X63579816Y-126747738D01*
X63452262Y-126620184D01*
X63299521Y-126524210D01*
X63129249Y-126464630D01*
X63082173Y-126459326D01*
X63017759Y-126432259D01*
X63008377Y-126423787D01*
X60650198Y-124065608D01*
X60650178Y-124065586D01*
X60558736Y-123974144D01*
X60558728Y-123974138D01*
X60506564Y-123939283D01*
X60506562Y-123939282D01*
X60456290Y-123905690D01*
X60456286Y-123905688D01*
X60427252Y-123893662D01*
X60375792Y-123872347D01*
X60342452Y-123858537D01*
X60342448Y-123858536D01*
X60342444Y-123858535D01*
X60271553Y-123844434D01*
X60271552Y-123844434D01*
X60221611Y-123834500D01*
X60221607Y-123834500D01*
X60221606Y-123834500D01*
X59695227Y-123834500D01*
X59628188Y-123814815D01*
X59593652Y-123781623D01*
X59458494Y-123588597D01*
X59291402Y-123421506D01*
X59291396Y-123421501D01*
X59105842Y-123291575D01*
X59062217Y-123236998D01*
X59055023Y-123167500D01*
X59086546Y-123105145D01*
X59105842Y-123088425D01*
X59242768Y-122992548D01*
X59291401Y-122958495D01*
X59458495Y-122791401D01*
X59593652Y-122598377D01*
X59648229Y-122554752D01*
X59695227Y-122545500D01*
X62035739Y-122545500D01*
X62076693Y-122552458D01*
X62084024Y-122555023D01*
X62170745Y-122585368D01*
X62170751Y-122585368D01*
X62170753Y-122585369D01*
X62349996Y-122605565D01*
X62349998Y-122605565D01*
X62349998Y-122605564D01*
X62350000Y-122605565D01*
X62361614Y-122604256D01*
X62430435Y-122616309D01*
X62481816Y-122663657D01*
X62499500Y-122727476D01*
X62499500Y-122855145D01*
X62480494Y-122921117D01*
X62399211Y-123050476D01*
X62339631Y-123220745D01*
X62339630Y-123220750D01*
X62319435Y-123399996D01*
X62319435Y-123400003D01*
X62339630Y-123579249D01*
X62339631Y-123579254D01*
X62399211Y-123749523D01*
X62446859Y-123825354D01*
X62495184Y-123902262D01*
X62622738Y-124029816D01*
X62713080Y-124086582D01*
X62741835Y-124104650D01*
X62775478Y-124125789D01*
X62896973Y-124168302D01*
X62945745Y-124185368D01*
X62945749Y-124185369D01*
X63030300Y-124194895D01*
X63064383Y-124198735D01*
X63128797Y-124225801D01*
X63168352Y-124283395D01*
X63174500Y-124321955D01*
X63174500Y-124505145D01*
X63155494Y-124571117D01*
X63074211Y-124700476D01*
X63014631Y-124870745D01*
X63014630Y-124870750D01*
X62994435Y-125049996D01*
X62994435Y-125050003D01*
X63014630Y-125229249D01*
X63014631Y-125229254D01*
X63074211Y-125399523D01*
X63136400Y-125498495D01*
X63170184Y-125552262D01*
X63297738Y-125679816D01*
X63450478Y-125775789D01*
X63564420Y-125815659D01*
X63620745Y-125835368D01*
X63620750Y-125835369D01*
X63799996Y-125855565D01*
X63800000Y-125855565D01*
X63800004Y-125855565D01*
X63979249Y-125835369D01*
X63979252Y-125835368D01*
X63979255Y-125835368D01*
X64149522Y-125775789D01*
X64302262Y-125679816D01*
X64429816Y-125552262D01*
X64525789Y-125399522D01*
X64585368Y-125229255D01*
X64594304Y-125149947D01*
X64605565Y-125050003D01*
X64605565Y-125049996D01*
X64585369Y-124870750D01*
X64585368Y-124870745D01*
X64525788Y-124700476D01*
X64444506Y-124571117D01*
X64425500Y-124505145D01*
X64425500Y-84187741D01*
X64425501Y-84187720D01*
X64425501Y-84058391D01*
X64401464Y-83937555D01*
X64401463Y-83937549D01*
X64354312Y-83823715D01*
X64285858Y-83721267D01*
X64285855Y-83721263D01*
X63411931Y-82847340D01*
X63378446Y-82786017D01*
X63383430Y-82716326D01*
X63425302Y-82660392D01*
X63490766Y-82635975D01*
X63499612Y-82635659D01*
X63500001Y-82635659D01*
X63558966Y-82630500D01*
X63735408Y-82615063D01*
X63963663Y-82553903D01*
X64177830Y-82454035D01*
X64371401Y-82318495D01*
X64538495Y-82151401D01*
X64674035Y-81957830D01*
X64773903Y-81743663D01*
X64835063Y-81515408D01*
X64855659Y-81280000D01*
X64835063Y-81044592D01*
X64773903Y-80816337D01*
X64674035Y-80602171D01*
X64668425Y-80594158D01*
X64538494Y-80408597D01*
X64371402Y-80241506D01*
X64371395Y-80241501D01*
X64177834Y-80105967D01*
X64177830Y-80105965D01*
X64177828Y-80105964D01*
X63963663Y-80006097D01*
X63963659Y-80006096D01*
X63963655Y-80006094D01*
X63735413Y-79944938D01*
X63735403Y-79944936D01*
X63500001Y-79924341D01*
X63499999Y-79924341D01*
X63264596Y-79944936D01*
X63264586Y-79944938D01*
X63036344Y-80006094D01*
X63036335Y-80006098D01*
X62822171Y-80105964D01*
X62822169Y-80105965D01*
X62628597Y-80241505D01*
X62461505Y-80408597D01*
X62331575Y-80594158D01*
X62276998Y-80637783D01*
X62207500Y-80644977D01*
X62145145Y-80613454D01*
X62128425Y-80594158D01*
X61998494Y-80408597D01*
X61831402Y-80241506D01*
X61831395Y-80241501D01*
X61637834Y-80105967D01*
X61637830Y-80105965D01*
X61637828Y-80105964D01*
X61423663Y-80006097D01*
X61423659Y-80006096D01*
X61423655Y-80006094D01*
X61195413Y-79944938D01*
X61195403Y-79944936D01*
X60960001Y-79924341D01*
X60959999Y-79924341D01*
X60724596Y-79944936D01*
X60724586Y-79944938D01*
X60496344Y-80006094D01*
X60496335Y-80006098D01*
X60282171Y-80105964D01*
X60282169Y-80105965D01*
X60088597Y-80241505D01*
X59921505Y-80408597D01*
X59791575Y-80594158D01*
X59736998Y-80637783D01*
X59667500Y-80644977D01*
X59605145Y-80613454D01*
X59588425Y-80594158D01*
X59458494Y-80408597D01*
X59291402Y-80241506D01*
X59291395Y-80241501D01*
X59097834Y-80105967D01*
X59097830Y-80105965D01*
X59097828Y-80105964D01*
X58883663Y-80006097D01*
X58883659Y-80006096D01*
X58883655Y-80006094D01*
X58655413Y-79944938D01*
X58655403Y-79944936D01*
X58420001Y-79924341D01*
X58419999Y-79924341D01*
X58184596Y-79944936D01*
X58184586Y-79944938D01*
X57956344Y-80006094D01*
X57956335Y-80006098D01*
X57742171Y-80105964D01*
X57742169Y-80105965D01*
X57548597Y-80241505D01*
X57381505Y-80408597D01*
X57245965Y-80602169D01*
X57245964Y-80602171D01*
X57146098Y-80816335D01*
X57146094Y-80816344D01*
X57084938Y-81044586D01*
X57084936Y-81044596D01*
X57064341Y-81279999D01*
X57064341Y-81280000D01*
X57084936Y-81515403D01*
X57084938Y-81515413D01*
X57146094Y-81743655D01*
X57146096Y-81743659D01*
X57146097Y-81743663D01*
X57245965Y-81957830D01*
X57245967Y-81957834D01*
X57354281Y-82112521D01*
X57381505Y-82151401D01*
X57548599Y-82318495D01*
X57645384Y-82386265D01*
X57742165Y-82454032D01*
X57742167Y-82454033D01*
X57742170Y-82454035D01*
X57956337Y-82553903D01*
X57956343Y-82553904D01*
X57956344Y-82553905D01*
X57976591Y-82559330D01*
X58184592Y-82615063D01*
X58361034Y-82630500D01*
X58419999Y-82635659D01*
X58420000Y-82635659D01*
X58420001Y-82635659D01*
X58478966Y-82630500D01*
X58655408Y-82615063D01*
X58755873Y-82588143D01*
X58825722Y-82589806D01*
X58875647Y-82620237D01*
X62463181Y-86207771D01*
X62496666Y-86269094D01*
X62499500Y-86295452D01*
X62499500Y-120872523D01*
X62479815Y-120939562D01*
X62427011Y-120985317D01*
X62361620Y-120995744D01*
X62354024Y-120994888D01*
X62350000Y-120994435D01*
X62349999Y-120994435D01*
X62349996Y-120994435D01*
X62170750Y-121014630D01*
X62170745Y-121014631D01*
X62000476Y-121074211D01*
X61847737Y-121170184D01*
X61759741Y-121258181D01*
X61698418Y-121291666D01*
X61672060Y-121294500D01*
X59695227Y-121294500D01*
X59628188Y-121274815D01*
X59593652Y-121241623D01*
X59458494Y-121048597D01*
X59291402Y-120881506D01*
X59291395Y-120881501D01*
X59097834Y-120745967D01*
X59097830Y-120745965D01*
X59097828Y-120745964D01*
X58883663Y-120646097D01*
X58883659Y-120646096D01*
X58883655Y-120646094D01*
X58655413Y-120584938D01*
X58655403Y-120584936D01*
X58420001Y-120564341D01*
X58419999Y-120564341D01*
X58184596Y-120584936D01*
X58184586Y-120584938D01*
X57956344Y-120646094D01*
X57956335Y-120646098D01*
X57742171Y-120745964D01*
X57742169Y-120745965D01*
X57548597Y-120881505D01*
X57381505Y-121048597D01*
X57251575Y-121234158D01*
X57196998Y-121277783D01*
X57127500Y-121284977D01*
X57065145Y-121253454D01*
X57048425Y-121234158D01*
X56918494Y-121048597D01*
X56916819Y-121046922D01*
X56916315Y-121046000D01*
X56915014Y-121044449D01*
X56915325Y-121044187D01*
X56883334Y-120985599D01*
X56880500Y-120959241D01*
X56880500Y-120619375D01*
X56842052Y-120426089D01*
X56842051Y-120426088D01*
X56842051Y-120426084D01*
X56842049Y-120426079D01*
X56766635Y-120244011D01*
X56766628Y-120243998D01*
X56657139Y-120080137D01*
X56657136Y-120080133D01*
X56514686Y-119937683D01*
X56514655Y-119937654D01*
X52636819Y-116059818D01*
X52603334Y-115998495D01*
X52600500Y-115972137D01*
X52600500Y-100211846D01*
X52602883Y-100187654D01*
X52640500Y-99998543D01*
X52640500Y-99801456D01*
X52602883Y-99612347D01*
X52600500Y-99588155D01*
X52600500Y-82754499D01*
X52620185Y-82687460D01*
X52672989Y-82641705D01*
X52724500Y-82630499D01*
X54237871Y-82630499D01*
X54237872Y-82630499D01*
X54297483Y-82624091D01*
X54432331Y-82573796D01*
X54547546Y-82487546D01*
X54633796Y-82372331D01*
X54684091Y-82237483D01*
X54690500Y-82177873D01*
X54690499Y-80382128D01*
X54684091Y-80322517D01*
X54633796Y-80187669D01*
X54633795Y-80187668D01*
X54633793Y-80187664D01*
X54547547Y-80072455D01*
X54547544Y-80072452D01*
X54432335Y-79986206D01*
X54432328Y-79986202D01*
X54297482Y-79935908D01*
X54297483Y-79935908D01*
X54237883Y-79929501D01*
X54237881Y-79929500D01*
X54237873Y-79929500D01*
X54237865Y-79929500D01*
X53304781Y-79929500D01*
X53237742Y-79909815D01*
X53191987Y-79857011D01*
X53182043Y-79787853D01*
X53211068Y-79724297D01*
X53217100Y-79717819D01*
X53652701Y-79282219D01*
X55048102Y-77886819D01*
X55109425Y-77853334D01*
X55135783Y-77850500D01*
X59848542Y-77850500D01*
X59867870Y-77846655D01*
X59945188Y-77831275D01*
X60041836Y-77812051D01*
X60124165Y-77777949D01*
X60223914Y-77736632D01*
X60387782Y-77627139D01*
X60527139Y-77487782D01*
X60527140Y-77487780D01*
X60534206Y-77480714D01*
X60534209Y-77480710D01*
X65407778Y-72607141D01*
X65407782Y-72607139D01*
X65547139Y-72467782D01*
X65656632Y-72303914D01*
X65732051Y-72121835D01*
X65757997Y-71991396D01*
X65770500Y-71928543D01*
X65770500Y-57324782D01*
X65790185Y-57257743D01*
X65842989Y-57211988D01*
X65912147Y-57202044D01*
X65975703Y-57231069D01*
X65982181Y-57237101D01*
X68022219Y-59277140D01*
X68022222Y-59277143D01*
X68038588Y-59288077D01*
X68049427Y-59295319D01*
X68049430Y-59295323D01*
X68049431Y-59295322D01*
X68186079Y-59386628D01*
X68186092Y-59386635D01*
X68314833Y-59439961D01*
X68357744Y-59457735D01*
X68368164Y-59462051D01*
X68464812Y-59481275D01*
X68513135Y-59490887D01*
X68561458Y-59500500D01*
X68561459Y-59500500D01*
X68561460Y-59500500D01*
X68758540Y-59500500D01*
X94884046Y-59500500D01*
X94951085Y-59520185D01*
X94960157Y-59527495D01*
X94960355Y-59527232D01*
X95082664Y-59618793D01*
X95082671Y-59618797D01*
X95127372Y-59635469D01*
X95217517Y-59669091D01*
X95277127Y-59675500D01*
X95709217Y-59675499D01*
X95776256Y-59695183D01*
X95796898Y-59711818D01*
X100576114Y-64491035D01*
X100609599Y-64552358D01*
X100604615Y-64622050D01*
X100562743Y-64677983D01*
X100497279Y-64702400D01*
X100486361Y-64702699D01*
X100000000Y-64694571D01*
X98820254Y-64714287D01*
X97641852Y-64773412D01*
X96466101Y-64871879D01*
X96466096Y-64871879D01*
X96466079Y-64871881D01*
X95732954Y-64958031D01*
X95294227Y-65009586D01*
X94127677Y-65186365D01*
X92967665Y-65402029D01*
X91815479Y-65656340D01*
X90672464Y-65949002D01*
X89539858Y-66279698D01*
X88418953Y-66648048D01*
X87310962Y-67053654D01*
X86217131Y-67496064D01*
X85138702Y-67974773D01*
X84076898Y-68489237D01*
X83032866Y-69038900D01*
X82007756Y-69623158D01*
X81002767Y-70241329D01*
X80019008Y-70892728D01*
X79057534Y-71576656D01*
X78119446Y-72292334D01*
X77205846Y-73038919D01*
X76317646Y-73815663D01*
X75455933Y-74621619D01*
X74621619Y-75455933D01*
X73815663Y-76317646D01*
X73038919Y-77205846D01*
X72292334Y-78119446D01*
X71576656Y-79057534D01*
X71170744Y-79628170D01*
X70899136Y-80010000D01*
X70892728Y-80019008D01*
X70241329Y-81002767D01*
X69623158Y-82007756D01*
X69038900Y-83032866D01*
X68489237Y-84076898D01*
X67974773Y-85138702D01*
X67496064Y-86217131D01*
X67053654Y-87310962D01*
X66648048Y-88418953D01*
X66279698Y-89539858D01*
X65949002Y-90672464D01*
X65656340Y-91815479D01*
X65402029Y-92967665D01*
X65186365Y-94127677D01*
X65009586Y-95294227D01*
X64958031Y-95732954D01*
X64871881Y-96466079D01*
X64871879Y-96466096D01*
X64871879Y-96466101D01*
X64773412Y-97641852D01*
X64714287Y-98820254D01*
X64694571Y-100000000D01*
X64714287Y-101179745D01*
X64773412Y-102358147D01*
X64860976Y-103403714D01*
X64871881Y-103533921D01*
X64884158Y-103638394D01*
X65009586Y-104705772D01*
X65186365Y-105872322D01*
X65402029Y-107032334D01*
X65656340Y-108184520D01*
X65949002Y-109327535D01*
X66279698Y-110460141D01*
X66648048Y-111581046D01*
X67053654Y-112689037D01*
X67287641Y-113267554D01*
X67496061Y-113782861D01*
X67964675Y-114838550D01*
X67974773Y-114861297D01*
X68489237Y-115923101D01*
X69038900Y-116967133D01*
X69623158Y-117992243D01*
X70241329Y-118997232D01*
X70491991Y-119375788D01*
X70892737Y-119981005D01*
X71576656Y-120942465D01*
X71845227Y-121294500D01*
X72292334Y-121880553D01*
X73038919Y-122794153D01*
X73038930Y-122794165D01*
X73038932Y-122794168D01*
X73758665Y-123617177D01*
X73815663Y-123682353D01*
X74621619Y-124544066D01*
X75455933Y-125378380D01*
X76242979Y-126114500D01*
X76317657Y-126184346D01*
X76914751Y-126706513D01*
X77205846Y-126961080D01*
X78119446Y-127707665D01*
X78119459Y-127707674D01*
X78119464Y-127707679D01*
X79057535Y-128423344D01*
X80018995Y-129107263D01*
X80532877Y-129447531D01*
X81002767Y-129758670D01*
X81940331Y-130335368D01*
X82007766Y-130376847D01*
X83032855Y-130961093D01*
X83032866Y-130961099D01*
X83672278Y-131297737D01*
X84076894Y-131510760D01*
X85138718Y-132025234D01*
X86217139Y-132503939D01*
X87310954Y-132946342D01*
X87310960Y-132946344D01*
X87310962Y-132946345D01*
X87324776Y-132951402D01*
X88418942Y-133351948D01*
X89539864Y-133720303D01*
X89976014Y-133847649D01*
X90672464Y-134050997D01*
X90672468Y-134050998D01*
X91815490Y-134343662D01*
X92781675Y-134556919D01*
X92842895Y-134590590D01*
X92876194Y-134652014D01*
X92870998Y-134721690D01*
X92828957Y-134777496D01*
X92763418Y-134801714D01*
X92754948Y-134802004D01*
X79185444Y-134802004D01*
X79118405Y-134782319D01*
X79108107Y-134774020D01*
X79107705Y-134774525D01*
X79102262Y-134770184D01*
X78949523Y-134674211D01*
X78779254Y-134614631D01*
X78779249Y-134614630D01*
X78600004Y-134594435D01*
X78599996Y-134594435D01*
X78420750Y-134614630D01*
X78420745Y-134614631D01*
X78250476Y-134674211D01*
X78097737Y-134770184D01*
X77970184Y-134897737D01*
X77874211Y-135050476D01*
X77814631Y-135220745D01*
X77814630Y-135220750D01*
X77794435Y-135399996D01*
X77794435Y-135400003D01*
X77814630Y-135579249D01*
X77814631Y-135579254D01*
X77874211Y-135749523D01*
X77926657Y-135832989D01*
X77970184Y-135902262D01*
X78097738Y-136029816D01*
X78250478Y-136125789D01*
X78392544Y-136175500D01*
X78420745Y-136185368D01*
X78420750Y-136185369D01*
X78599996Y-136205565D01*
X78600000Y-136205565D01*
X78600004Y-136205565D01*
X78779249Y-136185369D01*
X78779251Y-136185368D01*
X78779255Y-136185368D01*
X78779258Y-136185366D01*
X78779262Y-136185366D01*
X78869377Y-136153832D01*
X78949522Y-136125789D01*
X79035111Y-136072009D01*
X79101083Y-136053004D01*
X97713044Y-136053004D01*
X97780083Y-136072689D01*
X97825838Y-136125493D01*
X97835782Y-136194651D01*
X97806757Y-136258207D01*
X97800725Y-136264685D01*
X94435646Y-139629762D01*
X94374323Y-139663247D01*
X94315872Y-139661856D01*
X94215413Y-139634938D01*
X94215403Y-139634936D01*
X93980001Y-139614341D01*
X93979999Y-139614341D01*
X93744596Y-139634936D01*
X93744586Y-139634938D01*
X93516344Y-139696094D01*
X93516335Y-139696098D01*
X93302171Y-139795964D01*
X93302169Y-139795965D01*
X93108600Y-139931503D01*
X92986673Y-140053430D01*
X92925350Y-140086914D01*
X92855658Y-140081930D01*
X92799725Y-140040058D01*
X92782810Y-140009081D01*
X92733797Y-139877671D01*
X92733793Y-139877664D01*
X92647547Y-139762455D01*
X92647544Y-139762452D01*
X92532335Y-139676206D01*
X92532328Y-139676202D01*
X92397482Y-139625908D01*
X92397483Y-139625908D01*
X92337883Y-139619501D01*
X92337881Y-139619500D01*
X92337873Y-139619500D01*
X92337864Y-139619500D01*
X90542129Y-139619500D01*
X90542123Y-139619501D01*
X90482516Y-139625908D01*
X90347671Y-139676202D01*
X90347664Y-139676206D01*
X90232455Y-139762452D01*
X90232452Y-139762455D01*
X90146206Y-139877664D01*
X90146202Y-139877671D01*
X90095908Y-140012517D01*
X90091510Y-140053430D01*
X90089500Y-140072127D01*
X90089500Y-140743313D01*
X90089501Y-141395500D01*
X90069816Y-141462539D01*
X90017013Y-141508294D01*
X89965501Y-141519500D01*
X85232503Y-141519500D01*
X85165464Y-141499815D01*
X85119709Y-141447011D01*
X85109765Y-141377853D01*
X85112728Y-141363407D01*
X85130109Y-141298537D01*
X85155063Y-141205408D01*
X85175659Y-140970000D01*
X85155063Y-140734592D01*
X85095766Y-140513289D01*
X85093905Y-140506344D01*
X85093904Y-140506343D01*
X85093903Y-140506337D01*
X84994035Y-140292171D01*
X84992349Y-140289762D01*
X84858494Y-140098597D01*
X84691402Y-139931506D01*
X84691395Y-139931501D01*
X84685922Y-139927669D01*
X84614518Y-139877671D01*
X84497834Y-139795967D01*
X84497830Y-139795965D01*
X84433722Y-139766071D01*
X84283663Y-139696097D01*
X84283659Y-139696096D01*
X84283655Y-139696094D01*
X84055413Y-139634938D01*
X84055403Y-139634936D01*
X83820001Y-139614341D01*
X83819999Y-139614341D01*
X83584596Y-139634936D01*
X83584586Y-139634938D01*
X83356344Y-139696094D01*
X83356335Y-139696098D01*
X83142171Y-139795964D01*
X83142169Y-139795965D01*
X82948597Y-139931505D01*
X82781505Y-140098597D01*
X82651575Y-140284158D01*
X82596998Y-140327783D01*
X82527500Y-140334977D01*
X82465145Y-140303454D01*
X82448425Y-140284158D01*
X82318494Y-140098597D01*
X82151402Y-139931506D01*
X82151395Y-139931501D01*
X82145922Y-139927669D01*
X82074518Y-139877671D01*
X81957834Y-139795967D01*
X81957830Y-139795965D01*
X81893722Y-139766071D01*
X81743663Y-139696097D01*
X81743659Y-139696096D01*
X81743655Y-139696094D01*
X81515413Y-139634938D01*
X81515403Y-139634936D01*
X81280001Y-139614341D01*
X81279999Y-139614341D01*
X81044596Y-139634936D01*
X81044586Y-139634938D01*
X80816344Y-139696094D01*
X80816335Y-139696098D01*
X80602171Y-139795964D01*
X80602169Y-139795965D01*
X80408597Y-139931505D01*
X80241505Y-140098597D01*
X80111575Y-140284158D01*
X80056998Y-140327783D01*
X79987500Y-140334977D01*
X79925145Y-140303454D01*
X79908425Y-140284158D01*
X79778494Y-140098597D01*
X79611402Y-139931506D01*
X79611395Y-139931501D01*
X79605922Y-139927669D01*
X79534518Y-139877671D01*
X79417834Y-139795967D01*
X79417830Y-139795965D01*
X79353722Y-139766071D01*
X79203663Y-139696097D01*
X79203659Y-139696096D01*
X79203655Y-139696094D01*
X78975413Y-139634938D01*
X78975403Y-139634936D01*
X78740001Y-139614341D01*
X78739999Y-139614341D01*
X78504596Y-139634936D01*
X78504586Y-139634938D01*
X78276344Y-139696094D01*
X78276335Y-139696098D01*
X78062171Y-139795964D01*
X78062169Y-139795965D01*
X77868597Y-139931505D01*
X77701505Y-140098597D01*
X77571575Y-140284158D01*
X77516998Y-140327783D01*
X77447500Y-140334977D01*
X77385145Y-140303454D01*
X77368425Y-140284158D01*
X77238494Y-140098597D01*
X77071402Y-139931506D01*
X77071395Y-139931501D01*
X77065922Y-139927669D01*
X76994518Y-139877671D01*
X76877834Y-139795967D01*
X76877830Y-139795965D01*
X76813722Y-139766071D01*
X76663663Y-139696097D01*
X76663659Y-139696096D01*
X76663655Y-139696094D01*
X76435413Y-139634938D01*
X76435403Y-139634936D01*
X76200001Y-139614341D01*
X76199999Y-139614341D01*
X75964596Y-139634936D01*
X75964586Y-139634938D01*
X75736344Y-139696094D01*
X75736335Y-139696098D01*
X75522171Y-139795964D01*
X75522169Y-139795965D01*
X75328597Y-139931505D01*
X75161505Y-140098597D01*
X75031575Y-140284158D01*
X74976998Y-140327783D01*
X74907500Y-140334977D01*
X74845145Y-140303454D01*
X74828425Y-140284158D01*
X74698494Y-140098597D01*
X74531402Y-139931506D01*
X74531395Y-139931501D01*
X74525922Y-139927669D01*
X74454518Y-139877671D01*
X74337834Y-139795967D01*
X74337830Y-139795965D01*
X74273722Y-139766071D01*
X74123663Y-139696097D01*
X74123659Y-139696096D01*
X74123655Y-139696094D01*
X73895413Y-139634938D01*
X73895403Y-139634936D01*
X73660001Y-139614341D01*
X73659999Y-139614341D01*
X73424596Y-139634936D01*
X73424586Y-139634938D01*
X73196344Y-139696094D01*
X73196335Y-139696098D01*
X72982171Y-139795964D01*
X72982169Y-139795965D01*
X72788597Y-139931505D01*
X72621505Y-140098597D01*
X72491575Y-140284158D01*
X72436998Y-140327783D01*
X72367500Y-140334977D01*
X72305145Y-140303454D01*
X72288425Y-140284158D01*
X72158494Y-140098597D01*
X71991402Y-139931506D01*
X71991395Y-139931501D01*
X71985922Y-139927669D01*
X71914518Y-139877671D01*
X71797834Y-139795967D01*
X71797830Y-139795965D01*
X71733722Y-139766071D01*
X71583663Y-139696097D01*
X71583659Y-139696096D01*
X71583655Y-139696094D01*
X71355413Y-139634938D01*
X71355403Y-139634936D01*
X71120001Y-139614341D01*
X71119999Y-139614341D01*
X70884596Y-139634936D01*
X70884586Y-139634938D01*
X70656344Y-139696094D01*
X70656335Y-139696098D01*
X70442171Y-139795964D01*
X70442169Y-139795965D01*
X70248597Y-139931505D01*
X70081505Y-140098597D01*
X69945965Y-140292169D01*
X69945964Y-140292171D01*
X69846098Y-140506335D01*
X69846094Y-140506344D01*
X69784938Y-140734586D01*
X69784936Y-140734596D01*
X69764341Y-140969999D01*
X69764341Y-140970000D01*
X69784936Y-141205403D01*
X69784938Y-141205413D01*
X69846094Y-141433655D01*
X69846096Y-141433659D01*
X69846097Y-141433663D01*
X69880919Y-141508338D01*
X69945965Y-141647830D01*
X69945967Y-141647834D01*
X70054281Y-141802521D01*
X70081505Y-141841401D01*
X70248599Y-142008495D01*
X70345384Y-142076265D01*
X70442165Y-142144032D01*
X70442167Y-142144033D01*
X70442170Y-142144035D01*
X70656337Y-142243903D01*
X70884592Y-142305063D01*
X71072918Y-142321539D01*
X71119999Y-142325659D01*
X71120000Y-142325659D01*
X71120001Y-142325659D01*
X71159234Y-142322226D01*
X71355408Y-142305063D01*
X71455873Y-142278143D01*
X71525722Y-142279806D01*
X71575647Y-142310237D01*
X71806016Y-142540606D01*
X71806045Y-142540637D01*
X71896263Y-142630855D01*
X71896267Y-142630858D01*
X71969886Y-142680049D01*
X71969887Y-142680050D01*
X71998709Y-142699309D01*
X71998712Y-142699310D01*
X71998715Y-142699312D01*
X72049868Y-142720500D01*
X72112548Y-142746463D01*
X72172971Y-142758481D01*
X72233393Y-142770500D01*
X92866607Y-142770500D01*
X92927029Y-142758481D01*
X92987452Y-142746463D01*
X92987455Y-142746461D01*
X92987458Y-142746461D01*
X93020787Y-142732654D01*
X93020786Y-142732654D01*
X93020792Y-142732652D01*
X93101286Y-142699312D01*
X93152509Y-142665084D01*
X93203733Y-142630858D01*
X93290858Y-142543733D01*
X93290859Y-142543731D01*
X93297925Y-142536665D01*
X93297928Y-142536661D01*
X93524353Y-142310235D01*
X93585674Y-142276752D01*
X93644125Y-142278143D01*
X93650332Y-142279806D01*
X93744592Y-142305063D01*
X93932918Y-142321539D01*
X93979999Y-142325659D01*
X93980000Y-142325659D01*
X93980001Y-142325659D01*
X94019234Y-142322226D01*
X94215408Y-142305063D01*
X94443663Y-142243903D01*
X94657830Y-142144035D01*
X94851401Y-142008495D01*
X95018495Y-141841401D01*
X95148425Y-141655842D01*
X95203002Y-141612217D01*
X95272500Y-141605023D01*
X95334855Y-141636546D01*
X95351575Y-141655842D01*
X95481500Y-141841395D01*
X95481505Y-141841401D01*
X95648599Y-142008495D01*
X95745384Y-142076265D01*
X95842165Y-142144032D01*
X95842167Y-142144033D01*
X95842170Y-142144035D01*
X96056337Y-142243903D01*
X96284592Y-142305063D01*
X96472918Y-142321539D01*
X96519999Y-142325659D01*
X96520000Y-142325659D01*
X96520001Y-142325659D01*
X96559234Y-142322226D01*
X96755408Y-142305063D01*
X96983663Y-142243903D01*
X97197830Y-142144035D01*
X97391401Y-142008495D01*
X97558495Y-141841401D01*
X97688425Y-141655842D01*
X97743002Y-141612217D01*
X97812500Y-141605023D01*
X97874855Y-141636546D01*
X97891575Y-141655842D01*
X98021500Y-141841395D01*
X98021505Y-141841401D01*
X98188599Y-142008495D01*
X98285384Y-142076265D01*
X98382165Y-142144032D01*
X98382167Y-142144033D01*
X98382170Y-142144035D01*
X98596337Y-142243903D01*
X98824592Y-142305063D01*
X99012918Y-142321539D01*
X99059999Y-142325659D01*
X99060000Y-142325659D01*
X99060001Y-142325659D01*
X99099234Y-142322226D01*
X99295408Y-142305063D01*
X99523663Y-142243903D01*
X99737830Y-142144035D01*
X99931401Y-142008495D01*
X100098495Y-141841401D01*
X100234035Y-141647830D01*
X100333903Y-141433663D01*
X100395063Y-141205408D01*
X100415659Y-140970000D01*
X100415659Y-140969999D01*
X102784341Y-140969999D01*
X102784341Y-140970000D01*
X102804936Y-141205403D01*
X102804938Y-141205413D01*
X102866094Y-141433655D01*
X102866096Y-141433659D01*
X102866097Y-141433663D01*
X102900919Y-141508338D01*
X102965965Y-141647830D01*
X102965967Y-141647834D01*
X103074281Y-141802521D01*
X103101505Y-141841401D01*
X103268599Y-142008495D01*
X103365384Y-142076265D01*
X103462165Y-142144032D01*
X103462167Y-142144033D01*
X103462170Y-142144035D01*
X103676337Y-142243903D01*
X103904592Y-142305063D01*
X104092918Y-142321539D01*
X104139999Y-142325659D01*
X104140000Y-142325659D01*
X104140001Y-142325659D01*
X104179234Y-142322226D01*
X104375408Y-142305063D01*
X104603663Y-142243903D01*
X104817830Y-142144035D01*
X105011401Y-142008495D01*
X105178495Y-141841401D01*
X105314035Y-141647830D01*
X105413903Y-141433663D01*
X105475063Y-141205408D01*
X105495659Y-140970000D01*
X105475063Y-140734592D01*
X105415766Y-140513289D01*
X105413905Y-140506344D01*
X105413904Y-140506343D01*
X105413903Y-140506337D01*
X105314035Y-140292171D01*
X105312349Y-140289762D01*
X105178494Y-140098597D01*
X105011402Y-139931506D01*
X105011395Y-139931501D01*
X105005922Y-139927669D01*
X104934518Y-139877671D01*
X104817834Y-139795967D01*
X104817830Y-139795965D01*
X104753722Y-139766071D01*
X104603663Y-139696097D01*
X104603659Y-139696096D01*
X104603655Y-139696094D01*
X104375413Y-139634938D01*
X104375403Y-139634936D01*
X104140001Y-139614341D01*
X104139999Y-139614341D01*
X103904596Y-139634936D01*
X103904586Y-139634938D01*
X103676344Y-139696094D01*
X103676335Y-139696098D01*
X103462171Y-139795964D01*
X103462169Y-139795965D01*
X103268597Y-139931505D01*
X103101505Y-140098597D01*
X102965965Y-140292169D01*
X102965964Y-140292171D01*
X102866098Y-140506335D01*
X102866094Y-140506344D01*
X102804938Y-140734586D01*
X102804936Y-140734596D01*
X102784341Y-140969999D01*
X100415659Y-140969999D01*
X100395063Y-140734592D01*
X100335766Y-140513289D01*
X100333905Y-140506344D01*
X100333904Y-140506343D01*
X100333903Y-140506337D01*
X100234035Y-140292171D01*
X100232349Y-140289762D01*
X100098494Y-140098597D01*
X99931402Y-139931506D01*
X99931395Y-139931501D01*
X99925922Y-139927669D01*
X99854518Y-139877671D01*
X99737834Y-139795967D01*
X99737830Y-139795965D01*
X99673722Y-139766071D01*
X99523663Y-139696097D01*
X99523659Y-139696096D01*
X99523655Y-139696094D01*
X99295413Y-139634938D01*
X99295403Y-139634936D01*
X99060001Y-139614341D01*
X99059611Y-139614341D01*
X99059445Y-139614292D01*
X99054606Y-139613869D01*
X99054691Y-139612896D01*
X98992572Y-139594656D01*
X98946817Y-139541852D01*
X98936873Y-139472694D01*
X98965898Y-139409138D01*
X98971930Y-139402660D01*
X100054407Y-138320184D01*
X101362772Y-137011819D01*
X101424095Y-136978334D01*
X101450453Y-136975500D01*
X116281608Y-136975500D01*
X116281608Y-136975499D01*
X116351458Y-136961606D01*
X116351459Y-136961606D01*
X116368770Y-136958162D01*
X116402452Y-136951463D01*
X116435792Y-136937652D01*
X116516286Y-136904312D01*
X116567509Y-136870084D01*
X116618733Y-136835858D01*
X116705858Y-136748733D01*
X116705858Y-136748731D01*
X116716066Y-136738524D01*
X116716067Y-136738521D01*
X127322772Y-126131819D01*
X127384095Y-126098334D01*
X127410453Y-126095500D01*
X131123975Y-126095500D01*
X131191014Y-126115185D01*
X131236769Y-126167989D01*
X131246713Y-126237147D01*
X131223245Y-126291437D01*
X131223889Y-126291842D01*
X131221265Y-126296017D01*
X131220921Y-126296814D01*
X131220184Y-126297737D01*
X131124211Y-126450476D01*
X131064631Y-126620745D01*
X131064630Y-126620750D01*
X131044435Y-126799996D01*
X131044435Y-126800003D01*
X131064630Y-126979249D01*
X131064631Y-126979254D01*
X131124212Y-127149526D01*
X131164392Y-127213471D01*
X131183393Y-127280707D01*
X131163026Y-127347542D01*
X131125371Y-127384437D01*
X131025035Y-127447482D01*
X130897482Y-127575035D01*
X130801509Y-127727774D01*
X130741929Y-127898043D01*
X130741928Y-127898048D01*
X130721733Y-128077294D01*
X130721733Y-128077301D01*
X130741928Y-128256547D01*
X130741929Y-128256552D01*
X130801509Y-128426821D01*
X130825202Y-128464528D01*
X130844202Y-128531765D01*
X130823834Y-128598600D01*
X130770566Y-128643814D01*
X130720208Y-128654500D01*
X126058389Y-128654500D01*
X126000575Y-128666000D01*
X125997971Y-128666518D01*
X125937548Y-128678537D01*
X125937547Y-128678537D01*
X125937544Y-128678538D01*
X125909888Y-128689994D01*
X125823719Y-128725686D01*
X125823711Y-128725690D01*
X125806620Y-128737110D01*
X125798190Y-128742743D01*
X125798189Y-128742744D01*
X125798188Y-128742743D01*
X125721266Y-128794142D01*
X125721265Y-128794143D01*
X125691198Y-128824211D01*
X125634142Y-128881267D01*
X125634139Y-128881270D01*
X121521270Y-132994139D01*
X121521267Y-132994142D01*
X121477704Y-133037704D01*
X121434142Y-133081266D01*
X121405254Y-133124501D01*
X121405253Y-133124502D01*
X121365690Y-133183709D01*
X121365690Y-133183710D01*
X121365688Y-133183712D01*
X121365688Y-133183714D01*
X121339169Y-133247738D01*
X121318537Y-133297545D01*
X121317542Y-133302545D01*
X121317542Y-133302549D01*
X121302174Y-133379815D01*
X121295163Y-133415063D01*
X121295161Y-133415071D01*
X121294500Y-133418389D01*
X121294500Y-139755811D01*
X121274815Y-139822850D01*
X121241623Y-139857386D01*
X121080859Y-139969953D01*
X120919954Y-140130858D01*
X120789432Y-140317265D01*
X120789431Y-140317267D01*
X120762382Y-140375275D01*
X120716209Y-140427714D01*
X120649016Y-140446866D01*
X120582135Y-140426650D01*
X120537618Y-140375275D01*
X120510568Y-140317266D01*
X120380047Y-140130861D01*
X120380046Y-140130860D01*
X120380045Y-140130858D01*
X120219141Y-139969954D01*
X120032734Y-139839432D01*
X120032732Y-139839431D01*
X119826497Y-139743261D01*
X119826488Y-139743258D01*
X119606697Y-139684366D01*
X119606693Y-139684365D01*
X119606692Y-139684365D01*
X119606691Y-139684364D01*
X119606686Y-139684364D01*
X119380002Y-139664532D01*
X119379998Y-139664532D01*
X119153313Y-139684364D01*
X119153302Y-139684366D01*
X118933511Y-139743258D01*
X118933502Y-139743261D01*
X118727267Y-139839431D01*
X118727265Y-139839432D01*
X118540858Y-139969954D01*
X118379954Y-140130858D01*
X118249432Y-140317265D01*
X118249431Y-140317267D01*
X118222382Y-140375275D01*
X118176209Y-140427714D01*
X118109016Y-140446866D01*
X118042135Y-140426650D01*
X117997618Y-140375275D01*
X117970568Y-140317266D01*
X117840047Y-140130861D01*
X117840046Y-140130860D01*
X117840045Y-140130858D01*
X117679141Y-139969954D01*
X117492734Y-139839432D01*
X117492732Y-139839431D01*
X117286497Y-139743261D01*
X117286488Y-139743258D01*
X117066697Y-139684366D01*
X117066693Y-139684365D01*
X117066692Y-139684365D01*
X117066691Y-139684364D01*
X117066686Y-139684364D01*
X116840002Y-139664532D01*
X116839998Y-139664532D01*
X116613313Y-139684364D01*
X116613302Y-139684366D01*
X116393511Y-139743258D01*
X116393502Y-139743261D01*
X116187267Y-139839431D01*
X116187265Y-139839432D01*
X116000858Y-139969954D01*
X115839954Y-140130858D01*
X115709432Y-140317265D01*
X115709431Y-140317267D01*
X115682382Y-140375275D01*
X115636209Y-140427714D01*
X115569016Y-140446866D01*
X115502135Y-140426650D01*
X115457618Y-140375275D01*
X115430568Y-140317266D01*
X115300047Y-140130861D01*
X115300046Y-140130860D01*
X115300045Y-140130858D01*
X115139141Y-139969954D01*
X114952734Y-139839432D01*
X114952732Y-139839431D01*
X114746497Y-139743261D01*
X114746488Y-139743258D01*
X114526697Y-139684366D01*
X114526693Y-139684365D01*
X114526692Y-139684365D01*
X114526691Y-139684364D01*
X114526686Y-139684364D01*
X114300002Y-139664532D01*
X114299998Y-139664532D01*
X114073313Y-139684364D01*
X114073302Y-139684366D01*
X113853511Y-139743258D01*
X113853502Y-139743261D01*
X113647267Y-139839431D01*
X113647265Y-139839432D01*
X113460858Y-139969954D01*
X113299954Y-140130858D01*
X113169432Y-140317265D01*
X113169431Y-140317267D01*
X113142382Y-140375275D01*
X113096209Y-140427714D01*
X113029016Y-140446866D01*
X112962135Y-140426650D01*
X112917618Y-140375275D01*
X112890568Y-140317266D01*
X112760047Y-140130861D01*
X112760046Y-140130860D01*
X112760045Y-140130858D01*
X112599141Y-139969954D01*
X112412734Y-139839432D01*
X112412732Y-139839431D01*
X112206497Y-139743261D01*
X112206488Y-139743258D01*
X111986697Y-139684366D01*
X111986693Y-139684365D01*
X111986692Y-139684365D01*
X111986691Y-139684364D01*
X111986686Y-139684364D01*
X111760002Y-139664532D01*
X111759998Y-139664532D01*
X111533313Y-139684364D01*
X111533302Y-139684366D01*
X111313511Y-139743258D01*
X111313502Y-139743261D01*
X111107267Y-139839431D01*
X111107265Y-139839432D01*
X110920858Y-139969954D01*
X110759954Y-140130858D01*
X110629432Y-140317265D01*
X110629431Y-140317267D01*
X110533261Y-140523502D01*
X110533258Y-140523511D01*
X110474366Y-140743302D01*
X110474364Y-140743313D01*
X110454532Y-140969998D01*
X110454532Y-140970001D01*
X110474364Y-141196686D01*
X110474366Y-141196697D01*
X110533258Y-141416488D01*
X110533261Y-141416497D01*
X110629431Y-141622732D01*
X110629432Y-141622734D01*
X110759954Y-141809141D01*
X110920858Y-141970045D01*
X110920861Y-141970047D01*
X111107266Y-142100568D01*
X111313504Y-142196739D01*
X111313509Y-142196740D01*
X111313511Y-142196741D01*
X111366415Y-142210916D01*
X111533308Y-142255635D01*
X111690791Y-142269413D01*
X111759998Y-142275468D01*
X111760000Y-142275468D01*
X111760002Y-142275468D01*
X111816673Y-142270509D01*
X111986692Y-142255635D01*
X112055048Y-142237319D01*
X112124897Y-142238982D01*
X112174822Y-142269413D01*
X113836263Y-143930855D01*
X113836267Y-143930858D01*
X113938710Y-143999309D01*
X113938711Y-143999309D01*
X113938715Y-143999312D01*
X114005396Y-144026931D01*
X114005398Y-144026933D01*
X114052543Y-144046461D01*
X114052548Y-144046463D01*
X114072597Y-144050451D01*
X114106196Y-144057134D01*
X114173392Y-144070501D01*
X114173394Y-144070501D01*
X114302721Y-144070501D01*
X114302741Y-144070500D01*
X131382724Y-144070500D01*
X131382724Y-144070499D01*
X131464112Y-144054311D01*
X131464113Y-144054311D01*
X131483523Y-144050450D01*
X131503568Y-144046463D01*
X131536908Y-144032652D01*
X131617402Y-143999312D01*
X131670036Y-143964142D01*
X131670037Y-143964142D01*
X131703017Y-143942104D01*
X131719849Y-143930858D01*
X131806974Y-143843733D01*
X131806975Y-143843730D01*
X131814041Y-143836665D01*
X131814044Y-143836661D01*
X132775014Y-142875690D01*
X132836335Y-142842207D01*
X132906027Y-142847191D01*
X132961960Y-142889063D01*
X132979734Y-142922418D01*
X133026510Y-143056094D01*
X133024364Y-143056844D01*
X133033962Y-143115144D01*
X133025609Y-143143590D01*
X133026510Y-143143906D01*
X132964633Y-143320737D01*
X132964630Y-143320750D01*
X132944435Y-143499996D01*
X132944435Y-143500003D01*
X132964630Y-143679249D01*
X132964633Y-143679262D01*
X133026510Y-143856094D01*
X133024364Y-143856844D01*
X133033962Y-143915144D01*
X133025609Y-143943590D01*
X133026510Y-143943906D01*
X132964633Y-144120737D01*
X132964630Y-144120750D01*
X132944435Y-144299996D01*
X132944435Y-144300003D01*
X132964630Y-144479249D01*
X132964633Y-144479262D01*
X133026510Y-144656094D01*
X133024364Y-144656844D01*
X133033962Y-144715144D01*
X133025609Y-144743590D01*
X133026510Y-144743906D01*
X132964633Y-144920737D01*
X132964630Y-144920750D01*
X132944435Y-145099996D01*
X132944435Y-145100003D01*
X132964630Y-145279249D01*
X132964633Y-145279262D01*
X133026510Y-145456094D01*
X133024364Y-145456844D01*
X133033962Y-145515144D01*
X133025609Y-145543590D01*
X133026510Y-145543906D01*
X132964633Y-145720737D01*
X132964630Y-145720750D01*
X132944435Y-145899996D01*
X132944435Y-145900003D01*
X132964630Y-146079249D01*
X132964633Y-146079262D01*
X133026510Y-146256094D01*
X133024364Y-146256844D01*
X133033962Y-146315144D01*
X133025609Y-146343590D01*
X133026510Y-146343906D01*
X132964633Y-146520737D01*
X132964630Y-146520750D01*
X132944435Y-146699996D01*
X132944435Y-146700003D01*
X132964630Y-146879249D01*
X132964633Y-146879262D01*
X133026510Y-147056094D01*
X133024364Y-147056844D01*
X133033962Y-147115144D01*
X133025609Y-147143590D01*
X133026510Y-147143906D01*
X132964633Y-147320737D01*
X132964630Y-147320750D01*
X132944435Y-147499996D01*
X132944435Y-147500003D01*
X132964630Y-147679249D01*
X132964631Y-147679254D01*
X133024211Y-147849523D01*
X133079344Y-147937266D01*
X133120184Y-148002262D01*
X133247738Y-148129816D01*
X133338080Y-148186582D01*
X133400474Y-148225787D01*
X133400478Y-148225789D01*
X133570745Y-148285368D01*
X133570750Y-148285369D01*
X133749996Y-148305565D01*
X133750000Y-148305565D01*
X133750004Y-148305565D01*
X133929249Y-148285369D01*
X133929252Y-148285368D01*
X133929255Y-148285368D01*
X134099522Y-148225789D01*
X134099524Y-148225787D01*
X134099526Y-148225787D01*
X134258159Y-148126111D01*
X134259090Y-148127594D01*
X134302540Y-148107413D01*
X134313313Y-148105269D01*
X134332452Y-148101463D01*
X134377916Y-148082631D01*
X134446286Y-148054312D01*
X134503675Y-148015965D01*
X134548733Y-147985858D01*
X134635858Y-147898733D01*
X134635858Y-147898731D01*
X134646066Y-147888524D01*
X134646067Y-147888521D01*
X135247772Y-147286818D01*
X135309095Y-147253333D01*
X135335453Y-147250499D01*
X135497871Y-147250499D01*
X135497872Y-147250499D01*
X135557483Y-147244091D01*
X135692331Y-147193796D01*
X135807546Y-147107546D01*
X135893796Y-146992331D01*
X135944091Y-146857483D01*
X135950500Y-146797873D01*
X135950499Y-146277128D01*
X135944091Y-146217517D01*
X135944089Y-146217513D01*
X135943632Y-146213255D01*
X135943632Y-146186745D01*
X135944089Y-146182486D01*
X135944091Y-146182483D01*
X135950500Y-146122873D01*
X135950499Y-145777128D01*
X135944091Y-145717517D01*
X135944089Y-145717513D01*
X135943632Y-145713255D01*
X135943632Y-145686745D01*
X135944089Y-145682486D01*
X135944091Y-145682483D01*
X135950500Y-145622873D01*
X135950499Y-145277128D01*
X135944091Y-145217517D01*
X135944089Y-145217513D01*
X135943632Y-145213255D01*
X135943632Y-145186745D01*
X135944089Y-145182486D01*
X135944091Y-145182483D01*
X135950500Y-145122873D01*
X135950499Y-144868872D01*
X142999500Y-144868872D01*
X142999500Y-145131127D01*
X143011100Y-145219230D01*
X143033730Y-145391116D01*
X143095829Y-145622873D01*
X143101602Y-145644418D01*
X143101605Y-145644428D01*
X143201953Y-145886690D01*
X143201958Y-145886700D01*
X143333075Y-146113803D01*
X143492718Y-146321851D01*
X143492726Y-146321860D01*
X143678140Y-146507274D01*
X143678148Y-146507281D01*
X143678149Y-146507282D01*
X143695684Y-146520737D01*
X143886196Y-146666924D01*
X144113299Y-146798041D01*
X144113309Y-146798046D01*
X144355571Y-146898394D01*
X144355581Y-146898398D01*
X144608884Y-146966270D01*
X144868880Y-147000500D01*
X144868887Y-147000500D01*
X145131113Y-147000500D01*
X145131120Y-147000500D01*
X145391116Y-146966270D01*
X145644419Y-146898398D01*
X145886697Y-146798043D01*
X146113803Y-146666924D01*
X146321851Y-146507282D01*
X146321855Y-146507277D01*
X146321860Y-146507274D01*
X146507274Y-146321860D01*
X146507277Y-146321855D01*
X146507282Y-146321851D01*
X146666924Y-146113803D01*
X146798043Y-145886697D01*
X146898398Y-145644419D01*
X146966270Y-145391116D01*
X147000500Y-145131120D01*
X147000500Y-144868880D01*
X146966270Y-144608884D01*
X146898398Y-144355581D01*
X146875374Y-144299996D01*
X146798046Y-144113309D01*
X146798041Y-144113299D01*
X146666924Y-143886196D01*
X146513878Y-143686745D01*
X146507282Y-143678149D01*
X146507281Y-143678148D01*
X146507274Y-143678140D01*
X146321860Y-143492726D01*
X146321851Y-143492718D01*
X146113803Y-143333075D01*
X145886700Y-143201958D01*
X145886690Y-143201953D01*
X145644428Y-143101605D01*
X145644421Y-143101603D01*
X145644419Y-143101602D01*
X145391116Y-143033730D01*
X145333339Y-143026123D01*
X145131127Y-142999500D01*
X145131120Y-142999500D01*
X144868880Y-142999500D01*
X144868872Y-142999500D01*
X144637772Y-143029926D01*
X144608884Y-143033730D01*
X144361560Y-143100000D01*
X144355581Y-143101602D01*
X144355571Y-143101605D01*
X144113309Y-143201953D01*
X144113299Y-143201958D01*
X143886196Y-143333075D01*
X143678148Y-143492718D01*
X143492718Y-143678148D01*
X143333075Y-143886196D01*
X143201958Y-144113299D01*
X143201953Y-144113309D01*
X143101605Y-144355571D01*
X143101602Y-144355581D01*
X143033730Y-144608884D01*
X143031888Y-144622873D01*
X142999500Y-144868872D01*
X135950499Y-144868872D01*
X135950499Y-144777128D01*
X135944091Y-144717517D01*
X135944089Y-144717513D01*
X135943632Y-144713255D01*
X135943632Y-144686745D01*
X135944089Y-144682486D01*
X135944091Y-144682483D01*
X135950500Y-144622873D01*
X135950499Y-144277128D01*
X135944091Y-144217517D01*
X135944089Y-144217513D01*
X135943632Y-144213255D01*
X135943632Y-144186745D01*
X135944089Y-144182486D01*
X135944091Y-144182483D01*
X135950500Y-144122873D01*
X135950499Y-143777128D01*
X135944091Y-143717517D01*
X135944089Y-143717513D01*
X135943632Y-143713255D01*
X135943632Y-143686745D01*
X135944089Y-143682486D01*
X135944091Y-143682483D01*
X135950500Y-143622873D01*
X135950499Y-143277128D01*
X135944091Y-143217517D01*
X135944089Y-143217513D01*
X135943632Y-143213255D01*
X135943632Y-143186745D01*
X135944089Y-143182486D01*
X135944091Y-143182483D01*
X135950500Y-143122873D01*
X135950499Y-142602128D01*
X135944091Y-142542517D01*
X135943378Y-142540606D01*
X135893797Y-142407671D01*
X135893793Y-142407664D01*
X135807547Y-142292455D01*
X135807544Y-142292452D01*
X135692335Y-142206206D01*
X135692328Y-142206202D01*
X135557482Y-142155908D01*
X135557483Y-142155908D01*
X135497883Y-142149501D01*
X135497881Y-142149500D01*
X135497873Y-142149500D01*
X135497865Y-142149500D01*
X135422952Y-142149500D01*
X135355913Y-142129815D01*
X135335271Y-142113181D01*
X134730428Y-141508338D01*
X134730425Y-141508334D01*
X134730425Y-141508335D01*
X134723358Y-141501268D01*
X134723358Y-141501267D01*
X134636233Y-141414142D01*
X134636232Y-141414141D01*
X134636231Y-141414140D01*
X134568274Y-141368733D01*
X134533786Y-141345688D01*
X134533781Y-141345686D01*
X134532158Y-141344818D01*
X134531464Y-141344137D01*
X134528720Y-141342303D01*
X134529067Y-141341782D01*
X134482312Y-141295857D01*
X134466850Y-141227720D01*
X134490680Y-141162039D01*
X134502920Y-141147785D01*
X135363887Y-140286819D01*
X135425210Y-140253334D01*
X135451568Y-140250500D01*
X138486607Y-140250500D01*
X138547029Y-140238481D01*
X138607452Y-140226463D01*
X138607455Y-140226461D01*
X138607458Y-140226461D01*
X138640787Y-140212654D01*
X138640786Y-140212654D01*
X138640792Y-140212652D01*
X138721286Y-140179312D01*
X138793796Y-140130861D01*
X138823733Y-140110858D01*
X138910858Y-140023733D01*
X138910859Y-140023731D01*
X138917925Y-140016665D01*
X138917928Y-140016661D01*
X138983379Y-139951209D01*
X139044700Y-139917726D01*
X139057156Y-139915674D01*
X139104255Y-139910368D01*
X139104258Y-139910367D01*
X139262006Y-139855169D01*
X139331785Y-139851607D01*
X139392412Y-139886335D01*
X139424640Y-139948329D01*
X139426181Y-139958321D01*
X139427131Y-139966752D01*
X139427131Y-139966754D01*
X139486711Y-140137023D01*
X139550462Y-140238481D01*
X139582684Y-140289762D01*
X139710238Y-140417316D01*
X139757267Y-140446866D01*
X139851910Y-140506335D01*
X139862978Y-140513289D01*
X140028275Y-140571129D01*
X140033245Y-140572868D01*
X140033250Y-140572869D01*
X140212496Y-140593065D01*
X140212500Y-140593065D01*
X140212504Y-140593065D01*
X140391749Y-140572869D01*
X140391752Y-140572868D01*
X140391755Y-140572868D01*
X140562022Y-140513289D01*
X140714762Y-140417316D01*
X140842316Y-140289762D01*
X140938289Y-140137022D01*
X140997868Y-139966755D01*
X141003172Y-139919676D01*
X141030237Y-139855264D01*
X141038699Y-139845890D01*
X141145858Y-139738733D01*
X141214312Y-139636285D01*
X141244504Y-139563394D01*
X141261463Y-139522452D01*
X141265451Y-139502402D01*
X141284003Y-139409138D01*
X141285501Y-139401607D01*
X141285501Y-139273283D01*
X141285500Y-139273257D01*
X141285500Y-137844503D01*
X141305185Y-137777464D01*
X141357989Y-137731709D01*
X141427147Y-137721765D01*
X141474206Y-137739800D01*
X141474394Y-137739449D01*
X141477193Y-137740945D01*
X141478401Y-137741408D01*
X141479765Y-137742320D01*
X141479769Y-137742322D01*
X141652749Y-137813973D01*
X141806235Y-137844503D01*
X141836379Y-137850499D01*
X141836383Y-137850500D01*
X141836384Y-137850500D01*
X142023617Y-137850500D01*
X142023618Y-137850499D01*
X142207251Y-137813973D01*
X142380231Y-137742322D01*
X142384531Y-137739449D01*
X142496109Y-137664895D01*
X142562786Y-137644017D01*
X142630167Y-137662501D01*
X142633891Y-137664895D01*
X142749762Y-137742318D01*
X142749766Y-137742320D01*
X142749769Y-137742322D01*
X142922749Y-137813973D01*
X143076235Y-137844503D01*
X143106379Y-137850499D01*
X143106383Y-137850500D01*
X143106384Y-137850500D01*
X143293617Y-137850500D01*
X143293618Y-137850499D01*
X143477251Y-137813973D01*
X143650231Y-137742322D01*
X143654531Y-137739449D01*
X143766109Y-137664895D01*
X143832786Y-137644017D01*
X143900167Y-137662501D01*
X143903891Y-137664895D01*
X144019762Y-137742318D01*
X144019766Y-137742320D01*
X144019769Y-137742322D01*
X144192749Y-137813973D01*
X144346235Y-137844503D01*
X144376379Y-137850499D01*
X144376383Y-137850500D01*
X144376384Y-137850500D01*
X144563617Y-137850500D01*
X144563618Y-137850499D01*
X144747251Y-137813973D01*
X144920231Y-137742322D01*
X145075908Y-137638302D01*
X145208302Y-137505908D01*
X145312322Y-137350231D01*
X145312324Y-137350224D01*
X145315192Y-137344861D01*
X145316707Y-137345671D01*
X145355411Y-137297644D01*
X145421706Y-137275579D01*
X145426131Y-137275500D01*
X145877623Y-137275500D01*
X145938045Y-137263481D01*
X145998468Y-137251463D01*
X146037006Y-137235500D01*
X146112302Y-137204312D01*
X146163525Y-137170084D01*
X146214749Y-137135858D01*
X146301874Y-137048733D01*
X146301874Y-137048731D01*
X146312082Y-137038524D01*
X146312083Y-137038521D01*
X149410857Y-133939750D01*
X149415821Y-133932322D01*
X149448287Y-133883733D01*
X149472398Y-133847649D01*
X149526010Y-133802843D01*
X149595335Y-133794136D01*
X149658362Y-133824290D01*
X149695082Y-133883733D01*
X149699500Y-133916539D01*
X149699500Y-144997293D01*
X149699382Y-145002702D01*
X149681853Y-145404181D01*
X149680910Y-145414957D01*
X149628811Y-145810685D01*
X149626933Y-145821339D01*
X149540538Y-146211039D01*
X149537738Y-146221487D01*
X149417713Y-146602159D01*
X149414013Y-146612325D01*
X149261263Y-146981096D01*
X149256691Y-146990900D01*
X149072388Y-147344942D01*
X149066980Y-147354310D01*
X148852511Y-147690959D01*
X148846306Y-147699820D01*
X148603319Y-148016487D01*
X148596365Y-148024774D01*
X148326705Y-148319056D01*
X148319056Y-148326705D01*
X148024774Y-148596365D01*
X148016487Y-148603319D01*
X147699820Y-148846306D01*
X147690959Y-148852511D01*
X147354310Y-149066980D01*
X147344942Y-149072388D01*
X146990900Y-149256691D01*
X146981096Y-149261263D01*
X146612325Y-149414013D01*
X146602159Y-149417713D01*
X146221487Y-149537738D01*
X146211039Y-149540538D01*
X145821339Y-149626933D01*
X145810685Y-149628811D01*
X145414957Y-149680910D01*
X145404181Y-149681853D01*
X145002703Y-149699382D01*
X144997294Y-149699500D01*
X130569049Y-149699500D01*
X130502010Y-149679815D01*
X130456255Y-149627011D01*
X130446311Y-149557853D01*
X130475336Y-149494297D01*
X130481368Y-149487819D01*
X130540045Y-149429141D01*
X130540047Y-149429139D01*
X130670568Y-149242734D01*
X130766739Y-149036496D01*
X130825635Y-148816692D01*
X130845468Y-148590000D01*
X130825635Y-148363308D01*
X130766739Y-148143504D01*
X130670568Y-147937266D01*
X130540047Y-147750861D01*
X130540045Y-147750858D01*
X130379141Y-147589954D01*
X130192734Y-147459432D01*
X130192732Y-147459431D01*
X129986497Y-147363261D01*
X129986488Y-147363258D01*
X129766697Y-147304366D01*
X129766693Y-147304365D01*
X129766692Y-147304365D01*
X129766691Y-147304364D01*
X129766686Y-147304364D01*
X129540002Y-147284532D01*
X129539998Y-147284532D01*
X129313313Y-147304364D01*
X129313302Y-147304366D01*
X129093511Y-147363258D01*
X129093502Y-147363261D01*
X128887267Y-147459431D01*
X128887265Y-147459432D01*
X128700858Y-147589954D01*
X128539954Y-147750858D01*
X128409432Y-147937265D01*
X128409431Y-147937267D01*
X128382382Y-147995275D01*
X128336209Y-148047714D01*
X128269016Y-148066866D01*
X128202135Y-148046650D01*
X128157618Y-147995275D01*
X128130568Y-147937267D01*
X128130567Y-147937265D01*
X128096434Y-147888518D01*
X128000047Y-147750861D01*
X128000045Y-147750858D01*
X127839141Y-147589954D01*
X127652734Y-147459432D01*
X127652732Y-147459431D01*
X127446497Y-147363261D01*
X127446488Y-147363258D01*
X127226697Y-147304366D01*
X127226693Y-147304365D01*
X127226692Y-147304365D01*
X127226691Y-147304364D01*
X127226686Y-147304364D01*
X127000002Y-147284532D01*
X126999998Y-147284532D01*
X126773313Y-147304364D01*
X126773302Y-147304366D01*
X126553511Y-147363258D01*
X126553502Y-147363261D01*
X126347267Y-147459431D01*
X126347265Y-147459432D01*
X126160858Y-147589954D01*
X125999954Y-147750858D01*
X125869432Y-147937265D01*
X125869431Y-147937267D01*
X125842382Y-147995275D01*
X125796209Y-148047714D01*
X125729016Y-148066866D01*
X125662135Y-148046650D01*
X125617618Y-147995275D01*
X125590568Y-147937267D01*
X125590567Y-147937265D01*
X125556434Y-147888518D01*
X125460047Y-147750861D01*
X125460045Y-147750858D01*
X125299141Y-147589954D01*
X125112734Y-147459432D01*
X125112732Y-147459431D01*
X124906497Y-147363261D01*
X124906488Y-147363258D01*
X124686697Y-147304366D01*
X124686693Y-147304365D01*
X124686692Y-147304365D01*
X124686691Y-147304364D01*
X124686686Y-147304364D01*
X124460002Y-147284532D01*
X124459998Y-147284532D01*
X124233313Y-147304364D01*
X124233302Y-147304366D01*
X124013511Y-147363258D01*
X124013502Y-147363261D01*
X123807267Y-147459431D01*
X123807265Y-147459432D01*
X123620858Y-147589954D01*
X123459954Y-147750858D01*
X123329432Y-147937265D01*
X123329431Y-147937267D01*
X123302382Y-147995275D01*
X123256209Y-148047714D01*
X123189016Y-148066866D01*
X123122135Y-148046650D01*
X123077618Y-147995275D01*
X123050568Y-147937267D01*
X123050567Y-147937265D01*
X123016434Y-147888518D01*
X122920047Y-147750861D01*
X122920045Y-147750858D01*
X122759141Y-147589954D01*
X122572734Y-147459432D01*
X122572732Y-147459431D01*
X122366497Y-147363261D01*
X122366488Y-147363258D01*
X122146697Y-147304366D01*
X122146693Y-147304365D01*
X122146692Y-147304365D01*
X122146691Y-147304364D01*
X122146686Y-147304364D01*
X121920002Y-147284532D01*
X121919998Y-147284532D01*
X121693313Y-147304364D01*
X121693302Y-147304366D01*
X121473511Y-147363258D01*
X121473502Y-147363261D01*
X121267267Y-147459431D01*
X121267265Y-147459432D01*
X121080858Y-147589954D01*
X120919954Y-147750858D01*
X120789432Y-147937265D01*
X120789431Y-147937267D01*
X120762382Y-147995275D01*
X120716209Y-148047714D01*
X120649016Y-148066866D01*
X120582135Y-148046650D01*
X120537618Y-147995275D01*
X120510568Y-147937267D01*
X120510567Y-147937265D01*
X120476434Y-147888518D01*
X120380047Y-147750861D01*
X120380045Y-147750858D01*
X120219141Y-147589954D01*
X120032734Y-147459432D01*
X120032732Y-147459431D01*
X119826497Y-147363261D01*
X119826488Y-147363258D01*
X119606697Y-147304366D01*
X119606693Y-147304365D01*
X119606692Y-147304365D01*
X119606691Y-147304364D01*
X119606686Y-147304364D01*
X119380002Y-147284532D01*
X119379998Y-147284532D01*
X119153313Y-147304364D01*
X119153302Y-147304366D01*
X118933511Y-147363258D01*
X118933502Y-147363261D01*
X118727267Y-147459431D01*
X118727265Y-147459432D01*
X118540858Y-147589954D01*
X118379954Y-147750858D01*
X118249432Y-147937265D01*
X118249431Y-147937267D01*
X118222382Y-147995275D01*
X118176209Y-148047714D01*
X118109016Y-148066866D01*
X118042135Y-148046650D01*
X117997618Y-147995275D01*
X117970568Y-147937267D01*
X117970567Y-147937265D01*
X117936434Y-147888518D01*
X117840047Y-147750861D01*
X117840045Y-147750858D01*
X117679141Y-147589954D01*
X117492734Y-147459432D01*
X117492732Y-147459431D01*
X117286497Y-147363261D01*
X117286488Y-147363258D01*
X117066697Y-147304366D01*
X117066693Y-147304365D01*
X117066692Y-147304365D01*
X117066691Y-147304364D01*
X117066686Y-147304364D01*
X116840002Y-147284532D01*
X116839998Y-147284532D01*
X116613313Y-147304364D01*
X116613302Y-147304366D01*
X116393511Y-147363258D01*
X116393502Y-147363261D01*
X116187267Y-147459431D01*
X116187265Y-147459432D01*
X116000858Y-147589954D01*
X115839954Y-147750858D01*
X115709432Y-147937265D01*
X115709431Y-147937267D01*
X115682382Y-147995275D01*
X115636209Y-148047714D01*
X115569016Y-148066866D01*
X115502135Y-148046650D01*
X115457618Y-147995275D01*
X115430568Y-147937267D01*
X115430567Y-147937265D01*
X115396434Y-147888518D01*
X115300047Y-147750861D01*
X115300045Y-147750858D01*
X115139141Y-147589954D01*
X114952734Y-147459432D01*
X114952732Y-147459431D01*
X114746497Y-147363261D01*
X114746488Y-147363258D01*
X114526697Y-147304366D01*
X114526693Y-147304365D01*
X114526692Y-147304365D01*
X114526691Y-147304364D01*
X114526686Y-147304364D01*
X114300002Y-147284532D01*
X114299998Y-147284532D01*
X114073313Y-147304364D01*
X114073302Y-147304366D01*
X113853511Y-147363258D01*
X113853502Y-147363261D01*
X113647267Y-147459431D01*
X113647265Y-147459432D01*
X113460858Y-147589954D01*
X113299954Y-147750858D01*
X113169432Y-147937265D01*
X113169431Y-147937267D01*
X113142382Y-147995275D01*
X113096209Y-148047714D01*
X113029016Y-148066866D01*
X112962135Y-148046650D01*
X112917618Y-147995275D01*
X112890568Y-147937267D01*
X112890567Y-147937265D01*
X112856434Y-147888518D01*
X112760047Y-147750861D01*
X112760045Y-147750858D01*
X112599141Y-147589954D01*
X112412734Y-147459432D01*
X112412732Y-147459431D01*
X112206497Y-147363261D01*
X112206488Y-147363258D01*
X111986697Y-147304366D01*
X111986693Y-147304365D01*
X111986692Y-147304365D01*
X111986691Y-147304364D01*
X111986686Y-147304364D01*
X111760002Y-147284532D01*
X111759998Y-147284532D01*
X111533313Y-147304364D01*
X111533302Y-147304366D01*
X111313511Y-147363258D01*
X111313502Y-147363261D01*
X111107267Y-147459431D01*
X111107265Y-147459432D01*
X110920858Y-147589954D01*
X110759954Y-147750858D01*
X110629432Y-147937265D01*
X110629431Y-147937267D01*
X110533261Y-148143502D01*
X110533258Y-148143511D01*
X110474366Y-148363302D01*
X110474364Y-148363313D01*
X110454532Y-148589998D01*
X110454532Y-148590001D01*
X110474364Y-148816686D01*
X110474366Y-148816697D01*
X110533258Y-149036488D01*
X110533261Y-149036497D01*
X110629431Y-149242732D01*
X110629432Y-149242734D01*
X110759954Y-149429141D01*
X110818632Y-149487819D01*
X110852117Y-149549142D01*
X110847133Y-149618834D01*
X110805261Y-149674767D01*
X110739797Y-149699184D01*
X110730951Y-149699500D01*
X55002706Y-149699500D01*
X54997297Y-149699382D01*
X54595818Y-149681853D01*
X54585042Y-149680910D01*
X54189314Y-149628811D01*
X54178660Y-149626933D01*
X53788960Y-149540538D01*
X53778512Y-149537738D01*
X53397840Y-149417713D01*
X53387674Y-149414013D01*
X53018903Y-149261263D01*
X53009099Y-149256691D01*
X52655057Y-149072388D01*
X52645689Y-149066980D01*
X52309040Y-148852511D01*
X52300179Y-148846306D01*
X51983512Y-148603319D01*
X51975225Y-148596365D01*
X51680943Y-148326705D01*
X51673294Y-148319056D01*
X51403634Y-148024774D01*
X51396680Y-148016487D01*
X51153693Y-147699820D01*
X51147488Y-147690959D01*
X50933019Y-147354310D01*
X50927611Y-147344942D01*
X50919808Y-147329952D01*
X50743305Y-146990893D01*
X50738736Y-146981096D01*
X50732595Y-146966270D01*
X50585982Y-146612315D01*
X50582286Y-146602159D01*
X50556616Y-146520745D01*
X50462260Y-146221483D01*
X50459461Y-146211039D01*
X50390504Y-145899996D01*
X50373064Y-145821331D01*
X50371188Y-145810685D01*
X50319087Y-145414937D01*
X50318147Y-145404202D01*
X50300618Y-145002702D01*
X50300500Y-144997293D01*
X50300500Y-144868872D01*
X52999500Y-144868872D01*
X52999500Y-145131127D01*
X53011100Y-145219230D01*
X53033730Y-145391116D01*
X53095829Y-145622873D01*
X53101602Y-145644418D01*
X53101605Y-145644428D01*
X53201953Y-145886690D01*
X53201958Y-145886700D01*
X53333075Y-146113803D01*
X53492718Y-146321851D01*
X53492726Y-146321860D01*
X53678140Y-146507274D01*
X53678148Y-146507281D01*
X53678149Y-146507282D01*
X53695684Y-146520737D01*
X53886196Y-146666924D01*
X54113299Y-146798041D01*
X54113309Y-146798046D01*
X54355571Y-146898394D01*
X54355581Y-146898398D01*
X54608884Y-146966270D01*
X54868880Y-147000500D01*
X54868887Y-147000500D01*
X55131113Y-147000500D01*
X55131120Y-147000500D01*
X55391116Y-146966270D01*
X55644419Y-146898398D01*
X55886697Y-146798043D01*
X56113803Y-146666924D01*
X56321851Y-146507282D01*
X56321855Y-146507277D01*
X56321860Y-146507274D01*
X56507274Y-146321860D01*
X56507277Y-146321855D01*
X56507282Y-146321851D01*
X56666924Y-146113803D01*
X56798043Y-145886697D01*
X56898398Y-145644419D01*
X56966270Y-145391116D01*
X57000500Y-145131120D01*
X57000500Y-144868880D01*
X56966270Y-144608884D01*
X56898398Y-144355581D01*
X56875374Y-144299996D01*
X56798046Y-144113309D01*
X56798041Y-144113299D01*
X56666924Y-143886196D01*
X56513878Y-143686745D01*
X56507282Y-143678149D01*
X56507281Y-143678148D01*
X56507274Y-143678140D01*
X56321860Y-143492726D01*
X56321851Y-143492718D01*
X56113803Y-143333075D01*
X55886700Y-143201958D01*
X55886690Y-143201953D01*
X55644428Y-143101605D01*
X55644421Y-143101603D01*
X55644419Y-143101602D01*
X55391116Y-143033730D01*
X55333339Y-143026123D01*
X55131127Y-142999500D01*
X55131120Y-142999500D01*
X54868880Y-142999500D01*
X54868872Y-142999500D01*
X54637772Y-143029926D01*
X54608884Y-143033730D01*
X54361560Y-143100000D01*
X54355581Y-143101602D01*
X54355571Y-143101605D01*
X54113309Y-143201953D01*
X54113299Y-143201958D01*
X53886196Y-143333075D01*
X53678148Y-143492718D01*
X53492718Y-143678148D01*
X53333075Y-143886196D01*
X53201958Y-144113299D01*
X53201953Y-144113309D01*
X53101605Y-144355571D01*
X53101602Y-144355581D01*
X53033730Y-144608884D01*
X53031888Y-144622873D01*
X52999500Y-144868872D01*
X50300500Y-144868872D01*
X50300500Y-55002706D01*
X50300618Y-54997297D01*
X50302227Y-54960438D01*
X50306225Y-54868872D01*
X52999500Y-54868872D01*
X52999500Y-55131127D01*
X53026123Y-55333339D01*
X53033730Y-55391116D01*
X53101602Y-55644418D01*
X53101605Y-55644428D01*
X53201953Y-55886690D01*
X53201958Y-55886700D01*
X53333075Y-56113803D01*
X53492718Y-56321851D01*
X53492726Y-56321860D01*
X53678140Y-56507274D01*
X53678148Y-56507281D01*
X53886196Y-56666924D01*
X54113299Y-56798041D01*
X54113309Y-56798046D01*
X54355571Y-56898394D01*
X54355581Y-56898398D01*
X54608884Y-56966270D01*
X54868880Y-57000500D01*
X54868887Y-57000500D01*
X55131113Y-57000500D01*
X55131120Y-57000500D01*
X55391116Y-56966270D01*
X55644419Y-56898398D01*
X55886697Y-56798043D01*
X56113803Y-56666924D01*
X56321851Y-56507282D01*
X56321855Y-56507277D01*
X56321860Y-56507274D01*
X56507274Y-56321860D01*
X56507277Y-56321855D01*
X56507282Y-56321851D01*
X56666924Y-56113803D01*
X56798043Y-55886697D01*
X56898398Y-55644419D01*
X56966270Y-55391116D01*
X57000500Y-55131120D01*
X57000500Y-54868880D01*
X56966270Y-54608884D01*
X56898398Y-54355581D01*
X56849642Y-54237873D01*
X56798046Y-54113309D01*
X56798041Y-54113299D01*
X56666924Y-53886196D01*
X56507281Y-53678148D01*
X56507274Y-53678140D01*
X56321860Y-53492726D01*
X56321851Y-53492718D01*
X56113803Y-53333075D01*
X55886700Y-53201958D01*
X55886690Y-53201953D01*
X55644428Y-53101605D01*
X55644421Y-53101603D01*
X55644419Y-53101602D01*
X55391116Y-53033730D01*
X55333339Y-53026123D01*
X55131127Y-52999500D01*
X55131120Y-52999500D01*
X54868880Y-52999500D01*
X54868872Y-52999500D01*
X54637772Y-53029926D01*
X54608884Y-53033730D01*
X54467629Y-53071579D01*
X54355581Y-53101602D01*
X54355571Y-53101605D01*
X54113309Y-53201953D01*
X54113299Y-53201958D01*
X53886196Y-53333075D01*
X53678148Y-53492718D01*
X53492718Y-53678148D01*
X53333075Y-53886196D01*
X53201958Y-54113299D01*
X53201953Y-54113309D01*
X53101605Y-54355571D01*
X53101602Y-54355581D01*
X53033730Y-54608884D01*
X53033069Y-54613903D01*
X52999500Y-54868872D01*
X50306225Y-54868872D01*
X50318147Y-54595795D01*
X50319087Y-54585064D01*
X50371189Y-54189302D01*
X50373063Y-54178672D01*
X50459463Y-53788950D01*
X50462261Y-53778512D01*
X50582291Y-53397823D01*
X50585979Y-53387691D01*
X50738742Y-53018888D01*
X50743300Y-53009114D01*
X50927617Y-52655045D01*
X50933012Y-52645700D01*
X51147495Y-52309029D01*
X51153685Y-52300189D01*
X51396687Y-51983503D01*
X51403625Y-51975234D01*
X51673304Y-51680932D01*
X51680932Y-51673304D01*
X51975234Y-51403625D01*
X51983503Y-51396687D01*
X52300189Y-51153685D01*
X52309029Y-51147495D01*
X52645700Y-50933012D01*
X52655045Y-50927617D01*
X53009114Y-50743300D01*
X53018888Y-50738742D01*
X53387691Y-50585979D01*
X53397823Y-50582291D01*
X53778521Y-50462258D01*
X53788950Y-50459463D01*
X54178672Y-50373063D01*
X54189302Y-50371189D01*
X54585064Y-50319087D01*
X54595795Y-50318147D01*
X54997297Y-50300617D01*
X55002706Y-50300500D01*
X55047595Y-50300500D01*
X62995217Y-50300500D01*
X63062256Y-50320185D01*
G37*
G04 #@! TD.AperFunction*
G04 #@! TA.AperFunction,Conductor*
G36*
X139652617Y-136195185D02*
G01*
X139698372Y-136247989D01*
X139707088Y-136300292D01*
X139709500Y-136300292D01*
X139709500Y-136993620D01*
X139746025Y-137177243D01*
X139746027Y-137177251D01*
X139817676Y-137350228D01*
X139817681Y-137350237D01*
X139921696Y-137505906D01*
X139921697Y-137505907D01*
X139921698Y-137505908D01*
X139998182Y-137582392D01*
X140031666Y-137643713D01*
X140034500Y-137670072D01*
X140034500Y-138913709D01*
X140014815Y-138980748D01*
X139962011Y-139026503D01*
X139951456Y-139030750D01*
X139875494Y-139057331D01*
X139805715Y-139060894D01*
X139745087Y-139026165D01*
X139712860Y-138964172D01*
X139711317Y-138954171D01*
X139710368Y-138945745D01*
X139650789Y-138775478D01*
X139554816Y-138622738D01*
X139427262Y-138495184D01*
X139274523Y-138399211D01*
X139104254Y-138339631D01*
X139104249Y-138339630D01*
X138925004Y-138319435D01*
X138924996Y-138319435D01*
X138745747Y-138339631D01*
X138671843Y-138365491D01*
X138602064Y-138369052D01*
X138543208Y-138336130D01*
X138527262Y-138320184D01*
X138374523Y-138224211D01*
X138204254Y-138164631D01*
X138204249Y-138164630D01*
X138042844Y-138146445D01*
X137978430Y-138119379D01*
X137938874Y-138061784D01*
X137936737Y-137991947D01*
X137969046Y-137935544D01*
X138017773Y-137886818D01*
X138079096Y-137853334D01*
X138105453Y-137850500D01*
X138213617Y-137850500D01*
X138213618Y-137850499D01*
X138397251Y-137813973D01*
X138570231Y-137742322D01*
X138725908Y-137638302D01*
X138858302Y-137505908D01*
X138962322Y-137350231D01*
X139033973Y-137177251D01*
X139070500Y-136993616D01*
X139070500Y-136306384D01*
X139070500Y-136300292D01*
X139073174Y-136300292D01*
X139084038Y-136243007D01*
X139132103Y-136192297D01*
X139194422Y-136175500D01*
X139585578Y-136175500D01*
X139652617Y-136195185D01*
G37*
G04 #@! TD.AperFunction*
G04 #@! TA.AperFunction,Conductor*
G36*
X130901257Y-65048786D02*
G01*
X130921899Y-65065420D01*
X137063181Y-71206702D01*
X137096666Y-71268025D01*
X137099500Y-71294383D01*
X137099500Y-114838550D01*
X137079815Y-114905589D01*
X137027011Y-114951344D01*
X136957853Y-114961288D01*
X136911350Y-114944667D01*
X136889606Y-114931522D01*
X136806382Y-114905589D01*
X136727196Y-114880914D01*
X136727194Y-114880913D01*
X136727192Y-114880913D01*
X136677778Y-114876423D01*
X136656616Y-114874500D01*
X136143384Y-114874500D01*
X136124145Y-114876248D01*
X136072807Y-114880913D01*
X135910393Y-114931522D01*
X135764811Y-115019530D01*
X135764810Y-115019531D01*
X135662681Y-115121661D01*
X135601358Y-115155146D01*
X135531666Y-115150162D01*
X135487319Y-115121661D01*
X135385188Y-115019530D01*
X135239606Y-114931522D01*
X135156382Y-114905589D01*
X135077196Y-114880914D01*
X135077194Y-114880913D01*
X135077192Y-114880913D01*
X135027778Y-114876423D01*
X135006616Y-114874500D01*
X134493384Y-114874500D01*
X134474145Y-114876248D01*
X134422807Y-114880913D01*
X134260393Y-114931522D01*
X134114811Y-115019530D01*
X133994531Y-115139810D01*
X133994528Y-115139814D01*
X133979514Y-115164651D01*
X133927986Y-115211838D01*
X133873398Y-115224500D01*
X133771416Y-115224500D01*
X133730461Y-115217541D01*
X133579262Y-115164633D01*
X133579249Y-115164630D01*
X133400004Y-115144435D01*
X133399996Y-115144435D01*
X133220750Y-115164630D01*
X133220745Y-115164631D01*
X133050476Y-115224211D01*
X132897737Y-115320184D01*
X132770184Y-115447737D01*
X132674211Y-115600476D01*
X132614631Y-115770745D01*
X132614630Y-115770750D01*
X132594435Y-115949996D01*
X132594435Y-115950003D01*
X132614630Y-116129249D01*
X132614631Y-116129254D01*
X132674211Y-116299523D01*
X132761470Y-116438394D01*
X132770184Y-116452262D01*
X132897738Y-116579816D01*
X132988080Y-116636582D01*
X133040513Y-116669528D01*
X133050478Y-116675789D01*
X133144941Y-116708843D01*
X133220745Y-116735368D01*
X133220750Y-116735369D01*
X133399996Y-116755565D01*
X133400000Y-116755565D01*
X133400004Y-116755565D01*
X133579249Y-116735369D01*
X133579252Y-116735368D01*
X133579255Y-116735368D01*
X133749522Y-116675789D01*
X133759487Y-116669528D01*
X133855063Y-116609473D01*
X133922300Y-116590472D01*
X133989135Y-116610839D01*
X134034350Y-116664107D01*
X134043588Y-116733363D01*
X134022227Y-116782681D01*
X134023409Y-116783396D01*
X134019529Y-116789813D01*
X134019528Y-116789815D01*
X134011676Y-116802804D01*
X133931522Y-116935393D01*
X133880913Y-117097807D01*
X133874500Y-117168386D01*
X133874500Y-117831613D01*
X133880913Y-117902192D01*
X133880913Y-117902194D01*
X133880914Y-117902196D01*
X133931522Y-118064606D01*
X134012292Y-118198216D01*
X134030128Y-118265768D01*
X134023217Y-118303319D01*
X133964631Y-118470745D01*
X133964630Y-118470750D01*
X133944435Y-118649996D01*
X133944435Y-118650003D01*
X133964630Y-118829249D01*
X133964631Y-118829254D01*
X134024211Y-118999523D01*
X134039541Y-119023920D01*
X134120184Y-119152262D01*
X134247738Y-119279816D01*
X134400478Y-119375789D01*
X134570745Y-119435368D01*
X134570750Y-119435369D01*
X134749996Y-119455565D01*
X134750000Y-119455565D01*
X134750004Y-119455565D01*
X134929249Y-119435369D01*
X134929252Y-119435368D01*
X134929255Y-119435368D01*
X135099522Y-119375789D01*
X135252262Y-119279816D01*
X135379816Y-119152262D01*
X135475789Y-118999522D01*
X135535368Y-118829255D01*
X135555565Y-118650000D01*
X135555400Y-118648540D01*
X135535369Y-118470750D01*
X135535367Y-118470740D01*
X135502340Y-118376357D01*
X135498777Y-118306578D01*
X135533506Y-118245950D01*
X135595499Y-118213723D01*
X135665075Y-118220127D01*
X135707062Y-118247720D01*
X135789811Y-118330469D01*
X135789813Y-118330470D01*
X135789815Y-118330472D01*
X135935394Y-118418478D01*
X136097804Y-118469086D01*
X136168384Y-118475500D01*
X136168387Y-118475500D01*
X136681613Y-118475500D01*
X136681616Y-118475500D01*
X136752196Y-118469086D01*
X136914606Y-118418478D01*
X136914613Y-118418473D01*
X136921445Y-118415400D01*
X136922404Y-118417531D01*
X136978879Y-118402608D01*
X137045357Y-118424112D01*
X137089656Y-118478143D01*
X137099500Y-118526562D01*
X137099500Y-118648544D01*
X137137481Y-118839488D01*
X137137948Y-118841834D01*
X137137948Y-118841836D01*
X137213364Y-119023907D01*
X137213371Y-119023920D01*
X137322859Y-119187780D01*
X137322860Y-119187781D01*
X137322861Y-119187782D01*
X137462218Y-119327139D01*
X137462219Y-119327139D01*
X137469286Y-119334206D01*
X137469285Y-119334206D01*
X137469289Y-119334209D01*
X138353181Y-120218101D01*
X138386666Y-120279424D01*
X138389500Y-120305782D01*
X138389500Y-121863390D01*
X138369815Y-121930429D01*
X138317011Y-121976184D01*
X138247853Y-121986128D01*
X138241312Y-121985008D01*
X138213617Y-121979500D01*
X138213616Y-121979500D01*
X138026384Y-121979500D01*
X138026379Y-121979500D01*
X137842756Y-122016025D01*
X137842748Y-122016027D01*
X137669771Y-122087676D01*
X137669757Y-122087684D01*
X137553890Y-122165104D01*
X137487213Y-122185982D01*
X137419833Y-122167497D01*
X137416110Y-122165104D01*
X137300242Y-122087684D01*
X137300228Y-122087676D01*
X137127251Y-122016027D01*
X137127243Y-122016025D01*
X136943620Y-121979500D01*
X136943616Y-121979500D01*
X136756384Y-121979500D01*
X136756379Y-121979500D01*
X136572756Y-122016025D01*
X136572748Y-122016027D01*
X136399771Y-122087676D01*
X136399757Y-122087684D01*
X136283890Y-122165104D01*
X136217213Y-122185982D01*
X136149833Y-122167497D01*
X136146110Y-122165104D01*
X136030242Y-122087684D01*
X136030228Y-122087676D01*
X135857251Y-122016027D01*
X135857243Y-122016025D01*
X135673620Y-121979500D01*
X135673616Y-121979500D01*
X135486384Y-121979500D01*
X135486379Y-121979500D01*
X135302756Y-122016025D01*
X135302748Y-122016027D01*
X135129771Y-122087676D01*
X135129762Y-122087681D01*
X134974092Y-122191697D01*
X134974088Y-122191700D01*
X134841700Y-122324088D01*
X134841697Y-122324092D01*
X134737681Y-122479762D01*
X134734808Y-122485139D01*
X134733292Y-122484328D01*
X134694589Y-122532356D01*
X134628294Y-122554421D01*
X134623869Y-122554500D01*
X128047426Y-122554500D01*
X127987008Y-122566518D01*
X127943780Y-122575116D01*
X127926583Y-122578537D01*
X127839445Y-122614632D01*
X127839444Y-122614632D01*
X127812755Y-122625686D01*
X127812753Y-122625687D01*
X127710302Y-122694142D01*
X126333279Y-124071165D01*
X126271956Y-124104650D01*
X126202264Y-124099666D01*
X126157917Y-124071165D01*
X126146820Y-124060068D01*
X126146817Y-124060066D01*
X126075176Y-124015050D01*
X126028885Y-123962715D01*
X126018238Y-123893662D01*
X126046613Y-123829813D01*
X126050568Y-123825374D01*
X126184346Y-123682343D01*
X126961068Y-122794168D01*
X127707679Y-121880536D01*
X128423344Y-120942465D01*
X129107263Y-119981005D01*
X129758673Y-118997228D01*
X130376847Y-117992234D01*
X130961093Y-116967145D01*
X131510760Y-115923106D01*
X132025234Y-114861282D01*
X132503939Y-113782861D01*
X132946342Y-112689046D01*
X133351948Y-111581058D01*
X133720303Y-110460136D01*
X134050998Y-109327532D01*
X134343662Y-108184510D01*
X134597968Y-107032347D01*
X134813633Y-105872329D01*
X134990416Y-104705753D01*
X135128119Y-103533921D01*
X135226588Y-102358143D01*
X135285713Y-101179730D01*
X135305429Y-100000000D01*
X135285713Y-98820270D01*
X135226588Y-97641857D01*
X135128119Y-96466079D01*
X134990416Y-95294247D01*
X134940894Y-94967454D01*
X134813634Y-94127677D01*
X134597970Y-92967665D01*
X134597968Y-92967653D01*
X134343662Y-91815490D01*
X134050998Y-90672468D01*
X133720303Y-89539864D01*
X133351948Y-88418942D01*
X132946342Y-87310954D01*
X132503939Y-86217139D01*
X132025234Y-85138718D01*
X131567771Y-84194559D01*
X131510762Y-84076898D01*
X131501018Y-84058391D01*
X130961093Y-83032855D01*
X130376847Y-82007766D01*
X130073993Y-81515403D01*
X129758670Y-81002767D01*
X129347709Y-80382123D01*
X129107263Y-80018995D01*
X128423344Y-79057535D01*
X127707679Y-78119464D01*
X127707674Y-78119459D01*
X127707665Y-78119446D01*
X126961080Y-77205846D01*
X126961068Y-77205832D01*
X126184346Y-76317657D01*
X126184336Y-76317646D01*
X125378380Y-75455933D01*
X124544066Y-74621619D01*
X123682353Y-73815663D01*
X123235171Y-73424596D01*
X122794168Y-73038932D01*
X122794165Y-73038930D01*
X122794153Y-73038919D01*
X121880553Y-72292334D01*
X121863409Y-72279255D01*
X120942465Y-71576656D01*
X119981005Y-70892737D01*
X119487093Y-70565692D01*
X118997232Y-70241329D01*
X117992243Y-69623158D01*
X116967133Y-69038900D01*
X115923101Y-68489237D01*
X114861297Y-67974773D01*
X114861290Y-67974770D01*
X114861282Y-67974766D01*
X113782861Y-67496061D01*
X113322836Y-67310000D01*
X112689037Y-67053654D01*
X111977432Y-66793154D01*
X111581058Y-66648052D01*
X111581046Y-66648048D01*
X110460141Y-66279698D01*
X109327535Y-65949002D01*
X108184520Y-65656340D01*
X107032334Y-65402029D01*
X106349133Y-65275012D01*
X106286821Y-65243405D01*
X106251488Y-65183128D01*
X106254353Y-65113317D01*
X106294506Y-65056137D01*
X106359199Y-65029743D01*
X106371798Y-65029101D01*
X130834218Y-65029101D01*
X130901257Y-65048786D01*
G37*
G04 #@! TD.AperFunction*
G04 #@! TA.AperFunction,Conductor*
G36*
X145002702Y-50300617D02*
G01*
X145404202Y-50318147D01*
X145414937Y-50319087D01*
X145810693Y-50371189D01*
X145821331Y-50373064D01*
X146211043Y-50459462D01*
X146221483Y-50462260D01*
X146602168Y-50582289D01*
X146612315Y-50585982D01*
X146981102Y-50738739D01*
X146990893Y-50743305D01*
X147344942Y-50927611D01*
X147354310Y-50933019D01*
X147690959Y-51147488D01*
X147699820Y-51153693D01*
X148016487Y-51396680D01*
X148024774Y-51403634D01*
X148319056Y-51673294D01*
X148326705Y-51680943D01*
X148596365Y-51975225D01*
X148603319Y-51983512D01*
X148846306Y-52300179D01*
X148852511Y-52309040D01*
X149066980Y-52645689D01*
X149072388Y-52655057D01*
X149256691Y-53009099D01*
X149261263Y-53018903D01*
X149414013Y-53387674D01*
X149417713Y-53397840D01*
X149537738Y-53778512D01*
X149540538Y-53788960D01*
X149626933Y-54178660D01*
X149628811Y-54189314D01*
X149680910Y-54585042D01*
X149681853Y-54595818D01*
X149699382Y-54997297D01*
X149699500Y-55002706D01*
X149699500Y-122799476D01*
X149679815Y-122866515D01*
X149627011Y-122912270D01*
X149557853Y-122922214D01*
X149494297Y-122893189D01*
X149472399Y-122868369D01*
X149431147Y-122806632D01*
X149410858Y-122776267D01*
X149410855Y-122776264D01*
X149410853Y-122776261D01*
X149320637Y-122686045D01*
X149320606Y-122686016D01*
X146411819Y-119777229D01*
X146378334Y-119715906D01*
X146375500Y-119689548D01*
X146375500Y-113388390D01*
X146375412Y-113387950D01*
X146361633Y-113318680D01*
X146351463Y-113267549D01*
X146304312Y-113153715D01*
X146287256Y-113128190D01*
X146235858Y-113051267D01*
X146235856Y-113051264D01*
X146145637Y-112961045D01*
X146145606Y-112961016D01*
X145926211Y-112741621D01*
X145892726Y-112680298D01*
X145890673Y-112667838D01*
X145885368Y-112620745D01*
X145825789Y-112450478D01*
X145729816Y-112297738D01*
X145602262Y-112170184D01*
X145449523Y-112074211D01*
X145279254Y-112014631D01*
X145279250Y-112014630D01*
X145205616Y-112006334D01*
X145141202Y-111979267D01*
X145101647Y-111921672D01*
X145095500Y-111883114D01*
X145095500Y-102908393D01*
X145087046Y-102865896D01*
X145087046Y-102865894D01*
X145083481Y-102847971D01*
X145083481Y-102847970D01*
X145071464Y-102787555D01*
X145071463Y-102787548D01*
X145024311Y-102673714D01*
X145024310Y-102673713D01*
X145024307Y-102673707D01*
X144955858Y-102571267D01*
X144955855Y-102571263D01*
X144865637Y-102481045D01*
X144865606Y-102481016D01*
X142696599Y-100312009D01*
X142663114Y-100250686D01*
X142660809Y-100212887D01*
X142680536Y-100000000D01*
X142680536Y-99999999D01*
X142668099Y-99865782D01*
X142660435Y-99783077D01*
X142600817Y-99573541D01*
X142503712Y-99378528D01*
X142372427Y-99204678D01*
X142248423Y-99091634D01*
X142212145Y-99031927D01*
X142213905Y-98962079D01*
X142248423Y-98908365D01*
X142372427Y-98795322D01*
X142503712Y-98621472D01*
X142600817Y-98426459D01*
X142660435Y-98216923D01*
X142680536Y-98000000D01*
X142660435Y-97783077D01*
X142600817Y-97573541D01*
X142503712Y-97378528D01*
X142422251Y-97270656D01*
X142397560Y-97205297D01*
X142412125Y-97136962D01*
X142446895Y-97096665D01*
X142494545Y-97060993D01*
X142532546Y-97032546D01*
X142618796Y-96917331D01*
X142669091Y-96782483D01*
X142675500Y-96722873D01*
X142675499Y-95277128D01*
X142669091Y-95217517D01*
X142618796Y-95082669D01*
X142618795Y-95082668D01*
X142618793Y-95082664D01*
X142532547Y-94967455D01*
X142532544Y-94967452D01*
X142417335Y-94881206D01*
X142417328Y-94881202D01*
X142282482Y-94830908D01*
X142282483Y-94830908D01*
X142222883Y-94824501D01*
X142222881Y-94824500D01*
X142222873Y-94824500D01*
X142222864Y-94824500D01*
X140777129Y-94824500D01*
X140777123Y-94824501D01*
X140717516Y-94830908D01*
X140582671Y-94881202D01*
X140582664Y-94881206D01*
X140467455Y-94967452D01*
X140467452Y-94967455D01*
X140381206Y-95082664D01*
X140381202Y-95082671D01*
X140330908Y-95217517D01*
X140324501Y-95277116D01*
X140324501Y-95277123D01*
X140324500Y-95277135D01*
X140324500Y-95709217D01*
X140304815Y-95776256D01*
X140288181Y-95796898D01*
X139312181Y-96772898D01*
X139250858Y-96806383D01*
X139181166Y-96801399D01*
X139125233Y-96759527D01*
X139100816Y-96694063D01*
X139100500Y-96685217D01*
X139100500Y-82679105D01*
X139120185Y-82612066D01*
X139172989Y-82566311D01*
X139242147Y-82556367D01*
X139256584Y-82559328D01*
X139464592Y-82615063D01*
X139641034Y-82630500D01*
X139699999Y-82635659D01*
X139700000Y-82635659D01*
X139700001Y-82635659D01*
X139758966Y-82630500D01*
X139935408Y-82615063D01*
X140163663Y-82553903D01*
X140377830Y-82454035D01*
X140571401Y-82318495D01*
X140573077Y-82316819D01*
X140573995Y-82316317D01*
X140575544Y-82315018D01*
X140575805Y-82315329D01*
X140634400Y-82283334D01*
X140660758Y-82280500D01*
X145905859Y-82280500D01*
X145972898Y-82300185D01*
X146018653Y-82352989D01*
X146022030Y-82361140D01*
X146026204Y-82372331D01*
X146026205Y-82372332D01*
X146026206Y-82372335D01*
X146112452Y-82487544D01*
X146112455Y-82487547D01*
X146227664Y-82573793D01*
X146227671Y-82573797D01*
X146362517Y-82624091D01*
X146362516Y-82624091D01*
X146369444Y-82624835D01*
X146422127Y-82630500D01*
X148217872Y-82630499D01*
X148277483Y-82624091D01*
X148412331Y-82573796D01*
X148527546Y-82487546D01*
X148613796Y-82372331D01*
X148664091Y-82237483D01*
X148670500Y-82177873D01*
X148670499Y-80382128D01*
X148664091Y-80322517D01*
X148613796Y-80187669D01*
X148613795Y-80187668D01*
X148613793Y-80187664D01*
X148527547Y-80072455D01*
X148527544Y-80072452D01*
X148412335Y-79986206D01*
X148412328Y-79986202D01*
X148280917Y-79937189D01*
X148224983Y-79895318D01*
X148200566Y-79829853D01*
X148215418Y-79761580D01*
X148236563Y-79733332D01*
X148358495Y-79611401D01*
X148494035Y-79417830D01*
X148593903Y-79203663D01*
X148655063Y-78975408D01*
X148675659Y-78740000D01*
X148655063Y-78504592D01*
X148593903Y-78276337D01*
X148494035Y-78062171D01*
X148358495Y-77868599D01*
X148358494Y-77868597D01*
X148191402Y-77701506D01*
X148191395Y-77701501D01*
X147997834Y-77565967D01*
X147997830Y-77565965D01*
X147830166Y-77487782D01*
X147783663Y-77466097D01*
X147783659Y-77466096D01*
X147783655Y-77466094D01*
X147555413Y-77404938D01*
X147555403Y-77404936D01*
X147320001Y-77384341D01*
X147319999Y-77384341D01*
X147084596Y-77404936D01*
X147084586Y-77404938D01*
X146856344Y-77466094D01*
X146856335Y-77466098D01*
X146642171Y-77565964D01*
X146642169Y-77565965D01*
X146448597Y-77701505D01*
X146281505Y-77868597D01*
X146145965Y-78062169D01*
X146145964Y-78062171D01*
X146046098Y-78276335D01*
X146046094Y-78276344D01*
X145984938Y-78504586D01*
X145984936Y-78504596D01*
X145964341Y-78739999D01*
X145964341Y-78740000D01*
X145984936Y-78975403D01*
X145984938Y-78975413D01*
X146046094Y-79203655D01*
X146046096Y-79203659D01*
X146046097Y-79203663D01*
X146145965Y-79417830D01*
X146145967Y-79417834D01*
X146165754Y-79446092D01*
X146281501Y-79611396D01*
X146281506Y-79611402D01*
X146403430Y-79733326D01*
X146436915Y-79794649D01*
X146431931Y-79864341D01*
X146390059Y-79920274D01*
X146359083Y-79937189D01*
X146227669Y-79986203D01*
X146227664Y-79986206D01*
X146112455Y-80072452D01*
X146112452Y-80072455D01*
X146026206Y-80187664D01*
X146026204Y-80187668D01*
X146026204Y-80187669D01*
X146022039Y-80198834D01*
X145980171Y-80254766D01*
X145914707Y-80279184D01*
X145905859Y-80279500D01*
X140660758Y-80279500D01*
X140593719Y-80259815D01*
X140573077Y-80243181D01*
X140571402Y-80241506D01*
X140571396Y-80241501D01*
X140385842Y-80111575D01*
X140342217Y-80056998D01*
X140335023Y-79987500D01*
X140366546Y-79925145D01*
X140385842Y-79908425D01*
X140448800Y-79864341D01*
X140571401Y-79778495D01*
X140738495Y-79611401D01*
X140874035Y-79417830D01*
X140973903Y-79203663D01*
X141035063Y-78975408D01*
X141055659Y-78740000D01*
X141035063Y-78504592D01*
X140973903Y-78276337D01*
X140874035Y-78062171D01*
X140738495Y-77868599D01*
X140738494Y-77868597D01*
X140571402Y-77701506D01*
X140571395Y-77701501D01*
X140377834Y-77565967D01*
X140377830Y-77565965D01*
X140210166Y-77487782D01*
X140163663Y-77466097D01*
X140163659Y-77466096D01*
X140163655Y-77466094D01*
X139935413Y-77404938D01*
X139935403Y-77404936D01*
X139700001Y-77384341D01*
X139699999Y-77384341D01*
X139464596Y-77404936D01*
X139464586Y-77404938D01*
X139256593Y-77460669D01*
X139186743Y-77459006D01*
X139128881Y-77419843D01*
X139101377Y-77355614D01*
X139100500Y-77340894D01*
X139100500Y-75134499D01*
X139120185Y-75067460D01*
X139172989Y-75021705D01*
X139224500Y-75010499D01*
X140597871Y-75010499D01*
X140597872Y-75010499D01*
X140657483Y-75004091D01*
X140792331Y-74953796D01*
X140907546Y-74867546D01*
X140993796Y-74752331D01*
X141044091Y-74617483D01*
X141050500Y-74557873D01*
X141050500Y-74409500D01*
X141070185Y-74342461D01*
X141122989Y-74296706D01*
X141174500Y-74285500D01*
X146044773Y-74285500D01*
X146111812Y-74305185D01*
X146146348Y-74338377D01*
X146281500Y-74531395D01*
X146281505Y-74531401D01*
X146448599Y-74698495D01*
X146545384Y-74766265D01*
X146642165Y-74834032D01*
X146642167Y-74834033D01*
X146642170Y-74834035D01*
X146856337Y-74933903D01*
X147084592Y-74995063D01*
X147272918Y-75011539D01*
X147319999Y-75015659D01*
X147320000Y-75015659D01*
X147320001Y-75015659D01*
X147359234Y-75012226D01*
X147555408Y-74995063D01*
X147783663Y-74933903D01*
X147997830Y-74834035D01*
X148191401Y-74698495D01*
X148358495Y-74531401D01*
X148494035Y-74337830D01*
X148593903Y-74123663D01*
X148655063Y-73895408D01*
X148675659Y-73660000D01*
X148655063Y-73424592D01*
X148593903Y-73196337D01*
X148494035Y-72982171D01*
X148493652Y-72981623D01*
X148358494Y-72788597D01*
X148191402Y-72621506D01*
X148191396Y-72621501D01*
X148005842Y-72491575D01*
X147962217Y-72436998D01*
X147955023Y-72367500D01*
X147986546Y-72305145D01*
X148005842Y-72288425D01*
X148148325Y-72188657D01*
X148191401Y-72158495D01*
X148358495Y-71991401D01*
X148494035Y-71797830D01*
X148593903Y-71583663D01*
X148655063Y-71355408D01*
X148675659Y-71120000D01*
X148655063Y-70884592D01*
X148593903Y-70656337D01*
X148494035Y-70442171D01*
X148493652Y-70441623D01*
X148358494Y-70248597D01*
X148191402Y-70081506D01*
X148191396Y-70081501D01*
X148005842Y-69951575D01*
X147962217Y-69896998D01*
X147955023Y-69827500D01*
X147986546Y-69765145D01*
X148005842Y-69748425D01*
X148040594Y-69724091D01*
X148191401Y-69618495D01*
X148358495Y-69451401D01*
X148494035Y-69257830D01*
X148593903Y-69043663D01*
X148655063Y-68815408D01*
X148675659Y-68580000D01*
X148655063Y-68344592D01*
X148593903Y-68116337D01*
X148494035Y-67902171D01*
X148358495Y-67708599D01*
X148358494Y-67708597D01*
X148191402Y-67541506D01*
X148191396Y-67541501D01*
X148005842Y-67411575D01*
X147962217Y-67356998D01*
X147955023Y-67287500D01*
X147986546Y-67225145D01*
X148005842Y-67208425D01*
X148028026Y-67192891D01*
X148191401Y-67078495D01*
X148358495Y-66911401D01*
X148494035Y-66717830D01*
X148593903Y-66503663D01*
X148655063Y-66275408D01*
X148675659Y-66040000D01*
X148655063Y-65804592D01*
X148593903Y-65576337D01*
X148494035Y-65362171D01*
X148370937Y-65186367D01*
X148358494Y-65168597D01*
X148191402Y-65001506D01*
X148191395Y-65001501D01*
X147997834Y-64865967D01*
X147997830Y-64865965D01*
X147997828Y-64865964D01*
X147783663Y-64766097D01*
X147783659Y-64766096D01*
X147783655Y-64766094D01*
X147555413Y-64704938D01*
X147555403Y-64704936D01*
X147320001Y-64684341D01*
X147319999Y-64684341D01*
X147084596Y-64704936D01*
X147084586Y-64704938D01*
X146856344Y-64766094D01*
X146856335Y-64766098D01*
X146642171Y-64865964D01*
X146642169Y-64865965D01*
X146448597Y-65001505D01*
X146281505Y-65168597D01*
X146145965Y-65362169D01*
X146145964Y-65362171D01*
X146046098Y-65576335D01*
X146046094Y-65576344D01*
X145984938Y-65804586D01*
X145984936Y-65804596D01*
X145964341Y-66039999D01*
X145964341Y-66040000D01*
X145984936Y-66275403D01*
X145984938Y-66275413D01*
X146046094Y-66503655D01*
X146046096Y-66503659D01*
X146046097Y-66503663D01*
X146113425Y-66648048D01*
X146145965Y-66717830D01*
X146145967Y-66717834D01*
X146281501Y-66911395D01*
X146281506Y-66911402D01*
X146448597Y-67078493D01*
X146448603Y-67078498D01*
X146634158Y-67208425D01*
X146677783Y-67263002D01*
X146684977Y-67332500D01*
X146653454Y-67394855D01*
X146634158Y-67411575D01*
X146448597Y-67541505D01*
X146281505Y-67708597D01*
X146145965Y-67902169D01*
X146145964Y-67902171D01*
X146046098Y-68116335D01*
X146046094Y-68116344D01*
X145984938Y-68344586D01*
X145984936Y-68344596D01*
X145964341Y-68579999D01*
X145964341Y-68580000D01*
X145984936Y-68815403D01*
X145984938Y-68815413D01*
X146046094Y-69043655D01*
X146046096Y-69043659D01*
X146046097Y-69043663D01*
X146145965Y-69257830D01*
X146145967Y-69257834D01*
X146281501Y-69451395D01*
X146281506Y-69451402D01*
X146448597Y-69618493D01*
X146448603Y-69618498D01*
X146634158Y-69748425D01*
X146677783Y-69803002D01*
X146684977Y-69872500D01*
X146653454Y-69934855D01*
X146634158Y-69951575D01*
X146448597Y-70081505D01*
X146281505Y-70248597D01*
X146146348Y-70441623D01*
X146091771Y-70485248D01*
X146044773Y-70494500D01*
X140918389Y-70494500D01*
X140857971Y-70506518D01*
X140814743Y-70515116D01*
X140797546Y-70518537D01*
X140683716Y-70565687D01*
X140683707Y-70565692D01*
X140581268Y-70634140D01*
X140559074Y-70656335D01*
X140494142Y-70721267D01*
X140494139Y-70721270D01*
X139941621Y-71273787D01*
X139880298Y-71307272D01*
X139867825Y-71309326D01*
X139820750Y-71314630D01*
X139650478Y-71374210D01*
X139497737Y-71470184D01*
X139370182Y-71597739D01*
X139329493Y-71662496D01*
X139277158Y-71708787D01*
X139208105Y-71719434D01*
X139144257Y-71691059D01*
X139105885Y-71632669D01*
X139100500Y-71596523D01*
X139100500Y-70730057D01*
X139100499Y-70730055D01*
X139085835Y-70656335D01*
X139062051Y-70536766D01*
X139054501Y-70518539D01*
X139054500Y-70518534D01*
X139054500Y-70518535D01*
X139039458Y-70482218D01*
X139039458Y-70482219D01*
X138986633Y-70354690D01*
X138986632Y-70354687D01*
X138986630Y-70354684D01*
X138986628Y-70354680D01*
X138877139Y-70190819D01*
X138877136Y-70190815D01*
X138734686Y-70048365D01*
X138734655Y-70048336D01*
X132081479Y-63395160D01*
X132081459Y-63395138D01*
X131937785Y-63251464D01*
X131937781Y-63251461D01*
X131773920Y-63141972D01*
X131773911Y-63141967D01*
X131701315Y-63111897D01*
X131645165Y-63088639D01*
X131591836Y-63066550D01*
X131591832Y-63066549D01*
X131591828Y-63066547D01*
X131495188Y-63047325D01*
X131398544Y-63028101D01*
X131398541Y-63028101D01*
X101994384Y-63028101D01*
X101927345Y-63008416D01*
X101906703Y-62991782D01*
X100302102Y-61387181D01*
X100268617Y-61325858D01*
X100273601Y-61256166D01*
X100315473Y-61200233D01*
X100380937Y-61175816D01*
X100389783Y-61175500D01*
X107520569Y-61175500D01*
X107586540Y-61194505D01*
X107715902Y-61275789D01*
X107858991Y-61325858D01*
X107886169Y-61335368D01*
X107886174Y-61335369D01*
X108065420Y-61355565D01*
X108065424Y-61355565D01*
X108065428Y-61355565D01*
X108244673Y-61335369D01*
X108244676Y-61335368D01*
X108244679Y-61335368D01*
X108414946Y-61275789D01*
X108567686Y-61179816D01*
X108695240Y-61052262D01*
X108791213Y-60899522D01*
X108850792Y-60729255D01*
X108870989Y-60550000D01*
X108850792Y-60370745D01*
X108791213Y-60200478D01*
X108695240Y-60047738D01*
X108567686Y-59920184D01*
X108544307Y-59905494D01*
X108414947Y-59824211D01*
X108244678Y-59764631D01*
X108244673Y-59764630D01*
X108065428Y-59744435D01*
X108065420Y-59744435D01*
X107886174Y-59764630D01*
X107886169Y-59764631D01*
X107715900Y-59824211D01*
X107586541Y-59905494D01*
X107520569Y-59924500D01*
X100360452Y-59924500D01*
X100293413Y-59904815D01*
X100272771Y-59888181D01*
X100234124Y-59849534D01*
X100200639Y-59788211D01*
X100205623Y-59718519D01*
X100247495Y-59662586D01*
X100299020Y-59639965D01*
X100323069Y-59635470D01*
X100526210Y-59556772D01*
X100711432Y-59442088D01*
X100872427Y-59295322D01*
X100901047Y-59257422D01*
X100957153Y-59215787D01*
X101026865Y-59211094D01*
X101088048Y-59244836D01*
X101098946Y-59257414D01*
X101127573Y-59295322D01*
X101127574Y-59295323D01*
X101127578Y-59295327D01*
X101227739Y-59386635D01*
X101288568Y-59442088D01*
X101288575Y-59442092D01*
X101288576Y-59442093D01*
X101473786Y-59556770D01*
X101473792Y-59556773D01*
X101496664Y-59565633D01*
X101676931Y-59635470D01*
X101891074Y-59675500D01*
X101891076Y-59675500D01*
X102108924Y-59675500D01*
X102108926Y-59675500D01*
X102323069Y-59635470D01*
X102526210Y-59556772D01*
X102711432Y-59442088D01*
X102872427Y-59295322D01*
X103003712Y-59121472D01*
X103100817Y-58926459D01*
X103160435Y-58716923D01*
X103180536Y-58500000D01*
X103160435Y-58283077D01*
X103100817Y-58073541D01*
X103003712Y-57878528D01*
X102872427Y-57704678D01*
X102845016Y-57679690D01*
X102755996Y-57598537D01*
X102711432Y-57557912D01*
X102711428Y-57557909D01*
X102711423Y-57557906D01*
X102526213Y-57443229D01*
X102526207Y-57443226D01*
X102441113Y-57410260D01*
X102323069Y-57364530D01*
X102108926Y-57324500D01*
X101891074Y-57324500D01*
X101676931Y-57364530D01*
X101633896Y-57381202D01*
X101473792Y-57443226D01*
X101473786Y-57443229D01*
X101288576Y-57557906D01*
X101288566Y-57557913D01*
X101127573Y-57704676D01*
X101098953Y-57742576D01*
X101042844Y-57784211D01*
X100973132Y-57788902D01*
X100911950Y-57755159D01*
X100901047Y-57742576D01*
X100872426Y-57704676D01*
X100711433Y-57557913D01*
X100711423Y-57557906D01*
X100526213Y-57443229D01*
X100526207Y-57443226D01*
X100441113Y-57410260D01*
X100323069Y-57364530D01*
X100108926Y-57324500D01*
X99891074Y-57324500D01*
X99676931Y-57364530D01*
X99633896Y-57381202D01*
X99473792Y-57443226D01*
X99473786Y-57443229D01*
X99288576Y-57557906D01*
X99288566Y-57557913D01*
X99127573Y-57704676D01*
X99098953Y-57742576D01*
X99042844Y-57784211D01*
X98973132Y-57788902D01*
X98911950Y-57755159D01*
X98901047Y-57742576D01*
X98872426Y-57704676D01*
X98711433Y-57557913D01*
X98711423Y-57557906D01*
X98526213Y-57443229D01*
X98526207Y-57443226D01*
X98441113Y-57410260D01*
X98323069Y-57364530D01*
X98108926Y-57324500D01*
X97891074Y-57324500D01*
X97676931Y-57364530D01*
X97633896Y-57381202D01*
X97473792Y-57443226D01*
X97473786Y-57443229D01*
X97288565Y-57557913D01*
X97277585Y-57567923D01*
X97214780Y-57598537D01*
X97145393Y-57590336D01*
X97094785Y-57550594D01*
X97068848Y-57515948D01*
X97032546Y-57467454D01*
X97032544Y-57467453D01*
X97032544Y-57467452D01*
X96917335Y-57381206D01*
X96917328Y-57381202D01*
X96782482Y-57330908D01*
X96782483Y-57330908D01*
X96722883Y-57324501D01*
X96722881Y-57324500D01*
X96722873Y-57324500D01*
X96722864Y-57324500D01*
X95277129Y-57324500D01*
X95277123Y-57324501D01*
X95217516Y-57330908D01*
X95082671Y-57381202D01*
X95082664Y-57381206D01*
X94960355Y-57472768D01*
X94958560Y-57470370D01*
X94910404Y-57496666D01*
X94884046Y-57499500D01*
X69125783Y-57499500D01*
X69058744Y-57479815D01*
X69038102Y-57463181D01*
X66443792Y-54868872D01*
X142999500Y-54868872D01*
X142999500Y-55131127D01*
X143026123Y-55333339D01*
X143033730Y-55391116D01*
X143101602Y-55644418D01*
X143101605Y-55644428D01*
X143201953Y-55886690D01*
X143201958Y-55886700D01*
X143333075Y-56113803D01*
X143492718Y-56321851D01*
X143492726Y-56321860D01*
X143678140Y-56507274D01*
X143678148Y-56507281D01*
X143886196Y-56666924D01*
X144113299Y-56798041D01*
X144113309Y-56798046D01*
X144355571Y-56898394D01*
X144355581Y-56898398D01*
X144608884Y-56966270D01*
X144868880Y-57000500D01*
X144868887Y-57000500D01*
X145131113Y-57000500D01*
X145131120Y-57000500D01*
X145391116Y-56966270D01*
X145644419Y-56898398D01*
X145886697Y-56798043D01*
X146113803Y-56666924D01*
X146321851Y-56507282D01*
X146321855Y-56507277D01*
X146321860Y-56507274D01*
X146507274Y-56321860D01*
X146507277Y-56321855D01*
X146507282Y-56321851D01*
X146666924Y-56113803D01*
X146798043Y-55886697D01*
X146898398Y-55644419D01*
X146966270Y-55391116D01*
X147000500Y-55131120D01*
X147000500Y-54868880D01*
X146966270Y-54608884D01*
X146898398Y-54355581D01*
X146849642Y-54237873D01*
X146798046Y-54113309D01*
X146798041Y-54113299D01*
X146666924Y-53886196D01*
X146507281Y-53678148D01*
X146507274Y-53678140D01*
X146321860Y-53492726D01*
X146321851Y-53492718D01*
X146113803Y-53333075D01*
X145886700Y-53201958D01*
X145886690Y-53201953D01*
X145644428Y-53101605D01*
X145644421Y-53101603D01*
X145644419Y-53101602D01*
X145391116Y-53033730D01*
X145333339Y-53026123D01*
X145131127Y-52999500D01*
X145131120Y-52999500D01*
X144868880Y-52999500D01*
X144868872Y-52999500D01*
X144637772Y-53029926D01*
X144608884Y-53033730D01*
X144467629Y-53071579D01*
X144355581Y-53101602D01*
X144355571Y-53101605D01*
X144113309Y-53201953D01*
X144113299Y-53201958D01*
X143886196Y-53333075D01*
X143678148Y-53492718D01*
X143492718Y-53678148D01*
X143333075Y-53886196D01*
X143201958Y-54113299D01*
X143201953Y-54113309D01*
X143101605Y-54355571D01*
X143101602Y-54355581D01*
X143033730Y-54608884D01*
X143033069Y-54613903D01*
X142999500Y-54868872D01*
X66443792Y-54868872D01*
X66104784Y-54529864D01*
X66071299Y-54468541D01*
X66076282Y-54398852D01*
X66114091Y-54297483D01*
X66120500Y-54237873D01*
X66120499Y-52442128D01*
X66114091Y-52382517D01*
X66112869Y-52379241D01*
X66063797Y-52247671D01*
X66063795Y-52247668D01*
X66027221Y-52198811D01*
X66002804Y-52133347D01*
X66017656Y-52065074D01*
X66067061Y-52015668D01*
X66126488Y-52000500D01*
X67651459Y-52000500D01*
X68725500Y-52000500D01*
X68792539Y-52020185D01*
X68838294Y-52072989D01*
X68849500Y-52124500D01*
X68849500Y-52379241D01*
X68829815Y-52446280D01*
X68813181Y-52466922D01*
X68811505Y-52468597D01*
X68675965Y-52662169D01*
X68675964Y-52662171D01*
X68576098Y-52876335D01*
X68576094Y-52876344D01*
X68514938Y-53104586D01*
X68514936Y-53104596D01*
X68494341Y-53339999D01*
X68494341Y-53340000D01*
X68514936Y-53575403D01*
X68514938Y-53575413D01*
X68576094Y-53803655D01*
X68576096Y-53803659D01*
X68576097Y-53803663D01*
X68626301Y-53911326D01*
X68675965Y-54017830D01*
X68675967Y-54017834D01*
X68742813Y-54113299D01*
X68811505Y-54211401D01*
X68978599Y-54378495D01*
X69075384Y-54446265D01*
X69172165Y-54514032D01*
X69172167Y-54514033D01*
X69172170Y-54514035D01*
X69386337Y-54613903D01*
X69614592Y-54675063D01*
X69791034Y-54690500D01*
X69849999Y-54695659D01*
X69850000Y-54695659D01*
X69850001Y-54695659D01*
X69908966Y-54690500D01*
X70085408Y-54675063D01*
X70313663Y-54613903D01*
X70527830Y-54514035D01*
X70721401Y-54378495D01*
X70888495Y-54211401D01*
X71024035Y-54017830D01*
X71123903Y-53803663D01*
X71185063Y-53575408D01*
X71205659Y-53340000D01*
X71185063Y-53104592D01*
X71123903Y-52876337D01*
X71024035Y-52662171D01*
X71012495Y-52645689D01*
X70888494Y-52468597D01*
X70886819Y-52466922D01*
X70886315Y-52466000D01*
X70885014Y-52464449D01*
X70885325Y-52464187D01*
X70853334Y-52405599D01*
X70850500Y-52379241D01*
X70850500Y-52340782D01*
X70870185Y-52273743D01*
X70886819Y-52253101D01*
X71103101Y-52036819D01*
X71164424Y-52003334D01*
X71190782Y-52000500D01*
X76113512Y-52000500D01*
X76180551Y-52020185D01*
X76226306Y-52072989D01*
X76236250Y-52142147D01*
X76212779Y-52198811D01*
X76176204Y-52247668D01*
X76176202Y-52247671D01*
X76125908Y-52382517D01*
X76123427Y-52405599D01*
X76119501Y-52442123D01*
X76119500Y-52442135D01*
X76119500Y-54237870D01*
X76119501Y-54237876D01*
X76125908Y-54297483D01*
X76176202Y-54432328D01*
X76176206Y-54432335D01*
X76262452Y-54547544D01*
X76262455Y-54547547D01*
X76377664Y-54633793D01*
X76377671Y-54633797D01*
X76512517Y-54684091D01*
X76512516Y-54684091D01*
X76519444Y-54684835D01*
X76572127Y-54690500D01*
X78367872Y-54690499D01*
X78427483Y-54684091D01*
X78562331Y-54633796D01*
X78677546Y-54547546D01*
X78763796Y-54432331D01*
X78814091Y-54297483D01*
X78820500Y-54237873D01*
X78820499Y-52442128D01*
X78814091Y-52382517D01*
X78812869Y-52379241D01*
X78763797Y-52247671D01*
X78763795Y-52247668D01*
X78727221Y-52198811D01*
X78702804Y-52133347D01*
X78717656Y-52065074D01*
X78767061Y-52015668D01*
X78826488Y-52000500D01*
X81425500Y-52000500D01*
X81492539Y-52020185D01*
X81538294Y-52072989D01*
X81549500Y-52124500D01*
X81549500Y-52379241D01*
X81529815Y-52446280D01*
X81513181Y-52466922D01*
X81511505Y-52468597D01*
X81375965Y-52662169D01*
X81375964Y-52662171D01*
X81276098Y-52876335D01*
X81276094Y-52876344D01*
X81214938Y-53104586D01*
X81214936Y-53104596D01*
X81194341Y-53339999D01*
X81194341Y-53340000D01*
X81214936Y-53575403D01*
X81214938Y-53575413D01*
X81276094Y-53803655D01*
X81276096Y-53803659D01*
X81276097Y-53803663D01*
X81326301Y-53911326D01*
X81375965Y-54017830D01*
X81375967Y-54017834D01*
X81442813Y-54113299D01*
X81511505Y-54211401D01*
X81678599Y-54378495D01*
X81775384Y-54446265D01*
X81872165Y-54514032D01*
X81872167Y-54514033D01*
X81872170Y-54514035D01*
X82086337Y-54613903D01*
X82314592Y-54675063D01*
X82491034Y-54690500D01*
X82549999Y-54695659D01*
X82550000Y-54695659D01*
X82550001Y-54695659D01*
X82608966Y-54690500D01*
X82785408Y-54675063D01*
X83013663Y-54613903D01*
X83227830Y-54514035D01*
X83421401Y-54378495D01*
X83588495Y-54211401D01*
X83724035Y-54017830D01*
X83823903Y-53803663D01*
X83885063Y-53575408D01*
X83905659Y-53340000D01*
X83885063Y-53104592D01*
X83823903Y-52876337D01*
X83724035Y-52662171D01*
X83712495Y-52645689D01*
X83588494Y-52468597D01*
X83586819Y-52466922D01*
X83586315Y-52466000D01*
X83585014Y-52464449D01*
X83585325Y-52464187D01*
X83553334Y-52405599D01*
X83550500Y-52379241D01*
X83550500Y-51176456D01*
X83512052Y-50983170D01*
X83512051Y-50983169D01*
X83512051Y-50983165D01*
X83489040Y-50927611D01*
X83436635Y-50801092D01*
X83436628Y-50801079D01*
X83327140Y-50637219D01*
X83272207Y-50582286D01*
X83202100Y-50512179D01*
X83168617Y-50450859D01*
X83173601Y-50381167D01*
X83215472Y-50325233D01*
X83280936Y-50300816D01*
X83289783Y-50300500D01*
X144952405Y-50300500D01*
X144997294Y-50300500D01*
X145002702Y-50300617D01*
G37*
G04 #@! TD.AperFunction*
M02*
