G04 #@! TF.GenerationSoftware,KiCad,Pcbnew,8.0.7*
G04 #@! TF.CreationDate,2025-12-14T15:56:06+09:00*
G04 #@! TF.ProjectId,GBA_Main,4742415f-4d61-4696-9e2e-6b696361645f,rev?*
G04 #@! TF.SameCoordinates,Original*
G04 #@! TF.FileFunction,Legend,Top*
G04 #@! TF.FilePolarity,Positive*
%FSLAX46Y46*%
G04 Gerber Fmt 4.6, Leading zero omitted, Abs format (unit mm)*
G04 Created by KiCad (PCBNEW 8.0.7) date 2025-12-14 15:56:06*
%MOMM*%
%LPD*%
G01*
G04 APERTURE LIST*
G04 Aperture macros list*
%AMRoundRect*
0 Rectangle with rounded corners*
0 $1 Rounding radius*
0 $2 $3 $4 $5 $6 $7 $8 $9 X,Y pos of 4 corners*
0 Add a 4 corners polygon primitive as box body*
4,1,4,$2,$3,$4,$5,$6,$7,$8,$9,$2,$3,0*
0 Add four circle primitives for the rounded corners*
1,1,$1+$1,$2,$3*
1,1,$1+$1,$4,$5*
1,1,$1+$1,$6,$7*
1,1,$1+$1,$8,$9*
0 Add four rect primitives between the rounded corners*
20,1,$1+$1,$2,$3,$4,$5,0*
20,1,$1+$1,$4,$5,$6,$7,0*
20,1,$1+$1,$6,$7,$8,$9,0*
20,1,$1+$1,$8,$9,$2,$3,0*%
%AMHorizOval*
0 Thick line with rounded ends*
0 $1 width*
0 $2 $3 position (X,Y) of the first rounded end (center of the circle)*
0 $4 $5 position (X,Y) of the second rounded end (center of the circle)*
0 Add line between two ends*
20,1,$1,$2,$3,$4,$5,0*
0 Add two circle primitives to create the rounded ends*
1,1,$1,$2,$3*
1,1,$1,$4,$5*%
G04 Aperture macros list end*
%ADD10C,0.200000*%
%ADD11C,0.150000*%
%ADD12C,0.254000*%
%ADD13C,0.120000*%
%ADD14R,1.700000X1.700000*%
%ADD15O,1.700000X1.700000*%
%ADD16HorizOval,3.100000X-0.424264X-0.424264X0.424264X0.424264X0*%
%ADD17O,0.900000X1.400000*%
%ADD18O,1.400000X0.900000*%
%ADD19O,1.200000X0.900000*%
%ADD20C,3.500000*%
%ADD21RoundRect,0.200000X0.200000X0.275000X-0.200000X0.275000X-0.200000X-0.275000X0.200000X-0.275000X0*%
%ADD22RoundRect,0.200000X-0.200000X-0.275000X0.200000X-0.275000X0.200000X0.275000X-0.200000X0.275000X0*%
%ADD23R,1.600000X1.600000*%
%ADD24O,1.600000X1.600000*%
%ADD25R,0.500000X0.425000*%
%ADD26R,0.500000X0.250000*%
%ADD27RoundRect,0.250000X-0.750000X0.600000X-0.750000X-0.600000X0.750000X-0.600000X0.750000X0.600000X0*%
%ADD28O,2.000000X1.700000*%
%ADD29R,1.350000X1.350000*%
%ADD30O,1.350000X1.350000*%
G04 APERTURE END LIST*
D10*
X52000000Y-138500000D02*
X59690000Y-138500000D01*
X59690000Y-119888000D02*
X59690000Y-138430000D01*
X52070000Y-127000000D02*
X52110000Y-127000000D01*
X52910000Y-127000000D02*
X52950000Y-127000000D01*
X53750000Y-127000000D02*
X53790000Y-127000000D01*
X54590000Y-127000000D02*
X54630000Y-127000000D01*
X55430000Y-127000000D02*
X55470000Y-127000000D01*
X56270000Y-127000000D02*
X56310000Y-127000000D01*
X57110000Y-127000000D02*
X57150000Y-127000000D01*
X57950000Y-127000000D02*
X57990000Y-127000000D01*
X58790000Y-127000000D02*
X58830000Y-127000000D01*
X55000000Y-90000000D02*
X61000000Y-90000000D01*
X61000000Y-109000000D01*
X55000000Y-109000000D01*
X55000000Y-90000000D01*
X59436000Y-127000000D02*
X59690000Y-127000000D01*
X59690000Y-119888000D02*
X52070000Y-119888000D01*
X54610000Y-119888000D02*
X54610000Y-138430000D01*
X52000000Y-119888000D02*
X52000000Y-138500000D01*
X57250000Y-119888000D02*
X57250000Y-138430000D01*
X138691885Y-102001850D02*
X138691885Y-101430422D01*
X139034742Y-102116136D02*
X137834742Y-101716136D01*
X137834742Y-101716136D02*
X139034742Y-101316136D01*
X138234742Y-100916136D02*
X139034742Y-100916136D01*
X138349028Y-100916136D02*
X138291885Y-100858993D01*
X138291885Y-100858993D02*
X138234742Y-100744708D01*
X138234742Y-100744708D02*
X138234742Y-100573279D01*
X138234742Y-100573279D02*
X138291885Y-100458993D01*
X138291885Y-100458993D02*
X138406171Y-100401851D01*
X138406171Y-100401851D02*
X139034742Y-100401851D01*
X138234742Y-99316137D02*
X139206171Y-99316137D01*
X139206171Y-99316137D02*
X139320457Y-99373279D01*
X139320457Y-99373279D02*
X139377600Y-99430422D01*
X139377600Y-99430422D02*
X139434742Y-99544708D01*
X139434742Y-99544708D02*
X139434742Y-99716137D01*
X139434742Y-99716137D02*
X139377600Y-99830422D01*
X138977600Y-99316137D02*
X139034742Y-99430422D01*
X139034742Y-99430422D02*
X139034742Y-99658994D01*
X139034742Y-99658994D02*
X138977600Y-99773279D01*
X138977600Y-99773279D02*
X138920457Y-99830422D01*
X138920457Y-99830422D02*
X138806171Y-99887565D01*
X138806171Y-99887565D02*
X138463314Y-99887565D01*
X138463314Y-99887565D02*
X138349028Y-99830422D01*
X138349028Y-99830422D02*
X138291885Y-99773279D01*
X138291885Y-99773279D02*
X138234742Y-99658994D01*
X138234742Y-99658994D02*
X138234742Y-99430422D01*
X138234742Y-99430422D02*
X138291885Y-99316137D01*
X139034742Y-98573280D02*
X138977600Y-98687565D01*
X138977600Y-98687565D02*
X138863314Y-98744708D01*
X138863314Y-98744708D02*
X137834742Y-98744708D01*
X138977600Y-97658994D02*
X139034742Y-97773280D01*
X139034742Y-97773280D02*
X139034742Y-98001852D01*
X139034742Y-98001852D02*
X138977600Y-98116137D01*
X138977600Y-98116137D02*
X138863314Y-98173280D01*
X138863314Y-98173280D02*
X138406171Y-98173280D01*
X138406171Y-98173280D02*
X138291885Y-98116137D01*
X138291885Y-98116137D02*
X138234742Y-98001852D01*
X138234742Y-98001852D02*
X138234742Y-97773280D01*
X138234742Y-97773280D02*
X138291885Y-97658994D01*
X138291885Y-97658994D02*
X138406171Y-97601852D01*
X138406171Y-97601852D02*
X138520457Y-97601852D01*
X138520457Y-97601852D02*
X138634742Y-98173280D01*
X100228457Y-55896993D02*
X100285600Y-55954136D01*
X100285600Y-55954136D02*
X100342742Y-56125564D01*
X100342742Y-56125564D02*
X100342742Y-56239850D01*
X100342742Y-56239850D02*
X100285600Y-56411279D01*
X100285600Y-56411279D02*
X100171314Y-56525564D01*
X100171314Y-56525564D02*
X100057028Y-56582707D01*
X100057028Y-56582707D02*
X99828457Y-56639850D01*
X99828457Y-56639850D02*
X99657028Y-56639850D01*
X99657028Y-56639850D02*
X99428457Y-56582707D01*
X99428457Y-56582707D02*
X99314171Y-56525564D01*
X99314171Y-56525564D02*
X99199885Y-56411279D01*
X99199885Y-56411279D02*
X99142742Y-56239850D01*
X99142742Y-56239850D02*
X99142742Y-56125564D01*
X99142742Y-56125564D02*
X99199885Y-55954136D01*
X99199885Y-55954136D02*
X99257028Y-55896993D01*
X100342742Y-54811279D02*
X100342742Y-55382707D01*
X100342742Y-55382707D02*
X99142742Y-55382707D01*
X100342742Y-54411278D02*
X99142742Y-54411278D01*
X100342742Y-53725564D02*
X99657028Y-54239850D01*
X99142742Y-53725564D02*
X99828457Y-54411278D01*
X87542742Y-148452136D02*
X87542742Y-148223564D01*
X87542742Y-148223564D02*
X87599885Y-148109279D01*
X87599885Y-148109279D02*
X87714171Y-147994993D01*
X87714171Y-147994993D02*
X87942742Y-147937850D01*
X87942742Y-147937850D02*
X88342742Y-147937850D01*
X88342742Y-147937850D02*
X88571314Y-147994993D01*
X88571314Y-147994993D02*
X88685600Y-148109279D01*
X88685600Y-148109279D02*
X88742742Y-148223564D01*
X88742742Y-148223564D02*
X88742742Y-148452136D01*
X88742742Y-148452136D02*
X88685600Y-148566422D01*
X88685600Y-148566422D02*
X88571314Y-148680707D01*
X88571314Y-148680707D02*
X88342742Y-148737850D01*
X88342742Y-148737850D02*
X87942742Y-148737850D01*
X87942742Y-148737850D02*
X87714171Y-148680707D01*
X87714171Y-148680707D02*
X87599885Y-148566422D01*
X87599885Y-148566422D02*
X87542742Y-148452136D01*
X87942742Y-147423564D02*
X89142742Y-147423564D01*
X87999885Y-147423564D02*
X87942742Y-147309279D01*
X87942742Y-147309279D02*
X87942742Y-147080707D01*
X87942742Y-147080707D02*
X87999885Y-146966421D01*
X87999885Y-146966421D02*
X88057028Y-146909279D01*
X88057028Y-146909279D02*
X88171314Y-146852136D01*
X88171314Y-146852136D02*
X88514171Y-146852136D01*
X88514171Y-146852136D02*
X88628457Y-146909279D01*
X88628457Y-146909279D02*
X88685600Y-146966421D01*
X88685600Y-146966421D02*
X88742742Y-147080707D01*
X88742742Y-147080707D02*
X88742742Y-147309279D01*
X88742742Y-147309279D02*
X88685600Y-147423564D01*
X88685600Y-145880707D02*
X88742742Y-145994993D01*
X88742742Y-145994993D02*
X88742742Y-146223565D01*
X88742742Y-146223565D02*
X88685600Y-146337850D01*
X88685600Y-146337850D02*
X88571314Y-146394993D01*
X88571314Y-146394993D02*
X88114171Y-146394993D01*
X88114171Y-146394993D02*
X87999885Y-146337850D01*
X87999885Y-146337850D02*
X87942742Y-146223565D01*
X87942742Y-146223565D02*
X87942742Y-145994993D01*
X87942742Y-145994993D02*
X87999885Y-145880707D01*
X87999885Y-145880707D02*
X88114171Y-145823565D01*
X88114171Y-145823565D02*
X88228457Y-145823565D01*
X88228457Y-145823565D02*
X88342742Y-146394993D01*
X87942742Y-145309279D02*
X88742742Y-145309279D01*
X88057028Y-145309279D02*
X87999885Y-145252136D01*
X87999885Y-145252136D02*
X87942742Y-145137851D01*
X87942742Y-145137851D02*
X87942742Y-144966422D01*
X87942742Y-144966422D02*
X87999885Y-144852136D01*
X87999885Y-144852136D02*
X88114171Y-144794994D01*
X88114171Y-144794994D02*
X88742742Y-144794994D01*
X88742742Y-143652137D02*
X88742742Y-144223565D01*
X88742742Y-144223565D02*
X87542742Y-144223565D01*
X88742742Y-143080708D02*
X88685600Y-143194993D01*
X88685600Y-143194993D02*
X88628457Y-143252136D01*
X88628457Y-143252136D02*
X88514171Y-143309279D01*
X88514171Y-143309279D02*
X88171314Y-143309279D01*
X88171314Y-143309279D02*
X88057028Y-143252136D01*
X88057028Y-143252136D02*
X87999885Y-143194993D01*
X87999885Y-143194993D02*
X87942742Y-143080708D01*
X87942742Y-143080708D02*
X87942742Y-142909279D01*
X87942742Y-142909279D02*
X87999885Y-142794993D01*
X87999885Y-142794993D02*
X88057028Y-142737851D01*
X88057028Y-142737851D02*
X88171314Y-142680708D01*
X88171314Y-142680708D02*
X88514171Y-142680708D01*
X88514171Y-142680708D02*
X88628457Y-142737851D01*
X88628457Y-142737851D02*
X88685600Y-142794993D01*
X88685600Y-142794993D02*
X88742742Y-142909279D01*
X88742742Y-142909279D02*
X88742742Y-143080708D01*
X87942742Y-141652137D02*
X88914171Y-141652137D01*
X88914171Y-141652137D02*
X89028457Y-141709279D01*
X89028457Y-141709279D02*
X89085600Y-141766422D01*
X89085600Y-141766422D02*
X89142742Y-141880708D01*
X89142742Y-141880708D02*
X89142742Y-142052137D01*
X89142742Y-142052137D02*
X89085600Y-142166422D01*
X88685600Y-141652137D02*
X88742742Y-141766422D01*
X88742742Y-141766422D02*
X88742742Y-141994994D01*
X88742742Y-141994994D02*
X88685600Y-142109279D01*
X88685600Y-142109279D02*
X88628457Y-142166422D01*
X88628457Y-142166422D02*
X88514171Y-142223565D01*
X88514171Y-142223565D02*
X88171314Y-142223565D01*
X88171314Y-142223565D02*
X88057028Y-142166422D01*
X88057028Y-142166422D02*
X87999885Y-142109279D01*
X87999885Y-142109279D02*
X87942742Y-141994994D01*
X87942742Y-141994994D02*
X87942742Y-141766422D01*
X87942742Y-141766422D02*
X87999885Y-141652137D01*
X102592742Y-56582707D02*
X101392742Y-56582707D01*
X101392742Y-56582707D02*
X102249885Y-56182707D01*
X102249885Y-56182707D02*
X101392742Y-55782707D01*
X101392742Y-55782707D02*
X102592742Y-55782707D01*
X102592742Y-55211278D02*
X101392742Y-55211278D01*
X102535600Y-54696992D02*
X102592742Y-54525564D01*
X102592742Y-54525564D02*
X102592742Y-54239849D01*
X102592742Y-54239849D02*
X102535600Y-54125564D01*
X102535600Y-54125564D02*
X102478457Y-54068421D01*
X102478457Y-54068421D02*
X102364171Y-54011278D01*
X102364171Y-54011278D02*
X102249885Y-54011278D01*
X102249885Y-54011278D02*
X102135600Y-54068421D01*
X102135600Y-54068421D02*
X102078457Y-54125564D01*
X102078457Y-54125564D02*
X102021314Y-54239849D01*
X102021314Y-54239849D02*
X101964171Y-54468421D01*
X101964171Y-54468421D02*
X101907028Y-54582706D01*
X101907028Y-54582706D02*
X101849885Y-54639849D01*
X101849885Y-54639849D02*
X101735600Y-54696992D01*
X101735600Y-54696992D02*
X101621314Y-54696992D01*
X101621314Y-54696992D02*
X101507028Y-54639849D01*
X101507028Y-54639849D02*
X101449885Y-54582706D01*
X101449885Y-54582706D02*
X101392742Y-54468421D01*
X101392742Y-54468421D02*
X101392742Y-54182706D01*
X101392742Y-54182706D02*
X101449885Y-54011278D01*
X101392742Y-53268421D02*
X101392742Y-53039849D01*
X101392742Y-53039849D02*
X101449885Y-52925564D01*
X101449885Y-52925564D02*
X101564171Y-52811278D01*
X101564171Y-52811278D02*
X101792742Y-52754135D01*
X101792742Y-52754135D02*
X102192742Y-52754135D01*
X102192742Y-52754135D02*
X102421314Y-52811278D01*
X102421314Y-52811278D02*
X102535600Y-52925564D01*
X102535600Y-52925564D02*
X102592742Y-53039849D01*
X102592742Y-53039849D02*
X102592742Y-53268421D01*
X102592742Y-53268421D02*
X102535600Y-53382707D01*
X102535600Y-53382707D02*
X102421314Y-53496992D01*
X102421314Y-53496992D02*
X102192742Y-53554135D01*
X102192742Y-53554135D02*
X101792742Y-53554135D01*
X101792742Y-53554135D02*
X101564171Y-53496992D01*
X101564171Y-53496992D02*
X101449885Y-53382707D01*
X101449885Y-53382707D02*
X101392742Y-53268421D01*
X57872400Y-134472149D02*
X57815257Y-134643578D01*
X57815257Y-134643578D02*
X57815257Y-134929292D01*
X57815257Y-134929292D02*
X57872400Y-135043578D01*
X57872400Y-135043578D02*
X57929542Y-135100720D01*
X57929542Y-135100720D02*
X58043828Y-135157863D01*
X58043828Y-135157863D02*
X58158114Y-135157863D01*
X58158114Y-135157863D02*
X58272400Y-135100720D01*
X58272400Y-135100720D02*
X58329542Y-135043578D01*
X58329542Y-135043578D02*
X58386685Y-134929292D01*
X58386685Y-134929292D02*
X58443828Y-134700720D01*
X58443828Y-134700720D02*
X58500971Y-134586435D01*
X58500971Y-134586435D02*
X58558114Y-134529292D01*
X58558114Y-134529292D02*
X58672400Y-134472149D01*
X58672400Y-134472149D02*
X58786685Y-134472149D01*
X58786685Y-134472149D02*
X58900971Y-134529292D01*
X58900971Y-134529292D02*
X58958114Y-134586435D01*
X58958114Y-134586435D02*
X59015257Y-134700720D01*
X59015257Y-134700720D02*
X59015257Y-134986435D01*
X59015257Y-134986435D02*
X58958114Y-135157863D01*
X57815257Y-135672149D02*
X59015257Y-135672149D01*
X58958114Y-136872149D02*
X59015257Y-136757864D01*
X59015257Y-136757864D02*
X59015257Y-136586435D01*
X59015257Y-136586435D02*
X58958114Y-136415006D01*
X58958114Y-136415006D02*
X58843828Y-136300721D01*
X58843828Y-136300721D02*
X58729542Y-136243578D01*
X58729542Y-136243578D02*
X58500971Y-136186435D01*
X58500971Y-136186435D02*
X58329542Y-136186435D01*
X58329542Y-136186435D02*
X58100971Y-136243578D01*
X58100971Y-136243578D02*
X57986685Y-136300721D01*
X57986685Y-136300721D02*
X57872400Y-136415006D01*
X57872400Y-136415006D02*
X57815257Y-136586435D01*
X57815257Y-136586435D02*
X57815257Y-136700721D01*
X57815257Y-136700721D02*
X57872400Y-136872149D01*
X57872400Y-136872149D02*
X57929542Y-136929292D01*
X57929542Y-136929292D02*
X58329542Y-136929292D01*
X58329542Y-136929292D02*
X58329542Y-136700721D01*
X63022257Y-82967292D02*
X64222257Y-82967292D01*
X64222257Y-82967292D02*
X64222257Y-83424435D01*
X64222257Y-83424435D02*
X64165114Y-83538720D01*
X64165114Y-83538720D02*
X64107971Y-83595863D01*
X64107971Y-83595863D02*
X63993685Y-83653006D01*
X63993685Y-83653006D02*
X63822257Y-83653006D01*
X63822257Y-83653006D02*
X63707971Y-83595863D01*
X63707971Y-83595863D02*
X63650828Y-83538720D01*
X63650828Y-83538720D02*
X63593685Y-83424435D01*
X63593685Y-83424435D02*
X63593685Y-82967292D01*
X63022257Y-84167292D02*
X64222257Y-84167292D01*
X64222257Y-84167292D02*
X64222257Y-84624435D01*
X64222257Y-84624435D02*
X64165114Y-84738720D01*
X64165114Y-84738720D02*
X64107971Y-84795863D01*
X64107971Y-84795863D02*
X63993685Y-84853006D01*
X63993685Y-84853006D02*
X63822257Y-84853006D01*
X63822257Y-84853006D02*
X63707971Y-84795863D01*
X63707971Y-84795863D02*
X63650828Y-84738720D01*
X63650828Y-84738720D02*
X63593685Y-84624435D01*
X63593685Y-84624435D02*
X63593685Y-84167292D01*
X63079400Y-85310149D02*
X63022257Y-85481578D01*
X63022257Y-85481578D02*
X63022257Y-85767292D01*
X63022257Y-85767292D02*
X63079400Y-85881578D01*
X63079400Y-85881578D02*
X63136542Y-85938720D01*
X63136542Y-85938720D02*
X63250828Y-85995863D01*
X63250828Y-85995863D02*
X63365114Y-85995863D01*
X63365114Y-85995863D02*
X63479400Y-85938720D01*
X63479400Y-85938720D02*
X63536542Y-85881578D01*
X63536542Y-85881578D02*
X63593685Y-85767292D01*
X63593685Y-85767292D02*
X63650828Y-85538720D01*
X63650828Y-85538720D02*
X63707971Y-85424435D01*
X63707971Y-85424435D02*
X63765114Y-85367292D01*
X63765114Y-85367292D02*
X63879400Y-85310149D01*
X63879400Y-85310149D02*
X63993685Y-85310149D01*
X63993685Y-85310149D02*
X64107971Y-85367292D01*
X64107971Y-85367292D02*
X64165114Y-85424435D01*
X64165114Y-85424435D02*
X64222257Y-85538720D01*
X64222257Y-85538720D02*
X64222257Y-85824435D01*
X64222257Y-85824435D02*
X64165114Y-85995863D01*
X142540564Y-75534885D02*
X142426279Y-75477742D01*
X142426279Y-75477742D02*
X142254850Y-75477742D01*
X142254850Y-75477742D02*
X142083421Y-75534885D01*
X142083421Y-75534885D02*
X141969136Y-75649171D01*
X141969136Y-75649171D02*
X141911993Y-75763457D01*
X141911993Y-75763457D02*
X141854850Y-75992028D01*
X141854850Y-75992028D02*
X141854850Y-76163457D01*
X141854850Y-76163457D02*
X141911993Y-76392028D01*
X141911993Y-76392028D02*
X141969136Y-76506314D01*
X141969136Y-76506314D02*
X142083421Y-76620600D01*
X142083421Y-76620600D02*
X142254850Y-76677742D01*
X142254850Y-76677742D02*
X142369136Y-76677742D01*
X142369136Y-76677742D02*
X142540564Y-76620600D01*
X142540564Y-76620600D02*
X142597707Y-76563457D01*
X142597707Y-76563457D02*
X142597707Y-76163457D01*
X142597707Y-76163457D02*
X142369136Y-76163457D01*
X143111993Y-76677742D02*
X143111993Y-75477742D01*
X143111993Y-75477742D02*
X143797707Y-76677742D01*
X143797707Y-76677742D02*
X143797707Y-75477742D01*
X144369136Y-76677742D02*
X144369136Y-75477742D01*
X144369136Y-75477742D02*
X144654850Y-75477742D01*
X144654850Y-75477742D02*
X144826279Y-75534885D01*
X144826279Y-75534885D02*
X144940564Y-75649171D01*
X144940564Y-75649171D02*
X144997707Y-75763457D01*
X144997707Y-75763457D02*
X145054850Y-75992028D01*
X145054850Y-75992028D02*
X145054850Y-76163457D01*
X145054850Y-76163457D02*
X144997707Y-76392028D01*
X144997707Y-76392028D02*
X144940564Y-76506314D01*
X144940564Y-76506314D02*
X144826279Y-76620600D01*
X144826279Y-76620600D02*
X144654850Y-76677742D01*
X144654850Y-76677742D02*
X144369136Y-76677742D01*
X64936742Y-148852136D02*
X64936742Y-148166422D01*
X66136742Y-148509279D02*
X64936742Y-148509279D01*
X64936742Y-147880707D02*
X66136742Y-147594993D01*
X66136742Y-147594993D02*
X65279600Y-147366421D01*
X65279600Y-147366421D02*
X66136742Y-147137850D01*
X66136742Y-147137850D02*
X64936742Y-146852136D01*
X65508171Y-146394992D02*
X65508171Y-145994992D01*
X66136742Y-145823564D02*
X66136742Y-146394992D01*
X66136742Y-146394992D02*
X64936742Y-146394992D01*
X64936742Y-146394992D02*
X64936742Y-145823564D01*
X66136742Y-144737850D02*
X66136742Y-145309278D01*
X66136742Y-145309278D02*
X64936742Y-145309278D01*
X66136742Y-144337849D02*
X64936742Y-144337849D01*
X64936742Y-143937849D02*
X64936742Y-143252135D01*
X66136742Y-143594992D02*
X64936742Y-143594992D01*
X65508171Y-142852134D02*
X65508171Y-142452134D01*
X66136742Y-142280706D02*
X66136742Y-142852134D01*
X66136742Y-142852134D02*
X64936742Y-142852134D01*
X64936742Y-142852134D02*
X64936742Y-142280706D01*
X66136742Y-140166420D02*
X65565314Y-140566420D01*
X66136742Y-140852134D02*
X64936742Y-140852134D01*
X64936742Y-140852134D02*
X64936742Y-140394991D01*
X64936742Y-140394991D02*
X64993885Y-140280706D01*
X64993885Y-140280706D02*
X65051028Y-140223563D01*
X65051028Y-140223563D02*
X65165314Y-140166420D01*
X65165314Y-140166420D02*
X65336742Y-140166420D01*
X65336742Y-140166420D02*
X65451028Y-140223563D01*
X65451028Y-140223563D02*
X65508171Y-140280706D01*
X65508171Y-140280706D02*
X65565314Y-140394991D01*
X65565314Y-140394991D02*
X65565314Y-140852134D01*
X65051028Y-139709277D02*
X64993885Y-139652134D01*
X64993885Y-139652134D02*
X64936742Y-139537849D01*
X64936742Y-139537849D02*
X64936742Y-139252134D01*
X64936742Y-139252134D02*
X64993885Y-139137849D01*
X64993885Y-139137849D02*
X65051028Y-139080706D01*
X65051028Y-139080706D02*
X65165314Y-139023563D01*
X65165314Y-139023563D02*
X65279600Y-139023563D01*
X65279600Y-139023563D02*
X65451028Y-139080706D01*
X65451028Y-139080706D02*
X66136742Y-139766420D01*
X66136742Y-139766420D02*
X66136742Y-139023563D01*
X143108006Y-114858457D02*
X143050863Y-114915600D01*
X143050863Y-114915600D02*
X142879435Y-114972742D01*
X142879435Y-114972742D02*
X142765149Y-114972742D01*
X142765149Y-114972742D02*
X142593720Y-114915600D01*
X142593720Y-114915600D02*
X142479435Y-114801314D01*
X142479435Y-114801314D02*
X142422292Y-114687028D01*
X142422292Y-114687028D02*
X142365149Y-114458457D01*
X142365149Y-114458457D02*
X142365149Y-114287028D01*
X142365149Y-114287028D02*
X142422292Y-114058457D01*
X142422292Y-114058457D02*
X142479435Y-113944171D01*
X142479435Y-113944171D02*
X142593720Y-113829885D01*
X142593720Y-113829885D02*
X142765149Y-113772742D01*
X142765149Y-113772742D02*
X142879435Y-113772742D01*
X142879435Y-113772742D02*
X143050863Y-113829885D01*
X143050863Y-113829885D02*
X143108006Y-113887028D01*
X143565149Y-114915600D02*
X143736578Y-114972742D01*
X143736578Y-114972742D02*
X144022292Y-114972742D01*
X144022292Y-114972742D02*
X144136578Y-114915600D01*
X144136578Y-114915600D02*
X144193720Y-114858457D01*
X144193720Y-114858457D02*
X144250863Y-114744171D01*
X144250863Y-114744171D02*
X144250863Y-114629885D01*
X144250863Y-114629885D02*
X144193720Y-114515600D01*
X144193720Y-114515600D02*
X144136578Y-114458457D01*
X144136578Y-114458457D02*
X144022292Y-114401314D01*
X144022292Y-114401314D02*
X143793720Y-114344171D01*
X143793720Y-114344171D02*
X143679435Y-114287028D01*
X143679435Y-114287028D02*
X143622292Y-114229885D01*
X143622292Y-114229885D02*
X143565149Y-114115600D01*
X143565149Y-114115600D02*
X143565149Y-114001314D01*
X143565149Y-114001314D02*
X143622292Y-113887028D01*
X143622292Y-113887028D02*
X143679435Y-113829885D01*
X143679435Y-113829885D02*
X143793720Y-113772742D01*
X143793720Y-113772742D02*
X144079435Y-113772742D01*
X144079435Y-113772742D02*
X144250863Y-113829885D01*
X144993720Y-113772742D02*
X145108006Y-113772742D01*
X145108006Y-113772742D02*
X145222292Y-113829885D01*
X145222292Y-113829885D02*
X145279435Y-113887028D01*
X145279435Y-113887028D02*
X145336577Y-114001314D01*
X145336577Y-114001314D02*
X145393720Y-114229885D01*
X145393720Y-114229885D02*
X145393720Y-114515600D01*
X145393720Y-114515600D02*
X145336577Y-114744171D01*
X145336577Y-114744171D02*
X145279435Y-114858457D01*
X145279435Y-114858457D02*
X145222292Y-114915600D01*
X145222292Y-114915600D02*
X145108006Y-114972742D01*
X145108006Y-114972742D02*
X144993720Y-114972742D01*
X144993720Y-114972742D02*
X144879435Y-114915600D01*
X144879435Y-114915600D02*
X144822292Y-114858457D01*
X144822292Y-114858457D02*
X144765149Y-114744171D01*
X144765149Y-114744171D02*
X144708006Y-114515600D01*
X144708006Y-114515600D02*
X144708006Y-114229885D01*
X144708006Y-114229885D02*
X144765149Y-114001314D01*
X144765149Y-114001314D02*
X144822292Y-113887028D01*
X144822292Y-113887028D02*
X144879435Y-113829885D01*
X144879435Y-113829885D02*
X144993720Y-113772742D01*
X142140565Y-71540600D02*
X142311994Y-71597742D01*
X142311994Y-71597742D02*
X142597708Y-71597742D01*
X142597708Y-71597742D02*
X142711994Y-71540600D01*
X142711994Y-71540600D02*
X142769136Y-71483457D01*
X142769136Y-71483457D02*
X142826279Y-71369171D01*
X142826279Y-71369171D02*
X142826279Y-71254885D01*
X142826279Y-71254885D02*
X142769136Y-71140600D01*
X142769136Y-71140600D02*
X142711994Y-71083457D01*
X142711994Y-71083457D02*
X142597708Y-71026314D01*
X142597708Y-71026314D02*
X142369136Y-70969171D01*
X142369136Y-70969171D02*
X142254851Y-70912028D01*
X142254851Y-70912028D02*
X142197708Y-70854885D01*
X142197708Y-70854885D02*
X142140565Y-70740600D01*
X142140565Y-70740600D02*
X142140565Y-70626314D01*
X142140565Y-70626314D02*
X142197708Y-70512028D01*
X142197708Y-70512028D02*
X142254851Y-70454885D01*
X142254851Y-70454885D02*
X142369136Y-70397742D01*
X142369136Y-70397742D02*
X142654851Y-70397742D01*
X142654851Y-70397742D02*
X142826279Y-70454885D01*
X143340565Y-71597742D02*
X143340565Y-70397742D01*
X143340565Y-70397742D02*
X143626279Y-70397742D01*
X143626279Y-70397742D02*
X143797708Y-70454885D01*
X143797708Y-70454885D02*
X143911993Y-70569171D01*
X143911993Y-70569171D02*
X143969136Y-70683457D01*
X143969136Y-70683457D02*
X144026279Y-70912028D01*
X144026279Y-70912028D02*
X144026279Y-71083457D01*
X144026279Y-71083457D02*
X143969136Y-71312028D01*
X143969136Y-71312028D02*
X143911993Y-71426314D01*
X143911993Y-71426314D02*
X143797708Y-71540600D01*
X143797708Y-71540600D02*
X143626279Y-71597742D01*
X143626279Y-71597742D02*
X143340565Y-71597742D01*
X144483422Y-71254885D02*
X145054851Y-71254885D01*
X144369136Y-71597742D02*
X144769136Y-70397742D01*
X144769136Y-70397742D02*
X145169136Y-71597742D01*
X134920564Y-75534885D02*
X134806279Y-75477742D01*
X134806279Y-75477742D02*
X134634850Y-75477742D01*
X134634850Y-75477742D02*
X134463421Y-75534885D01*
X134463421Y-75534885D02*
X134349136Y-75649171D01*
X134349136Y-75649171D02*
X134291993Y-75763457D01*
X134291993Y-75763457D02*
X134234850Y-75992028D01*
X134234850Y-75992028D02*
X134234850Y-76163457D01*
X134234850Y-76163457D02*
X134291993Y-76392028D01*
X134291993Y-76392028D02*
X134349136Y-76506314D01*
X134349136Y-76506314D02*
X134463421Y-76620600D01*
X134463421Y-76620600D02*
X134634850Y-76677742D01*
X134634850Y-76677742D02*
X134749136Y-76677742D01*
X134749136Y-76677742D02*
X134920564Y-76620600D01*
X134920564Y-76620600D02*
X134977707Y-76563457D01*
X134977707Y-76563457D02*
X134977707Y-76163457D01*
X134977707Y-76163457D02*
X134749136Y-76163457D01*
X135491993Y-76677742D02*
X135491993Y-75477742D01*
X135491993Y-75477742D02*
X136177707Y-76677742D01*
X136177707Y-76677742D02*
X136177707Y-75477742D01*
X136749136Y-76677742D02*
X136749136Y-75477742D01*
X136749136Y-75477742D02*
X137034850Y-75477742D01*
X137034850Y-75477742D02*
X137206279Y-75534885D01*
X137206279Y-75534885D02*
X137320564Y-75649171D01*
X137320564Y-75649171D02*
X137377707Y-75763457D01*
X137377707Y-75763457D02*
X137434850Y-75992028D01*
X137434850Y-75992028D02*
X137434850Y-76163457D01*
X137434850Y-76163457D02*
X137377707Y-76392028D01*
X137377707Y-76392028D02*
X137320564Y-76506314D01*
X137320564Y-76506314D02*
X137206279Y-76620600D01*
X137206279Y-76620600D02*
X137034850Y-76677742D01*
X137034850Y-76677742D02*
X136749136Y-76677742D01*
X61682257Y-82795863D02*
X61682257Y-83481578D01*
X60482257Y-83138720D02*
X61682257Y-83138720D01*
X61682257Y-83767292D02*
X60482257Y-84567292D01*
X61682257Y-84567292D02*
X60482257Y-83767292D01*
X60482257Y-85024435D02*
X61682257Y-85024435D01*
X61682257Y-85024435D02*
X61682257Y-85310149D01*
X61682257Y-85310149D02*
X61625114Y-85481578D01*
X61625114Y-85481578D02*
X61510828Y-85595863D01*
X61510828Y-85595863D02*
X61396542Y-85653006D01*
X61396542Y-85653006D02*
X61167971Y-85710149D01*
X61167971Y-85710149D02*
X60996542Y-85710149D01*
X60996542Y-85710149D02*
X60767971Y-85653006D01*
X60767971Y-85653006D02*
X60653685Y-85595863D01*
X60653685Y-85595863D02*
X60539400Y-85481578D01*
X60539400Y-85481578D02*
X60482257Y-85310149D01*
X60482257Y-85310149D02*
X60482257Y-85024435D01*
X60482257Y-86853006D02*
X60482257Y-86167292D01*
X60482257Y-86510149D02*
X61682257Y-86510149D01*
X61682257Y-86510149D02*
X61510828Y-86395863D01*
X61510828Y-86395863D02*
X61396542Y-86281578D01*
X61396542Y-86281578D02*
X61339400Y-86167292D01*
X83357257Y-55745863D02*
X82157257Y-56145863D01*
X82157257Y-56145863D02*
X83357257Y-56545863D01*
X82271542Y-57631577D02*
X82214400Y-57574434D01*
X82214400Y-57574434D02*
X82157257Y-57403006D01*
X82157257Y-57403006D02*
X82157257Y-57288720D01*
X82157257Y-57288720D02*
X82214400Y-57117291D01*
X82214400Y-57117291D02*
X82328685Y-57003006D01*
X82328685Y-57003006D02*
X82442971Y-56945863D01*
X82442971Y-56945863D02*
X82671542Y-56888720D01*
X82671542Y-56888720D02*
X82842971Y-56888720D01*
X82842971Y-56888720D02*
X83071542Y-56945863D01*
X83071542Y-56945863D02*
X83185828Y-57003006D01*
X83185828Y-57003006D02*
X83300114Y-57117291D01*
X83300114Y-57117291D02*
X83357257Y-57288720D01*
X83357257Y-57288720D02*
X83357257Y-57403006D01*
X83357257Y-57403006D02*
X83300114Y-57574434D01*
X83300114Y-57574434D02*
X83242971Y-57631577D01*
X82271542Y-58831577D02*
X82214400Y-58774434D01*
X82214400Y-58774434D02*
X82157257Y-58603006D01*
X82157257Y-58603006D02*
X82157257Y-58488720D01*
X82157257Y-58488720D02*
X82214400Y-58317291D01*
X82214400Y-58317291D02*
X82328685Y-58203006D01*
X82328685Y-58203006D02*
X82442971Y-58145863D01*
X82442971Y-58145863D02*
X82671542Y-58088720D01*
X82671542Y-58088720D02*
X82842971Y-58088720D01*
X82842971Y-58088720D02*
X83071542Y-58145863D01*
X83071542Y-58145863D02*
X83185828Y-58203006D01*
X83185828Y-58203006D02*
X83300114Y-58317291D01*
X83300114Y-58317291D02*
X83357257Y-58488720D01*
X83357257Y-58488720D02*
X83357257Y-58603006D01*
X83357257Y-58603006D02*
X83300114Y-58774434D01*
X83300114Y-58774434D02*
X83242971Y-58831577D01*
X100949885Y-138204136D02*
X100892742Y-138318422D01*
X100892742Y-138318422D02*
X100892742Y-138489850D01*
X100892742Y-138489850D02*
X100949885Y-138661279D01*
X100949885Y-138661279D02*
X101064171Y-138775564D01*
X101064171Y-138775564D02*
X101178457Y-138832707D01*
X101178457Y-138832707D02*
X101407028Y-138889850D01*
X101407028Y-138889850D02*
X101578457Y-138889850D01*
X101578457Y-138889850D02*
X101807028Y-138832707D01*
X101807028Y-138832707D02*
X101921314Y-138775564D01*
X101921314Y-138775564D02*
X102035600Y-138661279D01*
X102035600Y-138661279D02*
X102092742Y-138489850D01*
X102092742Y-138489850D02*
X102092742Y-138375564D01*
X102092742Y-138375564D02*
X102035600Y-138204136D01*
X102035600Y-138204136D02*
X101978457Y-138146993D01*
X101978457Y-138146993D02*
X101578457Y-138146993D01*
X101578457Y-138146993D02*
X101578457Y-138375564D01*
X102092742Y-137632707D02*
X100892742Y-137632707D01*
X100892742Y-137632707D02*
X102092742Y-136946993D01*
X102092742Y-136946993D02*
X100892742Y-136946993D01*
X102092742Y-136375564D02*
X100892742Y-136375564D01*
X100892742Y-136375564D02*
X100892742Y-136089850D01*
X100892742Y-136089850D02*
X100949885Y-135918421D01*
X100949885Y-135918421D02*
X101064171Y-135804136D01*
X101064171Y-135804136D02*
X101178457Y-135746993D01*
X101178457Y-135746993D02*
X101407028Y-135689850D01*
X101407028Y-135689850D02*
X101578457Y-135689850D01*
X101578457Y-135689850D02*
X101807028Y-135746993D01*
X101807028Y-135746993D02*
X101921314Y-135804136D01*
X101921314Y-135804136D02*
X102035600Y-135918421D01*
X102035600Y-135918421D02*
X102092742Y-136089850D01*
X102092742Y-136089850D02*
X102092742Y-136375564D01*
X61845863Y-70642742D02*
X62245863Y-71842742D01*
X62245863Y-71842742D02*
X62645863Y-70642742D01*
X63731577Y-71728457D02*
X63674434Y-71785600D01*
X63674434Y-71785600D02*
X63503006Y-71842742D01*
X63503006Y-71842742D02*
X63388720Y-71842742D01*
X63388720Y-71842742D02*
X63217291Y-71785600D01*
X63217291Y-71785600D02*
X63103006Y-71671314D01*
X63103006Y-71671314D02*
X63045863Y-71557028D01*
X63045863Y-71557028D02*
X62988720Y-71328457D01*
X62988720Y-71328457D02*
X62988720Y-71157028D01*
X62988720Y-71157028D02*
X63045863Y-70928457D01*
X63045863Y-70928457D02*
X63103006Y-70814171D01*
X63103006Y-70814171D02*
X63217291Y-70699885D01*
X63217291Y-70699885D02*
X63388720Y-70642742D01*
X63388720Y-70642742D02*
X63503006Y-70642742D01*
X63503006Y-70642742D02*
X63674434Y-70699885D01*
X63674434Y-70699885D02*
X63731577Y-70757028D01*
X64931577Y-71728457D02*
X64874434Y-71785600D01*
X64874434Y-71785600D02*
X64703006Y-71842742D01*
X64703006Y-71842742D02*
X64588720Y-71842742D01*
X64588720Y-71842742D02*
X64417291Y-71785600D01*
X64417291Y-71785600D02*
X64303006Y-71671314D01*
X64303006Y-71671314D02*
X64245863Y-71557028D01*
X64245863Y-71557028D02*
X64188720Y-71328457D01*
X64188720Y-71328457D02*
X64188720Y-71157028D01*
X64188720Y-71157028D02*
X64245863Y-70928457D01*
X64245863Y-70928457D02*
X64303006Y-70814171D01*
X64303006Y-70814171D02*
X64417291Y-70699885D01*
X64417291Y-70699885D02*
X64588720Y-70642742D01*
X64588720Y-70642742D02*
X64703006Y-70642742D01*
X64703006Y-70642742D02*
X64874434Y-70699885D01*
X64874434Y-70699885D02*
X64931577Y-70757028D01*
X79092742Y-137646993D02*
X78521314Y-138046993D01*
X79092742Y-138332707D02*
X77892742Y-138332707D01*
X77892742Y-138332707D02*
X77892742Y-137875564D01*
X77892742Y-137875564D02*
X77949885Y-137761279D01*
X77949885Y-137761279D02*
X78007028Y-137704136D01*
X78007028Y-137704136D02*
X78121314Y-137646993D01*
X78121314Y-137646993D02*
X78292742Y-137646993D01*
X78292742Y-137646993D02*
X78407028Y-137704136D01*
X78407028Y-137704136D02*
X78464171Y-137761279D01*
X78464171Y-137761279D02*
X78521314Y-137875564D01*
X78521314Y-137875564D02*
X78521314Y-138332707D01*
X78464171Y-137132707D02*
X78464171Y-136732707D01*
X79092742Y-136561279D02*
X79092742Y-137132707D01*
X79092742Y-137132707D02*
X77892742Y-137132707D01*
X77892742Y-137132707D02*
X77892742Y-136561279D01*
X79035600Y-136104136D02*
X79092742Y-135932708D01*
X79092742Y-135932708D02*
X79092742Y-135646993D01*
X79092742Y-135646993D02*
X79035600Y-135532708D01*
X79035600Y-135532708D02*
X78978457Y-135475565D01*
X78978457Y-135475565D02*
X78864171Y-135418422D01*
X78864171Y-135418422D02*
X78749885Y-135418422D01*
X78749885Y-135418422D02*
X78635600Y-135475565D01*
X78635600Y-135475565D02*
X78578457Y-135532708D01*
X78578457Y-135532708D02*
X78521314Y-135646993D01*
X78521314Y-135646993D02*
X78464171Y-135875565D01*
X78464171Y-135875565D02*
X78407028Y-135989850D01*
X78407028Y-135989850D02*
X78349885Y-136046993D01*
X78349885Y-136046993D02*
X78235600Y-136104136D01*
X78235600Y-136104136D02*
X78121314Y-136104136D01*
X78121314Y-136104136D02*
X78007028Y-136046993D01*
X78007028Y-136046993D02*
X77949885Y-135989850D01*
X77949885Y-135989850D02*
X77892742Y-135875565D01*
X77892742Y-135875565D02*
X77892742Y-135589850D01*
X77892742Y-135589850D02*
X77949885Y-135418422D01*
X78464171Y-134904136D02*
X78464171Y-134504136D01*
X79092742Y-134332708D02*
X79092742Y-134904136D01*
X79092742Y-134904136D02*
X77892742Y-134904136D01*
X77892742Y-134904136D02*
X77892742Y-134332708D01*
X77892742Y-133989851D02*
X77892742Y-133304137D01*
X79092742Y-133646994D02*
X77892742Y-133646994D01*
X141569136Y-80557742D02*
X142311993Y-80557742D01*
X142311993Y-80557742D02*
X141911993Y-81014885D01*
X141911993Y-81014885D02*
X142083422Y-81014885D01*
X142083422Y-81014885D02*
X142197708Y-81072028D01*
X142197708Y-81072028D02*
X142254850Y-81129171D01*
X142254850Y-81129171D02*
X142311993Y-81243457D01*
X142311993Y-81243457D02*
X142311993Y-81529171D01*
X142311993Y-81529171D02*
X142254850Y-81643457D01*
X142254850Y-81643457D02*
X142197708Y-81700600D01*
X142197708Y-81700600D02*
X142083422Y-81757742D01*
X142083422Y-81757742D02*
X141740565Y-81757742D01*
X141740565Y-81757742D02*
X141626279Y-81700600D01*
X141626279Y-81700600D02*
X141569136Y-81643457D01*
X142826279Y-81643457D02*
X142883422Y-81700600D01*
X142883422Y-81700600D02*
X142826279Y-81757742D01*
X142826279Y-81757742D02*
X142769136Y-81700600D01*
X142769136Y-81700600D02*
X142826279Y-81643457D01*
X142826279Y-81643457D02*
X142826279Y-81757742D01*
X143283422Y-80557742D02*
X144026279Y-80557742D01*
X144026279Y-80557742D02*
X143626279Y-81014885D01*
X143626279Y-81014885D02*
X143797708Y-81014885D01*
X143797708Y-81014885D02*
X143911994Y-81072028D01*
X143911994Y-81072028D02*
X143969136Y-81129171D01*
X143969136Y-81129171D02*
X144026279Y-81243457D01*
X144026279Y-81243457D02*
X144026279Y-81529171D01*
X144026279Y-81529171D02*
X143969136Y-81643457D01*
X143969136Y-81643457D02*
X143911994Y-81700600D01*
X143911994Y-81700600D02*
X143797708Y-81757742D01*
X143797708Y-81757742D02*
X143454851Y-81757742D01*
X143454851Y-81757742D02*
X143340565Y-81700600D01*
X143340565Y-81700600D02*
X143283422Y-81643457D01*
X144369136Y-80557742D02*
X144769136Y-81757742D01*
X144769136Y-81757742D02*
X145169136Y-80557742D01*
X98392742Y-138946993D02*
X98392742Y-138204136D01*
X98392742Y-138204136D02*
X98849885Y-138604136D01*
X98849885Y-138604136D02*
X98849885Y-138432707D01*
X98849885Y-138432707D02*
X98907028Y-138318422D01*
X98907028Y-138318422D02*
X98964171Y-138261279D01*
X98964171Y-138261279D02*
X99078457Y-138204136D01*
X99078457Y-138204136D02*
X99364171Y-138204136D01*
X99364171Y-138204136D02*
X99478457Y-138261279D01*
X99478457Y-138261279D02*
X99535600Y-138318422D01*
X99535600Y-138318422D02*
X99592742Y-138432707D01*
X99592742Y-138432707D02*
X99592742Y-138775564D01*
X99592742Y-138775564D02*
X99535600Y-138889850D01*
X99535600Y-138889850D02*
X99478457Y-138946993D01*
X99478457Y-137689850D02*
X99535600Y-137632707D01*
X99535600Y-137632707D02*
X99592742Y-137689850D01*
X99592742Y-137689850D02*
X99535600Y-137746993D01*
X99535600Y-137746993D02*
X99478457Y-137689850D01*
X99478457Y-137689850D02*
X99592742Y-137689850D01*
X98392742Y-137232707D02*
X98392742Y-136489850D01*
X98392742Y-136489850D02*
X98849885Y-136889850D01*
X98849885Y-136889850D02*
X98849885Y-136718421D01*
X98849885Y-136718421D02*
X98907028Y-136604136D01*
X98907028Y-136604136D02*
X98964171Y-136546993D01*
X98964171Y-136546993D02*
X99078457Y-136489850D01*
X99078457Y-136489850D02*
X99364171Y-136489850D01*
X99364171Y-136489850D02*
X99478457Y-136546993D01*
X99478457Y-136546993D02*
X99535600Y-136604136D01*
X99535600Y-136604136D02*
X99592742Y-136718421D01*
X99592742Y-136718421D02*
X99592742Y-137061278D01*
X99592742Y-137061278D02*
X99535600Y-137175564D01*
X99535600Y-137175564D02*
X99478457Y-137232707D01*
X98392742Y-136146993D02*
X99592742Y-135746993D01*
X99592742Y-135746993D02*
X98392742Y-135346993D01*
X56545114Y-83745863D02*
X56602257Y-83631578D01*
X56602257Y-83631578D02*
X56602257Y-83460149D01*
X56602257Y-83460149D02*
X56545114Y-83288720D01*
X56545114Y-83288720D02*
X56430828Y-83174435D01*
X56430828Y-83174435D02*
X56316542Y-83117292D01*
X56316542Y-83117292D02*
X56087971Y-83060149D01*
X56087971Y-83060149D02*
X55916542Y-83060149D01*
X55916542Y-83060149D02*
X55687971Y-83117292D01*
X55687971Y-83117292D02*
X55573685Y-83174435D01*
X55573685Y-83174435D02*
X55459400Y-83288720D01*
X55459400Y-83288720D02*
X55402257Y-83460149D01*
X55402257Y-83460149D02*
X55402257Y-83574435D01*
X55402257Y-83574435D02*
X55459400Y-83745863D01*
X55459400Y-83745863D02*
X55516542Y-83803006D01*
X55516542Y-83803006D02*
X55916542Y-83803006D01*
X55916542Y-83803006D02*
X55916542Y-83574435D01*
X55402257Y-84317292D02*
X56602257Y-84317292D01*
X56602257Y-84317292D02*
X55402257Y-85003006D01*
X55402257Y-85003006D02*
X56602257Y-85003006D01*
X55402257Y-85574435D02*
X56602257Y-85574435D01*
X56602257Y-85574435D02*
X56602257Y-85860149D01*
X56602257Y-85860149D02*
X56545114Y-86031578D01*
X56545114Y-86031578D02*
X56430828Y-86145863D01*
X56430828Y-86145863D02*
X56316542Y-86203006D01*
X56316542Y-86203006D02*
X56087971Y-86260149D01*
X56087971Y-86260149D02*
X55916542Y-86260149D01*
X55916542Y-86260149D02*
X55687971Y-86203006D01*
X55687971Y-86203006D02*
X55573685Y-86145863D01*
X55573685Y-86145863D02*
X55459400Y-86031578D01*
X55459400Y-86031578D02*
X55402257Y-85860149D01*
X55402257Y-85860149D02*
X55402257Y-85574435D01*
X133949136Y-80557742D02*
X134691993Y-80557742D01*
X134691993Y-80557742D02*
X134291993Y-81014885D01*
X134291993Y-81014885D02*
X134463422Y-81014885D01*
X134463422Y-81014885D02*
X134577708Y-81072028D01*
X134577708Y-81072028D02*
X134634850Y-81129171D01*
X134634850Y-81129171D02*
X134691993Y-81243457D01*
X134691993Y-81243457D02*
X134691993Y-81529171D01*
X134691993Y-81529171D02*
X134634850Y-81643457D01*
X134634850Y-81643457D02*
X134577708Y-81700600D01*
X134577708Y-81700600D02*
X134463422Y-81757742D01*
X134463422Y-81757742D02*
X134120565Y-81757742D01*
X134120565Y-81757742D02*
X134006279Y-81700600D01*
X134006279Y-81700600D02*
X133949136Y-81643457D01*
X135206279Y-81643457D02*
X135263422Y-81700600D01*
X135263422Y-81700600D02*
X135206279Y-81757742D01*
X135206279Y-81757742D02*
X135149136Y-81700600D01*
X135149136Y-81700600D02*
X135206279Y-81643457D01*
X135206279Y-81643457D02*
X135206279Y-81757742D01*
X135663422Y-80557742D02*
X136406279Y-80557742D01*
X136406279Y-80557742D02*
X136006279Y-81014885D01*
X136006279Y-81014885D02*
X136177708Y-81014885D01*
X136177708Y-81014885D02*
X136291994Y-81072028D01*
X136291994Y-81072028D02*
X136349136Y-81129171D01*
X136349136Y-81129171D02*
X136406279Y-81243457D01*
X136406279Y-81243457D02*
X136406279Y-81529171D01*
X136406279Y-81529171D02*
X136349136Y-81643457D01*
X136349136Y-81643457D02*
X136291994Y-81700600D01*
X136291994Y-81700600D02*
X136177708Y-81757742D01*
X136177708Y-81757742D02*
X135834851Y-81757742D01*
X135834851Y-81757742D02*
X135720565Y-81700600D01*
X135720565Y-81700600D02*
X135663422Y-81643457D01*
X136749136Y-80557742D02*
X137149136Y-81757742D01*
X137149136Y-81757742D02*
X137549136Y-80557742D01*
X62445863Y-73099885D02*
X62331578Y-73042742D01*
X62331578Y-73042742D02*
X62160149Y-73042742D01*
X62160149Y-73042742D02*
X61988720Y-73099885D01*
X61988720Y-73099885D02*
X61874435Y-73214171D01*
X61874435Y-73214171D02*
X61817292Y-73328457D01*
X61817292Y-73328457D02*
X61760149Y-73557028D01*
X61760149Y-73557028D02*
X61760149Y-73728457D01*
X61760149Y-73728457D02*
X61817292Y-73957028D01*
X61817292Y-73957028D02*
X61874435Y-74071314D01*
X61874435Y-74071314D02*
X61988720Y-74185600D01*
X61988720Y-74185600D02*
X62160149Y-74242742D01*
X62160149Y-74242742D02*
X62274435Y-74242742D01*
X62274435Y-74242742D02*
X62445863Y-74185600D01*
X62445863Y-74185600D02*
X62503006Y-74128457D01*
X62503006Y-74128457D02*
X62503006Y-73728457D01*
X62503006Y-73728457D02*
X62274435Y-73728457D01*
X63017292Y-74242742D02*
X63017292Y-73042742D01*
X63017292Y-73042742D02*
X63703006Y-74242742D01*
X63703006Y-74242742D02*
X63703006Y-73042742D01*
X64274435Y-74242742D02*
X64274435Y-73042742D01*
X64274435Y-73042742D02*
X64560149Y-73042742D01*
X64560149Y-73042742D02*
X64731578Y-73099885D01*
X64731578Y-73099885D02*
X64845863Y-73214171D01*
X64845863Y-73214171D02*
X64903006Y-73328457D01*
X64903006Y-73328457D02*
X64960149Y-73557028D01*
X64960149Y-73557028D02*
X64960149Y-73728457D01*
X64960149Y-73728457D02*
X64903006Y-73957028D01*
X64903006Y-73957028D02*
X64845863Y-74071314D01*
X64845863Y-74071314D02*
X64731578Y-74185600D01*
X64731578Y-74185600D02*
X64560149Y-74242742D01*
X64560149Y-74242742D02*
X64274435Y-74242742D01*
X60860149Y-131249885D02*
X61431578Y-131249885D01*
X60745863Y-131592742D02*
X61145863Y-130392742D01*
X61145863Y-130392742D02*
X61545863Y-131592742D01*
X61945863Y-130792742D02*
X61945863Y-131592742D01*
X61945863Y-130907028D02*
X62003006Y-130849885D01*
X62003006Y-130849885D02*
X62117291Y-130792742D01*
X62117291Y-130792742D02*
X62288720Y-130792742D01*
X62288720Y-130792742D02*
X62403006Y-130849885D01*
X62403006Y-130849885D02*
X62460149Y-130964171D01*
X62460149Y-130964171D02*
X62460149Y-131592742D01*
X63545863Y-131592742D02*
X63545863Y-130964171D01*
X63545863Y-130964171D02*
X63488720Y-130849885D01*
X63488720Y-130849885D02*
X63374434Y-130792742D01*
X63374434Y-130792742D02*
X63145863Y-130792742D01*
X63145863Y-130792742D02*
X63031577Y-130849885D01*
X63545863Y-131535600D02*
X63431577Y-131592742D01*
X63431577Y-131592742D02*
X63145863Y-131592742D01*
X63145863Y-131592742D02*
X63031577Y-131535600D01*
X63031577Y-131535600D02*
X62974434Y-131421314D01*
X62974434Y-131421314D02*
X62974434Y-131307028D01*
X62974434Y-131307028D02*
X63031577Y-131192742D01*
X63031577Y-131192742D02*
X63145863Y-131135600D01*
X63145863Y-131135600D02*
X63431577Y-131135600D01*
X63431577Y-131135600D02*
X63545863Y-131078457D01*
X64288719Y-131592742D02*
X64174434Y-131535600D01*
X64174434Y-131535600D02*
X64117291Y-131421314D01*
X64117291Y-131421314D02*
X64117291Y-130392742D01*
X64917290Y-131592742D02*
X64803005Y-131535600D01*
X64803005Y-131535600D02*
X64745862Y-131478457D01*
X64745862Y-131478457D02*
X64688719Y-131364171D01*
X64688719Y-131364171D02*
X64688719Y-131021314D01*
X64688719Y-131021314D02*
X64745862Y-130907028D01*
X64745862Y-130907028D02*
X64803005Y-130849885D01*
X64803005Y-130849885D02*
X64917290Y-130792742D01*
X64917290Y-130792742D02*
X65088719Y-130792742D01*
X65088719Y-130792742D02*
X65203005Y-130849885D01*
X65203005Y-130849885D02*
X65260148Y-130907028D01*
X65260148Y-130907028D02*
X65317290Y-131021314D01*
X65317290Y-131021314D02*
X65317290Y-131364171D01*
X65317290Y-131364171D02*
X65260148Y-131478457D01*
X65260148Y-131478457D02*
X65203005Y-131535600D01*
X65203005Y-131535600D02*
X65088719Y-131592742D01*
X65088719Y-131592742D02*
X64917290Y-131592742D01*
X66345862Y-130792742D02*
X66345862Y-131764171D01*
X66345862Y-131764171D02*
X66288719Y-131878457D01*
X66288719Y-131878457D02*
X66231576Y-131935600D01*
X66231576Y-131935600D02*
X66117290Y-131992742D01*
X66117290Y-131992742D02*
X65945862Y-131992742D01*
X65945862Y-131992742D02*
X65831576Y-131935600D01*
X66345862Y-131535600D02*
X66231576Y-131592742D01*
X66231576Y-131592742D02*
X66003004Y-131592742D01*
X66003004Y-131592742D02*
X65888719Y-131535600D01*
X65888719Y-131535600D02*
X65831576Y-131478457D01*
X65831576Y-131478457D02*
X65774433Y-131364171D01*
X65774433Y-131364171D02*
X65774433Y-131021314D01*
X65774433Y-131021314D02*
X65831576Y-130907028D01*
X65831576Y-130907028D02*
X65888719Y-130849885D01*
X65888719Y-130849885D02*
X66003004Y-130792742D01*
X66003004Y-130792742D02*
X66231576Y-130792742D01*
X66231576Y-130792742D02*
X66345862Y-130849885D01*
X138593292Y-84050171D02*
X138993292Y-84050171D01*
X139164720Y-84678742D02*
X138593292Y-84678742D01*
X138593292Y-84678742D02*
X138593292Y-83478742D01*
X138593292Y-83478742D02*
X139164720Y-83478742D01*
X139679006Y-83878742D02*
X139679006Y-84678742D01*
X139679006Y-83993028D02*
X139736149Y-83935885D01*
X139736149Y-83935885D02*
X139850434Y-83878742D01*
X139850434Y-83878742D02*
X140021863Y-83878742D01*
X140021863Y-83878742D02*
X140136149Y-83935885D01*
X140136149Y-83935885D02*
X140193292Y-84050171D01*
X140193292Y-84050171D02*
X140193292Y-84678742D01*
X140650434Y-83878742D02*
X140936148Y-84678742D01*
X140936148Y-84678742D02*
X141221863Y-83878742D01*
X144045863Y-103699885D02*
X143931578Y-103642742D01*
X143931578Y-103642742D02*
X143760149Y-103642742D01*
X143760149Y-103642742D02*
X143588720Y-103699885D01*
X143588720Y-103699885D02*
X143474435Y-103814171D01*
X143474435Y-103814171D02*
X143417292Y-103928457D01*
X143417292Y-103928457D02*
X143360149Y-104157028D01*
X143360149Y-104157028D02*
X143360149Y-104328457D01*
X143360149Y-104328457D02*
X143417292Y-104557028D01*
X143417292Y-104557028D02*
X143474435Y-104671314D01*
X143474435Y-104671314D02*
X143588720Y-104785600D01*
X143588720Y-104785600D02*
X143760149Y-104842742D01*
X143760149Y-104842742D02*
X143874435Y-104842742D01*
X143874435Y-104842742D02*
X144045863Y-104785600D01*
X144045863Y-104785600D02*
X144103006Y-104728457D01*
X144103006Y-104728457D02*
X144103006Y-104328457D01*
X144103006Y-104328457D02*
X143874435Y-104328457D01*
X144617292Y-104842742D02*
X144617292Y-103642742D01*
X144617292Y-103642742D02*
X145303006Y-104842742D01*
X145303006Y-104842742D02*
X145303006Y-103642742D01*
X145874435Y-104842742D02*
X145874435Y-103642742D01*
X145874435Y-103642742D02*
X146160149Y-103642742D01*
X146160149Y-103642742D02*
X146331578Y-103699885D01*
X146331578Y-103699885D02*
X146445863Y-103814171D01*
X146445863Y-103814171D02*
X146503006Y-103928457D01*
X146503006Y-103928457D02*
X146560149Y-104157028D01*
X146560149Y-104157028D02*
X146560149Y-104328457D01*
X146560149Y-104328457D02*
X146503006Y-104557028D01*
X146503006Y-104557028D02*
X146445863Y-104671314D01*
X146445863Y-104671314D02*
X146331578Y-104785600D01*
X146331578Y-104785600D02*
X146160149Y-104842742D01*
X146160149Y-104842742D02*
X145874435Y-104842742D01*
X103699885Y-55954136D02*
X103642742Y-56068422D01*
X103642742Y-56068422D02*
X103642742Y-56239850D01*
X103642742Y-56239850D02*
X103699885Y-56411279D01*
X103699885Y-56411279D02*
X103814171Y-56525564D01*
X103814171Y-56525564D02*
X103928457Y-56582707D01*
X103928457Y-56582707D02*
X104157028Y-56639850D01*
X104157028Y-56639850D02*
X104328457Y-56639850D01*
X104328457Y-56639850D02*
X104557028Y-56582707D01*
X104557028Y-56582707D02*
X104671314Y-56525564D01*
X104671314Y-56525564D02*
X104785600Y-56411279D01*
X104785600Y-56411279D02*
X104842742Y-56239850D01*
X104842742Y-56239850D02*
X104842742Y-56125564D01*
X104842742Y-56125564D02*
X104785600Y-55954136D01*
X104785600Y-55954136D02*
X104728457Y-55896993D01*
X104728457Y-55896993D02*
X104328457Y-55896993D01*
X104328457Y-55896993D02*
X104328457Y-56125564D01*
X104842742Y-55382707D02*
X103642742Y-55382707D01*
X103642742Y-55382707D02*
X104842742Y-54696993D01*
X104842742Y-54696993D02*
X103642742Y-54696993D01*
X104842742Y-54125564D02*
X103642742Y-54125564D01*
X103642742Y-54125564D02*
X103642742Y-53839850D01*
X103642742Y-53839850D02*
X103699885Y-53668421D01*
X103699885Y-53668421D02*
X103814171Y-53554136D01*
X103814171Y-53554136D02*
X103928457Y-53496993D01*
X103928457Y-53496993D02*
X104157028Y-53439850D01*
X104157028Y-53439850D02*
X104328457Y-53439850D01*
X104328457Y-53439850D02*
X104557028Y-53496993D01*
X104557028Y-53496993D02*
X104671314Y-53554136D01*
X104671314Y-53554136D02*
X104785600Y-53668421D01*
X104785600Y-53668421D02*
X104842742Y-53839850D01*
X104842742Y-53839850D02*
X104842742Y-54125564D01*
X67949885Y-137704136D02*
X67892742Y-137818422D01*
X67892742Y-137818422D02*
X67892742Y-137989850D01*
X67892742Y-137989850D02*
X67949885Y-138161279D01*
X67949885Y-138161279D02*
X68064171Y-138275564D01*
X68064171Y-138275564D02*
X68178457Y-138332707D01*
X68178457Y-138332707D02*
X68407028Y-138389850D01*
X68407028Y-138389850D02*
X68578457Y-138389850D01*
X68578457Y-138389850D02*
X68807028Y-138332707D01*
X68807028Y-138332707D02*
X68921314Y-138275564D01*
X68921314Y-138275564D02*
X69035600Y-138161279D01*
X69035600Y-138161279D02*
X69092742Y-137989850D01*
X69092742Y-137989850D02*
X69092742Y-137875564D01*
X69092742Y-137875564D02*
X69035600Y-137704136D01*
X69035600Y-137704136D02*
X68978457Y-137646993D01*
X68978457Y-137646993D02*
X68578457Y-137646993D01*
X68578457Y-137646993D02*
X68578457Y-137875564D01*
X69092742Y-137132707D02*
X67892742Y-137132707D01*
X67892742Y-137132707D02*
X69092742Y-136446993D01*
X69092742Y-136446993D02*
X67892742Y-136446993D01*
X69092742Y-135875564D02*
X67892742Y-135875564D01*
X67892742Y-135875564D02*
X67892742Y-135589850D01*
X67892742Y-135589850D02*
X67949885Y-135418421D01*
X67949885Y-135418421D02*
X68064171Y-135304136D01*
X68064171Y-135304136D02*
X68178457Y-135246993D01*
X68178457Y-135246993D02*
X68407028Y-135189850D01*
X68407028Y-135189850D02*
X68578457Y-135189850D01*
X68578457Y-135189850D02*
X68807028Y-135246993D01*
X68807028Y-135246993D02*
X68921314Y-135304136D01*
X68921314Y-135304136D02*
X69035600Y-135418421D01*
X69035600Y-135418421D02*
X69092742Y-135589850D01*
X69092742Y-135589850D02*
X69092742Y-135875564D01*
X98478457Y-55896993D02*
X98535600Y-55954136D01*
X98535600Y-55954136D02*
X98592742Y-56125564D01*
X98592742Y-56125564D02*
X98592742Y-56239850D01*
X98592742Y-56239850D02*
X98535600Y-56411279D01*
X98535600Y-56411279D02*
X98421314Y-56525564D01*
X98421314Y-56525564D02*
X98307028Y-56582707D01*
X98307028Y-56582707D02*
X98078457Y-56639850D01*
X98078457Y-56639850D02*
X97907028Y-56639850D01*
X97907028Y-56639850D02*
X97678457Y-56582707D01*
X97678457Y-56582707D02*
X97564171Y-56525564D01*
X97564171Y-56525564D02*
X97449885Y-56411279D01*
X97449885Y-56411279D02*
X97392742Y-56239850D01*
X97392742Y-56239850D02*
X97392742Y-56125564D01*
X97392742Y-56125564D02*
X97449885Y-55954136D01*
X97449885Y-55954136D02*
X97507028Y-55896993D01*
X98535600Y-55439850D02*
X98592742Y-55268422D01*
X98592742Y-55268422D02*
X98592742Y-54982707D01*
X98592742Y-54982707D02*
X98535600Y-54868422D01*
X98535600Y-54868422D02*
X98478457Y-54811279D01*
X98478457Y-54811279D02*
X98364171Y-54754136D01*
X98364171Y-54754136D02*
X98249885Y-54754136D01*
X98249885Y-54754136D02*
X98135600Y-54811279D01*
X98135600Y-54811279D02*
X98078457Y-54868422D01*
X98078457Y-54868422D02*
X98021314Y-54982707D01*
X98021314Y-54982707D02*
X97964171Y-55211279D01*
X97964171Y-55211279D02*
X97907028Y-55325564D01*
X97907028Y-55325564D02*
X97849885Y-55382707D01*
X97849885Y-55382707D02*
X97735600Y-55439850D01*
X97735600Y-55439850D02*
X97621314Y-55439850D01*
X97621314Y-55439850D02*
X97507028Y-55382707D01*
X97507028Y-55382707D02*
X97449885Y-55325564D01*
X97449885Y-55325564D02*
X97392742Y-55211279D01*
X97392742Y-55211279D02*
X97392742Y-54925564D01*
X97392742Y-54925564D02*
X97449885Y-54754136D01*
X98592742Y-53611279D02*
X98592742Y-54296993D01*
X98592742Y-53954136D02*
X97392742Y-53954136D01*
X97392742Y-53954136D02*
X97564171Y-54068422D01*
X97564171Y-54068422D02*
X97678457Y-54182707D01*
X97678457Y-54182707D02*
X97735600Y-54296993D01*
X143111993Y-79217742D02*
X143111993Y-78017742D01*
X143111993Y-78017742D02*
X143797707Y-79217742D01*
X143797707Y-79217742D02*
X143797707Y-78017742D01*
X145054850Y-79103457D02*
X144997707Y-79160600D01*
X144997707Y-79160600D02*
X144826279Y-79217742D01*
X144826279Y-79217742D02*
X144711993Y-79217742D01*
X144711993Y-79217742D02*
X144540564Y-79160600D01*
X144540564Y-79160600D02*
X144426279Y-79046314D01*
X144426279Y-79046314D02*
X144369136Y-78932028D01*
X144369136Y-78932028D02*
X144311993Y-78703457D01*
X144311993Y-78703457D02*
X144311993Y-78532028D01*
X144311993Y-78532028D02*
X144369136Y-78303457D01*
X144369136Y-78303457D02*
X144426279Y-78189171D01*
X144426279Y-78189171D02*
X144540564Y-78074885D01*
X144540564Y-78074885D02*
X144711993Y-78017742D01*
X144711993Y-78017742D02*
X144826279Y-78017742D01*
X144826279Y-78017742D02*
X144997707Y-78074885D01*
X144997707Y-78074885D02*
X145054850Y-78132028D01*
X134577707Y-74080600D02*
X134749136Y-74137742D01*
X134749136Y-74137742D02*
X135034850Y-74137742D01*
X135034850Y-74137742D02*
X135149136Y-74080600D01*
X135149136Y-74080600D02*
X135206278Y-74023457D01*
X135206278Y-74023457D02*
X135263421Y-73909171D01*
X135263421Y-73909171D02*
X135263421Y-73794885D01*
X135263421Y-73794885D02*
X135206278Y-73680600D01*
X135206278Y-73680600D02*
X135149136Y-73623457D01*
X135149136Y-73623457D02*
X135034850Y-73566314D01*
X135034850Y-73566314D02*
X134806278Y-73509171D01*
X134806278Y-73509171D02*
X134691993Y-73452028D01*
X134691993Y-73452028D02*
X134634850Y-73394885D01*
X134634850Y-73394885D02*
X134577707Y-73280600D01*
X134577707Y-73280600D02*
X134577707Y-73166314D01*
X134577707Y-73166314D02*
X134634850Y-73052028D01*
X134634850Y-73052028D02*
X134691993Y-72994885D01*
X134691993Y-72994885D02*
X134806278Y-72937742D01*
X134806278Y-72937742D02*
X135091993Y-72937742D01*
X135091993Y-72937742D02*
X135263421Y-72994885D01*
X136463421Y-74023457D02*
X136406278Y-74080600D01*
X136406278Y-74080600D02*
X136234850Y-74137742D01*
X136234850Y-74137742D02*
X136120564Y-74137742D01*
X136120564Y-74137742D02*
X135949135Y-74080600D01*
X135949135Y-74080600D02*
X135834850Y-73966314D01*
X135834850Y-73966314D02*
X135777707Y-73852028D01*
X135777707Y-73852028D02*
X135720564Y-73623457D01*
X135720564Y-73623457D02*
X135720564Y-73452028D01*
X135720564Y-73452028D02*
X135777707Y-73223457D01*
X135777707Y-73223457D02*
X135834850Y-73109171D01*
X135834850Y-73109171D02*
X135949135Y-72994885D01*
X135949135Y-72994885D02*
X136120564Y-72937742D01*
X136120564Y-72937742D02*
X136234850Y-72937742D01*
X136234850Y-72937742D02*
X136406278Y-72994885D01*
X136406278Y-72994885D02*
X136463421Y-73052028D01*
X137549135Y-74137742D02*
X136977707Y-74137742D01*
X136977707Y-74137742D02*
X136977707Y-72937742D01*
X84342742Y-138332707D02*
X83142742Y-138332707D01*
X83142742Y-138332707D02*
X84342742Y-137646993D01*
X84342742Y-137646993D02*
X83142742Y-137646993D01*
X84228457Y-136389850D02*
X84285600Y-136446993D01*
X84285600Y-136446993D02*
X84342742Y-136618421D01*
X84342742Y-136618421D02*
X84342742Y-136732707D01*
X84342742Y-136732707D02*
X84285600Y-136904136D01*
X84285600Y-136904136D02*
X84171314Y-137018421D01*
X84171314Y-137018421D02*
X84057028Y-137075564D01*
X84057028Y-137075564D02*
X83828457Y-137132707D01*
X83828457Y-137132707D02*
X83657028Y-137132707D01*
X83657028Y-137132707D02*
X83428457Y-137075564D01*
X83428457Y-137075564D02*
X83314171Y-137018421D01*
X83314171Y-137018421D02*
X83199885Y-136904136D01*
X83199885Y-136904136D02*
X83142742Y-136732707D01*
X83142742Y-136732707D02*
X83142742Y-136618421D01*
X83142742Y-136618421D02*
X83199885Y-136446993D01*
X83199885Y-136446993D02*
X83257028Y-136389850D01*
X81842742Y-138332707D02*
X80642742Y-138332707D01*
X80642742Y-138332707D02*
X81842742Y-137646993D01*
X81842742Y-137646993D02*
X80642742Y-137646993D01*
X81728457Y-136389850D02*
X81785600Y-136446993D01*
X81785600Y-136446993D02*
X81842742Y-136618421D01*
X81842742Y-136618421D02*
X81842742Y-136732707D01*
X81842742Y-136732707D02*
X81785600Y-136904136D01*
X81785600Y-136904136D02*
X81671314Y-137018421D01*
X81671314Y-137018421D02*
X81557028Y-137075564D01*
X81557028Y-137075564D02*
X81328457Y-137132707D01*
X81328457Y-137132707D02*
X81157028Y-137132707D01*
X81157028Y-137132707D02*
X80928457Y-137075564D01*
X80928457Y-137075564D02*
X80814171Y-137018421D01*
X80814171Y-137018421D02*
X80699885Y-136904136D01*
X80699885Y-136904136D02*
X80642742Y-136732707D01*
X80642742Y-136732707D02*
X80642742Y-136618421D01*
X80642742Y-136618421D02*
X80699885Y-136446993D01*
X80699885Y-136446993D02*
X80757028Y-136389850D01*
X143111993Y-69057742D02*
X143111993Y-67857742D01*
X143111993Y-67857742D02*
X143797707Y-69057742D01*
X143797707Y-69057742D02*
X143797707Y-67857742D01*
X145054850Y-68943457D02*
X144997707Y-69000600D01*
X144997707Y-69000600D02*
X144826279Y-69057742D01*
X144826279Y-69057742D02*
X144711993Y-69057742D01*
X144711993Y-69057742D02*
X144540564Y-69000600D01*
X144540564Y-69000600D02*
X144426279Y-68886314D01*
X144426279Y-68886314D02*
X144369136Y-68772028D01*
X144369136Y-68772028D02*
X144311993Y-68543457D01*
X144311993Y-68543457D02*
X144311993Y-68372028D01*
X144311993Y-68372028D02*
X144369136Y-68143457D01*
X144369136Y-68143457D02*
X144426279Y-68029171D01*
X144426279Y-68029171D02*
X144540564Y-67914885D01*
X144540564Y-67914885D02*
X144711993Y-67857742D01*
X144711993Y-67857742D02*
X144826279Y-67857742D01*
X144826279Y-67857742D02*
X144997707Y-67914885D01*
X144997707Y-67914885D02*
X145054850Y-67972028D01*
X70392742Y-138504136D02*
X70392742Y-137818422D01*
X71592742Y-138161279D02*
X70392742Y-138161279D01*
X70392742Y-137532707D02*
X71592742Y-136732707D01*
X70392742Y-136732707D02*
X71592742Y-137532707D01*
X71592742Y-136275564D02*
X70392742Y-136275564D01*
X70392742Y-136275564D02*
X70392742Y-135989850D01*
X70392742Y-135989850D02*
X70449885Y-135818421D01*
X70449885Y-135818421D02*
X70564171Y-135704136D01*
X70564171Y-135704136D02*
X70678457Y-135646993D01*
X70678457Y-135646993D02*
X70907028Y-135589850D01*
X70907028Y-135589850D02*
X71078457Y-135589850D01*
X71078457Y-135589850D02*
X71307028Y-135646993D01*
X71307028Y-135646993D02*
X71421314Y-135704136D01*
X71421314Y-135704136D02*
X71535600Y-135818421D01*
X71535600Y-135818421D02*
X71592742Y-135989850D01*
X71592742Y-135989850D02*
X71592742Y-136275564D01*
X70392742Y-134846993D02*
X70392742Y-134732707D01*
X70392742Y-134732707D02*
X70449885Y-134618421D01*
X70449885Y-134618421D02*
X70507028Y-134561279D01*
X70507028Y-134561279D02*
X70621314Y-134504136D01*
X70621314Y-134504136D02*
X70849885Y-134446993D01*
X70849885Y-134446993D02*
X71135600Y-134446993D01*
X71135600Y-134446993D02*
X71364171Y-134504136D01*
X71364171Y-134504136D02*
X71478457Y-134561279D01*
X71478457Y-134561279D02*
X71535600Y-134618421D01*
X71535600Y-134618421D02*
X71592742Y-134732707D01*
X71592742Y-134732707D02*
X71592742Y-134846993D01*
X71592742Y-134846993D02*
X71535600Y-134961279D01*
X71535600Y-134961279D02*
X71478457Y-135018421D01*
X71478457Y-135018421D02*
X71364171Y-135075564D01*
X71364171Y-135075564D02*
X71135600Y-135132707D01*
X71135600Y-135132707D02*
X70849885Y-135132707D01*
X70849885Y-135132707D02*
X70621314Y-135075564D01*
X70621314Y-135075564D02*
X70507028Y-135018421D01*
X70507028Y-135018421D02*
X70449885Y-134961279D01*
X70449885Y-134961279D02*
X70392742Y-134846993D01*
X146460863Y-83154885D02*
X146346578Y-83097742D01*
X146346578Y-83097742D02*
X146175149Y-83097742D01*
X146175149Y-83097742D02*
X146003720Y-83154885D01*
X146003720Y-83154885D02*
X145889435Y-83269171D01*
X145889435Y-83269171D02*
X145832292Y-83383457D01*
X145832292Y-83383457D02*
X145775149Y-83612028D01*
X145775149Y-83612028D02*
X145775149Y-83783457D01*
X145775149Y-83783457D02*
X145832292Y-84012028D01*
X145832292Y-84012028D02*
X145889435Y-84126314D01*
X145889435Y-84126314D02*
X146003720Y-84240600D01*
X146003720Y-84240600D02*
X146175149Y-84297742D01*
X146175149Y-84297742D02*
X146289435Y-84297742D01*
X146289435Y-84297742D02*
X146460863Y-84240600D01*
X146460863Y-84240600D02*
X146518006Y-84183457D01*
X146518006Y-84183457D02*
X146518006Y-83783457D01*
X146518006Y-83783457D02*
X146289435Y-83783457D01*
X146918006Y-83497742D02*
X147203720Y-84297742D01*
X147489435Y-83497742D02*
X147203720Y-84297742D01*
X147203720Y-84297742D02*
X147089435Y-84583457D01*
X147089435Y-84583457D02*
X147032292Y-84640600D01*
X147032292Y-84640600D02*
X146918006Y-84697742D01*
X147946578Y-84297742D02*
X147946578Y-83497742D01*
X147946578Y-83726314D02*
X148003721Y-83612028D01*
X148003721Y-83612028D02*
X148060864Y-83554885D01*
X148060864Y-83554885D02*
X148175149Y-83497742D01*
X148175149Y-83497742D02*
X148289435Y-83497742D01*
X148860863Y-84297742D02*
X148746578Y-84240600D01*
X148746578Y-84240600D02*
X148689435Y-84183457D01*
X148689435Y-84183457D02*
X148632292Y-84069171D01*
X148632292Y-84069171D02*
X148632292Y-83726314D01*
X148632292Y-83726314D02*
X148689435Y-83612028D01*
X148689435Y-83612028D02*
X148746578Y-83554885D01*
X148746578Y-83554885D02*
X148860863Y-83497742D01*
X148860863Y-83497742D02*
X149032292Y-83497742D01*
X149032292Y-83497742D02*
X149146578Y-83554885D01*
X149146578Y-83554885D02*
X149203721Y-83612028D01*
X149203721Y-83612028D02*
X149260863Y-83726314D01*
X149260863Y-83726314D02*
X149260863Y-84069171D01*
X149260863Y-84069171D02*
X149203721Y-84183457D01*
X149203721Y-84183457D02*
X149146578Y-84240600D01*
X149146578Y-84240600D02*
X149032292Y-84297742D01*
X149032292Y-84297742D02*
X148860863Y-84297742D01*
X92092742Y-138832707D02*
X90892742Y-138832707D01*
X90892742Y-138832707D02*
X92092742Y-138146993D01*
X92092742Y-138146993D02*
X90892742Y-138146993D01*
X91978457Y-136889850D02*
X92035600Y-136946993D01*
X92035600Y-136946993D02*
X92092742Y-137118421D01*
X92092742Y-137118421D02*
X92092742Y-137232707D01*
X92092742Y-137232707D02*
X92035600Y-137404136D01*
X92035600Y-137404136D02*
X91921314Y-137518421D01*
X91921314Y-137518421D02*
X91807028Y-137575564D01*
X91807028Y-137575564D02*
X91578457Y-137632707D01*
X91578457Y-137632707D02*
X91407028Y-137632707D01*
X91407028Y-137632707D02*
X91178457Y-137575564D01*
X91178457Y-137575564D02*
X91064171Y-137518421D01*
X91064171Y-137518421D02*
X90949885Y-137404136D01*
X90949885Y-137404136D02*
X90892742Y-137232707D01*
X90892742Y-137232707D02*
X90892742Y-137118421D01*
X90892742Y-137118421D02*
X90949885Y-136946993D01*
X90949885Y-136946993D02*
X91007028Y-136889850D01*
X142417292Y-118342742D02*
X142417292Y-117142742D01*
X142417292Y-117142742D02*
X142817292Y-117999885D01*
X142817292Y-117999885D02*
X143217292Y-117142742D01*
X143217292Y-117142742D02*
X143217292Y-118342742D01*
X143788721Y-118342742D02*
X143788721Y-117142742D01*
X144303007Y-118285600D02*
X144474436Y-118342742D01*
X144474436Y-118342742D02*
X144760150Y-118342742D01*
X144760150Y-118342742D02*
X144874436Y-118285600D01*
X144874436Y-118285600D02*
X144931578Y-118228457D01*
X144931578Y-118228457D02*
X144988721Y-118114171D01*
X144988721Y-118114171D02*
X144988721Y-117999885D01*
X144988721Y-117999885D02*
X144931578Y-117885600D01*
X144931578Y-117885600D02*
X144874436Y-117828457D01*
X144874436Y-117828457D02*
X144760150Y-117771314D01*
X144760150Y-117771314D02*
X144531578Y-117714171D01*
X144531578Y-117714171D02*
X144417293Y-117657028D01*
X144417293Y-117657028D02*
X144360150Y-117599885D01*
X144360150Y-117599885D02*
X144303007Y-117485600D01*
X144303007Y-117485600D02*
X144303007Y-117371314D01*
X144303007Y-117371314D02*
X144360150Y-117257028D01*
X144360150Y-117257028D02*
X144417293Y-117199885D01*
X144417293Y-117199885D02*
X144531578Y-117142742D01*
X144531578Y-117142742D02*
X144817293Y-117142742D01*
X144817293Y-117142742D02*
X144988721Y-117199885D01*
X145731578Y-117142742D02*
X145960150Y-117142742D01*
X145960150Y-117142742D02*
X146074435Y-117199885D01*
X146074435Y-117199885D02*
X146188721Y-117314171D01*
X146188721Y-117314171D02*
X146245864Y-117542742D01*
X146245864Y-117542742D02*
X146245864Y-117942742D01*
X146245864Y-117942742D02*
X146188721Y-118171314D01*
X146188721Y-118171314D02*
X146074435Y-118285600D01*
X146074435Y-118285600D02*
X145960150Y-118342742D01*
X145960150Y-118342742D02*
X145731578Y-118342742D01*
X145731578Y-118342742D02*
X145617293Y-118285600D01*
X145617293Y-118285600D02*
X145503007Y-118171314D01*
X145503007Y-118171314D02*
X145445864Y-117942742D01*
X145445864Y-117942742D02*
X145445864Y-117542742D01*
X145445864Y-117542742D02*
X145503007Y-117314171D01*
X145503007Y-117314171D02*
X145617293Y-117199885D01*
X145617293Y-117199885D02*
X145731578Y-117142742D01*
X54214286Y-64782238D02*
X54385714Y-64839381D01*
X54385714Y-64839381D02*
X54442857Y-64896524D01*
X54442857Y-64896524D02*
X54500000Y-65010809D01*
X54500000Y-65010809D02*
X54500000Y-65182238D01*
X54500000Y-65182238D02*
X54442857Y-65296524D01*
X54442857Y-65296524D02*
X54385714Y-65353667D01*
X54385714Y-65353667D02*
X54271429Y-65410809D01*
X54271429Y-65410809D02*
X53814286Y-65410809D01*
X53814286Y-65410809D02*
X53814286Y-64210809D01*
X53814286Y-64210809D02*
X54214286Y-64210809D01*
X54214286Y-64210809D02*
X54328572Y-64267952D01*
X54328572Y-64267952D02*
X54385714Y-64325095D01*
X54385714Y-64325095D02*
X54442857Y-64439381D01*
X54442857Y-64439381D02*
X54442857Y-64553667D01*
X54442857Y-64553667D02*
X54385714Y-64667952D01*
X54385714Y-64667952D02*
X54328572Y-64725095D01*
X54328572Y-64725095D02*
X54214286Y-64782238D01*
X54214286Y-64782238D02*
X53814286Y-64782238D01*
X55528572Y-65410809D02*
X55528572Y-64782238D01*
X55528572Y-64782238D02*
X55471429Y-64667952D01*
X55471429Y-64667952D02*
X55357143Y-64610809D01*
X55357143Y-64610809D02*
X55128572Y-64610809D01*
X55128572Y-64610809D02*
X55014286Y-64667952D01*
X55528572Y-65353667D02*
X55414286Y-65410809D01*
X55414286Y-65410809D02*
X55128572Y-65410809D01*
X55128572Y-65410809D02*
X55014286Y-65353667D01*
X55014286Y-65353667D02*
X54957143Y-65239381D01*
X54957143Y-65239381D02*
X54957143Y-65125095D01*
X54957143Y-65125095D02*
X55014286Y-65010809D01*
X55014286Y-65010809D02*
X55128572Y-64953667D01*
X55128572Y-64953667D02*
X55414286Y-64953667D01*
X55414286Y-64953667D02*
X55528572Y-64896524D01*
X55928571Y-64610809D02*
X56385714Y-64610809D01*
X56100000Y-64210809D02*
X56100000Y-65239381D01*
X56100000Y-65239381D02*
X56157143Y-65353667D01*
X56157143Y-65353667D02*
X56271428Y-65410809D01*
X56271428Y-65410809D02*
X56385714Y-65410809D01*
X56614285Y-64610809D02*
X57071428Y-64610809D01*
X56785714Y-64210809D02*
X56785714Y-65239381D01*
X56785714Y-65239381D02*
X56842857Y-65353667D01*
X56842857Y-65353667D02*
X56957142Y-65410809D01*
X56957142Y-65410809D02*
X57071428Y-65410809D01*
X57928571Y-65353667D02*
X57814285Y-65410809D01*
X57814285Y-65410809D02*
X57585714Y-65410809D01*
X57585714Y-65410809D02*
X57471428Y-65353667D01*
X57471428Y-65353667D02*
X57414285Y-65239381D01*
X57414285Y-65239381D02*
X57414285Y-64782238D01*
X57414285Y-64782238D02*
X57471428Y-64667952D01*
X57471428Y-64667952D02*
X57585714Y-64610809D01*
X57585714Y-64610809D02*
X57814285Y-64610809D01*
X57814285Y-64610809D02*
X57928571Y-64667952D01*
X57928571Y-64667952D02*
X57985714Y-64782238D01*
X57985714Y-64782238D02*
X57985714Y-64896524D01*
X57985714Y-64896524D02*
X57414285Y-65010809D01*
X58499999Y-65410809D02*
X58499999Y-64610809D01*
X58499999Y-64839381D02*
X58557142Y-64725095D01*
X58557142Y-64725095D02*
X58614285Y-64667952D01*
X58614285Y-64667952D02*
X58728570Y-64610809D01*
X58728570Y-64610809D02*
X58842856Y-64610809D01*
X59128570Y-64610809D02*
X59414284Y-65410809D01*
X59699999Y-64610809D02*
X59414284Y-65410809D01*
X59414284Y-65410809D02*
X59299999Y-65696524D01*
X59299999Y-65696524D02*
X59242856Y-65753667D01*
X59242856Y-65753667D02*
X59128570Y-65810809D01*
X50842857Y-67799885D02*
X50785714Y-67742742D01*
X50785714Y-67742742D02*
X50671428Y-67571314D01*
X50671428Y-67571314D02*
X50614286Y-67457028D01*
X50614286Y-67457028D02*
X50557143Y-67285600D01*
X50557143Y-67285600D02*
X50500000Y-66999885D01*
X50500000Y-66999885D02*
X50500000Y-66771314D01*
X50500000Y-66771314D02*
X50557143Y-66485600D01*
X50557143Y-66485600D02*
X50614286Y-66314171D01*
X50614286Y-66314171D02*
X50671428Y-66199885D01*
X50671428Y-66199885D02*
X50785714Y-66028457D01*
X50785714Y-66028457D02*
X50842857Y-65971314D01*
X51928571Y-67342742D02*
X51242857Y-67342742D01*
X51585714Y-67342742D02*
X51585714Y-66142742D01*
X51585714Y-66142742D02*
X51471428Y-66314171D01*
X51471428Y-66314171D02*
X51357143Y-66428457D01*
X51357143Y-66428457D02*
X51242857Y-66485600D01*
X52442857Y-67228457D02*
X52500000Y-67285600D01*
X52500000Y-67285600D02*
X52442857Y-67342742D01*
X52442857Y-67342742D02*
X52385714Y-67285600D01*
X52385714Y-67285600D02*
X52442857Y-67228457D01*
X52442857Y-67228457D02*
X52442857Y-67342742D01*
X53585714Y-66142742D02*
X53014286Y-66142742D01*
X53014286Y-66142742D02*
X52957143Y-66714171D01*
X52957143Y-66714171D02*
X53014286Y-66657028D01*
X53014286Y-66657028D02*
X53128572Y-66599885D01*
X53128572Y-66599885D02*
X53414286Y-66599885D01*
X53414286Y-66599885D02*
X53528572Y-66657028D01*
X53528572Y-66657028D02*
X53585714Y-66714171D01*
X53585714Y-66714171D02*
X53642857Y-66828457D01*
X53642857Y-66828457D02*
X53642857Y-67114171D01*
X53642857Y-67114171D02*
X53585714Y-67228457D01*
X53585714Y-67228457D02*
X53528572Y-67285600D01*
X53528572Y-67285600D02*
X53414286Y-67342742D01*
X53414286Y-67342742D02*
X53128572Y-67342742D01*
X53128572Y-67342742D02*
X53014286Y-67285600D01*
X53014286Y-67285600D02*
X52957143Y-67228457D01*
X53985714Y-66142742D02*
X54385714Y-67342742D01*
X54385714Y-67342742D02*
X54785714Y-66142742D01*
X55928571Y-66542742D02*
X56385714Y-66542742D01*
X56100000Y-66142742D02*
X56100000Y-67171314D01*
X56100000Y-67171314D02*
X56157143Y-67285600D01*
X56157143Y-67285600D02*
X56271428Y-67342742D01*
X56271428Y-67342742D02*
X56385714Y-67342742D01*
X56957142Y-67342742D02*
X56842857Y-67285600D01*
X56842857Y-67285600D02*
X56785714Y-67228457D01*
X56785714Y-67228457D02*
X56728571Y-67114171D01*
X56728571Y-67114171D02*
X56728571Y-66771314D01*
X56728571Y-66771314D02*
X56785714Y-66657028D01*
X56785714Y-66657028D02*
X56842857Y-66599885D01*
X56842857Y-66599885D02*
X56957142Y-66542742D01*
X56957142Y-66542742D02*
X57128571Y-66542742D01*
X57128571Y-66542742D02*
X57242857Y-66599885D01*
X57242857Y-66599885D02*
X57300000Y-66657028D01*
X57300000Y-66657028D02*
X57357142Y-66771314D01*
X57357142Y-66771314D02*
X57357142Y-67114171D01*
X57357142Y-67114171D02*
X57300000Y-67228457D01*
X57300000Y-67228457D02*
X57242857Y-67285600D01*
X57242857Y-67285600D02*
X57128571Y-67342742D01*
X57128571Y-67342742D02*
X56957142Y-67342742D01*
X59357142Y-66142742D02*
X58785714Y-66142742D01*
X58785714Y-66142742D02*
X58728571Y-66714171D01*
X58728571Y-66714171D02*
X58785714Y-66657028D01*
X58785714Y-66657028D02*
X58900000Y-66599885D01*
X58900000Y-66599885D02*
X59185714Y-66599885D01*
X59185714Y-66599885D02*
X59300000Y-66657028D01*
X59300000Y-66657028D02*
X59357142Y-66714171D01*
X59357142Y-66714171D02*
X59414285Y-66828457D01*
X59414285Y-66828457D02*
X59414285Y-67114171D01*
X59414285Y-67114171D02*
X59357142Y-67228457D01*
X59357142Y-67228457D02*
X59300000Y-67285600D01*
X59300000Y-67285600D02*
X59185714Y-67342742D01*
X59185714Y-67342742D02*
X58900000Y-67342742D01*
X58900000Y-67342742D02*
X58785714Y-67285600D01*
X58785714Y-67285600D02*
X58728571Y-67228457D01*
X59928571Y-67228457D02*
X59985714Y-67285600D01*
X59985714Y-67285600D02*
X59928571Y-67342742D01*
X59928571Y-67342742D02*
X59871428Y-67285600D01*
X59871428Y-67285600D02*
X59928571Y-67228457D01*
X59928571Y-67228457D02*
X59928571Y-67342742D01*
X60728571Y-66142742D02*
X60842857Y-66142742D01*
X60842857Y-66142742D02*
X60957143Y-66199885D01*
X60957143Y-66199885D02*
X61014286Y-66257028D01*
X61014286Y-66257028D02*
X61071428Y-66371314D01*
X61071428Y-66371314D02*
X61128571Y-66599885D01*
X61128571Y-66599885D02*
X61128571Y-66885600D01*
X61128571Y-66885600D02*
X61071428Y-67114171D01*
X61071428Y-67114171D02*
X61014286Y-67228457D01*
X61014286Y-67228457D02*
X60957143Y-67285600D01*
X60957143Y-67285600D02*
X60842857Y-67342742D01*
X60842857Y-67342742D02*
X60728571Y-67342742D01*
X60728571Y-67342742D02*
X60614286Y-67285600D01*
X60614286Y-67285600D02*
X60557143Y-67228457D01*
X60557143Y-67228457D02*
X60500000Y-67114171D01*
X60500000Y-67114171D02*
X60442857Y-66885600D01*
X60442857Y-66885600D02*
X60442857Y-66599885D01*
X60442857Y-66599885D02*
X60500000Y-66371314D01*
X60500000Y-66371314D02*
X60557143Y-66257028D01*
X60557143Y-66257028D02*
X60614286Y-66199885D01*
X60614286Y-66199885D02*
X60728571Y-66142742D01*
X61471428Y-66142742D02*
X61871428Y-67342742D01*
X61871428Y-67342742D02*
X62271428Y-66142742D01*
X62557142Y-67799885D02*
X62614285Y-67742742D01*
X62614285Y-67742742D02*
X62728571Y-67571314D01*
X62728571Y-67571314D02*
X62785714Y-67457028D01*
X62785714Y-67457028D02*
X62842856Y-67285600D01*
X62842856Y-67285600D02*
X62899999Y-66999885D01*
X62899999Y-66999885D02*
X62899999Y-66771314D01*
X62899999Y-66771314D02*
X62842856Y-66485600D01*
X62842856Y-66485600D02*
X62785714Y-66314171D01*
X62785714Y-66314171D02*
X62728571Y-66199885D01*
X62728571Y-66199885D02*
X62614285Y-66028457D01*
X62614285Y-66028457D02*
X62557142Y-65971314D01*
X104842742Y-138832707D02*
X103642742Y-138832707D01*
X103642742Y-138832707D02*
X104842742Y-138146993D01*
X104842742Y-138146993D02*
X103642742Y-138146993D01*
X104728457Y-136889850D02*
X104785600Y-136946993D01*
X104785600Y-136946993D02*
X104842742Y-137118421D01*
X104842742Y-137118421D02*
X104842742Y-137232707D01*
X104842742Y-137232707D02*
X104785600Y-137404136D01*
X104785600Y-137404136D02*
X104671314Y-137518421D01*
X104671314Y-137518421D02*
X104557028Y-137575564D01*
X104557028Y-137575564D02*
X104328457Y-137632707D01*
X104328457Y-137632707D02*
X104157028Y-137632707D01*
X104157028Y-137632707D02*
X103928457Y-137575564D01*
X103928457Y-137575564D02*
X103814171Y-137518421D01*
X103814171Y-137518421D02*
X103699885Y-137404136D01*
X103699885Y-137404136D02*
X103642742Y-137232707D01*
X103642742Y-137232707D02*
X103642742Y-137118421D01*
X103642742Y-137118421D02*
X103699885Y-136946993D01*
X103699885Y-136946993D02*
X103757028Y-136889850D01*
X144103006Y-100228457D02*
X144045863Y-100285600D01*
X144045863Y-100285600D02*
X143874435Y-100342742D01*
X143874435Y-100342742D02*
X143760149Y-100342742D01*
X143760149Y-100342742D02*
X143588720Y-100285600D01*
X143588720Y-100285600D02*
X143474435Y-100171314D01*
X143474435Y-100171314D02*
X143417292Y-100057028D01*
X143417292Y-100057028D02*
X143360149Y-99828457D01*
X143360149Y-99828457D02*
X143360149Y-99657028D01*
X143360149Y-99657028D02*
X143417292Y-99428457D01*
X143417292Y-99428457D02*
X143474435Y-99314171D01*
X143474435Y-99314171D02*
X143588720Y-99199885D01*
X143588720Y-99199885D02*
X143760149Y-99142742D01*
X143760149Y-99142742D02*
X143874435Y-99142742D01*
X143874435Y-99142742D02*
X144045863Y-99199885D01*
X144045863Y-99199885D02*
X144103006Y-99257028D01*
X145188720Y-100342742D02*
X144617292Y-100342742D01*
X144617292Y-100342742D02*
X144617292Y-99142742D01*
X145588721Y-100342742D02*
X145588721Y-99142742D01*
X146274435Y-100342742D02*
X145760149Y-99657028D01*
X146274435Y-99142742D02*
X145588721Y-99828457D01*
X74092742Y-138332707D02*
X72892742Y-138332707D01*
X72892742Y-138332707D02*
X72892742Y-137875564D01*
X72892742Y-137875564D02*
X72949885Y-137761279D01*
X72949885Y-137761279D02*
X73007028Y-137704136D01*
X73007028Y-137704136D02*
X73121314Y-137646993D01*
X73121314Y-137646993D02*
X73292742Y-137646993D01*
X73292742Y-137646993D02*
X73407028Y-137704136D01*
X73407028Y-137704136D02*
X73464171Y-137761279D01*
X73464171Y-137761279D02*
X73521314Y-137875564D01*
X73521314Y-137875564D02*
X73521314Y-138332707D01*
X74092742Y-136446993D02*
X73521314Y-136846993D01*
X74092742Y-137132707D02*
X72892742Y-137132707D01*
X72892742Y-137132707D02*
X72892742Y-136675564D01*
X72892742Y-136675564D02*
X72949885Y-136561279D01*
X72949885Y-136561279D02*
X73007028Y-136504136D01*
X73007028Y-136504136D02*
X73121314Y-136446993D01*
X73121314Y-136446993D02*
X73292742Y-136446993D01*
X73292742Y-136446993D02*
X73407028Y-136504136D01*
X73407028Y-136504136D02*
X73464171Y-136561279D01*
X73464171Y-136561279D02*
X73521314Y-136675564D01*
X73521314Y-136675564D02*
X73521314Y-137132707D01*
X72949885Y-135304136D02*
X72892742Y-135418422D01*
X72892742Y-135418422D02*
X72892742Y-135589850D01*
X72892742Y-135589850D02*
X72949885Y-135761279D01*
X72949885Y-135761279D02*
X73064171Y-135875564D01*
X73064171Y-135875564D02*
X73178457Y-135932707D01*
X73178457Y-135932707D02*
X73407028Y-135989850D01*
X73407028Y-135989850D02*
X73578457Y-135989850D01*
X73578457Y-135989850D02*
X73807028Y-135932707D01*
X73807028Y-135932707D02*
X73921314Y-135875564D01*
X73921314Y-135875564D02*
X74035600Y-135761279D01*
X74035600Y-135761279D02*
X74092742Y-135589850D01*
X74092742Y-135589850D02*
X74092742Y-135475564D01*
X74092742Y-135475564D02*
X74035600Y-135304136D01*
X74035600Y-135304136D02*
X73978457Y-135246993D01*
X73978457Y-135246993D02*
X73578457Y-135246993D01*
X73578457Y-135246993D02*
X73578457Y-135475564D01*
X72835600Y-133875564D02*
X74378457Y-134904136D01*
X74092742Y-133475564D02*
X72892742Y-133475564D01*
X72892742Y-133475564D02*
X73749885Y-133075564D01*
X73749885Y-133075564D02*
X72892742Y-132675564D01*
X72892742Y-132675564D02*
X74092742Y-132675564D01*
X74092742Y-132104135D02*
X72892742Y-132104135D01*
X74035600Y-131589849D02*
X74092742Y-131418421D01*
X74092742Y-131418421D02*
X74092742Y-131132706D01*
X74092742Y-131132706D02*
X74035600Y-131018421D01*
X74035600Y-131018421D02*
X73978457Y-130961278D01*
X73978457Y-130961278D02*
X73864171Y-130904135D01*
X73864171Y-130904135D02*
X73749885Y-130904135D01*
X73749885Y-130904135D02*
X73635600Y-130961278D01*
X73635600Y-130961278D02*
X73578457Y-131018421D01*
X73578457Y-131018421D02*
X73521314Y-131132706D01*
X73521314Y-131132706D02*
X73464171Y-131361278D01*
X73464171Y-131361278D02*
X73407028Y-131475563D01*
X73407028Y-131475563D02*
X73349885Y-131532706D01*
X73349885Y-131532706D02*
X73235600Y-131589849D01*
X73235600Y-131589849D02*
X73121314Y-131589849D01*
X73121314Y-131589849D02*
X73007028Y-131532706D01*
X73007028Y-131532706D02*
X72949885Y-131475563D01*
X72949885Y-131475563D02*
X72892742Y-131361278D01*
X72892742Y-131361278D02*
X72892742Y-131075563D01*
X72892742Y-131075563D02*
X72949885Y-130904135D01*
X72892742Y-130161278D02*
X72892742Y-129932706D01*
X72892742Y-129932706D02*
X72949885Y-129818421D01*
X72949885Y-129818421D02*
X73064171Y-129704135D01*
X73064171Y-129704135D02*
X73292742Y-129646992D01*
X73292742Y-129646992D02*
X73692742Y-129646992D01*
X73692742Y-129646992D02*
X73921314Y-129704135D01*
X73921314Y-129704135D02*
X74035600Y-129818421D01*
X74035600Y-129818421D02*
X74092742Y-129932706D01*
X74092742Y-129932706D02*
X74092742Y-130161278D01*
X74092742Y-130161278D02*
X74035600Y-130275564D01*
X74035600Y-130275564D02*
X73921314Y-130389849D01*
X73921314Y-130389849D02*
X73692742Y-130446992D01*
X73692742Y-130446992D02*
X73292742Y-130446992D01*
X73292742Y-130446992D02*
X73064171Y-130389849D01*
X73064171Y-130389849D02*
X72949885Y-130275564D01*
X72949885Y-130275564D02*
X72892742Y-130161278D01*
X56357257Y-134415006D02*
X56357257Y-135157863D01*
X56357257Y-135157863D02*
X55900114Y-134757863D01*
X55900114Y-134757863D02*
X55900114Y-134929292D01*
X55900114Y-134929292D02*
X55842971Y-135043578D01*
X55842971Y-135043578D02*
X55785828Y-135100720D01*
X55785828Y-135100720D02*
X55671542Y-135157863D01*
X55671542Y-135157863D02*
X55385828Y-135157863D01*
X55385828Y-135157863D02*
X55271542Y-135100720D01*
X55271542Y-135100720D02*
X55214400Y-135043578D01*
X55214400Y-135043578D02*
X55157257Y-134929292D01*
X55157257Y-134929292D02*
X55157257Y-134586435D01*
X55157257Y-134586435D02*
X55214400Y-134472149D01*
X55214400Y-134472149D02*
X55271542Y-134415006D01*
X55271542Y-135672149D02*
X55214400Y-135729292D01*
X55214400Y-135729292D02*
X55157257Y-135672149D01*
X55157257Y-135672149D02*
X55214400Y-135615006D01*
X55214400Y-135615006D02*
X55271542Y-135672149D01*
X55271542Y-135672149D02*
X55157257Y-135672149D01*
X56357257Y-136129292D02*
X56357257Y-136872149D01*
X56357257Y-136872149D02*
X55900114Y-136472149D01*
X55900114Y-136472149D02*
X55900114Y-136643578D01*
X55900114Y-136643578D02*
X55842971Y-136757864D01*
X55842971Y-136757864D02*
X55785828Y-136815006D01*
X55785828Y-136815006D02*
X55671542Y-136872149D01*
X55671542Y-136872149D02*
X55385828Y-136872149D01*
X55385828Y-136872149D02*
X55271542Y-136815006D01*
X55271542Y-136815006D02*
X55214400Y-136757864D01*
X55214400Y-136757864D02*
X55157257Y-136643578D01*
X55157257Y-136643578D02*
X55157257Y-136300721D01*
X55157257Y-136300721D02*
X55214400Y-136186435D01*
X55214400Y-136186435D02*
X55271542Y-136129292D01*
X56357257Y-137215006D02*
X55157257Y-137615006D01*
X55157257Y-137615006D02*
X56357257Y-138015006D01*
X58700114Y-94045863D02*
X58757257Y-93931578D01*
X58757257Y-93931578D02*
X58757257Y-93760149D01*
X58757257Y-93760149D02*
X58700114Y-93588720D01*
X58700114Y-93588720D02*
X58585828Y-93474435D01*
X58585828Y-93474435D02*
X58471542Y-93417292D01*
X58471542Y-93417292D02*
X58242971Y-93360149D01*
X58242971Y-93360149D02*
X58071542Y-93360149D01*
X58071542Y-93360149D02*
X57842971Y-93417292D01*
X57842971Y-93417292D02*
X57728685Y-93474435D01*
X57728685Y-93474435D02*
X57614400Y-93588720D01*
X57614400Y-93588720D02*
X57557257Y-93760149D01*
X57557257Y-93760149D02*
X57557257Y-93874435D01*
X57557257Y-93874435D02*
X57614400Y-94045863D01*
X57614400Y-94045863D02*
X57671542Y-94103006D01*
X57671542Y-94103006D02*
X58071542Y-94103006D01*
X58071542Y-94103006D02*
X58071542Y-93874435D01*
X57557257Y-94617292D02*
X58757257Y-94617292D01*
X58757257Y-94617292D02*
X58757257Y-95074435D01*
X58757257Y-95074435D02*
X58700114Y-95188720D01*
X58700114Y-95188720D02*
X58642971Y-95245863D01*
X58642971Y-95245863D02*
X58528685Y-95303006D01*
X58528685Y-95303006D02*
X58357257Y-95303006D01*
X58357257Y-95303006D02*
X58242971Y-95245863D01*
X58242971Y-95245863D02*
X58185828Y-95188720D01*
X58185828Y-95188720D02*
X58128685Y-95074435D01*
X58128685Y-95074435D02*
X58128685Y-94617292D01*
X57614400Y-95760149D02*
X57557257Y-95931578D01*
X57557257Y-95931578D02*
X57557257Y-96217292D01*
X57557257Y-96217292D02*
X57614400Y-96331578D01*
X57614400Y-96331578D02*
X57671542Y-96388720D01*
X57671542Y-96388720D02*
X57785828Y-96445863D01*
X57785828Y-96445863D02*
X57900114Y-96445863D01*
X57900114Y-96445863D02*
X58014400Y-96388720D01*
X58014400Y-96388720D02*
X58071542Y-96331578D01*
X58071542Y-96331578D02*
X58128685Y-96217292D01*
X58128685Y-96217292D02*
X58185828Y-95988720D01*
X58185828Y-95988720D02*
X58242971Y-95874435D01*
X58242971Y-95874435D02*
X58300114Y-95817292D01*
X58300114Y-95817292D02*
X58414400Y-95760149D01*
X58414400Y-95760149D02*
X58528685Y-95760149D01*
X58528685Y-95760149D02*
X58642971Y-95817292D01*
X58642971Y-95817292D02*
X58700114Y-95874435D01*
X58700114Y-95874435D02*
X58757257Y-95988720D01*
X58757257Y-95988720D02*
X58757257Y-96274435D01*
X58757257Y-96274435D02*
X58700114Y-96445863D01*
X57900114Y-97817292D02*
X57900114Y-98388721D01*
X57557257Y-97703006D02*
X58757257Y-98103006D01*
X58757257Y-98103006D02*
X57557257Y-98503006D01*
X57557257Y-98903006D02*
X58757257Y-98903006D01*
X58757257Y-98903006D02*
X57557257Y-99588720D01*
X57557257Y-99588720D02*
X58757257Y-99588720D01*
X58757257Y-99988720D02*
X58757257Y-100674435D01*
X57557257Y-100331577D02*
X58757257Y-100331577D01*
X58185828Y-101074435D02*
X58185828Y-101474435D01*
X57557257Y-101645863D02*
X57557257Y-101074435D01*
X57557257Y-101074435D02*
X58757257Y-101074435D01*
X58757257Y-101074435D02*
X58757257Y-101645863D01*
X57557257Y-102160149D02*
X58757257Y-102160149D01*
X58757257Y-102160149D02*
X57557257Y-102845863D01*
X57557257Y-102845863D02*
X58757257Y-102845863D01*
X57557257Y-103417292D02*
X58757257Y-103417292D01*
X58757257Y-103417292D02*
X57557257Y-104103006D01*
X57557257Y-104103006D02*
X58757257Y-104103006D01*
X57900114Y-104617292D02*
X57900114Y-105188721D01*
X57557257Y-104503006D02*
X58757257Y-104903006D01*
X58757257Y-104903006D02*
X57557257Y-105303006D01*
X77857257Y-56488720D02*
X77857257Y-55917292D01*
X77857257Y-55917292D02*
X77285828Y-55860149D01*
X77285828Y-55860149D02*
X77342971Y-55917292D01*
X77342971Y-55917292D02*
X77400114Y-56031578D01*
X77400114Y-56031578D02*
X77400114Y-56317292D01*
X77400114Y-56317292D02*
X77342971Y-56431578D01*
X77342971Y-56431578D02*
X77285828Y-56488720D01*
X77285828Y-56488720D02*
X77171542Y-56545863D01*
X77171542Y-56545863D02*
X76885828Y-56545863D01*
X76885828Y-56545863D02*
X76771542Y-56488720D01*
X76771542Y-56488720D02*
X76714400Y-56431578D01*
X76714400Y-56431578D02*
X76657257Y-56317292D01*
X76657257Y-56317292D02*
X76657257Y-56031578D01*
X76657257Y-56031578D02*
X76714400Y-55917292D01*
X76714400Y-55917292D02*
X76771542Y-55860149D01*
X77857257Y-56888720D02*
X76657257Y-57288720D01*
X76657257Y-57288720D02*
X77857257Y-57688720D01*
X143111993Y-66517742D02*
X143111993Y-65317742D01*
X143111993Y-65317742D02*
X143797707Y-66517742D01*
X143797707Y-66517742D02*
X143797707Y-65317742D01*
X145054850Y-66403457D02*
X144997707Y-66460600D01*
X144997707Y-66460600D02*
X144826279Y-66517742D01*
X144826279Y-66517742D02*
X144711993Y-66517742D01*
X144711993Y-66517742D02*
X144540564Y-66460600D01*
X144540564Y-66460600D02*
X144426279Y-66346314D01*
X144426279Y-66346314D02*
X144369136Y-66232028D01*
X144369136Y-66232028D02*
X144311993Y-66003457D01*
X144311993Y-66003457D02*
X144311993Y-65832028D01*
X144311993Y-65832028D02*
X144369136Y-65603457D01*
X144369136Y-65603457D02*
X144426279Y-65489171D01*
X144426279Y-65489171D02*
X144540564Y-65374885D01*
X144540564Y-65374885D02*
X144711993Y-65317742D01*
X144711993Y-65317742D02*
X144826279Y-65317742D01*
X144826279Y-65317742D02*
X144997707Y-65374885D01*
X144997707Y-65374885D02*
X145054850Y-65432028D01*
X134520565Y-79160600D02*
X134691994Y-79217742D01*
X134691994Y-79217742D02*
X134977708Y-79217742D01*
X134977708Y-79217742D02*
X135091994Y-79160600D01*
X135091994Y-79160600D02*
X135149136Y-79103457D01*
X135149136Y-79103457D02*
X135206279Y-78989171D01*
X135206279Y-78989171D02*
X135206279Y-78874885D01*
X135206279Y-78874885D02*
X135149136Y-78760600D01*
X135149136Y-78760600D02*
X135091994Y-78703457D01*
X135091994Y-78703457D02*
X134977708Y-78646314D01*
X134977708Y-78646314D02*
X134749136Y-78589171D01*
X134749136Y-78589171D02*
X134634851Y-78532028D01*
X134634851Y-78532028D02*
X134577708Y-78474885D01*
X134577708Y-78474885D02*
X134520565Y-78360600D01*
X134520565Y-78360600D02*
X134520565Y-78246314D01*
X134520565Y-78246314D02*
X134577708Y-78132028D01*
X134577708Y-78132028D02*
X134634851Y-78074885D01*
X134634851Y-78074885D02*
X134749136Y-78017742D01*
X134749136Y-78017742D02*
X135034851Y-78017742D01*
X135034851Y-78017742D02*
X135206279Y-78074885D01*
X135720565Y-79217742D02*
X135720565Y-78017742D01*
X135720565Y-78017742D02*
X136006279Y-78017742D01*
X136006279Y-78017742D02*
X136177708Y-78074885D01*
X136177708Y-78074885D02*
X136291993Y-78189171D01*
X136291993Y-78189171D02*
X136349136Y-78303457D01*
X136349136Y-78303457D02*
X136406279Y-78532028D01*
X136406279Y-78532028D02*
X136406279Y-78703457D01*
X136406279Y-78703457D02*
X136349136Y-78932028D01*
X136349136Y-78932028D02*
X136291993Y-79046314D01*
X136291993Y-79046314D02*
X136177708Y-79160600D01*
X136177708Y-79160600D02*
X136006279Y-79217742D01*
X136006279Y-79217742D02*
X135720565Y-79217742D01*
X136863422Y-78874885D02*
X137434851Y-78874885D01*
X136749136Y-79217742D02*
X137149136Y-78017742D01*
X137149136Y-78017742D02*
X137549136Y-79217742D01*
X53800114Y-135157863D02*
X53857257Y-135043578D01*
X53857257Y-135043578D02*
X53857257Y-134872149D01*
X53857257Y-134872149D02*
X53800114Y-134700720D01*
X53800114Y-134700720D02*
X53685828Y-134586435D01*
X53685828Y-134586435D02*
X53571542Y-134529292D01*
X53571542Y-134529292D02*
X53342971Y-134472149D01*
X53342971Y-134472149D02*
X53171542Y-134472149D01*
X53171542Y-134472149D02*
X52942971Y-134529292D01*
X52942971Y-134529292D02*
X52828685Y-134586435D01*
X52828685Y-134586435D02*
X52714400Y-134700720D01*
X52714400Y-134700720D02*
X52657257Y-134872149D01*
X52657257Y-134872149D02*
X52657257Y-134986435D01*
X52657257Y-134986435D02*
X52714400Y-135157863D01*
X52714400Y-135157863D02*
X52771542Y-135215006D01*
X52771542Y-135215006D02*
X53171542Y-135215006D01*
X53171542Y-135215006D02*
X53171542Y-134986435D01*
X52657257Y-135729292D02*
X53857257Y-135729292D01*
X53857257Y-135729292D02*
X52657257Y-136415006D01*
X52657257Y-136415006D02*
X53857257Y-136415006D01*
X52657257Y-136986435D02*
X53857257Y-136986435D01*
X53857257Y-136986435D02*
X53857257Y-137272149D01*
X53857257Y-137272149D02*
X53800114Y-137443578D01*
X53800114Y-137443578D02*
X53685828Y-137557863D01*
X53685828Y-137557863D02*
X53571542Y-137615006D01*
X53571542Y-137615006D02*
X53342971Y-137672149D01*
X53342971Y-137672149D02*
X53171542Y-137672149D01*
X53171542Y-137672149D02*
X52942971Y-137615006D01*
X52942971Y-137615006D02*
X52828685Y-137557863D01*
X52828685Y-137557863D02*
X52714400Y-137443578D01*
X52714400Y-137443578D02*
X52657257Y-137272149D01*
X52657257Y-137272149D02*
X52657257Y-136986435D01*
X67800114Y-56045863D02*
X67857257Y-55931578D01*
X67857257Y-55931578D02*
X67857257Y-55760149D01*
X67857257Y-55760149D02*
X67800114Y-55588720D01*
X67800114Y-55588720D02*
X67685828Y-55474435D01*
X67685828Y-55474435D02*
X67571542Y-55417292D01*
X67571542Y-55417292D02*
X67342971Y-55360149D01*
X67342971Y-55360149D02*
X67171542Y-55360149D01*
X67171542Y-55360149D02*
X66942971Y-55417292D01*
X66942971Y-55417292D02*
X66828685Y-55474435D01*
X66828685Y-55474435D02*
X66714400Y-55588720D01*
X66714400Y-55588720D02*
X66657257Y-55760149D01*
X66657257Y-55760149D02*
X66657257Y-55874435D01*
X66657257Y-55874435D02*
X66714400Y-56045863D01*
X66714400Y-56045863D02*
X66771542Y-56103006D01*
X66771542Y-56103006D02*
X67171542Y-56103006D01*
X67171542Y-56103006D02*
X67171542Y-55874435D01*
X66657257Y-56617292D02*
X67857257Y-56617292D01*
X67857257Y-56617292D02*
X66657257Y-57303006D01*
X66657257Y-57303006D02*
X67857257Y-57303006D01*
X66657257Y-57874435D02*
X67857257Y-57874435D01*
X67857257Y-57874435D02*
X67857257Y-58160149D01*
X67857257Y-58160149D02*
X67800114Y-58331578D01*
X67800114Y-58331578D02*
X67685828Y-58445863D01*
X67685828Y-58445863D02*
X67571542Y-58503006D01*
X67571542Y-58503006D02*
X67342971Y-58560149D01*
X67342971Y-58560149D02*
X67171542Y-58560149D01*
X67171542Y-58560149D02*
X66942971Y-58503006D01*
X66942971Y-58503006D02*
X66828685Y-58445863D01*
X66828685Y-58445863D02*
X66714400Y-58331578D01*
X66714400Y-58331578D02*
X66657257Y-58160149D01*
X66657257Y-58160149D02*
X66657257Y-57874435D01*
X133975565Y-119785600D02*
X134146994Y-119842742D01*
X134146994Y-119842742D02*
X134432708Y-119842742D01*
X134432708Y-119842742D02*
X134546994Y-119785600D01*
X134546994Y-119785600D02*
X134604136Y-119728457D01*
X134604136Y-119728457D02*
X134661279Y-119614171D01*
X134661279Y-119614171D02*
X134661279Y-119499885D01*
X134661279Y-119499885D02*
X134604136Y-119385600D01*
X134604136Y-119385600D02*
X134546994Y-119328457D01*
X134546994Y-119328457D02*
X134432708Y-119271314D01*
X134432708Y-119271314D02*
X134204136Y-119214171D01*
X134204136Y-119214171D02*
X134089851Y-119157028D01*
X134089851Y-119157028D02*
X134032708Y-119099885D01*
X134032708Y-119099885D02*
X133975565Y-118985600D01*
X133975565Y-118985600D02*
X133975565Y-118871314D01*
X133975565Y-118871314D02*
X134032708Y-118757028D01*
X134032708Y-118757028D02*
X134089851Y-118699885D01*
X134089851Y-118699885D02*
X134204136Y-118642742D01*
X134204136Y-118642742D02*
X134489851Y-118642742D01*
X134489851Y-118642742D02*
X134661279Y-118699885D01*
X135175565Y-119842742D02*
X135175565Y-118642742D01*
X135175565Y-118642742D02*
X135461279Y-118642742D01*
X135461279Y-118642742D02*
X135632708Y-118699885D01*
X135632708Y-118699885D02*
X135746993Y-118814171D01*
X135746993Y-118814171D02*
X135804136Y-118928457D01*
X135804136Y-118928457D02*
X135861279Y-119157028D01*
X135861279Y-119157028D02*
X135861279Y-119328457D01*
X135861279Y-119328457D02*
X135804136Y-119557028D01*
X135804136Y-119557028D02*
X135746993Y-119671314D01*
X135746993Y-119671314D02*
X135632708Y-119785600D01*
X135632708Y-119785600D02*
X135461279Y-119842742D01*
X135461279Y-119842742D02*
X135175565Y-119842742D01*
X136318422Y-119499885D02*
X136889851Y-119499885D01*
X136204136Y-119842742D02*
X136604136Y-118642742D01*
X136604136Y-118642742D02*
X137004136Y-119842742D01*
X97092742Y-138308898D02*
X96521314Y-138642231D01*
X97092742Y-138880326D02*
X95892742Y-138880326D01*
X95892742Y-138880326D02*
X95892742Y-138499374D01*
X95892742Y-138499374D02*
X95949885Y-138404136D01*
X95949885Y-138404136D02*
X96007028Y-138356517D01*
X96007028Y-138356517D02*
X96121314Y-138308898D01*
X96121314Y-138308898D02*
X96292742Y-138308898D01*
X96292742Y-138308898D02*
X96407028Y-138356517D01*
X96407028Y-138356517D02*
X96464171Y-138404136D01*
X96464171Y-138404136D02*
X96521314Y-138499374D01*
X96521314Y-138499374D02*
X96521314Y-138880326D01*
X95892742Y-137975564D02*
X97092742Y-137308898D01*
X95892742Y-137308898D02*
X97092742Y-137975564D01*
X97092742Y-136927945D02*
X95892742Y-136927945D01*
X95892742Y-136927945D02*
X95892742Y-136689850D01*
X95892742Y-136689850D02*
X95949885Y-136546993D01*
X95949885Y-136546993D02*
X96064171Y-136451755D01*
X96064171Y-136451755D02*
X96178457Y-136404136D01*
X96178457Y-136404136D02*
X96407028Y-136356517D01*
X96407028Y-136356517D02*
X96578457Y-136356517D01*
X96578457Y-136356517D02*
X96807028Y-136404136D01*
X96807028Y-136404136D02*
X96921314Y-136451755D01*
X96921314Y-136451755D02*
X97035600Y-136546993D01*
X97035600Y-136546993D02*
X97092742Y-136689850D01*
X97092742Y-136689850D02*
X97092742Y-136927945D01*
X95892742Y-135737469D02*
X95892742Y-135642231D01*
X95892742Y-135642231D02*
X95949885Y-135546993D01*
X95949885Y-135546993D02*
X96007028Y-135499374D01*
X96007028Y-135499374D02*
X96121314Y-135451755D01*
X96121314Y-135451755D02*
X96349885Y-135404136D01*
X96349885Y-135404136D02*
X96635600Y-135404136D01*
X96635600Y-135404136D02*
X96864171Y-135451755D01*
X96864171Y-135451755D02*
X96978457Y-135499374D01*
X96978457Y-135499374D02*
X97035600Y-135546993D01*
X97035600Y-135546993D02*
X97092742Y-135642231D01*
X97092742Y-135642231D02*
X97092742Y-135737469D01*
X97092742Y-135737469D02*
X97035600Y-135832707D01*
X97035600Y-135832707D02*
X96978457Y-135880326D01*
X96978457Y-135880326D02*
X96864171Y-135927945D01*
X96864171Y-135927945D02*
X96635600Y-135975564D01*
X96635600Y-135975564D02*
X96349885Y-135975564D01*
X96349885Y-135975564D02*
X96121314Y-135927945D01*
X96121314Y-135927945D02*
X96007028Y-135880326D01*
X96007028Y-135880326D02*
X95949885Y-135832707D01*
X95949885Y-135832707D02*
X95892742Y-135737469D01*
X57942257Y-83653006D02*
X58513685Y-83253006D01*
X57942257Y-82967292D02*
X59142257Y-82967292D01*
X59142257Y-82967292D02*
X59142257Y-83424435D01*
X59142257Y-83424435D02*
X59085114Y-83538720D01*
X59085114Y-83538720D02*
X59027971Y-83595863D01*
X59027971Y-83595863D02*
X58913685Y-83653006D01*
X58913685Y-83653006D02*
X58742257Y-83653006D01*
X58742257Y-83653006D02*
X58627971Y-83595863D01*
X58627971Y-83595863D02*
X58570828Y-83538720D01*
X58570828Y-83538720D02*
X58513685Y-83424435D01*
X58513685Y-83424435D02*
X58513685Y-82967292D01*
X59142257Y-84053006D02*
X57942257Y-84853006D01*
X59142257Y-84853006D02*
X57942257Y-84053006D01*
X57942257Y-85310149D02*
X59142257Y-85310149D01*
X59142257Y-85310149D02*
X59142257Y-85595863D01*
X59142257Y-85595863D02*
X59085114Y-85767292D01*
X59085114Y-85767292D02*
X58970828Y-85881577D01*
X58970828Y-85881577D02*
X58856542Y-85938720D01*
X58856542Y-85938720D02*
X58627971Y-85995863D01*
X58627971Y-85995863D02*
X58456542Y-85995863D01*
X58456542Y-85995863D02*
X58227971Y-85938720D01*
X58227971Y-85938720D02*
X58113685Y-85881577D01*
X58113685Y-85881577D02*
X57999400Y-85767292D01*
X57999400Y-85767292D02*
X57942257Y-85595863D01*
X57942257Y-85595863D02*
X57942257Y-85310149D01*
X57942257Y-87138720D02*
X57942257Y-86453006D01*
X57942257Y-86795863D02*
X59142257Y-86795863D01*
X59142257Y-86795863D02*
X58970828Y-86681577D01*
X58970828Y-86681577D02*
X58856542Y-86567292D01*
X58856542Y-86567292D02*
X58799400Y-86453006D01*
X54032257Y-83598720D02*
X54032257Y-83027292D01*
X54032257Y-83027292D02*
X53460828Y-82970149D01*
X53460828Y-82970149D02*
X53517971Y-83027292D01*
X53517971Y-83027292D02*
X53575114Y-83141578D01*
X53575114Y-83141578D02*
X53575114Y-83427292D01*
X53575114Y-83427292D02*
X53517971Y-83541578D01*
X53517971Y-83541578D02*
X53460828Y-83598720D01*
X53460828Y-83598720D02*
X53346542Y-83655863D01*
X53346542Y-83655863D02*
X53060828Y-83655863D01*
X53060828Y-83655863D02*
X52946542Y-83598720D01*
X52946542Y-83598720D02*
X52889400Y-83541578D01*
X52889400Y-83541578D02*
X52832257Y-83427292D01*
X52832257Y-83427292D02*
X52832257Y-83141578D01*
X52832257Y-83141578D02*
X52889400Y-83027292D01*
X52889400Y-83027292D02*
X52946542Y-82970149D01*
X54032257Y-83998720D02*
X52832257Y-84398720D01*
X52832257Y-84398720D02*
X54032257Y-84798720D01*
X144103006Y-98478457D02*
X144045863Y-98535600D01*
X144045863Y-98535600D02*
X143874435Y-98592742D01*
X143874435Y-98592742D02*
X143760149Y-98592742D01*
X143760149Y-98592742D02*
X143588720Y-98535600D01*
X143588720Y-98535600D02*
X143474435Y-98421314D01*
X143474435Y-98421314D02*
X143417292Y-98307028D01*
X143417292Y-98307028D02*
X143360149Y-98078457D01*
X143360149Y-98078457D02*
X143360149Y-97907028D01*
X143360149Y-97907028D02*
X143417292Y-97678457D01*
X143417292Y-97678457D02*
X143474435Y-97564171D01*
X143474435Y-97564171D02*
X143588720Y-97449885D01*
X143588720Y-97449885D02*
X143760149Y-97392742D01*
X143760149Y-97392742D02*
X143874435Y-97392742D01*
X143874435Y-97392742D02*
X144045863Y-97449885D01*
X144045863Y-97449885D02*
X144103006Y-97507028D01*
X144560149Y-98535600D02*
X144731578Y-98592742D01*
X144731578Y-98592742D02*
X145017292Y-98592742D01*
X145017292Y-98592742D02*
X145131578Y-98535600D01*
X145131578Y-98535600D02*
X145188720Y-98478457D01*
X145188720Y-98478457D02*
X145245863Y-98364171D01*
X145245863Y-98364171D02*
X145245863Y-98249885D01*
X145245863Y-98249885D02*
X145188720Y-98135600D01*
X145188720Y-98135600D02*
X145131578Y-98078457D01*
X145131578Y-98078457D02*
X145017292Y-98021314D01*
X145017292Y-98021314D02*
X144788720Y-97964171D01*
X144788720Y-97964171D02*
X144674435Y-97907028D01*
X144674435Y-97907028D02*
X144617292Y-97849885D01*
X144617292Y-97849885D02*
X144560149Y-97735600D01*
X144560149Y-97735600D02*
X144560149Y-97621314D01*
X144560149Y-97621314D02*
X144617292Y-97507028D01*
X144617292Y-97507028D02*
X144674435Y-97449885D01*
X144674435Y-97449885D02*
X144788720Y-97392742D01*
X144788720Y-97392742D02*
X145074435Y-97392742D01*
X145074435Y-97392742D02*
X145245863Y-97449885D01*
X145988720Y-97392742D02*
X146103006Y-97392742D01*
X146103006Y-97392742D02*
X146217292Y-97449885D01*
X146217292Y-97449885D02*
X146274435Y-97507028D01*
X146274435Y-97507028D02*
X146331577Y-97621314D01*
X146331577Y-97621314D02*
X146388720Y-97849885D01*
X146388720Y-97849885D02*
X146388720Y-98135600D01*
X146388720Y-98135600D02*
X146331577Y-98364171D01*
X146331577Y-98364171D02*
X146274435Y-98478457D01*
X146274435Y-98478457D02*
X146217292Y-98535600D01*
X146217292Y-98535600D02*
X146103006Y-98592742D01*
X146103006Y-98592742D02*
X145988720Y-98592742D01*
X145988720Y-98592742D02*
X145874435Y-98535600D01*
X145874435Y-98535600D02*
X145817292Y-98478457D01*
X145817292Y-98478457D02*
X145760149Y-98364171D01*
X145760149Y-98364171D02*
X145703006Y-98135600D01*
X145703006Y-98135600D02*
X145703006Y-97849885D01*
X145703006Y-97849885D02*
X145760149Y-97621314D01*
X145760149Y-97621314D02*
X145817292Y-97507028D01*
X145817292Y-97507028D02*
X145874435Y-97449885D01*
X145874435Y-97449885D02*
X145988720Y-97392742D01*
X143083006Y-113258457D02*
X143025863Y-113315600D01*
X143025863Y-113315600D02*
X142854435Y-113372742D01*
X142854435Y-113372742D02*
X142740149Y-113372742D01*
X142740149Y-113372742D02*
X142568720Y-113315600D01*
X142568720Y-113315600D02*
X142454435Y-113201314D01*
X142454435Y-113201314D02*
X142397292Y-113087028D01*
X142397292Y-113087028D02*
X142340149Y-112858457D01*
X142340149Y-112858457D02*
X142340149Y-112687028D01*
X142340149Y-112687028D02*
X142397292Y-112458457D01*
X142397292Y-112458457D02*
X142454435Y-112344171D01*
X142454435Y-112344171D02*
X142568720Y-112229885D01*
X142568720Y-112229885D02*
X142740149Y-112172742D01*
X142740149Y-112172742D02*
X142854435Y-112172742D01*
X142854435Y-112172742D02*
X143025863Y-112229885D01*
X143025863Y-112229885D02*
X143083006Y-112287028D01*
X143540149Y-113315600D02*
X143711578Y-113372742D01*
X143711578Y-113372742D02*
X143997292Y-113372742D01*
X143997292Y-113372742D02*
X144111578Y-113315600D01*
X144111578Y-113315600D02*
X144168720Y-113258457D01*
X144168720Y-113258457D02*
X144225863Y-113144171D01*
X144225863Y-113144171D02*
X144225863Y-113029885D01*
X144225863Y-113029885D02*
X144168720Y-112915600D01*
X144168720Y-112915600D02*
X144111578Y-112858457D01*
X144111578Y-112858457D02*
X143997292Y-112801314D01*
X143997292Y-112801314D02*
X143768720Y-112744171D01*
X143768720Y-112744171D02*
X143654435Y-112687028D01*
X143654435Y-112687028D02*
X143597292Y-112629885D01*
X143597292Y-112629885D02*
X143540149Y-112515600D01*
X143540149Y-112515600D02*
X143540149Y-112401314D01*
X143540149Y-112401314D02*
X143597292Y-112287028D01*
X143597292Y-112287028D02*
X143654435Y-112229885D01*
X143654435Y-112229885D02*
X143768720Y-112172742D01*
X143768720Y-112172742D02*
X144054435Y-112172742D01*
X144054435Y-112172742D02*
X144225863Y-112229885D01*
X145368720Y-113372742D02*
X144683006Y-113372742D01*
X145025863Y-113372742D02*
X145025863Y-112172742D01*
X145025863Y-112172742D02*
X144911577Y-112344171D01*
X144911577Y-112344171D02*
X144797292Y-112458457D01*
X144797292Y-112458457D02*
X144683006Y-112515600D01*
X80550114Y-56245863D02*
X80607257Y-56131578D01*
X80607257Y-56131578D02*
X80607257Y-55960149D01*
X80607257Y-55960149D02*
X80550114Y-55788720D01*
X80550114Y-55788720D02*
X80435828Y-55674435D01*
X80435828Y-55674435D02*
X80321542Y-55617292D01*
X80321542Y-55617292D02*
X80092971Y-55560149D01*
X80092971Y-55560149D02*
X79921542Y-55560149D01*
X79921542Y-55560149D02*
X79692971Y-55617292D01*
X79692971Y-55617292D02*
X79578685Y-55674435D01*
X79578685Y-55674435D02*
X79464400Y-55788720D01*
X79464400Y-55788720D02*
X79407257Y-55960149D01*
X79407257Y-55960149D02*
X79407257Y-56074435D01*
X79407257Y-56074435D02*
X79464400Y-56245863D01*
X79464400Y-56245863D02*
X79521542Y-56303006D01*
X79521542Y-56303006D02*
X79921542Y-56303006D01*
X79921542Y-56303006D02*
X79921542Y-56074435D01*
X79407257Y-56817292D02*
X80607257Y-56817292D01*
X80607257Y-56817292D02*
X79407257Y-57503006D01*
X79407257Y-57503006D02*
X80607257Y-57503006D01*
X79407257Y-58074435D02*
X80607257Y-58074435D01*
X80607257Y-58074435D02*
X80607257Y-58360149D01*
X80607257Y-58360149D02*
X80550114Y-58531578D01*
X80550114Y-58531578D02*
X80435828Y-58645863D01*
X80435828Y-58645863D02*
X80321542Y-58703006D01*
X80321542Y-58703006D02*
X80092971Y-58760149D01*
X80092971Y-58760149D02*
X79921542Y-58760149D01*
X79921542Y-58760149D02*
X79692971Y-58703006D01*
X79692971Y-58703006D02*
X79578685Y-58645863D01*
X79578685Y-58645863D02*
X79464400Y-58531578D01*
X79464400Y-58531578D02*
X79407257Y-58360149D01*
X79407257Y-58360149D02*
X79407257Y-58074435D01*
X76592742Y-137646993D02*
X76021314Y-138046993D01*
X76592742Y-138332707D02*
X75392742Y-138332707D01*
X75392742Y-138332707D02*
X75392742Y-137875564D01*
X75392742Y-137875564D02*
X75449885Y-137761279D01*
X75449885Y-137761279D02*
X75507028Y-137704136D01*
X75507028Y-137704136D02*
X75621314Y-137646993D01*
X75621314Y-137646993D02*
X75792742Y-137646993D01*
X75792742Y-137646993D02*
X75907028Y-137704136D01*
X75907028Y-137704136D02*
X75964171Y-137761279D01*
X75964171Y-137761279D02*
X76021314Y-137875564D01*
X76021314Y-137875564D02*
X76021314Y-138332707D01*
X75392742Y-137246993D02*
X76592742Y-136446993D01*
X75392742Y-136446993D02*
X76592742Y-137246993D01*
X76592742Y-135989850D02*
X75392742Y-135989850D01*
X75392742Y-135989850D02*
X75392742Y-135704136D01*
X75392742Y-135704136D02*
X75449885Y-135532707D01*
X75449885Y-135532707D02*
X75564171Y-135418422D01*
X75564171Y-135418422D02*
X75678457Y-135361279D01*
X75678457Y-135361279D02*
X75907028Y-135304136D01*
X75907028Y-135304136D02*
X76078457Y-135304136D01*
X76078457Y-135304136D02*
X76307028Y-135361279D01*
X76307028Y-135361279D02*
X76421314Y-135418422D01*
X76421314Y-135418422D02*
X76535600Y-135532707D01*
X76535600Y-135532707D02*
X76592742Y-135704136D01*
X76592742Y-135704136D02*
X76592742Y-135989850D01*
X75392742Y-134561279D02*
X75392742Y-134446993D01*
X75392742Y-134446993D02*
X75449885Y-134332707D01*
X75449885Y-134332707D02*
X75507028Y-134275565D01*
X75507028Y-134275565D02*
X75621314Y-134218422D01*
X75621314Y-134218422D02*
X75849885Y-134161279D01*
X75849885Y-134161279D02*
X76135600Y-134161279D01*
X76135600Y-134161279D02*
X76364171Y-134218422D01*
X76364171Y-134218422D02*
X76478457Y-134275565D01*
X76478457Y-134275565D02*
X76535600Y-134332707D01*
X76535600Y-134332707D02*
X76592742Y-134446993D01*
X76592742Y-134446993D02*
X76592742Y-134561279D01*
X76592742Y-134561279D02*
X76535600Y-134675565D01*
X76535600Y-134675565D02*
X76478457Y-134732707D01*
X76478457Y-134732707D02*
X76364171Y-134789850D01*
X76364171Y-134789850D02*
X76135600Y-134846993D01*
X76135600Y-134846993D02*
X75849885Y-134846993D01*
X75849885Y-134846993D02*
X75621314Y-134789850D01*
X75621314Y-134789850D02*
X75507028Y-134732707D01*
X75507028Y-134732707D02*
X75449885Y-134675565D01*
X75449885Y-134675565D02*
X75392742Y-134561279D01*
X143553006Y-95392742D02*
X144295863Y-95392742D01*
X144295863Y-95392742D02*
X143895863Y-95849885D01*
X143895863Y-95849885D02*
X144067292Y-95849885D01*
X144067292Y-95849885D02*
X144181578Y-95907028D01*
X144181578Y-95907028D02*
X144238720Y-95964171D01*
X144238720Y-95964171D02*
X144295863Y-96078457D01*
X144295863Y-96078457D02*
X144295863Y-96364171D01*
X144295863Y-96364171D02*
X144238720Y-96478457D01*
X144238720Y-96478457D02*
X144181578Y-96535600D01*
X144181578Y-96535600D02*
X144067292Y-96592742D01*
X144067292Y-96592742D02*
X143724435Y-96592742D01*
X143724435Y-96592742D02*
X143610149Y-96535600D01*
X143610149Y-96535600D02*
X143553006Y-96478457D01*
X144810149Y-96478457D02*
X144867292Y-96535600D01*
X144867292Y-96535600D02*
X144810149Y-96592742D01*
X144810149Y-96592742D02*
X144753006Y-96535600D01*
X144753006Y-96535600D02*
X144810149Y-96478457D01*
X144810149Y-96478457D02*
X144810149Y-96592742D01*
X145267292Y-95392742D02*
X146010149Y-95392742D01*
X146010149Y-95392742D02*
X145610149Y-95849885D01*
X145610149Y-95849885D02*
X145781578Y-95849885D01*
X145781578Y-95849885D02*
X145895864Y-95907028D01*
X145895864Y-95907028D02*
X145953006Y-95964171D01*
X145953006Y-95964171D02*
X146010149Y-96078457D01*
X146010149Y-96078457D02*
X146010149Y-96364171D01*
X146010149Y-96364171D02*
X145953006Y-96478457D01*
X145953006Y-96478457D02*
X145895864Y-96535600D01*
X145895864Y-96535600D02*
X145781578Y-96592742D01*
X145781578Y-96592742D02*
X145438721Y-96592742D01*
X145438721Y-96592742D02*
X145324435Y-96535600D01*
X145324435Y-96535600D02*
X145267292Y-96478457D01*
X146353006Y-95392742D02*
X146753006Y-96592742D01*
X146753006Y-96592742D02*
X147153006Y-95392742D01*
X70357257Y-55745863D02*
X69157257Y-56145863D01*
X69157257Y-56145863D02*
X70357257Y-56545863D01*
X69271542Y-57631577D02*
X69214400Y-57574434D01*
X69214400Y-57574434D02*
X69157257Y-57403006D01*
X69157257Y-57403006D02*
X69157257Y-57288720D01*
X69157257Y-57288720D02*
X69214400Y-57117291D01*
X69214400Y-57117291D02*
X69328685Y-57003006D01*
X69328685Y-57003006D02*
X69442971Y-56945863D01*
X69442971Y-56945863D02*
X69671542Y-56888720D01*
X69671542Y-56888720D02*
X69842971Y-56888720D01*
X69842971Y-56888720D02*
X70071542Y-56945863D01*
X70071542Y-56945863D02*
X70185828Y-57003006D01*
X70185828Y-57003006D02*
X70300114Y-57117291D01*
X70300114Y-57117291D02*
X70357257Y-57288720D01*
X70357257Y-57288720D02*
X70357257Y-57403006D01*
X70357257Y-57403006D02*
X70300114Y-57574434D01*
X70300114Y-57574434D02*
X70242971Y-57631577D01*
X69271542Y-58831577D02*
X69214400Y-58774434D01*
X69214400Y-58774434D02*
X69157257Y-58603006D01*
X69157257Y-58603006D02*
X69157257Y-58488720D01*
X69157257Y-58488720D02*
X69214400Y-58317291D01*
X69214400Y-58317291D02*
X69328685Y-58203006D01*
X69328685Y-58203006D02*
X69442971Y-58145863D01*
X69442971Y-58145863D02*
X69671542Y-58088720D01*
X69671542Y-58088720D02*
X69842971Y-58088720D01*
X69842971Y-58088720D02*
X70071542Y-58145863D01*
X70071542Y-58145863D02*
X70185828Y-58203006D01*
X70185828Y-58203006D02*
X70300114Y-58317291D01*
X70300114Y-58317291D02*
X70357257Y-58488720D01*
X70357257Y-58488720D02*
X70357257Y-58603006D01*
X70357257Y-58603006D02*
X70300114Y-58774434D01*
X70300114Y-58774434D02*
X70242971Y-58831577D01*
X143417292Y-102592742D02*
X143417292Y-101392742D01*
X143417292Y-101392742D02*
X143817292Y-102249885D01*
X143817292Y-102249885D02*
X144217292Y-101392742D01*
X144217292Y-101392742D02*
X144217292Y-102592742D01*
X144788721Y-102592742D02*
X144788721Y-101392742D01*
X145303007Y-102535600D02*
X145474436Y-102592742D01*
X145474436Y-102592742D02*
X145760150Y-102592742D01*
X145760150Y-102592742D02*
X145874436Y-102535600D01*
X145874436Y-102535600D02*
X145931578Y-102478457D01*
X145931578Y-102478457D02*
X145988721Y-102364171D01*
X145988721Y-102364171D02*
X145988721Y-102249885D01*
X145988721Y-102249885D02*
X145931578Y-102135600D01*
X145931578Y-102135600D02*
X145874436Y-102078457D01*
X145874436Y-102078457D02*
X145760150Y-102021314D01*
X145760150Y-102021314D02*
X145531578Y-101964171D01*
X145531578Y-101964171D02*
X145417293Y-101907028D01*
X145417293Y-101907028D02*
X145360150Y-101849885D01*
X145360150Y-101849885D02*
X145303007Y-101735600D01*
X145303007Y-101735600D02*
X145303007Y-101621314D01*
X145303007Y-101621314D02*
X145360150Y-101507028D01*
X145360150Y-101507028D02*
X145417293Y-101449885D01*
X145417293Y-101449885D02*
X145531578Y-101392742D01*
X145531578Y-101392742D02*
X145817293Y-101392742D01*
X145817293Y-101392742D02*
X145988721Y-101449885D01*
X146731578Y-101392742D02*
X146960150Y-101392742D01*
X146960150Y-101392742D02*
X147074435Y-101449885D01*
X147074435Y-101449885D02*
X147188721Y-101564171D01*
X147188721Y-101564171D02*
X147245864Y-101792742D01*
X147245864Y-101792742D02*
X147245864Y-102192742D01*
X147245864Y-102192742D02*
X147188721Y-102421314D01*
X147188721Y-102421314D02*
X147074435Y-102535600D01*
X147074435Y-102535600D02*
X146960150Y-102592742D01*
X146960150Y-102592742D02*
X146731578Y-102592742D01*
X146731578Y-102592742D02*
X146617293Y-102535600D01*
X146617293Y-102535600D02*
X146503007Y-102421314D01*
X146503007Y-102421314D02*
X146445864Y-102192742D01*
X146445864Y-102192742D02*
X146445864Y-101792742D01*
X146445864Y-101792742D02*
X146503007Y-101564171D01*
X146503007Y-101564171D02*
X146617293Y-101449885D01*
X146617293Y-101449885D02*
X146731578Y-101392742D01*
X95392742Y-56446993D02*
X95392742Y-55704136D01*
X95392742Y-55704136D02*
X95849885Y-56104136D01*
X95849885Y-56104136D02*
X95849885Y-55932707D01*
X95849885Y-55932707D02*
X95907028Y-55818422D01*
X95907028Y-55818422D02*
X95964171Y-55761279D01*
X95964171Y-55761279D02*
X96078457Y-55704136D01*
X96078457Y-55704136D02*
X96364171Y-55704136D01*
X96364171Y-55704136D02*
X96478457Y-55761279D01*
X96478457Y-55761279D02*
X96535600Y-55818422D01*
X96535600Y-55818422D02*
X96592742Y-55932707D01*
X96592742Y-55932707D02*
X96592742Y-56275564D01*
X96592742Y-56275564D02*
X96535600Y-56389850D01*
X96535600Y-56389850D02*
X96478457Y-56446993D01*
X96478457Y-55189850D02*
X96535600Y-55132707D01*
X96535600Y-55132707D02*
X96592742Y-55189850D01*
X96592742Y-55189850D02*
X96535600Y-55246993D01*
X96535600Y-55246993D02*
X96478457Y-55189850D01*
X96478457Y-55189850D02*
X96592742Y-55189850D01*
X95392742Y-54732707D02*
X95392742Y-53989850D01*
X95392742Y-53989850D02*
X95849885Y-54389850D01*
X95849885Y-54389850D02*
X95849885Y-54218421D01*
X95849885Y-54218421D02*
X95907028Y-54104136D01*
X95907028Y-54104136D02*
X95964171Y-54046993D01*
X95964171Y-54046993D02*
X96078457Y-53989850D01*
X96078457Y-53989850D02*
X96364171Y-53989850D01*
X96364171Y-53989850D02*
X96478457Y-54046993D01*
X96478457Y-54046993D02*
X96535600Y-54104136D01*
X96535600Y-54104136D02*
X96592742Y-54218421D01*
X96592742Y-54218421D02*
X96592742Y-54561278D01*
X96592742Y-54561278D02*
X96535600Y-54675564D01*
X96535600Y-54675564D02*
X96478457Y-54732707D01*
X95392742Y-53646993D02*
X96592742Y-53246993D01*
X96592742Y-53246993D02*
X95392742Y-52846993D01*
X143133006Y-116548457D02*
X143075863Y-116605600D01*
X143075863Y-116605600D02*
X142904435Y-116662742D01*
X142904435Y-116662742D02*
X142790149Y-116662742D01*
X142790149Y-116662742D02*
X142618720Y-116605600D01*
X142618720Y-116605600D02*
X142504435Y-116491314D01*
X142504435Y-116491314D02*
X142447292Y-116377028D01*
X142447292Y-116377028D02*
X142390149Y-116148457D01*
X142390149Y-116148457D02*
X142390149Y-115977028D01*
X142390149Y-115977028D02*
X142447292Y-115748457D01*
X142447292Y-115748457D02*
X142504435Y-115634171D01*
X142504435Y-115634171D02*
X142618720Y-115519885D01*
X142618720Y-115519885D02*
X142790149Y-115462742D01*
X142790149Y-115462742D02*
X142904435Y-115462742D01*
X142904435Y-115462742D02*
X143075863Y-115519885D01*
X143075863Y-115519885D02*
X143133006Y-115577028D01*
X144218720Y-116662742D02*
X143647292Y-116662742D01*
X143647292Y-116662742D02*
X143647292Y-115462742D01*
X144618721Y-116662742D02*
X144618721Y-115462742D01*
X145304435Y-116662742D02*
X144790149Y-115977028D01*
X145304435Y-115462742D02*
X144618721Y-116148457D01*
X142197707Y-74080600D02*
X142369136Y-74137742D01*
X142369136Y-74137742D02*
X142654850Y-74137742D01*
X142654850Y-74137742D02*
X142769136Y-74080600D01*
X142769136Y-74080600D02*
X142826278Y-74023457D01*
X142826278Y-74023457D02*
X142883421Y-73909171D01*
X142883421Y-73909171D02*
X142883421Y-73794885D01*
X142883421Y-73794885D02*
X142826278Y-73680600D01*
X142826278Y-73680600D02*
X142769136Y-73623457D01*
X142769136Y-73623457D02*
X142654850Y-73566314D01*
X142654850Y-73566314D02*
X142426278Y-73509171D01*
X142426278Y-73509171D02*
X142311993Y-73452028D01*
X142311993Y-73452028D02*
X142254850Y-73394885D01*
X142254850Y-73394885D02*
X142197707Y-73280600D01*
X142197707Y-73280600D02*
X142197707Y-73166314D01*
X142197707Y-73166314D02*
X142254850Y-73052028D01*
X142254850Y-73052028D02*
X142311993Y-72994885D01*
X142311993Y-72994885D02*
X142426278Y-72937742D01*
X142426278Y-72937742D02*
X142711993Y-72937742D01*
X142711993Y-72937742D02*
X142883421Y-72994885D01*
X144083421Y-74023457D02*
X144026278Y-74080600D01*
X144026278Y-74080600D02*
X143854850Y-74137742D01*
X143854850Y-74137742D02*
X143740564Y-74137742D01*
X143740564Y-74137742D02*
X143569135Y-74080600D01*
X143569135Y-74080600D02*
X143454850Y-73966314D01*
X143454850Y-73966314D02*
X143397707Y-73852028D01*
X143397707Y-73852028D02*
X143340564Y-73623457D01*
X143340564Y-73623457D02*
X143340564Y-73452028D01*
X143340564Y-73452028D02*
X143397707Y-73223457D01*
X143397707Y-73223457D02*
X143454850Y-73109171D01*
X143454850Y-73109171D02*
X143569135Y-72994885D01*
X143569135Y-72994885D02*
X143740564Y-72937742D01*
X143740564Y-72937742D02*
X143854850Y-72937742D01*
X143854850Y-72937742D02*
X144026278Y-72994885D01*
X144026278Y-72994885D02*
X144083421Y-73052028D01*
X145169135Y-74137742D02*
X144597707Y-74137742D01*
X144597707Y-74137742D02*
X144597707Y-72937742D01*
X65407257Y-55403006D02*
X65407257Y-56145863D01*
X65407257Y-56145863D02*
X64950114Y-55745863D01*
X64950114Y-55745863D02*
X64950114Y-55917292D01*
X64950114Y-55917292D02*
X64892971Y-56031578D01*
X64892971Y-56031578D02*
X64835828Y-56088720D01*
X64835828Y-56088720D02*
X64721542Y-56145863D01*
X64721542Y-56145863D02*
X64435828Y-56145863D01*
X64435828Y-56145863D02*
X64321542Y-56088720D01*
X64321542Y-56088720D02*
X64264400Y-56031578D01*
X64264400Y-56031578D02*
X64207257Y-55917292D01*
X64207257Y-55917292D02*
X64207257Y-55574435D01*
X64207257Y-55574435D02*
X64264400Y-55460149D01*
X64264400Y-55460149D02*
X64321542Y-55403006D01*
X64321542Y-56660149D02*
X64264400Y-56717292D01*
X64264400Y-56717292D02*
X64207257Y-56660149D01*
X64207257Y-56660149D02*
X64264400Y-56603006D01*
X64264400Y-56603006D02*
X64321542Y-56660149D01*
X64321542Y-56660149D02*
X64207257Y-56660149D01*
X65407257Y-57117292D02*
X65407257Y-57860149D01*
X65407257Y-57860149D02*
X64950114Y-57460149D01*
X64950114Y-57460149D02*
X64950114Y-57631578D01*
X64950114Y-57631578D02*
X64892971Y-57745864D01*
X64892971Y-57745864D02*
X64835828Y-57803006D01*
X64835828Y-57803006D02*
X64721542Y-57860149D01*
X64721542Y-57860149D02*
X64435828Y-57860149D01*
X64435828Y-57860149D02*
X64321542Y-57803006D01*
X64321542Y-57803006D02*
X64264400Y-57745864D01*
X64264400Y-57745864D02*
X64207257Y-57631578D01*
X64207257Y-57631578D02*
X64207257Y-57288721D01*
X64207257Y-57288721D02*
X64264400Y-57174435D01*
X64264400Y-57174435D02*
X64321542Y-57117292D01*
X65407257Y-58203006D02*
X64207257Y-58603006D01*
X64207257Y-58603006D02*
X65407257Y-59003006D01*
X58045863Y-78199885D02*
X57931578Y-78142742D01*
X57931578Y-78142742D02*
X57760149Y-78142742D01*
X57760149Y-78142742D02*
X57588720Y-78199885D01*
X57588720Y-78199885D02*
X57474435Y-78314171D01*
X57474435Y-78314171D02*
X57417292Y-78428457D01*
X57417292Y-78428457D02*
X57360149Y-78657028D01*
X57360149Y-78657028D02*
X57360149Y-78828457D01*
X57360149Y-78828457D02*
X57417292Y-79057028D01*
X57417292Y-79057028D02*
X57474435Y-79171314D01*
X57474435Y-79171314D02*
X57588720Y-79285600D01*
X57588720Y-79285600D02*
X57760149Y-79342742D01*
X57760149Y-79342742D02*
X57874435Y-79342742D01*
X57874435Y-79342742D02*
X58045863Y-79285600D01*
X58045863Y-79285600D02*
X58103006Y-79228457D01*
X58103006Y-79228457D02*
X58103006Y-78828457D01*
X58103006Y-78828457D02*
X57874435Y-78828457D01*
X58617292Y-79342742D02*
X58617292Y-78142742D01*
X58617292Y-78142742D02*
X59074435Y-78142742D01*
X59074435Y-78142742D02*
X59188720Y-78199885D01*
X59188720Y-78199885D02*
X59245863Y-78257028D01*
X59245863Y-78257028D02*
X59303006Y-78371314D01*
X59303006Y-78371314D02*
X59303006Y-78542742D01*
X59303006Y-78542742D02*
X59245863Y-78657028D01*
X59245863Y-78657028D02*
X59188720Y-78714171D01*
X59188720Y-78714171D02*
X59074435Y-78771314D01*
X59074435Y-78771314D02*
X58617292Y-78771314D01*
X59760149Y-79285600D02*
X59931578Y-79342742D01*
X59931578Y-79342742D02*
X60217292Y-79342742D01*
X60217292Y-79342742D02*
X60331578Y-79285600D01*
X60331578Y-79285600D02*
X60388720Y-79228457D01*
X60388720Y-79228457D02*
X60445863Y-79114171D01*
X60445863Y-79114171D02*
X60445863Y-78999885D01*
X60445863Y-78999885D02*
X60388720Y-78885600D01*
X60388720Y-78885600D02*
X60331578Y-78828457D01*
X60331578Y-78828457D02*
X60217292Y-78771314D01*
X60217292Y-78771314D02*
X59988720Y-78714171D01*
X59988720Y-78714171D02*
X59874435Y-78657028D01*
X59874435Y-78657028D02*
X59817292Y-78599885D01*
X59817292Y-78599885D02*
X59760149Y-78485600D01*
X59760149Y-78485600D02*
X59760149Y-78371314D01*
X59760149Y-78371314D02*
X59817292Y-78257028D01*
X59817292Y-78257028D02*
X59874435Y-78199885D01*
X59874435Y-78199885D02*
X59988720Y-78142742D01*
X59988720Y-78142742D02*
X60274435Y-78142742D01*
X60274435Y-78142742D02*
X60445863Y-78199885D01*
X97896149Y-60967885D02*
X98467578Y-60967885D01*
X97781863Y-61310742D02*
X98181863Y-60110742D01*
X98181863Y-60110742D02*
X98581863Y-61310742D01*
X98981863Y-60510742D02*
X98981863Y-61310742D01*
X98981863Y-60625028D02*
X99039006Y-60567885D01*
X99039006Y-60567885D02*
X99153291Y-60510742D01*
X99153291Y-60510742D02*
X99324720Y-60510742D01*
X99324720Y-60510742D02*
X99439006Y-60567885D01*
X99439006Y-60567885D02*
X99496149Y-60682171D01*
X99496149Y-60682171D02*
X99496149Y-61310742D01*
X100581863Y-60510742D02*
X100581863Y-61482171D01*
X100581863Y-61482171D02*
X100524720Y-61596457D01*
X100524720Y-61596457D02*
X100467577Y-61653600D01*
X100467577Y-61653600D02*
X100353291Y-61710742D01*
X100353291Y-61710742D02*
X100181863Y-61710742D01*
X100181863Y-61710742D02*
X100067577Y-61653600D01*
X100581863Y-61253600D02*
X100467577Y-61310742D01*
X100467577Y-61310742D02*
X100239005Y-61310742D01*
X100239005Y-61310742D02*
X100124720Y-61253600D01*
X100124720Y-61253600D02*
X100067577Y-61196457D01*
X100067577Y-61196457D02*
X100010434Y-61082171D01*
X100010434Y-61082171D02*
X100010434Y-60739314D01*
X100010434Y-60739314D02*
X100067577Y-60625028D01*
X100067577Y-60625028D02*
X100124720Y-60567885D01*
X100124720Y-60567885D02*
X100239005Y-60510742D01*
X100239005Y-60510742D02*
X100467577Y-60510742D01*
X100467577Y-60510742D02*
X100581863Y-60567885D01*
X101324719Y-61310742D02*
X101210434Y-61253600D01*
X101210434Y-61253600D02*
X101153291Y-61139314D01*
X101153291Y-61139314D02*
X101153291Y-60110742D01*
X102239005Y-61253600D02*
X102124719Y-61310742D01*
X102124719Y-61310742D02*
X101896148Y-61310742D01*
X101896148Y-61310742D02*
X101781862Y-61253600D01*
X101781862Y-61253600D02*
X101724719Y-61139314D01*
X101724719Y-61139314D02*
X101724719Y-60682171D01*
X101724719Y-60682171D02*
X101781862Y-60567885D01*
X101781862Y-60567885D02*
X101896148Y-60510742D01*
X101896148Y-60510742D02*
X102124719Y-60510742D01*
X102124719Y-60510742D02*
X102239005Y-60567885D01*
X102239005Y-60567885D02*
X102296148Y-60682171D01*
X102296148Y-60682171D02*
X102296148Y-60796457D01*
X102296148Y-60796457D02*
X101724719Y-60910742D01*
X134032707Y-114535600D02*
X134204136Y-114592742D01*
X134204136Y-114592742D02*
X134489850Y-114592742D01*
X134489850Y-114592742D02*
X134604136Y-114535600D01*
X134604136Y-114535600D02*
X134661278Y-114478457D01*
X134661278Y-114478457D02*
X134718421Y-114364171D01*
X134718421Y-114364171D02*
X134718421Y-114249885D01*
X134718421Y-114249885D02*
X134661278Y-114135600D01*
X134661278Y-114135600D02*
X134604136Y-114078457D01*
X134604136Y-114078457D02*
X134489850Y-114021314D01*
X134489850Y-114021314D02*
X134261278Y-113964171D01*
X134261278Y-113964171D02*
X134146993Y-113907028D01*
X134146993Y-113907028D02*
X134089850Y-113849885D01*
X134089850Y-113849885D02*
X134032707Y-113735600D01*
X134032707Y-113735600D02*
X134032707Y-113621314D01*
X134032707Y-113621314D02*
X134089850Y-113507028D01*
X134089850Y-113507028D02*
X134146993Y-113449885D01*
X134146993Y-113449885D02*
X134261278Y-113392742D01*
X134261278Y-113392742D02*
X134546993Y-113392742D01*
X134546993Y-113392742D02*
X134718421Y-113449885D01*
X135918421Y-114478457D02*
X135861278Y-114535600D01*
X135861278Y-114535600D02*
X135689850Y-114592742D01*
X135689850Y-114592742D02*
X135575564Y-114592742D01*
X135575564Y-114592742D02*
X135404135Y-114535600D01*
X135404135Y-114535600D02*
X135289850Y-114421314D01*
X135289850Y-114421314D02*
X135232707Y-114307028D01*
X135232707Y-114307028D02*
X135175564Y-114078457D01*
X135175564Y-114078457D02*
X135175564Y-113907028D01*
X135175564Y-113907028D02*
X135232707Y-113678457D01*
X135232707Y-113678457D02*
X135289850Y-113564171D01*
X135289850Y-113564171D02*
X135404135Y-113449885D01*
X135404135Y-113449885D02*
X135575564Y-113392742D01*
X135575564Y-113392742D02*
X135689850Y-113392742D01*
X135689850Y-113392742D02*
X135861278Y-113449885D01*
X135861278Y-113449885D02*
X135918421Y-113507028D01*
X137004135Y-114592742D02*
X136432707Y-114592742D01*
X136432707Y-114592742D02*
X136432707Y-113392742D01*
X60917292Y-123842742D02*
X60917292Y-122642742D01*
X60917292Y-122642742D02*
X61374435Y-122642742D01*
X61374435Y-122642742D02*
X61488720Y-122699885D01*
X61488720Y-122699885D02*
X61545863Y-122757028D01*
X61545863Y-122757028D02*
X61603006Y-122871314D01*
X61603006Y-122871314D02*
X61603006Y-123042742D01*
X61603006Y-123042742D02*
X61545863Y-123157028D01*
X61545863Y-123157028D02*
X61488720Y-123214171D01*
X61488720Y-123214171D02*
X61374435Y-123271314D01*
X61374435Y-123271314D02*
X60917292Y-123271314D01*
X62631578Y-123042742D02*
X62631578Y-123842742D01*
X62117292Y-123042742D02*
X62117292Y-123671314D01*
X62117292Y-123671314D02*
X62174435Y-123785600D01*
X62174435Y-123785600D02*
X62288720Y-123842742D01*
X62288720Y-123842742D02*
X62460149Y-123842742D01*
X62460149Y-123842742D02*
X62574435Y-123785600D01*
X62574435Y-123785600D02*
X62631578Y-123728457D01*
X63374434Y-123842742D02*
X63260149Y-123785600D01*
X63260149Y-123785600D02*
X63203006Y-123671314D01*
X63203006Y-123671314D02*
X63203006Y-122642742D01*
X63774434Y-123785600D02*
X63888720Y-123842742D01*
X63888720Y-123842742D02*
X64117291Y-123842742D01*
X64117291Y-123842742D02*
X64231577Y-123785600D01*
X64231577Y-123785600D02*
X64288720Y-123671314D01*
X64288720Y-123671314D02*
X64288720Y-123614171D01*
X64288720Y-123614171D02*
X64231577Y-123499885D01*
X64231577Y-123499885D02*
X64117291Y-123442742D01*
X64117291Y-123442742D02*
X63945863Y-123442742D01*
X63945863Y-123442742D02*
X63831577Y-123385600D01*
X63831577Y-123385600D02*
X63774434Y-123271314D01*
X63774434Y-123271314D02*
X63774434Y-123214171D01*
X63774434Y-123214171D02*
X63831577Y-123099885D01*
X63831577Y-123099885D02*
X63945863Y-123042742D01*
X63945863Y-123042742D02*
X64117291Y-123042742D01*
X64117291Y-123042742D02*
X64231577Y-123099885D01*
X65260149Y-123785600D02*
X65145863Y-123842742D01*
X65145863Y-123842742D02*
X64917292Y-123842742D01*
X64917292Y-123842742D02*
X64803006Y-123785600D01*
X64803006Y-123785600D02*
X64745863Y-123671314D01*
X64745863Y-123671314D02*
X64745863Y-123214171D01*
X64745863Y-123214171D02*
X64803006Y-123099885D01*
X64803006Y-123099885D02*
X64917292Y-123042742D01*
X64917292Y-123042742D02*
X65145863Y-123042742D01*
X65145863Y-123042742D02*
X65260149Y-123099885D01*
X65260149Y-123099885D02*
X65317292Y-123214171D01*
X65317292Y-123214171D02*
X65317292Y-123328457D01*
X65317292Y-123328457D02*
X64745863Y-123442742D01*
X93142742Y-139023183D02*
X93142742Y-138451755D01*
X94342742Y-138737469D02*
X93142742Y-138737469D01*
X93142742Y-138213659D02*
X94342742Y-137546993D01*
X93142742Y-137546993D02*
X94342742Y-138213659D01*
X94342742Y-137166040D02*
X93142742Y-137166040D01*
X93142742Y-137166040D02*
X93142742Y-136927945D01*
X93142742Y-136927945D02*
X93199885Y-136785088D01*
X93199885Y-136785088D02*
X93314171Y-136689850D01*
X93314171Y-136689850D02*
X93428457Y-136642231D01*
X93428457Y-136642231D02*
X93657028Y-136594612D01*
X93657028Y-136594612D02*
X93828457Y-136594612D01*
X93828457Y-136594612D02*
X94057028Y-136642231D01*
X94057028Y-136642231D02*
X94171314Y-136689850D01*
X94171314Y-136689850D02*
X94285600Y-136785088D01*
X94285600Y-136785088D02*
X94342742Y-136927945D01*
X94342742Y-136927945D02*
X94342742Y-137166040D01*
X93142742Y-135975564D02*
X93142742Y-135880326D01*
X93142742Y-135880326D02*
X93199885Y-135785088D01*
X93199885Y-135785088D02*
X93257028Y-135737469D01*
X93257028Y-135737469D02*
X93371314Y-135689850D01*
X93371314Y-135689850D02*
X93599885Y-135642231D01*
X93599885Y-135642231D02*
X93885600Y-135642231D01*
X93885600Y-135642231D02*
X94114171Y-135689850D01*
X94114171Y-135689850D02*
X94228457Y-135737469D01*
X94228457Y-135737469D02*
X94285600Y-135785088D01*
X94285600Y-135785088D02*
X94342742Y-135880326D01*
X94342742Y-135880326D02*
X94342742Y-135975564D01*
X94342742Y-135975564D02*
X94285600Y-136070802D01*
X94285600Y-136070802D02*
X94228457Y-136118421D01*
X94228457Y-136118421D02*
X94114171Y-136166040D01*
X94114171Y-136166040D02*
X93885600Y-136213659D01*
X93885600Y-136213659D02*
X93599885Y-136213659D01*
X93599885Y-136213659D02*
X93371314Y-136166040D01*
X93371314Y-136166040D02*
X93257028Y-136118421D01*
X93257028Y-136118421D02*
X93199885Y-136070802D01*
X93199885Y-136070802D02*
X93142742Y-135975564D01*
D11*
X75390476Y-146266819D02*
X75390476Y-146981104D01*
X75390476Y-146981104D02*
X75342857Y-147123961D01*
X75342857Y-147123961D02*
X75247619Y-147219200D01*
X75247619Y-147219200D02*
X75104762Y-147266819D01*
X75104762Y-147266819D02*
X75009524Y-147266819D01*
X76390476Y-147266819D02*
X75819048Y-147266819D01*
X76104762Y-147266819D02*
X76104762Y-146266819D01*
X76104762Y-146266819D02*
X76009524Y-146409676D01*
X76009524Y-146409676D02*
X75914286Y-146504914D01*
X75914286Y-146504914D02*
X75819048Y-146552533D01*
X77247619Y-146266819D02*
X77057143Y-146266819D01*
X77057143Y-146266819D02*
X76961905Y-146314438D01*
X76961905Y-146314438D02*
X76914286Y-146362057D01*
X76914286Y-146362057D02*
X76819048Y-146504914D01*
X76819048Y-146504914D02*
X76771429Y-146695390D01*
X76771429Y-146695390D02*
X76771429Y-147076342D01*
X76771429Y-147076342D02*
X76819048Y-147171580D01*
X76819048Y-147171580D02*
X76866667Y-147219200D01*
X76866667Y-147219200D02*
X76961905Y-147266819D01*
X76961905Y-147266819D02*
X77152381Y-147266819D01*
X77152381Y-147266819D02*
X77247619Y-147219200D01*
X77247619Y-147219200D02*
X77295238Y-147171580D01*
X77295238Y-147171580D02*
X77342857Y-147076342D01*
X77342857Y-147076342D02*
X77342857Y-146838247D01*
X77342857Y-146838247D02*
X77295238Y-146743009D01*
X77295238Y-146743009D02*
X77247619Y-146695390D01*
X77247619Y-146695390D02*
X77152381Y-146647771D01*
X77152381Y-146647771D02*
X76961905Y-146647771D01*
X76961905Y-146647771D02*
X76866667Y-146695390D01*
X76866667Y-146695390D02*
X76819048Y-146743009D01*
X76819048Y-146743009D02*
X76771429Y-146838247D01*
X147779819Y-130676904D02*
X148589342Y-130676904D01*
X148589342Y-130676904D02*
X148684580Y-130629285D01*
X148684580Y-130629285D02*
X148732200Y-130581666D01*
X148732200Y-130581666D02*
X148779819Y-130486428D01*
X148779819Y-130486428D02*
X148779819Y-130295952D01*
X148779819Y-130295952D02*
X148732200Y-130200714D01*
X148732200Y-130200714D02*
X148684580Y-130153095D01*
X148684580Y-130153095D02*
X148589342Y-130105476D01*
X148589342Y-130105476D02*
X147779819Y-130105476D01*
X148779819Y-129105476D02*
X148779819Y-129676904D01*
X148779819Y-129391190D02*
X147779819Y-129391190D01*
X147779819Y-129391190D02*
X147922676Y-129486428D01*
X147922676Y-129486428D02*
X148017914Y-129581666D01*
X148017914Y-129581666D02*
X148065533Y-129676904D01*
X61436666Y-52794819D02*
X61436666Y-53509104D01*
X61436666Y-53509104D02*
X61389047Y-53651961D01*
X61389047Y-53651961D02*
X61293809Y-53747200D01*
X61293809Y-53747200D02*
X61150952Y-53794819D01*
X61150952Y-53794819D02*
X61055714Y-53794819D01*
X61865238Y-52890057D02*
X61912857Y-52842438D01*
X61912857Y-52842438D02*
X62008095Y-52794819D01*
X62008095Y-52794819D02*
X62246190Y-52794819D01*
X62246190Y-52794819D02*
X62341428Y-52842438D01*
X62341428Y-52842438D02*
X62389047Y-52890057D01*
X62389047Y-52890057D02*
X62436666Y-52985295D01*
X62436666Y-52985295D02*
X62436666Y-53080533D01*
X62436666Y-53080533D02*
X62389047Y-53223390D01*
X62389047Y-53223390D02*
X61817619Y-53794819D01*
X61817619Y-53794819D02*
X62436666Y-53794819D01*
X141186819Y-78057333D02*
X141901104Y-78057333D01*
X141901104Y-78057333D02*
X142043961Y-78104952D01*
X142043961Y-78104952D02*
X142139200Y-78200190D01*
X142139200Y-78200190D02*
X142186819Y-78343047D01*
X142186819Y-78343047D02*
X142186819Y-78438285D01*
X141186819Y-77676380D02*
X141186819Y-77009714D01*
X141186819Y-77009714D02*
X142186819Y-77438285D01*
X73936666Y-52794819D02*
X73936666Y-53509104D01*
X73936666Y-53509104D02*
X73889047Y-53651961D01*
X73889047Y-53651961D02*
X73793809Y-53747200D01*
X73793809Y-53747200D02*
X73650952Y-53794819D01*
X73650952Y-53794819D02*
X73555714Y-53794819D01*
X74317619Y-52794819D02*
X74936666Y-52794819D01*
X74936666Y-52794819D02*
X74603333Y-53175771D01*
X74603333Y-53175771D02*
X74746190Y-53175771D01*
X74746190Y-53175771D02*
X74841428Y-53223390D01*
X74841428Y-53223390D02*
X74889047Y-53271009D01*
X74889047Y-53271009D02*
X74936666Y-53366247D01*
X74936666Y-53366247D02*
X74936666Y-53604342D01*
X74936666Y-53604342D02*
X74889047Y-53699580D01*
X74889047Y-53699580D02*
X74841428Y-53747200D01*
X74841428Y-53747200D02*
X74746190Y-53794819D01*
X74746190Y-53794819D02*
X74460476Y-53794819D01*
X74460476Y-53794819D02*
X74365238Y-53747200D01*
X74365238Y-53747200D02*
X74317619Y-53699580D01*
X50454819Y-122309523D02*
X51169104Y-122309523D01*
X51169104Y-122309523D02*
X51311961Y-122357142D01*
X51311961Y-122357142D02*
X51407200Y-122452380D01*
X51407200Y-122452380D02*
X51454819Y-122595237D01*
X51454819Y-122595237D02*
X51454819Y-122690475D01*
X51454819Y-121309523D02*
X51454819Y-121880951D01*
X51454819Y-121595237D02*
X50454819Y-121595237D01*
X50454819Y-121595237D02*
X50597676Y-121690475D01*
X50597676Y-121690475D02*
X50692914Y-121785713D01*
X50692914Y-121785713D02*
X50740533Y-121880951D01*
X50454819Y-120404761D02*
X50454819Y-120880951D01*
X50454819Y-120880951D02*
X50931009Y-120928570D01*
X50931009Y-120928570D02*
X50883390Y-120880951D01*
X50883390Y-120880951D02*
X50835771Y-120785713D01*
X50835771Y-120785713D02*
X50835771Y-120547618D01*
X50835771Y-120547618D02*
X50883390Y-120452380D01*
X50883390Y-120452380D02*
X50931009Y-120404761D01*
X50931009Y-120404761D02*
X51026247Y-120357142D01*
X51026247Y-120357142D02*
X51264342Y-120357142D01*
X51264342Y-120357142D02*
X51359580Y-120404761D01*
X51359580Y-120404761D02*
X51407200Y-120452380D01*
X51407200Y-120452380D02*
X51454819Y-120547618D01*
X51454819Y-120547618D02*
X51454819Y-120785713D01*
X51454819Y-120785713D02*
X51407200Y-120880951D01*
X51407200Y-120880951D02*
X51359580Y-120928570D01*
X50454819Y-125809523D02*
X51169104Y-125809523D01*
X51169104Y-125809523D02*
X51311961Y-125857142D01*
X51311961Y-125857142D02*
X51407200Y-125952380D01*
X51407200Y-125952380D02*
X51454819Y-126095237D01*
X51454819Y-126095237D02*
X51454819Y-126190475D01*
X51454819Y-124809523D02*
X51454819Y-125380951D01*
X51454819Y-125095237D02*
X50454819Y-125095237D01*
X50454819Y-125095237D02*
X50597676Y-125190475D01*
X50597676Y-125190475D02*
X50692914Y-125285713D01*
X50692914Y-125285713D02*
X50740533Y-125380951D01*
X50788152Y-123952380D02*
X51454819Y-123952380D01*
X50407200Y-124190475D02*
X51121485Y-124428570D01*
X51121485Y-124428570D02*
X51121485Y-123809523D01*
X132277200Y-146113332D02*
X132324819Y-145970475D01*
X132324819Y-145970475D02*
X132324819Y-145732380D01*
X132324819Y-145732380D02*
X132277200Y-145637142D01*
X132277200Y-145637142D02*
X132229580Y-145589523D01*
X132229580Y-145589523D02*
X132134342Y-145541904D01*
X132134342Y-145541904D02*
X132039104Y-145541904D01*
X132039104Y-145541904D02*
X131943866Y-145589523D01*
X131943866Y-145589523D02*
X131896247Y-145637142D01*
X131896247Y-145637142D02*
X131848628Y-145732380D01*
X131848628Y-145732380D02*
X131801009Y-145922856D01*
X131801009Y-145922856D02*
X131753390Y-146018094D01*
X131753390Y-146018094D02*
X131705771Y-146065713D01*
X131705771Y-146065713D02*
X131610533Y-146113332D01*
X131610533Y-146113332D02*
X131515295Y-146113332D01*
X131515295Y-146113332D02*
X131420057Y-146065713D01*
X131420057Y-146065713D02*
X131372438Y-146018094D01*
X131372438Y-146018094D02*
X131324819Y-145922856D01*
X131324819Y-145922856D02*
X131324819Y-145684761D01*
X131324819Y-145684761D02*
X131372438Y-145541904D01*
X131324819Y-145208570D02*
X132324819Y-144970475D01*
X132324819Y-144970475D02*
X131610533Y-144779999D01*
X131610533Y-144779999D02*
X132324819Y-144589523D01*
X132324819Y-144589523D02*
X131324819Y-144351428D01*
X132324819Y-143446666D02*
X132324819Y-144018094D01*
X132324819Y-143732380D02*
X131324819Y-143732380D01*
X131324819Y-143732380D02*
X131467676Y-143827618D01*
X131467676Y-143827618D02*
X131562914Y-143922856D01*
X131562914Y-143922856D02*
X131610533Y-144018094D01*
D12*
X138874318Y-145526904D02*
X138269556Y-145950238D01*
X138874318Y-146252619D02*
X137604318Y-146252619D01*
X137604318Y-146252619D02*
X137604318Y-145768809D01*
X137604318Y-145768809D02*
X137664794Y-145647857D01*
X137664794Y-145647857D02*
X137725270Y-145587380D01*
X137725270Y-145587380D02*
X137846222Y-145526904D01*
X137846222Y-145526904D02*
X138027651Y-145526904D01*
X138027651Y-145526904D02*
X138148603Y-145587380D01*
X138148603Y-145587380D02*
X138209080Y-145647857D01*
X138209080Y-145647857D02*
X138269556Y-145768809D01*
X138269556Y-145768809D02*
X138269556Y-146252619D01*
X138874318Y-144982619D02*
X137604318Y-144982619D01*
X137604318Y-144982619D02*
X138874318Y-144256904D01*
X138874318Y-144256904D02*
X137604318Y-144256904D01*
X138874318Y-142986904D02*
X138874318Y-143712619D01*
X138874318Y-143349762D02*
X137604318Y-143349762D01*
X137604318Y-143349762D02*
X137785746Y-143470714D01*
X137785746Y-143470714D02*
X137906699Y-143591666D01*
X137906699Y-143591666D02*
X137967175Y-143712619D01*
D11*
X50454819Y-129809523D02*
X51169104Y-129809523D01*
X51169104Y-129809523D02*
X51311961Y-129857142D01*
X51311961Y-129857142D02*
X51407200Y-129952380D01*
X51407200Y-129952380D02*
X51454819Y-130095237D01*
X51454819Y-130095237D02*
X51454819Y-130190475D01*
X51454819Y-128809523D02*
X51454819Y-129380951D01*
X51454819Y-129095237D02*
X50454819Y-129095237D01*
X50454819Y-129095237D02*
X50597676Y-129190475D01*
X50597676Y-129190475D02*
X50692914Y-129285713D01*
X50692914Y-129285713D02*
X50740533Y-129380951D01*
X50454819Y-128476189D02*
X50454819Y-127857142D01*
X50454819Y-127857142D02*
X50835771Y-128190475D01*
X50835771Y-128190475D02*
X50835771Y-128047618D01*
X50835771Y-128047618D02*
X50883390Y-127952380D01*
X50883390Y-127952380D02*
X50931009Y-127904761D01*
X50931009Y-127904761D02*
X51026247Y-127857142D01*
X51026247Y-127857142D02*
X51264342Y-127857142D01*
X51264342Y-127857142D02*
X51359580Y-127904761D01*
X51359580Y-127904761D02*
X51407200Y-127952380D01*
X51407200Y-127952380D02*
X51454819Y-128047618D01*
X51454819Y-128047618D02*
X51454819Y-128333332D01*
X51454819Y-128333332D02*
X51407200Y-128428570D01*
X51407200Y-128428570D02*
X51359580Y-128476189D01*
X96980476Y-146266819D02*
X96980476Y-146981104D01*
X96980476Y-146981104D02*
X96932857Y-147123961D01*
X96932857Y-147123961D02*
X96837619Y-147219200D01*
X96837619Y-147219200D02*
X96694762Y-147266819D01*
X96694762Y-147266819D02*
X96599524Y-147266819D01*
X97980476Y-147266819D02*
X97409048Y-147266819D01*
X97694762Y-147266819D02*
X97694762Y-146266819D01*
X97694762Y-146266819D02*
X97599524Y-146409676D01*
X97599524Y-146409676D02*
X97504286Y-146504914D01*
X97504286Y-146504914D02*
X97409048Y-146552533D01*
X98599524Y-146266819D02*
X98694762Y-146266819D01*
X98694762Y-146266819D02*
X98790000Y-146314438D01*
X98790000Y-146314438D02*
X98837619Y-146362057D01*
X98837619Y-146362057D02*
X98885238Y-146457295D01*
X98885238Y-146457295D02*
X98932857Y-146647771D01*
X98932857Y-146647771D02*
X98932857Y-146885866D01*
X98932857Y-146885866D02*
X98885238Y-147076342D01*
X98885238Y-147076342D02*
X98837619Y-147171580D01*
X98837619Y-147171580D02*
X98790000Y-147219200D01*
X98790000Y-147219200D02*
X98694762Y-147266819D01*
X98694762Y-147266819D02*
X98599524Y-147266819D01*
X98599524Y-147266819D02*
X98504286Y-147219200D01*
X98504286Y-147219200D02*
X98456667Y-147171580D01*
X98456667Y-147171580D02*
X98409048Y-147076342D01*
X98409048Y-147076342D02*
X98361429Y-146885866D01*
X98361429Y-146885866D02*
X98361429Y-146647771D01*
X98361429Y-146647771D02*
X98409048Y-146457295D01*
X98409048Y-146457295D02*
X98456667Y-146362057D01*
X98456667Y-146362057D02*
X98504286Y-146314438D01*
X98504286Y-146314438D02*
X98599524Y-146266819D01*
X56666666Y-76754819D02*
X56666666Y-77469104D01*
X56666666Y-77469104D02*
X56619047Y-77611961D01*
X56619047Y-77611961D02*
X56523809Y-77707200D01*
X56523809Y-77707200D02*
X56380952Y-77754819D01*
X56380952Y-77754819D02*
X56285714Y-77754819D01*
X57666666Y-77754819D02*
X57095238Y-77754819D01*
X57380952Y-77754819D02*
X57380952Y-76754819D01*
X57380952Y-76754819D02*
X57285714Y-76897676D01*
X57285714Y-76897676D02*
X57190476Y-76992914D01*
X57190476Y-76992914D02*
X57095238Y-77040533D01*
X92954819Y-58833333D02*
X93669104Y-58833333D01*
X93669104Y-58833333D02*
X93811961Y-58880952D01*
X93811961Y-58880952D02*
X93907200Y-58976190D01*
X93907200Y-58976190D02*
X93954819Y-59119047D01*
X93954819Y-59119047D02*
X93954819Y-59214285D01*
X92954819Y-57880952D02*
X92954819Y-58357142D01*
X92954819Y-58357142D02*
X93431009Y-58404761D01*
X93431009Y-58404761D02*
X93383390Y-58357142D01*
X93383390Y-58357142D02*
X93335771Y-58261904D01*
X93335771Y-58261904D02*
X93335771Y-58023809D01*
X93335771Y-58023809D02*
X93383390Y-57928571D01*
X93383390Y-57928571D02*
X93431009Y-57880952D01*
X93431009Y-57880952D02*
X93526247Y-57833333D01*
X93526247Y-57833333D02*
X93764342Y-57833333D01*
X93764342Y-57833333D02*
X93859580Y-57880952D01*
X93859580Y-57880952D02*
X93907200Y-57928571D01*
X93907200Y-57928571D02*
X93954819Y-58023809D01*
X93954819Y-58023809D02*
X93954819Y-58261904D01*
X93954819Y-58261904D02*
X93907200Y-58357142D01*
X93907200Y-58357142D02*
X93859580Y-58404761D01*
X141166666Y-92954819D02*
X141166666Y-93669104D01*
X141166666Y-93669104D02*
X141119047Y-93811961D01*
X141119047Y-93811961D02*
X141023809Y-93907200D01*
X141023809Y-93907200D02*
X140880952Y-93954819D01*
X140880952Y-93954819D02*
X140785714Y-93954819D01*
X142071428Y-93288152D02*
X142071428Y-93954819D01*
X141833333Y-92907200D02*
X141595238Y-93621485D01*
X141595238Y-93621485D02*
X142214285Y-93621485D01*
X50454819Y-132889523D02*
X51169104Y-132889523D01*
X51169104Y-132889523D02*
X51311961Y-132937142D01*
X51311961Y-132937142D02*
X51407200Y-133032380D01*
X51407200Y-133032380D02*
X51454819Y-133175237D01*
X51454819Y-133175237D02*
X51454819Y-133270475D01*
X51454819Y-131889523D02*
X51454819Y-132460951D01*
X51454819Y-132175237D02*
X50454819Y-132175237D01*
X50454819Y-132175237D02*
X50597676Y-132270475D01*
X50597676Y-132270475D02*
X50692914Y-132365713D01*
X50692914Y-132365713D02*
X50740533Y-132460951D01*
X50550057Y-131508570D02*
X50502438Y-131460951D01*
X50502438Y-131460951D02*
X50454819Y-131365713D01*
X50454819Y-131365713D02*
X50454819Y-131127618D01*
X50454819Y-131127618D02*
X50502438Y-131032380D01*
X50502438Y-131032380D02*
X50550057Y-130984761D01*
X50550057Y-130984761D02*
X50645295Y-130937142D01*
X50645295Y-130937142D02*
X50740533Y-130937142D01*
X50740533Y-130937142D02*
X50883390Y-130984761D01*
X50883390Y-130984761D02*
X51454819Y-131556189D01*
X51454819Y-131556189D02*
X51454819Y-130937142D01*
D13*
X132925000Y-122815000D02*
X132925000Y-124715000D01*
X132925000Y-135115000D02*
X132925000Y-137015000D01*
X132925000Y-137015000D02*
X134825000Y-137015000D01*
X134825000Y-122815000D02*
X132925000Y-122815000D01*
X147125000Y-122815000D02*
X145925000Y-122815000D01*
X147125000Y-124715000D02*
X147125000Y-122815000D01*
X147125000Y-135115000D02*
X147125000Y-137015000D01*
X147125000Y-137015000D02*
X145225000Y-137015000D01*
X145725000Y-122815000D02*
X145225000Y-122815000D01*
X145225000Y-122315000D01*
X145725000Y-122815000D01*
G36*
X145725000Y-122815000D02*
G01*
X145225000Y-122815000D01*
X145225000Y-122315000D01*
X145725000Y-122815000D01*
G37*
X63440000Y-54670000D02*
X63440000Y-53340000D01*
X64770000Y-54670000D02*
X63440000Y-54670000D01*
X66040000Y-52010000D02*
X71180000Y-52010000D01*
X66040000Y-54670000D02*
X66040000Y-52010000D01*
X66040000Y-54670000D02*
X71180000Y-54670000D01*
X71180000Y-54670000D02*
X71180000Y-52010000D01*
X140762258Y-113877500D02*
X140287742Y-113877500D01*
X140762258Y-114922500D02*
X140287742Y-114922500D01*
X140762258Y-115477500D02*
X140287742Y-115477500D01*
X140762258Y-116522500D02*
X140287742Y-116522500D01*
X138370000Y-72330000D02*
X139700000Y-72330000D01*
X138370000Y-73660000D02*
X138370000Y-72330000D01*
X138370000Y-74930000D02*
X138370000Y-82610000D01*
X138370000Y-74930000D02*
X141030000Y-74930000D01*
X138370000Y-82610000D02*
X141030000Y-82610000D01*
X141030000Y-74930000D02*
X141030000Y-82610000D01*
X52010000Y-82610000D02*
X52010000Y-81280000D01*
X53340000Y-82610000D02*
X52010000Y-82610000D01*
X54610000Y-79950000D02*
X64830000Y-79950000D01*
X54610000Y-82610000D02*
X54610000Y-79950000D01*
X54610000Y-82610000D02*
X64830000Y-82610000D01*
X64830000Y-82610000D02*
X64830000Y-79950000D01*
X135362742Y-116977500D02*
X135837258Y-116977500D01*
X135362742Y-118022500D02*
X135837258Y-118022500D01*
X145990000Y-80010000D02*
X145990000Y-64710000D01*
X148650000Y-64710000D02*
X145990000Y-64710000D01*
X148650000Y-80010000D02*
X145990000Y-80010000D01*
X148650000Y-80010000D02*
X148650000Y-64710000D01*
X148650000Y-81280000D02*
X148650000Y-82610000D01*
X148650000Y-82610000D02*
X147320000Y-82610000D01*
X76140000Y-54670000D02*
X76140000Y-53340000D01*
X77470000Y-54670000D02*
X76140000Y-54670000D01*
X78740000Y-52010000D02*
X83880000Y-52010000D01*
X78740000Y-54670000D02*
X78740000Y-52010000D01*
X78740000Y-54670000D02*
X83880000Y-54670000D01*
X83880000Y-54670000D02*
X83880000Y-52010000D01*
X140737258Y-112277500D02*
X140262742Y-112277500D01*
X140737258Y-113322500D02*
X140262742Y-113322500D01*
X110430000Y-142130000D02*
X110430000Y-147430000D01*
X110430000Y-147430000D02*
X130870000Y-147430000D01*
X130870000Y-142130000D02*
X110430000Y-142130000D01*
X130870000Y-143780000D02*
X130870000Y-142130000D01*
X130870000Y-147430000D02*
X130870000Y-145780000D01*
X130870000Y-145780000D02*
G75*
G02*
X130870000Y-143780000I0J1000000D01*
G01*
X140787258Y-117027500D02*
X140312742Y-117027500D01*
X140787258Y-118072500D02*
X140312742Y-118072500D01*
D10*
X134691590Y-142807000D02*
G75*
G02*
X134648410Y-142807000I-21590J0D01*
G01*
X134648410Y-142807000D02*
G75*
G02*
X134691590Y-142807000I21590J0D01*
G01*
D13*
X50710000Y-68560000D02*
X62430000Y-68560000D01*
X50710000Y-72370000D02*
X50710000Y-68560000D01*
X50710000Y-72370000D02*
X50710000Y-76180000D01*
X50710000Y-76180000D02*
X62430000Y-76180000D01*
X51320000Y-70870000D02*
X51320000Y-71370000D01*
X51320000Y-71370000D02*
X56820000Y-71370000D01*
X51320000Y-73370000D02*
X51320000Y-73870000D01*
X51320000Y-73870000D02*
X56820000Y-73870000D01*
X56820000Y-70870000D02*
X51320000Y-70870000D01*
X56820000Y-71370000D02*
X56820000Y-70870000D01*
X56820000Y-73370000D02*
X51320000Y-73370000D01*
X56820000Y-73870000D02*
X56820000Y-73370000D01*
X59920000Y-71120000D02*
X60520000Y-70820000D01*
X60520000Y-70820000D02*
X60520000Y-71420000D01*
X60520000Y-71420000D02*
X59920000Y-71120000D01*
X62430000Y-68560000D02*
X62430000Y-69980000D01*
X62430000Y-69980000D02*
X57930000Y-69980000D01*
X62430000Y-74760000D02*
X57930000Y-74760000D01*
X62430000Y-76180000D02*
X62430000Y-74760000D01*
X94940000Y-57440000D02*
X96000000Y-57440000D01*
X94940000Y-58500000D02*
X94940000Y-57440000D01*
X97000000Y-57440000D02*
X105060000Y-57440000D01*
X97000000Y-59560000D02*
X97000000Y-57440000D01*
X97000000Y-59560000D02*
X105060000Y-59560000D01*
X105060000Y-59560000D02*
X105060000Y-57440000D01*
X140440000Y-97000000D02*
X140440000Y-105060000D01*
X140440000Y-97000000D02*
X142560000Y-97000000D01*
X140440000Y-105060000D02*
X142560000Y-105060000D01*
X141500000Y-94940000D02*
X142560000Y-94940000D01*
X142560000Y-94940000D02*
X142560000Y-96000000D01*
X142560000Y-97000000D02*
X142560000Y-105060000D01*
X135337742Y-115327500D02*
X135812258Y-115327500D01*
X135337742Y-116372500D02*
X135812258Y-116372500D01*
%LPC*%
D14*
X68580000Y-140970000D03*
D15*
X71120000Y-140970000D03*
X73660000Y-140970000D03*
X76200000Y-140970000D03*
X78740000Y-140970000D03*
X81280000Y-140970000D03*
X83820000Y-140970000D03*
D16*
X143925000Y-126215000D03*
D17*
X144470000Y-123180000D03*
X143200000Y-123180000D03*
X141930000Y-123180000D03*
X140660000Y-123180000D03*
X139390000Y-123180000D03*
X138120000Y-123180000D03*
X136850000Y-123180000D03*
X135580000Y-123180000D03*
D18*
X133290000Y-125470000D03*
X133290000Y-126740000D03*
X133290000Y-128010000D03*
X133290000Y-129280000D03*
X133290000Y-130550000D03*
X133290000Y-131820000D03*
X133290000Y-133090000D03*
X133290000Y-134360000D03*
D17*
X135580000Y-136650000D03*
X136850000Y-136650000D03*
X138120000Y-136650000D03*
X139390000Y-136650000D03*
X140660000Y-136650000D03*
X141930000Y-136650000D03*
X143200000Y-136650000D03*
X144470000Y-136650000D03*
D18*
X146760000Y-134360000D03*
X146760000Y-133090000D03*
X146760000Y-131820000D03*
X146760000Y-130550000D03*
X146760000Y-129280000D03*
X146760000Y-128010000D03*
D19*
X146860000Y-126740000D03*
X146860000Y-125470000D03*
D20*
X55000000Y-145000000D03*
D14*
X64770000Y-53340000D03*
D15*
X67310000Y-53340000D03*
X69850000Y-53340000D03*
D21*
X141350000Y-114400000D03*
X139700000Y-114400000D03*
X141350000Y-116000000D03*
X139700000Y-116000000D03*
D14*
X139700000Y-73660000D03*
D15*
X139700000Y-76200000D03*
X139700000Y-78740000D03*
X139700000Y-81280000D03*
D14*
X53340000Y-81280000D03*
D15*
X55880000Y-81280000D03*
X58420000Y-81280000D03*
X60960000Y-81280000D03*
X63500000Y-81280000D03*
D20*
X55000000Y-55000000D03*
D22*
X134775000Y-117500000D03*
X136425000Y-117500000D03*
D14*
X147320000Y-81280000D03*
D15*
X147320000Y-78740000D03*
X147320000Y-76200000D03*
X147320000Y-73660000D03*
X147320000Y-71120000D03*
X147320000Y-68580000D03*
X147320000Y-66040000D03*
D14*
X77470000Y-53340000D03*
D15*
X80010000Y-53340000D03*
X82550000Y-53340000D03*
D21*
X141325000Y-112800000D03*
X139675000Y-112800000D03*
D14*
X53340000Y-121920000D03*
D15*
X55880000Y-121920000D03*
X58420000Y-121920000D03*
D20*
X145000000Y-145000000D03*
D14*
X53340000Y-124460000D03*
D15*
X55880000Y-124460000D03*
X58420000Y-124460000D03*
D23*
X129540000Y-140970000D03*
D24*
X127000000Y-140970000D03*
X124460000Y-140970000D03*
X121920000Y-140970000D03*
X119380000Y-140970000D03*
X116840000Y-140970000D03*
X114300000Y-140970000D03*
X111760000Y-140970000D03*
X111760000Y-148590000D03*
X114300000Y-148590000D03*
X116840000Y-148590000D03*
X119380000Y-148590000D03*
X121920000Y-148590000D03*
X124460000Y-148590000D03*
X127000000Y-148590000D03*
X129540000Y-148590000D03*
D21*
X141375000Y-117550000D03*
X139725000Y-117550000D03*
D20*
X145000000Y-55000000D03*
D25*
X135200000Y-142862500D03*
D26*
X135200000Y-143450000D03*
X135200000Y-143950000D03*
X135200000Y-144450000D03*
X135200000Y-144950000D03*
X135200000Y-145450000D03*
X135200000Y-145950000D03*
D25*
X135200000Y-146537500D03*
X136700000Y-146537500D03*
D26*
X136700000Y-145950000D03*
X136700000Y-145450000D03*
X136700000Y-144950000D03*
X136700000Y-144450000D03*
X136700000Y-143950000D03*
X136700000Y-143450000D03*
D25*
X136700000Y-142862500D03*
D14*
X53340000Y-129540000D03*
D15*
X55880000Y-129540000D03*
X58420000Y-129540000D03*
D14*
X91440000Y-140970000D03*
D15*
X93980000Y-140970000D03*
X96520000Y-140970000D03*
X99060000Y-140970000D03*
X101600000Y-140970000D03*
X104140000Y-140970000D03*
D27*
X58420000Y-71120000D03*
D28*
X58420000Y-73620000D03*
D29*
X96000000Y-58500000D03*
D30*
X98000000Y-58500000D03*
X100000000Y-58500000D03*
X102000000Y-58500000D03*
X104000000Y-58500000D03*
D29*
X141500000Y-96000000D03*
D30*
X141500000Y-98000000D03*
X141500000Y-100000000D03*
X141500000Y-102000000D03*
X141500000Y-104000000D03*
D22*
X134750000Y-115850000D03*
X136400000Y-115850000D03*
D14*
X53340000Y-132080000D03*
D15*
X55880000Y-132080000D03*
X58420000Y-132080000D03*
%LPD*%
M02*
