G04 #@! TF.GenerationSoftware,KiCad,Pcbnew,8.0.7*
G04 #@! TF.CreationDate,2025-12-14T15:56:06+09:00*
G04 #@! TF.ProjectId,GBA_Main,4742415f-4d61-4696-9e2e-6b696361645f,rev?*
G04 #@! TF.SameCoordinates,Original*
G04 #@! TF.FileFunction,Soldermask,Top*
G04 #@! TF.FilePolarity,Negative*
%FSLAX46Y46*%
G04 Gerber Fmt 4.6, Leading zero omitted, Abs format (unit mm)*
G04 Created by KiCad (PCBNEW 8.0.7) date 2025-12-14 15:56:06*
%MOMM*%
%LPD*%
G01*
G04 APERTURE LIST*
G04 Aperture macros list*
%AMRoundRect*
0 Rectangle with rounded corners*
0 $1 Rounding radius*
0 $2 $3 $4 $5 $6 $7 $8 $9 X,Y pos of 4 corners*
0 Add a 4 corners polygon primitive as box body*
4,1,4,$2,$3,$4,$5,$6,$7,$8,$9,$2,$3,0*
0 Add four circle primitives for the rounded corners*
1,1,$1+$1,$2,$3*
1,1,$1+$1,$4,$5*
1,1,$1+$1,$6,$7*
1,1,$1+$1,$8,$9*
0 Add four rect primitives between the rounded corners*
20,1,$1+$1,$2,$3,$4,$5,0*
20,1,$1+$1,$4,$5,$6,$7,0*
20,1,$1+$1,$6,$7,$8,$9,0*
20,1,$1+$1,$8,$9,$2,$3,0*%
%AMHorizOval*
0 Thick line with rounded ends*
0 $1 width*
0 $2 $3 position (X,Y) of the first rounded end (center of the circle)*
0 $4 $5 position (X,Y) of the second rounded end (center of the circle)*
0 Add line between two ends*
20,1,$1,$2,$3,$4,$5,0*
0 Add two circle primitives to create the rounded ends*
1,1,$1,$2,$3*
1,1,$1,$4,$5*%
G04 Aperture macros list end*
%ADD10R,1.700000X1.700000*%
%ADD11O,1.700000X1.700000*%
%ADD12HorizOval,3.100000X-0.424264X-0.424264X0.424264X0.424264X0*%
%ADD13O,0.900000X1.400000*%
%ADD14O,1.400000X0.900000*%
%ADD15O,1.200000X0.900000*%
%ADD16C,3.500000*%
%ADD17RoundRect,0.200000X0.200000X0.275000X-0.200000X0.275000X-0.200000X-0.275000X0.200000X-0.275000X0*%
%ADD18RoundRect,0.200000X-0.200000X-0.275000X0.200000X-0.275000X0.200000X0.275000X-0.200000X0.275000X0*%
%ADD19R,1.600000X1.600000*%
%ADD20O,1.600000X1.600000*%
%ADD21R,0.500000X0.425000*%
%ADD22R,0.500000X0.250000*%
%ADD23RoundRect,0.250000X-0.750000X0.600000X-0.750000X-0.600000X0.750000X-0.600000X0.750000X0.600000X0*%
%ADD24O,2.000000X1.700000*%
%ADD25R,1.350000X1.350000*%
%ADD26O,1.350000X1.350000*%
G04 APERTURE END LIST*
D10*
X68580000Y-140970000D03*
D11*
X71120000Y-140970000D03*
X73660000Y-140970000D03*
X76200000Y-140970000D03*
X78740000Y-140970000D03*
X81280000Y-140970000D03*
X83820000Y-140970000D03*
D12*
X143925000Y-126215000D03*
D13*
X144470000Y-123180000D03*
X143200000Y-123180000D03*
X141930000Y-123180000D03*
X140660000Y-123180000D03*
X139390000Y-123180000D03*
X138120000Y-123180000D03*
X136850000Y-123180000D03*
X135580000Y-123180000D03*
D14*
X133290000Y-125470000D03*
X133290000Y-126740000D03*
X133290000Y-128010000D03*
X133290000Y-129280000D03*
X133290000Y-130550000D03*
X133290000Y-131820000D03*
X133290000Y-133090000D03*
X133290000Y-134360000D03*
D13*
X135580000Y-136650000D03*
X136850000Y-136650000D03*
X138120000Y-136650000D03*
X139390000Y-136650000D03*
X140660000Y-136650000D03*
X141930000Y-136650000D03*
X143200000Y-136650000D03*
X144470000Y-136650000D03*
D14*
X146760000Y-134360000D03*
X146760000Y-133090000D03*
X146760000Y-131820000D03*
X146760000Y-130550000D03*
X146760000Y-129280000D03*
X146760000Y-128010000D03*
D15*
X146860000Y-126740000D03*
X146860000Y-125470000D03*
D16*
X55000000Y-145000000D03*
D10*
X64770000Y-53340000D03*
D11*
X67310000Y-53340000D03*
X69850000Y-53340000D03*
D17*
X141350000Y-114400000D03*
X139700000Y-114400000D03*
X141350000Y-116000000D03*
X139700000Y-116000000D03*
D10*
X139700000Y-73660000D03*
D11*
X139700000Y-76200000D03*
X139700000Y-78740000D03*
X139700000Y-81280000D03*
D10*
X53340000Y-81280000D03*
D11*
X55880000Y-81280000D03*
X58420000Y-81280000D03*
X60960000Y-81280000D03*
X63500000Y-81280000D03*
D16*
X55000000Y-55000000D03*
D18*
X134775000Y-117500000D03*
X136425000Y-117500000D03*
D10*
X147320000Y-81280000D03*
D11*
X147320000Y-78740000D03*
X147320000Y-76200000D03*
X147320000Y-73660000D03*
X147320000Y-71120000D03*
X147320000Y-68580000D03*
X147320000Y-66040000D03*
D10*
X77470000Y-53340000D03*
D11*
X80010000Y-53340000D03*
X82550000Y-53340000D03*
D17*
X141325000Y-112800000D03*
X139675000Y-112800000D03*
D10*
X53340000Y-121920000D03*
D11*
X55880000Y-121920000D03*
X58420000Y-121920000D03*
D16*
X145000000Y-145000000D03*
D10*
X53340000Y-124460000D03*
D11*
X55880000Y-124460000D03*
X58420000Y-124460000D03*
D19*
X129540000Y-140970000D03*
D20*
X127000000Y-140970000D03*
X124460000Y-140970000D03*
X121920000Y-140970000D03*
X119380000Y-140970000D03*
X116840000Y-140970000D03*
X114300000Y-140970000D03*
X111760000Y-140970000D03*
X111760000Y-148590000D03*
X114300000Y-148590000D03*
X116840000Y-148590000D03*
X119380000Y-148590000D03*
X121920000Y-148590000D03*
X124460000Y-148590000D03*
X127000000Y-148590000D03*
X129540000Y-148590000D03*
D17*
X141375000Y-117550000D03*
X139725000Y-117550000D03*
D16*
X145000000Y-55000000D03*
D21*
X135200000Y-142862500D03*
D22*
X135200000Y-143450000D03*
X135200000Y-143950000D03*
X135200000Y-144450000D03*
X135200000Y-144950000D03*
X135200000Y-145450000D03*
X135200000Y-145950000D03*
D21*
X135200000Y-146537500D03*
X136700000Y-146537500D03*
D22*
X136700000Y-145950000D03*
X136700000Y-145450000D03*
X136700000Y-144950000D03*
X136700000Y-144450000D03*
X136700000Y-143950000D03*
X136700000Y-143450000D03*
D21*
X136700000Y-142862500D03*
D10*
X53340000Y-129540000D03*
D11*
X55880000Y-129540000D03*
X58420000Y-129540000D03*
D10*
X91440000Y-140970000D03*
D11*
X93980000Y-140970000D03*
X96520000Y-140970000D03*
X99060000Y-140970000D03*
X101600000Y-140970000D03*
X104140000Y-140970000D03*
D23*
X58420000Y-71120000D03*
D24*
X58420000Y-73620000D03*
D25*
X96000000Y-58500000D03*
D26*
X98000000Y-58500000D03*
X100000000Y-58500000D03*
X102000000Y-58500000D03*
X104000000Y-58500000D03*
D25*
X141500000Y-96000000D03*
D26*
X141500000Y-98000000D03*
X141500000Y-100000000D03*
X141500000Y-102000000D03*
X141500000Y-104000000D03*
D18*
X134750000Y-115850000D03*
X136400000Y-115850000D03*
D10*
X53340000Y-132080000D03*
D11*
X55880000Y-132080000D03*
X58420000Y-132080000D03*
M02*
