G04 #@! TF.GenerationSoftware,KiCad,Pcbnew,8.0.7*
G04 #@! TF.CreationDate,2025-12-14T15:56:06+09:00*
G04 #@! TF.ProjectId,GBA_Main,4742415f-4d61-4696-9e2e-6b696361645f,rev?*
G04 #@! TF.SameCoordinates,Original*
G04 #@! TF.FileFunction,Legend,Bot*
G04 #@! TF.FilePolarity,Positive*
%FSLAX46Y46*%
G04 Gerber Fmt 4.6, Leading zero omitted, Abs format (unit mm)*
G04 Created by KiCad (PCBNEW 8.0.7) date 2025-12-14 15:56:06*
%MOMM*%
%LPD*%
G01*
G04 APERTURE LIST*
G04 Aperture macros list*
%AMRoundRect*
0 Rectangle with rounded corners*
0 $1 Rounding radius*
0 $2 $3 $4 $5 $6 $7 $8 $9 X,Y pos of 4 corners*
0 Add a 4 corners polygon primitive as box body*
4,1,4,$2,$3,$4,$5,$6,$7,$8,$9,$2,$3,0*
0 Add four circle primitives for the rounded corners*
1,1,$1+$1,$2,$3*
1,1,$1+$1,$4,$5*
1,1,$1+$1,$6,$7*
1,1,$1+$1,$8,$9*
0 Add four rect primitives between the rounded corners*
20,1,$1+$1,$2,$3,$4,$5,0*
20,1,$1+$1,$4,$5,$6,$7,0*
20,1,$1+$1,$6,$7,$8,$9,0*
20,1,$1+$1,$8,$9,$2,$3,0*%
%AMHorizOval*
0 Thick line with rounded ends*
0 $1 width*
0 $2 $3 position (X,Y) of the first rounded end (center of the circle)*
0 $4 $5 position (X,Y) of the second rounded end (center of the circle)*
0 Add line between two ends*
20,1,$1,$2,$3,$4,$5,0*
0 Add two circle primitives to create the rounded ends*
1,1,$1,$2,$3*
1,1,$1,$4,$5*%
G04 Aperture macros list end*
%ADD10C,0.200000*%
%ADD11R,1.700000X1.700000*%
%ADD12O,1.700000X1.700000*%
%ADD13HorizOval,3.100000X-0.424264X-0.424264X0.424264X0.424264X0*%
%ADD14C,3.500000*%
%ADD15R,1.600000X1.600000*%
%ADD16O,1.600000X1.600000*%
%ADD17RoundRect,0.250000X-0.750000X0.600000X-0.750000X-0.600000X0.750000X-0.600000X0.750000X0.600000X0*%
%ADD18O,2.000000X1.700000*%
%ADD19R,1.350000X1.350000*%
%ADD20O,1.350000X1.350000*%
G04 APERTURE END LIST*
D10*
X131000000Y-141750000D02*
X141750000Y-141750000D01*
X139000000Y-54475000D02*
X139000000Y-64725000D01*
X119750000Y-54475000D02*
X139000000Y-54475000D01*
X131000000Y-119000000D02*
X141750000Y-119000000D01*
X136250000Y-117250000D02*
X136250000Y-147000000D01*
X131000000Y-145250000D02*
X141750000Y-145250000D01*
X131000000Y-140000000D02*
X141750000Y-140000000D01*
X131000000Y-134750000D02*
X141750000Y-134750000D01*
X131500000Y-54475000D02*
X131500000Y-64725000D01*
X138000000Y-117250000D02*
X138000000Y-147000000D01*
X131000000Y-126000000D02*
X141750000Y-126000000D01*
X131000000Y-129500000D02*
X141750000Y-129500000D01*
X119750000Y-61975000D02*
X139000000Y-61975000D01*
X138000000Y-119000000D02*
X141750000Y-117250000D01*
X131000000Y-133000000D02*
X141750000Y-133000000D01*
X119750000Y-57225000D02*
X139000000Y-57225000D01*
X131000000Y-117250000D02*
X131000000Y-147000000D01*
X131000000Y-122500000D02*
X141750000Y-122500000D01*
X131000000Y-143500000D02*
X141750000Y-143500000D01*
X139000000Y-64725000D02*
X119750000Y-64725000D01*
X119750000Y-64725000D02*
X119750000Y-54475000D01*
X134500000Y-117250000D02*
X134500000Y-147000000D01*
X131000000Y-120750000D02*
X141750000Y-120750000D01*
X131000000Y-127750000D02*
X141750000Y-127750000D01*
X131000000Y-136500000D02*
X141750000Y-136500000D01*
X131000000Y-131250000D02*
X141750000Y-131250000D01*
X131000000Y-117250000D02*
X141750000Y-117250000D01*
X131000000Y-138250000D02*
X141750000Y-138250000D01*
X131000000Y-147000000D02*
X141750000Y-147000000D01*
X120500000Y-135500000D02*
X120500000Y-135540000D01*
X120500000Y-136340000D02*
X120500000Y-136380000D01*
X120500000Y-137180000D02*
X120500000Y-137220000D01*
X120500000Y-138020000D02*
X120500000Y-138060000D01*
X120500000Y-138860000D02*
X120500000Y-138900000D01*
X120500000Y-139700000D02*
X120500000Y-139740000D01*
X120500000Y-140540000D02*
X120500000Y-140580000D01*
X120500000Y-141380000D02*
X120500000Y-141420000D01*
X120500000Y-142220000D02*
X120500000Y-142260000D01*
X120500000Y-143060000D02*
X120500000Y-143100000D01*
X120500000Y-143900000D02*
X120500000Y-143940000D01*
X120500000Y-144740000D02*
X120500000Y-144780000D01*
X120500000Y-145580000D02*
X120500000Y-145620000D01*
X120500000Y-146420000D02*
X120500000Y-146460000D01*
X120500000Y-147260000D02*
X120500000Y-147300000D01*
X120500000Y-148100000D02*
X120500000Y-148140000D01*
X120500000Y-148940000D02*
X120500000Y-148980000D01*
X132750000Y-117250000D02*
X132750000Y-147000000D01*
X141750000Y-117250000D02*
X141750000Y-147000000D01*
X131000000Y-124250000D02*
X141750000Y-124250000D01*
X139701755Y-126700552D02*
X139701755Y-127367219D01*
X139939850Y-126319600D02*
X140177945Y-127033885D01*
X140177945Y-127033885D02*
X139558898Y-127033885D01*
X135296993Y-139093409D02*
X135630326Y-139093409D01*
X135630326Y-139617219D02*
X135630326Y-138617219D01*
X135630326Y-138617219D02*
X135154136Y-138617219D01*
X137046993Y-123343409D02*
X137380326Y-123343409D01*
X137380326Y-123867219D02*
X137380326Y-122867219D01*
X137380326Y-122867219D02*
X136904136Y-122867219D01*
G36*
X122554398Y-139268075D02*
G01*
X121404724Y-139268075D01*
X121404724Y-139015233D01*
X121538057Y-139015233D01*
X121538057Y-139054251D01*
X121552989Y-139090299D01*
X121580579Y-139117889D01*
X121616627Y-139132821D01*
X121636136Y-139134742D01*
X122321850Y-139134742D01*
X122341359Y-139132821D01*
X122377407Y-139117889D01*
X122404997Y-139090299D01*
X122419929Y-139054251D01*
X122419929Y-139015233D01*
X122404997Y-138979185D01*
X122377407Y-138951595D01*
X122341359Y-138936663D01*
X122321850Y-138934742D01*
X122078993Y-138934742D01*
X122078993Y-138133306D01*
X122136853Y-138191167D01*
X122144519Y-138197459D01*
X122146252Y-138199457D01*
X122149260Y-138201350D01*
X122152006Y-138203604D01*
X122154446Y-138204614D01*
X122162843Y-138209900D01*
X122277129Y-138267043D01*
X122295437Y-138274049D01*
X122334358Y-138276815D01*
X122371373Y-138264476D01*
X122400850Y-138238912D01*
X122418300Y-138204013D01*
X122421065Y-138165093D01*
X122408726Y-138128077D01*
X122383162Y-138098600D01*
X122366572Y-138088157D01*
X122266799Y-138038270D01*
X122170992Y-137942463D01*
X122062198Y-137779272D01*
X122062153Y-137779217D01*
X122062140Y-137779185D01*
X122062066Y-137779111D01*
X122049778Y-137764105D01*
X122041549Y-137758594D01*
X122034550Y-137751595D01*
X122025498Y-137747845D01*
X122017358Y-137742394D01*
X122007650Y-137740452D01*
X121998502Y-137736663D01*
X121988703Y-137736663D01*
X121979098Y-137734742D01*
X121969387Y-137736663D01*
X121959484Y-137736663D01*
X121950431Y-137740412D01*
X121940821Y-137742314D01*
X121932582Y-137747806D01*
X121923436Y-137751595D01*
X121916509Y-137758521D01*
X121908356Y-137763957D01*
X121902845Y-137772185D01*
X121895846Y-137779185D01*
X121892096Y-137788236D01*
X121886645Y-137796377D01*
X121884703Y-137806084D01*
X121880914Y-137815233D01*
X121879013Y-137834535D01*
X121878993Y-137834637D01*
X121878999Y-137834671D01*
X121878993Y-137834742D01*
X121878993Y-138934742D01*
X121636136Y-138934742D01*
X121616627Y-138936663D01*
X121580579Y-138951595D01*
X121552989Y-138979185D01*
X121538057Y-139015233D01*
X121404724Y-139015233D01*
X121404724Y-137601409D01*
X122554398Y-137601409D01*
X122554398Y-139268075D01*
G37*
X135296993Y-137343409D02*
X135630326Y-137343409D01*
X135630326Y-137867219D02*
X135630326Y-136867219D01*
X135630326Y-136867219D02*
X135154136Y-136867219D01*
X131939850Y-135117219D02*
X131749374Y-135117219D01*
X131749374Y-135117219D02*
X131654136Y-135164838D01*
X131654136Y-135164838D02*
X131558898Y-135260076D01*
X131558898Y-135260076D02*
X131511279Y-135450552D01*
X131511279Y-135450552D02*
X131511279Y-135783885D01*
X131511279Y-135783885D02*
X131558898Y-135974361D01*
X131558898Y-135974361D02*
X131654136Y-136069600D01*
X131654136Y-136069600D02*
X131749374Y-136117219D01*
X131749374Y-136117219D02*
X131939850Y-136117219D01*
X131939850Y-136117219D02*
X132035088Y-136069600D01*
X132035088Y-136069600D02*
X132130326Y-135974361D01*
X132130326Y-135974361D02*
X132177945Y-135783885D01*
X132177945Y-135783885D02*
X132177945Y-135450552D01*
X132177945Y-135450552D02*
X132130326Y-135260076D01*
X132130326Y-135260076D02*
X132035088Y-135164838D01*
X132035088Y-135164838D02*
X131939850Y-135117219D01*
X133689850Y-131617219D02*
X133499374Y-131617219D01*
X133499374Y-131617219D02*
X133404136Y-131664838D01*
X133404136Y-131664838D02*
X133308898Y-131760076D01*
X133308898Y-131760076D02*
X133261279Y-131950552D01*
X133261279Y-131950552D02*
X133261279Y-132283885D01*
X133261279Y-132283885D02*
X133308898Y-132474361D01*
X133308898Y-132474361D02*
X133404136Y-132569600D01*
X133404136Y-132569600D02*
X133499374Y-132617219D01*
X133499374Y-132617219D02*
X133689850Y-132617219D01*
X133689850Y-132617219D02*
X133785088Y-132569600D01*
X133785088Y-132569600D02*
X133880326Y-132474361D01*
X133880326Y-132474361D02*
X133927945Y-132283885D01*
X133927945Y-132283885D02*
X133927945Y-131950552D01*
X133927945Y-131950552D02*
X133880326Y-131760076D01*
X133880326Y-131760076D02*
X133785088Y-131664838D01*
X133785088Y-131664838D02*
X133689850Y-131617219D01*
X131796993Y-130343409D02*
X132130326Y-130343409D01*
X132130326Y-130867219D02*
X132130326Y-129867219D01*
X132130326Y-129867219D02*
X131654136Y-129867219D01*
X133546993Y-128593409D02*
X133880326Y-128593409D01*
X133880326Y-129117219D02*
X133880326Y-128117219D01*
X133880326Y-128117219D02*
X133404136Y-128117219D01*
X137189850Y-145617219D02*
X136999374Y-145617219D01*
X136999374Y-145617219D02*
X136904136Y-145664838D01*
X136904136Y-145664838D02*
X136808898Y-145760076D01*
X136808898Y-145760076D02*
X136761279Y-145950552D01*
X136761279Y-145950552D02*
X136761279Y-146283885D01*
X136761279Y-146283885D02*
X136808898Y-146474361D01*
X136808898Y-146474361D02*
X136904136Y-146569600D01*
X136904136Y-146569600D02*
X136999374Y-146617219D01*
X136999374Y-146617219D02*
X137189850Y-146617219D01*
X137189850Y-146617219D02*
X137285088Y-146569600D01*
X137285088Y-146569600D02*
X137380326Y-146474361D01*
X137380326Y-146474361D02*
X137427945Y-146283885D01*
X137427945Y-146283885D02*
X137427945Y-145950552D01*
X137427945Y-145950552D02*
X137380326Y-145760076D01*
X137380326Y-145760076D02*
X137285088Y-145664838D01*
X137285088Y-145664838D02*
X137189850Y-145617219D01*
X133546993Y-140843409D02*
X133880326Y-140843409D01*
X133880326Y-141367219D02*
X133880326Y-140367219D01*
X133880326Y-140367219D02*
X133404136Y-140367219D01*
X141189850Y-147617219D02*
X140999374Y-147617219D01*
X140999374Y-147617219D02*
X140904136Y-147664838D01*
X140904136Y-147664838D02*
X140808898Y-147760076D01*
X140808898Y-147760076D02*
X140761279Y-147950552D01*
X140761279Y-147950552D02*
X140761279Y-148283885D01*
X140761279Y-148283885D02*
X140808898Y-148474361D01*
X140808898Y-148474361D02*
X140904136Y-148569600D01*
X140904136Y-148569600D02*
X140999374Y-148617219D01*
X140999374Y-148617219D02*
X141189850Y-148617219D01*
X141189850Y-148617219D02*
X141285088Y-148569600D01*
X141285088Y-148569600D02*
X141380326Y-148474361D01*
X141380326Y-148474361D02*
X141427945Y-148283885D01*
X141427945Y-148283885D02*
X141427945Y-147950552D01*
X141427945Y-147950552D02*
X141380326Y-147760076D01*
X141380326Y-147760076D02*
X141285088Y-147664838D01*
X141285088Y-147664838D02*
X141189850Y-147617219D01*
X140332707Y-148521980D02*
X140285088Y-148569600D01*
X140285088Y-148569600D02*
X140332707Y-148617219D01*
X140332707Y-148617219D02*
X140380326Y-148569600D01*
X140380326Y-148569600D02*
X140332707Y-148521980D01*
X140332707Y-148521980D02*
X140332707Y-148617219D01*
X140332707Y-147998171D02*
X140285088Y-148045790D01*
X140285088Y-148045790D02*
X140332707Y-148093409D01*
X140332707Y-148093409D02*
X140380326Y-148045790D01*
X140380326Y-148045790D02*
X140332707Y-147998171D01*
X140332707Y-147998171D02*
X140332707Y-148093409D01*
X139666041Y-147617219D02*
X139475565Y-147617219D01*
X139475565Y-147617219D02*
X139380327Y-147664838D01*
X139380327Y-147664838D02*
X139285089Y-147760076D01*
X139285089Y-147760076D02*
X139237470Y-147950552D01*
X139237470Y-147950552D02*
X139237470Y-148283885D01*
X139237470Y-148283885D02*
X139285089Y-148474361D01*
X139285089Y-148474361D02*
X139380327Y-148569600D01*
X139380327Y-148569600D02*
X139475565Y-148617219D01*
X139475565Y-148617219D02*
X139666041Y-148617219D01*
X139666041Y-148617219D02*
X139761279Y-148569600D01*
X139761279Y-148569600D02*
X139856517Y-148474361D01*
X139856517Y-148474361D02*
X139904136Y-148283885D01*
X139904136Y-148283885D02*
X139904136Y-147950552D01*
X139904136Y-147950552D02*
X139856517Y-147760076D01*
X139856517Y-147760076D02*
X139761279Y-147664838D01*
X139761279Y-147664838D02*
X139666041Y-147617219D01*
X138808898Y-148617219D02*
X138808898Y-147617219D01*
X138808898Y-147617219D02*
X138237470Y-148617219D01*
X138237470Y-148617219D02*
X138237470Y-147617219D01*
X136285089Y-147569600D02*
X137142231Y-148855314D01*
X134856517Y-148093409D02*
X135189850Y-148093409D01*
X135189850Y-148617219D02*
X135189850Y-147617219D01*
X135189850Y-147617219D02*
X134713660Y-147617219D01*
X134332707Y-148521980D02*
X134285088Y-148569600D01*
X134285088Y-148569600D02*
X134332707Y-148617219D01*
X134332707Y-148617219D02*
X134380326Y-148569600D01*
X134380326Y-148569600D02*
X134332707Y-148521980D01*
X134332707Y-148521980D02*
X134332707Y-148617219D01*
X134332707Y-147998171D02*
X134285088Y-148045790D01*
X134285088Y-148045790D02*
X134332707Y-148093409D01*
X134332707Y-148093409D02*
X134380326Y-148045790D01*
X134380326Y-148045790D02*
X134332707Y-147998171D01*
X134332707Y-147998171D02*
X134332707Y-148093409D01*
X133666041Y-147617219D02*
X133475565Y-147617219D01*
X133475565Y-147617219D02*
X133380327Y-147664838D01*
X133380327Y-147664838D02*
X133285089Y-147760076D01*
X133285089Y-147760076D02*
X133237470Y-147950552D01*
X133237470Y-147950552D02*
X133237470Y-148283885D01*
X133237470Y-148283885D02*
X133285089Y-148474361D01*
X133285089Y-148474361D02*
X133380327Y-148569600D01*
X133380327Y-148569600D02*
X133475565Y-148617219D01*
X133475565Y-148617219D02*
X133666041Y-148617219D01*
X133666041Y-148617219D02*
X133761279Y-148569600D01*
X133761279Y-148569600D02*
X133856517Y-148474361D01*
X133856517Y-148474361D02*
X133904136Y-148283885D01*
X133904136Y-148283885D02*
X133904136Y-147950552D01*
X133904136Y-147950552D02*
X133856517Y-147760076D01*
X133856517Y-147760076D02*
X133761279Y-147664838D01*
X133761279Y-147664838D02*
X133666041Y-147617219D01*
X132475565Y-148093409D02*
X132808898Y-148093409D01*
X132808898Y-148617219D02*
X132808898Y-147617219D01*
X132808898Y-147617219D02*
X132332708Y-147617219D01*
X131618422Y-148093409D02*
X131951755Y-148093409D01*
X131951755Y-148617219D02*
X131951755Y-147617219D01*
X131951755Y-147617219D02*
X131475565Y-147617219D01*
X133546993Y-121593409D02*
X133880326Y-121593409D01*
X133880326Y-122117219D02*
X133880326Y-121117219D01*
X133880326Y-121117219D02*
X133404136Y-121117219D01*
X133546993Y-126843409D02*
X133880326Y-126843409D01*
X133880326Y-127367219D02*
X133880326Y-126367219D01*
X133880326Y-126367219D02*
X133404136Y-126367219D01*
X140106517Y-141367219D02*
X140677945Y-141367219D01*
X140392231Y-141367219D02*
X140392231Y-140367219D01*
X140392231Y-140367219D02*
X140487469Y-140510076D01*
X140487469Y-140510076D02*
X140582707Y-140605314D01*
X140582707Y-140605314D02*
X140677945Y-140652933D01*
X139725564Y-140462457D02*
X139677945Y-140414838D01*
X139677945Y-140414838D02*
X139582707Y-140367219D01*
X139582707Y-140367219D02*
X139344612Y-140367219D01*
X139344612Y-140367219D02*
X139249374Y-140414838D01*
X139249374Y-140414838D02*
X139201755Y-140462457D01*
X139201755Y-140462457D02*
X139154136Y-140557695D01*
X139154136Y-140557695D02*
X139154136Y-140652933D01*
X139154136Y-140652933D02*
X139201755Y-140795790D01*
X139201755Y-140795790D02*
X139773183Y-141367219D01*
X139773183Y-141367219D02*
X139154136Y-141367219D01*
X137046993Y-128593409D02*
X137380326Y-128593409D01*
X137380326Y-129117219D02*
X137380326Y-128117219D01*
X137380326Y-128117219D02*
X136904136Y-128117219D01*
X131796993Y-126843409D02*
X132130326Y-126843409D01*
X132130326Y-127367219D02*
X132130326Y-126367219D01*
X132130326Y-126367219D02*
X131654136Y-126367219D01*
G36*
X141591437Y-117078330D02*
G01*
X138359691Y-117078330D01*
X138359691Y-116343409D01*
X138470802Y-116343409D01*
X138470802Y-116867219D01*
X138472723Y-116886728D01*
X138487655Y-116922776D01*
X138515245Y-116950366D01*
X138551293Y-116965298D01*
X138590311Y-116965298D01*
X138626359Y-116950366D01*
X138653949Y-116922776D01*
X138668881Y-116886728D01*
X138670802Y-116867219D01*
X138670802Y-116367016D01*
X138692957Y-116322706D01*
X138737267Y-116300552D01*
X138832910Y-116300552D01*
X138877219Y-116322707D01*
X138899374Y-116367016D01*
X138899374Y-116867219D01*
X138901295Y-116886728D01*
X138916227Y-116922776D01*
X138943817Y-116950366D01*
X138979865Y-116965298D01*
X139018883Y-116965298D01*
X139054931Y-116950366D01*
X139082521Y-116922776D01*
X139097453Y-116886728D01*
X139099374Y-116867219D01*
X139099374Y-116367016D01*
X139121529Y-116322706D01*
X139165838Y-116300552D01*
X139261481Y-116300552D01*
X139321090Y-116330357D01*
X139327945Y-116337211D01*
X139327945Y-116867219D01*
X139329866Y-116886728D01*
X139344798Y-116922776D01*
X139372388Y-116950366D01*
X139408436Y-116965298D01*
X139447454Y-116965298D01*
X139483502Y-116950366D01*
X139511092Y-116922776D01*
X139526024Y-116886728D01*
X139527945Y-116867219D01*
X139527945Y-116200552D01*
X139804136Y-116200552D01*
X139804136Y-116867219D01*
X139806057Y-116886728D01*
X139820989Y-116922776D01*
X139848579Y-116950366D01*
X139884627Y-116965298D01*
X139923645Y-116965298D01*
X139959693Y-116950366D01*
X139969688Y-116940370D01*
X140002271Y-116956662D01*
X140020580Y-116963668D01*
X140024163Y-116963922D01*
X140027484Y-116965298D01*
X140046993Y-116967219D01*
X140189850Y-116967219D01*
X140209359Y-116965298D01*
X140212679Y-116963922D01*
X140216263Y-116963668D01*
X140234571Y-116956662D01*
X140329809Y-116909043D01*
X140333071Y-116906989D01*
X140334611Y-116906476D01*
X140336527Y-116904813D01*
X140346399Y-116898600D01*
X140354614Y-116889126D01*
X140364088Y-116880911D01*
X140370301Y-116871039D01*
X140371964Y-116869123D01*
X140372476Y-116867584D01*
X140374531Y-116864321D01*
X140422150Y-116769082D01*
X140429156Y-116750774D01*
X140429410Y-116747190D01*
X140430786Y-116743870D01*
X140432707Y-116724361D01*
X140432707Y-116200552D01*
X140430786Y-116181043D01*
X140415854Y-116144995D01*
X140388264Y-116117405D01*
X140352216Y-116102473D01*
X140313198Y-116102473D01*
X140277150Y-116117405D01*
X140249560Y-116144995D01*
X140234628Y-116181043D01*
X140232707Y-116200552D01*
X140232707Y-116700754D01*
X140210552Y-116745063D01*
X140166243Y-116767219D01*
X140070600Y-116767219D01*
X140010990Y-116737414D01*
X140004136Y-116730559D01*
X140004136Y-116200552D01*
X140002215Y-116181043D01*
X139987283Y-116144995D01*
X139959693Y-116117405D01*
X139923645Y-116102473D01*
X139884627Y-116102473D01*
X139848579Y-116117405D01*
X139820989Y-116144995D01*
X139806057Y-116181043D01*
X139804136Y-116200552D01*
X139527945Y-116200552D01*
X139526024Y-116181043D01*
X139511092Y-116144995D01*
X139483502Y-116117405D01*
X139447454Y-116102473D01*
X139408436Y-116102473D01*
X139372388Y-116117405D01*
X139362392Y-116127400D01*
X139329809Y-116111109D01*
X139311501Y-116104103D01*
X139307917Y-116103848D01*
X139304597Y-116102473D01*
X139285088Y-116100552D01*
X139142231Y-116100552D01*
X139122722Y-116102473D01*
X139119401Y-116103848D01*
X139115818Y-116104103D01*
X139097509Y-116111109D01*
X139002272Y-116158728D01*
X138999373Y-116160552D01*
X138996476Y-116158728D01*
X138901238Y-116111109D01*
X138882930Y-116104103D01*
X138879346Y-116103848D01*
X138876026Y-116102473D01*
X138856517Y-116100552D01*
X138713660Y-116100552D01*
X138694151Y-116102473D01*
X138690830Y-116103848D01*
X138687247Y-116104103D01*
X138668939Y-116111109D01*
X138573700Y-116158728D01*
X138570436Y-116160782D01*
X138568898Y-116161295D01*
X138566981Y-116162957D01*
X138557110Y-116169171D01*
X138548894Y-116178644D01*
X138539421Y-116186860D01*
X138533207Y-116196731D01*
X138531545Y-116198648D01*
X138531031Y-116200187D01*
X138528978Y-116203450D01*
X138481359Y-116298688D01*
X138474353Y-116316996D01*
X138474098Y-116320579D01*
X138472723Y-116323900D01*
X138470802Y-116343409D01*
X138359691Y-116343409D01*
X138359691Y-115867219D01*
X140708898Y-115867219D01*
X140708898Y-116867219D01*
X140709392Y-116872236D01*
X140709142Y-116874204D01*
X140709836Y-116876750D01*
X140710819Y-116886728D01*
X140715910Y-116899018D01*
X140719409Y-116911847D01*
X140723311Y-116916885D01*
X140725751Y-116922776D01*
X140735156Y-116932181D01*
X140743299Y-116942696D01*
X140748833Y-116945858D01*
X140753341Y-116950366D01*
X140765626Y-116955454D01*
X140777176Y-116962055D01*
X140783500Y-116962858D01*
X140789389Y-116965298D01*
X140802690Y-116965298D01*
X140815883Y-116966975D01*
X140822032Y-116965298D01*
X140828407Y-116965298D01*
X140840697Y-116960206D01*
X140853526Y-116956708D01*
X140858564Y-116952805D01*
X140864455Y-116950366D01*
X140873860Y-116940960D01*
X140884375Y-116932818D01*
X140890178Y-116924642D01*
X140892045Y-116922776D01*
X140892803Y-116920943D01*
X140895722Y-116916833D01*
X141280326Y-116243775D01*
X141280326Y-116867219D01*
X141282247Y-116886728D01*
X141297179Y-116922776D01*
X141324769Y-116950366D01*
X141360817Y-116965298D01*
X141399835Y-116965298D01*
X141435883Y-116950366D01*
X141463473Y-116922776D01*
X141478405Y-116886728D01*
X141480326Y-116867219D01*
X141480326Y-115867219D01*
X141479831Y-115862201D01*
X141480082Y-115860234D01*
X141479387Y-115857687D01*
X141478405Y-115847710D01*
X141473315Y-115835423D01*
X141469816Y-115822591D01*
X141465911Y-115817549D01*
X141463473Y-115811662D01*
X141454069Y-115802258D01*
X141445925Y-115791742D01*
X141440390Y-115788579D01*
X141435883Y-115784072D01*
X141423597Y-115778983D01*
X141412048Y-115772383D01*
X141405723Y-115771579D01*
X141399835Y-115769140D01*
X141386535Y-115769140D01*
X141373342Y-115767463D01*
X141367193Y-115769140D01*
X141360817Y-115769140D01*
X141348530Y-115774229D01*
X141335698Y-115777729D01*
X141330656Y-115781633D01*
X141324769Y-115784072D01*
X141315365Y-115793475D01*
X141304849Y-115801620D01*
X141299045Y-115809795D01*
X141297179Y-115811662D01*
X141296420Y-115813494D01*
X141293502Y-115817605D01*
X140908898Y-116490662D01*
X140908898Y-115867219D01*
X140906977Y-115847710D01*
X140892045Y-115811662D01*
X140864455Y-115784072D01*
X140828407Y-115769140D01*
X140789389Y-115769140D01*
X140753341Y-115784072D01*
X140725751Y-115811662D01*
X140710819Y-115847710D01*
X140708898Y-115867219D01*
X138359691Y-115867219D01*
X138359691Y-115656352D01*
X141591437Y-115656352D01*
X141591437Y-117078330D01*
G37*
X137046993Y-125093409D02*
X137380326Y-125093409D01*
X137380326Y-125617219D02*
X137380326Y-124617219D01*
X137380326Y-124617219D02*
X136904136Y-124617219D01*
X137189850Y-142117219D02*
X136999374Y-142117219D01*
X136999374Y-142117219D02*
X136904136Y-142164838D01*
X136904136Y-142164838D02*
X136808898Y-142260076D01*
X136808898Y-142260076D02*
X136761279Y-142450552D01*
X136761279Y-142450552D02*
X136761279Y-142783885D01*
X136761279Y-142783885D02*
X136808898Y-142974361D01*
X136808898Y-142974361D02*
X136904136Y-143069600D01*
X136904136Y-143069600D02*
X136999374Y-143117219D01*
X136999374Y-143117219D02*
X137189850Y-143117219D01*
X137189850Y-143117219D02*
X137285088Y-143069600D01*
X137285088Y-143069600D02*
X137380326Y-142974361D01*
X137380326Y-142974361D02*
X137427945Y-142783885D01*
X137427945Y-142783885D02*
X137427945Y-142450552D01*
X137427945Y-142450552D02*
X137380326Y-142260076D01*
X137380326Y-142260076D02*
X137285088Y-142164838D01*
X137285088Y-142164838D02*
X137189850Y-142117219D01*
G36*
X135934754Y-118828330D02*
G01*
X134895406Y-118828330D01*
X134895406Y-118188647D01*
X135006517Y-118188647D01*
X135006517Y-118426742D01*
X135008438Y-118446251D01*
X135009813Y-118449571D01*
X135010068Y-118453155D01*
X135017074Y-118471463D01*
X135064693Y-118566701D01*
X135069976Y-118575093D01*
X135070988Y-118577537D01*
X135073244Y-118580286D01*
X135075136Y-118583291D01*
X135077130Y-118585020D01*
X135083425Y-118592690D01*
X135131043Y-118640310D01*
X135138711Y-118646603D01*
X135140443Y-118648600D01*
X135143451Y-118650493D01*
X135146197Y-118652747D01*
X135148637Y-118653757D01*
X135157034Y-118659043D01*
X135252271Y-118706662D01*
X135270580Y-118713668D01*
X135274163Y-118713922D01*
X135277484Y-118715298D01*
X135296993Y-118717219D01*
X135582707Y-118717219D01*
X135602216Y-118715298D01*
X135605536Y-118713922D01*
X135609120Y-118713668D01*
X135627428Y-118706662D01*
X135722666Y-118659043D01*
X135731061Y-118653758D01*
X135733503Y-118652747D01*
X135736250Y-118650491D01*
X135739256Y-118648600D01*
X135740986Y-118646605D01*
X135748656Y-118640310D01*
X135796275Y-118592690D01*
X135808712Y-118577537D01*
X135823643Y-118541488D01*
X135823642Y-118502470D01*
X135808711Y-118466422D01*
X135781120Y-118438832D01*
X135745072Y-118423901D01*
X135706054Y-118423902D01*
X135670006Y-118438833D01*
X135654852Y-118451270D01*
X135618709Y-118487413D01*
X135559100Y-118517219D01*
X135320600Y-118517219D01*
X135260990Y-118487414D01*
X135236323Y-118462746D01*
X135206517Y-118403134D01*
X135206517Y-118212254D01*
X135236322Y-118152644D01*
X135260990Y-118127975D01*
X135320600Y-118098171D01*
X135439850Y-118098171D01*
X135450167Y-118097155D01*
X135452792Y-118097330D01*
X135454599Y-118096718D01*
X135459359Y-118096250D01*
X135474362Y-118090035D01*
X135489754Y-118084830D01*
X135492293Y-118082607D01*
X135495407Y-118081318D01*
X135506884Y-118069840D01*
X135519118Y-118059136D01*
X135520613Y-118056111D01*
X135522997Y-118053728D01*
X135529211Y-118038726D01*
X135536414Y-118024161D01*
X135536638Y-118020795D01*
X135537929Y-118017680D01*
X135537929Y-118001431D01*
X135539009Y-117985229D01*
X135537929Y-117982035D01*
X135537929Y-117978662D01*
X135531713Y-117963656D01*
X135526509Y-117948268D01*
X135523727Y-117944377D01*
X135522997Y-117942614D01*
X135521137Y-117940754D01*
X135515108Y-117932321D01*
X135326894Y-117717219D01*
X135725564Y-117717219D01*
X135745073Y-117715298D01*
X135781121Y-117700366D01*
X135808711Y-117672776D01*
X135823643Y-117636728D01*
X135823643Y-117597710D01*
X135808711Y-117561662D01*
X135781121Y-117534072D01*
X135745073Y-117519140D01*
X135725564Y-117517219D01*
X135106517Y-117517219D01*
X135096199Y-117518234D01*
X135093575Y-117518060D01*
X135091767Y-117518671D01*
X135087008Y-117519140D01*
X135072002Y-117525355D01*
X135056614Y-117530560D01*
X135054074Y-117532781D01*
X135050960Y-117534072D01*
X135039475Y-117545556D01*
X135027250Y-117556254D01*
X135025754Y-117559277D01*
X135023370Y-117561662D01*
X135017153Y-117576668D01*
X135009953Y-117591229D01*
X135009728Y-117594594D01*
X135008438Y-117597710D01*
X135008438Y-117613958D01*
X135007358Y-117630161D01*
X135008438Y-117633354D01*
X135008438Y-117636728D01*
X135014653Y-117651733D01*
X135019858Y-117667122D01*
X135022639Y-117671012D01*
X135023370Y-117672776D01*
X135025229Y-117674635D01*
X135031259Y-117683069D01*
X135235880Y-117916923D01*
X135157034Y-117956347D01*
X135148637Y-117961632D01*
X135146197Y-117962643D01*
X135143451Y-117964896D01*
X135140443Y-117966790D01*
X135138710Y-117968787D01*
X135131044Y-117975080D01*
X135083425Y-118022698D01*
X135077130Y-118030368D01*
X135075136Y-118032098D01*
X135073242Y-118035105D01*
X135070989Y-118037852D01*
X135069978Y-118040291D01*
X135064693Y-118048688D01*
X135017074Y-118143926D01*
X135010068Y-118162234D01*
X135009813Y-118165817D01*
X135008438Y-118169138D01*
X135006517Y-118188647D01*
X134895406Y-118188647D01*
X134895406Y-117406108D01*
X135934754Y-117406108D01*
X135934754Y-118828330D01*
G37*
X129954136Y-63817742D02*
X130639850Y-63817742D01*
X130296993Y-63817742D02*
X130296993Y-62617742D01*
X130296993Y-62617742D02*
X130411279Y-62789171D01*
X130411279Y-62789171D02*
X130525564Y-62903457D01*
X130525564Y-62903457D02*
X130639850Y-62960600D01*
X129439850Y-63703457D02*
X129382707Y-63760600D01*
X129382707Y-63760600D02*
X129439850Y-63817742D01*
X129439850Y-63817742D02*
X129496993Y-63760600D01*
X129496993Y-63760600D02*
X129439850Y-63703457D01*
X129439850Y-63703457D02*
X129439850Y-63817742D01*
X128639850Y-62617742D02*
X128525564Y-62617742D01*
X128525564Y-62617742D02*
X128411278Y-62674885D01*
X128411278Y-62674885D02*
X128354136Y-62732028D01*
X128354136Y-62732028D02*
X128296993Y-62846314D01*
X128296993Y-62846314D02*
X128239850Y-63074885D01*
X128239850Y-63074885D02*
X128239850Y-63360600D01*
X128239850Y-63360600D02*
X128296993Y-63589171D01*
X128296993Y-63589171D02*
X128354136Y-63703457D01*
X128354136Y-63703457D02*
X128411278Y-63760600D01*
X128411278Y-63760600D02*
X128525564Y-63817742D01*
X128525564Y-63817742D02*
X128639850Y-63817742D01*
X128639850Y-63817742D02*
X128754136Y-63760600D01*
X128754136Y-63760600D02*
X128811278Y-63703457D01*
X128811278Y-63703457D02*
X128868421Y-63589171D01*
X128868421Y-63589171D02*
X128925564Y-63360600D01*
X128925564Y-63360600D02*
X128925564Y-63074885D01*
X128925564Y-63074885D02*
X128868421Y-62846314D01*
X128868421Y-62846314D02*
X128811278Y-62732028D01*
X128811278Y-62732028D02*
X128754136Y-62674885D01*
X128754136Y-62674885D02*
X128639850Y-62617742D01*
G36*
X134184754Y-118828330D02*
G01*
X133145406Y-118828330D01*
X133145406Y-117807695D01*
X133256517Y-117807695D01*
X133256517Y-117902933D01*
X133257489Y-117912806D01*
X133257302Y-117915440D01*
X133258089Y-117918903D01*
X133258438Y-117922442D01*
X133259449Y-117924884D01*
X133261649Y-117934556D01*
X133309268Y-118077412D01*
X133317259Y-118095313D01*
X133319614Y-118098028D01*
X133320989Y-118101347D01*
X133333425Y-118116501D01*
X133734142Y-118517219D01*
X133356517Y-118517219D01*
X133337008Y-118519140D01*
X133300960Y-118534072D01*
X133273370Y-118561662D01*
X133258438Y-118597710D01*
X133258438Y-118636728D01*
X133273370Y-118672776D01*
X133300960Y-118700366D01*
X133337008Y-118715298D01*
X133356517Y-118717219D01*
X133975564Y-118717219D01*
X133995073Y-118715298D01*
X134031121Y-118700366D01*
X134058711Y-118672776D01*
X134073643Y-118636728D01*
X134073643Y-118597710D01*
X134058711Y-118561662D01*
X134046275Y-118546508D01*
X133491538Y-117991770D01*
X133456517Y-117886706D01*
X133456517Y-117831302D01*
X133486322Y-117771692D01*
X133510990Y-117747023D01*
X133570600Y-117717219D01*
X133761481Y-117717219D01*
X133821090Y-117747024D01*
X133857234Y-117783167D01*
X133872387Y-117795604D01*
X133908436Y-117810535D01*
X133947454Y-117810535D01*
X133983502Y-117795604D01*
X134011092Y-117768014D01*
X134026023Y-117731966D01*
X134026023Y-117692948D01*
X134011092Y-117656899D01*
X133998655Y-117641746D01*
X133951037Y-117594127D01*
X133943366Y-117587832D01*
X133941637Y-117585838D01*
X133938629Y-117583944D01*
X133935883Y-117581691D01*
X133933443Y-117580680D01*
X133925047Y-117575395D01*
X133829809Y-117527776D01*
X133811501Y-117520770D01*
X133807917Y-117520515D01*
X133804597Y-117519140D01*
X133785088Y-117517219D01*
X133546993Y-117517219D01*
X133527484Y-117519140D01*
X133524163Y-117520515D01*
X133520580Y-117520770D01*
X133502271Y-117527776D01*
X133407034Y-117575395D01*
X133398637Y-117580680D01*
X133396197Y-117581691D01*
X133393451Y-117583944D01*
X133390443Y-117585838D01*
X133388710Y-117587835D01*
X133381044Y-117594128D01*
X133333425Y-117641746D01*
X133327130Y-117649416D01*
X133325136Y-117651146D01*
X133323242Y-117654153D01*
X133320989Y-117656900D01*
X133319978Y-117659339D01*
X133314693Y-117667736D01*
X133267074Y-117762974D01*
X133260068Y-117781282D01*
X133259813Y-117784865D01*
X133258438Y-117788186D01*
X133256517Y-117807695D01*
X133145406Y-117807695D01*
X133145406Y-117406108D01*
X134184754Y-117406108D01*
X134184754Y-118828330D01*
G37*
X137189850Y-138617219D02*
X136999374Y-138617219D01*
X136999374Y-138617219D02*
X136904136Y-138664838D01*
X136904136Y-138664838D02*
X136808898Y-138760076D01*
X136808898Y-138760076D02*
X136761279Y-138950552D01*
X136761279Y-138950552D02*
X136761279Y-139283885D01*
X136761279Y-139283885D02*
X136808898Y-139474361D01*
X136808898Y-139474361D02*
X136904136Y-139569600D01*
X136904136Y-139569600D02*
X136999374Y-139617219D01*
X136999374Y-139617219D02*
X137189850Y-139617219D01*
X137189850Y-139617219D02*
X137285088Y-139569600D01*
X137285088Y-139569600D02*
X137380326Y-139474361D01*
X137380326Y-139474361D02*
X137427945Y-139283885D01*
X137427945Y-139283885D02*
X137427945Y-138950552D01*
X137427945Y-138950552D02*
X137380326Y-138760076D01*
X137380326Y-138760076D02*
X137285088Y-138664838D01*
X137285088Y-138664838D02*
X137189850Y-138617219D01*
X140225564Y-124617219D02*
X139606517Y-124617219D01*
X139606517Y-124617219D02*
X139939850Y-124998171D01*
X139939850Y-124998171D02*
X139796993Y-124998171D01*
X139796993Y-124998171D02*
X139701755Y-125045790D01*
X139701755Y-125045790D02*
X139654136Y-125093409D01*
X139654136Y-125093409D02*
X139606517Y-125188647D01*
X139606517Y-125188647D02*
X139606517Y-125426742D01*
X139606517Y-125426742D02*
X139654136Y-125521980D01*
X139654136Y-125521980D02*
X139701755Y-125569600D01*
X139701755Y-125569600D02*
X139796993Y-125617219D01*
X139796993Y-125617219D02*
X140082707Y-125617219D01*
X140082707Y-125617219D02*
X140177945Y-125569600D01*
X140177945Y-125569600D02*
X140225564Y-125521980D01*
X137189850Y-135117219D02*
X136999374Y-135117219D01*
X136999374Y-135117219D02*
X136904136Y-135164838D01*
X136904136Y-135164838D02*
X136808898Y-135260076D01*
X136808898Y-135260076D02*
X136761279Y-135450552D01*
X136761279Y-135450552D02*
X136761279Y-135783885D01*
X136761279Y-135783885D02*
X136808898Y-135974361D01*
X136808898Y-135974361D02*
X136904136Y-136069600D01*
X136904136Y-136069600D02*
X136999374Y-136117219D01*
X136999374Y-136117219D02*
X137189850Y-136117219D01*
X137189850Y-136117219D02*
X137285088Y-136069600D01*
X137285088Y-136069600D02*
X137380326Y-135974361D01*
X137380326Y-135974361D02*
X137427945Y-135783885D01*
X137427945Y-135783885D02*
X137427945Y-135450552D01*
X137427945Y-135450552D02*
X137380326Y-135260076D01*
X137380326Y-135260076D02*
X137285088Y-135164838D01*
X137285088Y-135164838D02*
X137189850Y-135117219D01*
G36*
X114900405Y-139268075D02*
G01*
X113692803Y-139268075D01*
X113692803Y-138063314D01*
X113826136Y-138063314D01*
X113826136Y-138177600D01*
X113827108Y-138187473D01*
X113826921Y-138190108D01*
X113827708Y-138193571D01*
X113828057Y-138197109D01*
X113829068Y-138199550D01*
X113831268Y-138209223D01*
X113888411Y-138380651D01*
X113896402Y-138398551D01*
X113898757Y-138401266D01*
X113900132Y-138404585D01*
X113912568Y-138419739D01*
X114427571Y-138934742D01*
X113926136Y-138934742D01*
X113906627Y-138936663D01*
X113870579Y-138951595D01*
X113842989Y-138979185D01*
X113828057Y-139015233D01*
X113828057Y-139054251D01*
X113842989Y-139090299D01*
X113870579Y-139117889D01*
X113906627Y-139132821D01*
X113926136Y-139134742D01*
X114668993Y-139134742D01*
X114688502Y-139132821D01*
X114724550Y-139117889D01*
X114752140Y-139090299D01*
X114767072Y-139054251D01*
X114767072Y-139015233D01*
X114752140Y-138979185D01*
X114739704Y-138964031D01*
X114070681Y-138295008D01*
X114026136Y-138161372D01*
X114026136Y-138086921D01*
X114065464Y-138008264D01*
X114099656Y-137974071D01*
X114178314Y-137934742D01*
X114416814Y-137934742D01*
X114495470Y-137974070D01*
X114541139Y-138019738D01*
X114556292Y-138032175D01*
X114592341Y-138047106D01*
X114631359Y-138047106D01*
X114667407Y-138032175D01*
X114694997Y-138004585D01*
X114709928Y-137968537D01*
X114709928Y-137929519D01*
X114694997Y-137893470D01*
X114682560Y-137878317D01*
X114625418Y-137821174D01*
X114617751Y-137814882D01*
X114616019Y-137812885D01*
X114613007Y-137810989D01*
X114610264Y-137808738D01*
X114607825Y-137807727D01*
X114599429Y-137802443D01*
X114485144Y-137745299D01*
X114466835Y-137738293D01*
X114463251Y-137738038D01*
X114459931Y-137736663D01*
X114440422Y-137734742D01*
X114154707Y-137734742D01*
X114135198Y-137736663D01*
X114131877Y-137738038D01*
X114128294Y-137738293D01*
X114109986Y-137745299D01*
X113995700Y-137802442D01*
X113987302Y-137807727D01*
X113984864Y-137808738D01*
X113982119Y-137810990D01*
X113979110Y-137812885D01*
X113977377Y-137814882D01*
X113969711Y-137821175D01*
X113912568Y-137878317D01*
X113906276Y-137885983D01*
X113904279Y-137887716D01*
X113902383Y-137890727D01*
X113900132Y-137893471D01*
X113899122Y-137895907D01*
X113893836Y-137904306D01*
X113836693Y-138018593D01*
X113829687Y-138036901D01*
X113829432Y-138040484D01*
X113828057Y-138043805D01*
X113826136Y-138063314D01*
X113692803Y-138063314D01*
X113692803Y-137601409D01*
X114900405Y-137601409D01*
X114900405Y-139268075D01*
G37*
X135296993Y-121593409D02*
X135630326Y-121593409D01*
X135630326Y-122117219D02*
X135630326Y-121117219D01*
X135630326Y-121117219D02*
X135154136Y-121117219D01*
X131796993Y-140843409D02*
X132130326Y-140843409D01*
X132130326Y-141367219D02*
X132130326Y-140367219D01*
X132130326Y-140367219D02*
X131654136Y-140367219D01*
X140106517Y-143117219D02*
X140677945Y-143117219D01*
X140392231Y-143117219D02*
X140392231Y-142117219D01*
X140392231Y-142117219D02*
X140487469Y-142260076D01*
X140487469Y-142260076D02*
X140582707Y-142355314D01*
X140582707Y-142355314D02*
X140677945Y-142402933D01*
X139773183Y-142117219D02*
X139154136Y-142117219D01*
X139154136Y-142117219D02*
X139487469Y-142498171D01*
X139487469Y-142498171D02*
X139344612Y-142498171D01*
X139344612Y-142498171D02*
X139249374Y-142545790D01*
X139249374Y-142545790D02*
X139201755Y-142593409D01*
X139201755Y-142593409D02*
X139154136Y-142688647D01*
X139154136Y-142688647D02*
X139154136Y-142926742D01*
X139154136Y-142926742D02*
X139201755Y-143021980D01*
X139201755Y-143021980D02*
X139249374Y-143069600D01*
X139249374Y-143069600D02*
X139344612Y-143117219D01*
X139344612Y-143117219D02*
X139630326Y-143117219D01*
X139630326Y-143117219D02*
X139725564Y-143069600D01*
X139725564Y-143069600D02*
X139773183Y-143021980D01*
X131796993Y-123343409D02*
X132130326Y-123343409D01*
X132130326Y-123867219D02*
X132130326Y-122867219D01*
X132130326Y-122867219D02*
X131654136Y-122867219D01*
X131939850Y-145617219D02*
X131749374Y-145617219D01*
X131749374Y-145617219D02*
X131654136Y-145664838D01*
X131654136Y-145664838D02*
X131558898Y-145760076D01*
X131558898Y-145760076D02*
X131511279Y-145950552D01*
X131511279Y-145950552D02*
X131511279Y-146283885D01*
X131511279Y-146283885D02*
X131558898Y-146474361D01*
X131558898Y-146474361D02*
X131654136Y-146569600D01*
X131654136Y-146569600D02*
X131749374Y-146617219D01*
X131749374Y-146617219D02*
X131939850Y-146617219D01*
X131939850Y-146617219D02*
X132035088Y-146569600D01*
X132035088Y-146569600D02*
X132130326Y-146474361D01*
X132130326Y-146474361D02*
X132177945Y-146283885D01*
X132177945Y-146283885D02*
X132177945Y-145950552D01*
X132177945Y-145950552D02*
X132130326Y-145760076D01*
X132130326Y-145760076D02*
X132035088Y-145664838D01*
X132035088Y-145664838D02*
X131939850Y-145617219D01*
X137189850Y-143867219D02*
X136999374Y-143867219D01*
X136999374Y-143867219D02*
X136904136Y-143914838D01*
X136904136Y-143914838D02*
X136808898Y-144010076D01*
X136808898Y-144010076D02*
X136761279Y-144200552D01*
X136761279Y-144200552D02*
X136761279Y-144533885D01*
X136761279Y-144533885D02*
X136808898Y-144724361D01*
X136808898Y-144724361D02*
X136904136Y-144819600D01*
X136904136Y-144819600D02*
X136999374Y-144867219D01*
X136999374Y-144867219D02*
X137189850Y-144867219D01*
X137189850Y-144867219D02*
X137285088Y-144819600D01*
X137285088Y-144819600D02*
X137380326Y-144724361D01*
X137380326Y-144724361D02*
X137427945Y-144533885D01*
X137427945Y-144533885D02*
X137427945Y-144200552D01*
X137427945Y-144200552D02*
X137380326Y-144010076D01*
X137380326Y-144010076D02*
X137285088Y-143914838D01*
X137285088Y-143914838D02*
X137189850Y-143867219D01*
X133689850Y-122867219D02*
X133499374Y-122867219D01*
X133499374Y-122867219D02*
X133404136Y-122914838D01*
X133404136Y-122914838D02*
X133308898Y-123010076D01*
X133308898Y-123010076D02*
X133261279Y-123200552D01*
X133261279Y-123200552D02*
X133261279Y-123533885D01*
X133261279Y-123533885D02*
X133308898Y-123724361D01*
X133308898Y-123724361D02*
X133404136Y-123819600D01*
X133404136Y-123819600D02*
X133499374Y-123867219D01*
X133499374Y-123867219D02*
X133689850Y-123867219D01*
X133689850Y-123867219D02*
X133785088Y-123819600D01*
X133785088Y-123819600D02*
X133880326Y-123724361D01*
X133880326Y-123724361D02*
X133927945Y-123533885D01*
X133927945Y-123533885D02*
X133927945Y-123200552D01*
X133927945Y-123200552D02*
X133880326Y-123010076D01*
X133880326Y-123010076D02*
X133785088Y-122914838D01*
X133785088Y-122914838D02*
X133689850Y-122867219D01*
X133546993Y-119843409D02*
X133880326Y-119843409D01*
X133880326Y-120367219D02*
X133880326Y-119367219D01*
X133880326Y-119367219D02*
X133404136Y-119367219D01*
G36*
X135530326Y-116767219D02*
G01*
X135272981Y-116767219D01*
X135213371Y-116737414D01*
X135188704Y-116712746D01*
X135158898Y-116653134D01*
X135158898Y-116557492D01*
X135188703Y-116497882D01*
X135208154Y-116478430D01*
X135313219Y-116443409D01*
X135530326Y-116443409D01*
X135530326Y-116767219D01*
G37*
G36*
X135530326Y-116243409D02*
G01*
X135320600Y-116243409D01*
X135260990Y-116213604D01*
X135236322Y-116188935D01*
X135206517Y-116129325D01*
X135206517Y-116081302D01*
X135236322Y-116021692D01*
X135260990Y-115997023D01*
X135320600Y-115967219D01*
X135530326Y-115967219D01*
X135530326Y-116243409D01*
G37*
G36*
X135841437Y-117078330D02*
G01*
X133516375Y-117078330D01*
X133516375Y-115847710D01*
X133627486Y-115847710D01*
X133627486Y-115886728D01*
X133642418Y-115922776D01*
X133670008Y-115950366D01*
X133706056Y-115965298D01*
X133725565Y-115967219D01*
X133911279Y-115967219D01*
X133911279Y-116867219D01*
X133913200Y-116886728D01*
X133928132Y-116922776D01*
X133955722Y-116950366D01*
X133991770Y-116965298D01*
X134030788Y-116965298D01*
X134066836Y-116950366D01*
X134094426Y-116922776D01*
X134109358Y-116886728D01*
X134111279Y-116867219D01*
X134111279Y-115967219D01*
X134296993Y-115967219D01*
X134316502Y-115965298D01*
X134352550Y-115950366D01*
X134380140Y-115922776D01*
X134395072Y-115886728D01*
X134395072Y-115867219D01*
X134530326Y-115867219D01*
X134530326Y-116867219D01*
X134532247Y-116886728D01*
X134547179Y-116922776D01*
X134574769Y-116950366D01*
X134610817Y-116965298D01*
X134649835Y-116965298D01*
X134685883Y-116950366D01*
X134713473Y-116922776D01*
X134728405Y-116886728D01*
X134730326Y-116867219D01*
X134730326Y-116533885D01*
X134958898Y-116533885D01*
X134958898Y-116676742D01*
X134960819Y-116696251D01*
X134962194Y-116699571D01*
X134962449Y-116703155D01*
X134969455Y-116721463D01*
X135017074Y-116816701D01*
X135022357Y-116825093D01*
X135023369Y-116827537D01*
X135025625Y-116830286D01*
X135027517Y-116833291D01*
X135029511Y-116835020D01*
X135035806Y-116842690D01*
X135083424Y-116890310D01*
X135091092Y-116896603D01*
X135092824Y-116898600D01*
X135095832Y-116900493D01*
X135098578Y-116902747D01*
X135101018Y-116903757D01*
X135109415Y-116909043D01*
X135204652Y-116956662D01*
X135222961Y-116963668D01*
X135226544Y-116963922D01*
X135229865Y-116965298D01*
X135249374Y-116967219D01*
X135630326Y-116967219D01*
X135649835Y-116965298D01*
X135685883Y-116950366D01*
X135713473Y-116922776D01*
X135728405Y-116886728D01*
X135730326Y-116867219D01*
X135730326Y-115867219D01*
X135728405Y-115847710D01*
X135713473Y-115811662D01*
X135685883Y-115784072D01*
X135649835Y-115769140D01*
X135630326Y-115767219D01*
X135296993Y-115767219D01*
X135277484Y-115769140D01*
X135274163Y-115770515D01*
X135270580Y-115770770D01*
X135252271Y-115777776D01*
X135157034Y-115825395D01*
X135148637Y-115830680D01*
X135146197Y-115831691D01*
X135143451Y-115833944D01*
X135140443Y-115835838D01*
X135138710Y-115837835D01*
X135131044Y-115844128D01*
X135083425Y-115891746D01*
X135077130Y-115899416D01*
X135075136Y-115901146D01*
X135073242Y-115904153D01*
X135070989Y-115906900D01*
X135069978Y-115909339D01*
X135064693Y-115917736D01*
X135017074Y-116012974D01*
X135010068Y-116031282D01*
X135009813Y-116034865D01*
X135008438Y-116038186D01*
X135006517Y-116057695D01*
X135006517Y-116152933D01*
X135008438Y-116172442D01*
X135009813Y-116175762D01*
X135010068Y-116179346D01*
X135017074Y-116197654D01*
X135064693Y-116292892D01*
X135069978Y-116301288D01*
X135070989Y-116303728D01*
X135073242Y-116306474D01*
X135075136Y-116309482D01*
X135077130Y-116311211D01*
X135083425Y-116318882D01*
X135084213Y-116319670D01*
X135083425Y-116320318D01*
X135035806Y-116367936D01*
X135029511Y-116375606D01*
X135027517Y-116377336D01*
X135025623Y-116380343D01*
X135023370Y-116383090D01*
X135022359Y-116385529D01*
X135017074Y-116393926D01*
X134969455Y-116489164D01*
X134962449Y-116507472D01*
X134962194Y-116511055D01*
X134960819Y-116514376D01*
X134958898Y-116533885D01*
X134730326Y-116533885D01*
X134730326Y-115867219D01*
X134728405Y-115847710D01*
X134713473Y-115811662D01*
X134685883Y-115784072D01*
X134649835Y-115769140D01*
X134610817Y-115769140D01*
X134574769Y-115784072D01*
X134547179Y-115811662D01*
X134532247Y-115847710D01*
X134530326Y-115867219D01*
X134395072Y-115867219D01*
X134395072Y-115847710D01*
X134380140Y-115811662D01*
X134352550Y-115784072D01*
X134316502Y-115769140D01*
X134296993Y-115767219D01*
X133725565Y-115767219D01*
X133706056Y-115769140D01*
X133670008Y-115784072D01*
X133642418Y-115811662D01*
X133627486Y-115847710D01*
X133516375Y-115847710D01*
X133516375Y-115656108D01*
X135841437Y-115656108D01*
X135841437Y-117078330D01*
G37*
X133689850Y-129867219D02*
X133499374Y-129867219D01*
X133499374Y-129867219D02*
X133404136Y-129914838D01*
X133404136Y-129914838D02*
X133308898Y-130010076D01*
X133308898Y-130010076D02*
X133261279Y-130200552D01*
X133261279Y-130200552D02*
X133261279Y-130533885D01*
X133261279Y-130533885D02*
X133308898Y-130724361D01*
X133308898Y-130724361D02*
X133404136Y-130819600D01*
X133404136Y-130819600D02*
X133499374Y-130867219D01*
X133499374Y-130867219D02*
X133689850Y-130867219D01*
X133689850Y-130867219D02*
X133785088Y-130819600D01*
X133785088Y-130819600D02*
X133880326Y-130724361D01*
X133880326Y-130724361D02*
X133927945Y-130533885D01*
X133927945Y-130533885D02*
X133927945Y-130200552D01*
X133927945Y-130200552D02*
X133880326Y-130010076D01*
X133880326Y-130010076D02*
X133785088Y-129914838D01*
X133785088Y-129914838D02*
X133689850Y-129867219D01*
X135296993Y-119843409D02*
X135630326Y-119843409D01*
X135630326Y-120367219D02*
X135630326Y-119367219D01*
X135630326Y-119367219D02*
X135154136Y-119367219D01*
X137046993Y-119843409D02*
X137380326Y-119843409D01*
X137380326Y-120367219D02*
X137380326Y-119367219D01*
X137380326Y-119367219D02*
X136904136Y-119367219D01*
X131939850Y-131617219D02*
X131749374Y-131617219D01*
X131749374Y-131617219D02*
X131654136Y-131664838D01*
X131654136Y-131664838D02*
X131558898Y-131760076D01*
X131558898Y-131760076D02*
X131511279Y-131950552D01*
X131511279Y-131950552D02*
X131511279Y-132283885D01*
X131511279Y-132283885D02*
X131558898Y-132474361D01*
X131558898Y-132474361D02*
X131654136Y-132569600D01*
X131654136Y-132569600D02*
X131749374Y-132617219D01*
X131749374Y-132617219D02*
X131939850Y-132617219D01*
X131939850Y-132617219D02*
X132035088Y-132569600D01*
X132035088Y-132569600D02*
X132130326Y-132474361D01*
X132130326Y-132474361D02*
X132177945Y-132283885D01*
X132177945Y-132283885D02*
X132177945Y-131950552D01*
X132177945Y-131950552D02*
X132130326Y-131760076D01*
X132130326Y-131760076D02*
X132035088Y-131664838D01*
X132035088Y-131664838D02*
X131939850Y-131617219D01*
X133689850Y-138617219D02*
X133499374Y-138617219D01*
X133499374Y-138617219D02*
X133404136Y-138664838D01*
X133404136Y-138664838D02*
X133308898Y-138760076D01*
X133308898Y-138760076D02*
X133261279Y-138950552D01*
X133261279Y-138950552D02*
X133261279Y-139283885D01*
X133261279Y-139283885D02*
X133308898Y-139474361D01*
X133308898Y-139474361D02*
X133404136Y-139569600D01*
X133404136Y-139569600D02*
X133499374Y-139617219D01*
X133499374Y-139617219D02*
X133689850Y-139617219D01*
X133689850Y-139617219D02*
X133785088Y-139569600D01*
X133785088Y-139569600D02*
X133880326Y-139474361D01*
X133880326Y-139474361D02*
X133927945Y-139283885D01*
X133927945Y-139283885D02*
X133927945Y-138950552D01*
X133927945Y-138950552D02*
X133880326Y-138760076D01*
X133880326Y-138760076D02*
X133785088Y-138664838D01*
X133785088Y-138664838D02*
X133689850Y-138617219D01*
X131939850Y-138617219D02*
X131749374Y-138617219D01*
X131749374Y-138617219D02*
X131654136Y-138664838D01*
X131654136Y-138664838D02*
X131558898Y-138760076D01*
X131558898Y-138760076D02*
X131511279Y-138950552D01*
X131511279Y-138950552D02*
X131511279Y-139283885D01*
X131511279Y-139283885D02*
X131558898Y-139474361D01*
X131558898Y-139474361D02*
X131654136Y-139569600D01*
X131654136Y-139569600D02*
X131749374Y-139617219D01*
X131749374Y-139617219D02*
X131939850Y-139617219D01*
X131939850Y-139617219D02*
X132035088Y-139569600D01*
X132035088Y-139569600D02*
X132130326Y-139474361D01*
X132130326Y-139474361D02*
X132177945Y-139283885D01*
X132177945Y-139283885D02*
X132177945Y-138950552D01*
X132177945Y-138950552D02*
X132130326Y-138760076D01*
X132130326Y-138760076D02*
X132035088Y-138664838D01*
X132035088Y-138664838D02*
X131939850Y-138617219D01*
X133689850Y-124617219D02*
X133499374Y-124617219D01*
X133499374Y-124617219D02*
X133404136Y-124664838D01*
X133404136Y-124664838D02*
X133308898Y-124760076D01*
X133308898Y-124760076D02*
X133261279Y-124950552D01*
X133261279Y-124950552D02*
X133261279Y-125283885D01*
X133261279Y-125283885D02*
X133308898Y-125474361D01*
X133308898Y-125474361D02*
X133404136Y-125569600D01*
X133404136Y-125569600D02*
X133499374Y-125617219D01*
X133499374Y-125617219D02*
X133689850Y-125617219D01*
X133689850Y-125617219D02*
X133785088Y-125569600D01*
X133785088Y-125569600D02*
X133880326Y-125474361D01*
X133880326Y-125474361D02*
X133927945Y-125283885D01*
X133927945Y-125283885D02*
X133927945Y-124950552D01*
X133927945Y-124950552D02*
X133880326Y-124760076D01*
X133880326Y-124760076D02*
X133785088Y-124664838D01*
X133785088Y-124664838D02*
X133689850Y-124617219D01*
G36*
X125150405Y-139326075D02*
G01*
X123942803Y-139326075D01*
X123942803Y-138121314D01*
X124076136Y-138121314D01*
X124076136Y-138235600D01*
X124077108Y-138245473D01*
X124076921Y-138248108D01*
X124077708Y-138251571D01*
X124078057Y-138255109D01*
X124079068Y-138257550D01*
X124081268Y-138267223D01*
X124138411Y-138438651D01*
X124146402Y-138456551D01*
X124148757Y-138459266D01*
X124150132Y-138462585D01*
X124162568Y-138477739D01*
X124677571Y-138992742D01*
X124176136Y-138992742D01*
X124156627Y-138994663D01*
X124120579Y-139009595D01*
X124092989Y-139037185D01*
X124078057Y-139073233D01*
X124078057Y-139112251D01*
X124092989Y-139148299D01*
X124120579Y-139175889D01*
X124156627Y-139190821D01*
X124176136Y-139192742D01*
X124918993Y-139192742D01*
X124938502Y-139190821D01*
X124974550Y-139175889D01*
X125002140Y-139148299D01*
X125017072Y-139112251D01*
X125017072Y-139073233D01*
X125002140Y-139037185D01*
X124989704Y-139022031D01*
X124320681Y-138353008D01*
X124276136Y-138219372D01*
X124276136Y-138144921D01*
X124315464Y-138066264D01*
X124349656Y-138032071D01*
X124428314Y-137992742D01*
X124666814Y-137992742D01*
X124745470Y-138032070D01*
X124791139Y-138077738D01*
X124806292Y-138090175D01*
X124842341Y-138105106D01*
X124881359Y-138105106D01*
X124917407Y-138090175D01*
X124944997Y-138062585D01*
X124959928Y-138026537D01*
X124959928Y-137987519D01*
X124944997Y-137951470D01*
X124932560Y-137936317D01*
X124875418Y-137879174D01*
X124867751Y-137872882D01*
X124866019Y-137870885D01*
X124863007Y-137868989D01*
X124860264Y-137866738D01*
X124857825Y-137865727D01*
X124849429Y-137860443D01*
X124735144Y-137803299D01*
X124716835Y-137796293D01*
X124713251Y-137796038D01*
X124709931Y-137794663D01*
X124690422Y-137792742D01*
X124404707Y-137792742D01*
X124385198Y-137794663D01*
X124381877Y-137796038D01*
X124378294Y-137796293D01*
X124359986Y-137803299D01*
X124245700Y-137860442D01*
X124237302Y-137865727D01*
X124234864Y-137866738D01*
X124232119Y-137868990D01*
X124229110Y-137870885D01*
X124227377Y-137872882D01*
X124219711Y-137879175D01*
X124162568Y-137936317D01*
X124156276Y-137943983D01*
X124154279Y-137945716D01*
X124152383Y-137948727D01*
X124150132Y-137951471D01*
X124149122Y-137953907D01*
X124143836Y-137962306D01*
X124086693Y-138076593D01*
X124079687Y-138094901D01*
X124079432Y-138098484D01*
X124078057Y-138101805D01*
X124076136Y-138121314D01*
X123942803Y-138121314D01*
X123942803Y-137659409D01*
X125150405Y-137659409D01*
X125150405Y-139326075D01*
G37*
X129954136Y-55174885D02*
X130068422Y-55117742D01*
X130068422Y-55117742D02*
X130239850Y-55117742D01*
X130239850Y-55117742D02*
X130411279Y-55174885D01*
X130411279Y-55174885D02*
X130525564Y-55289171D01*
X130525564Y-55289171D02*
X130582707Y-55403457D01*
X130582707Y-55403457D02*
X130639850Y-55632028D01*
X130639850Y-55632028D02*
X130639850Y-55803457D01*
X130639850Y-55803457D02*
X130582707Y-56032028D01*
X130582707Y-56032028D02*
X130525564Y-56146314D01*
X130525564Y-56146314D02*
X130411279Y-56260600D01*
X130411279Y-56260600D02*
X130239850Y-56317742D01*
X130239850Y-56317742D02*
X130125564Y-56317742D01*
X130125564Y-56317742D02*
X129954136Y-56260600D01*
X129954136Y-56260600D02*
X129896993Y-56203457D01*
X129896993Y-56203457D02*
X129896993Y-55803457D01*
X129896993Y-55803457D02*
X130125564Y-55803457D01*
X128982707Y-55689171D02*
X128811279Y-55746314D01*
X128811279Y-55746314D02*
X128754136Y-55803457D01*
X128754136Y-55803457D02*
X128696993Y-55917742D01*
X128696993Y-55917742D02*
X128696993Y-56089171D01*
X128696993Y-56089171D02*
X128754136Y-56203457D01*
X128754136Y-56203457D02*
X128811279Y-56260600D01*
X128811279Y-56260600D02*
X128925564Y-56317742D01*
X128925564Y-56317742D02*
X129382707Y-56317742D01*
X129382707Y-56317742D02*
X129382707Y-55117742D01*
X129382707Y-55117742D02*
X128982707Y-55117742D01*
X128982707Y-55117742D02*
X128868422Y-55174885D01*
X128868422Y-55174885D02*
X128811279Y-55232028D01*
X128811279Y-55232028D02*
X128754136Y-55346314D01*
X128754136Y-55346314D02*
X128754136Y-55460600D01*
X128754136Y-55460600D02*
X128811279Y-55574885D01*
X128811279Y-55574885D02*
X128868422Y-55632028D01*
X128868422Y-55632028D02*
X128982707Y-55689171D01*
X128982707Y-55689171D02*
X129382707Y-55689171D01*
X128239850Y-55974885D02*
X127668422Y-55974885D01*
X128354136Y-56317742D02*
X127954136Y-55117742D01*
X127954136Y-55117742D02*
X127554136Y-56317742D01*
G36*
X119872398Y-139266154D02*
G01*
X118665581Y-139266154D01*
X118665581Y-138615233D01*
X118798914Y-138615233D01*
X118798914Y-138654251D01*
X118813846Y-138690299D01*
X118841436Y-138717889D01*
X118877484Y-138732821D01*
X118896993Y-138734742D01*
X118968422Y-138734742D01*
X118968422Y-139034742D01*
X118970343Y-139054251D01*
X118985275Y-139090299D01*
X119012865Y-139117889D01*
X119048913Y-139132821D01*
X119087931Y-139132821D01*
X119123979Y-139117889D01*
X119151569Y-139090299D01*
X119166501Y-139054251D01*
X119168422Y-139034742D01*
X119168422Y-138734742D01*
X119639850Y-138734742D01*
X119649723Y-138733769D01*
X119652357Y-138733957D01*
X119654258Y-138733323D01*
X119659359Y-138732821D01*
X119674163Y-138726688D01*
X119689373Y-138721619D01*
X119692088Y-138719263D01*
X119695407Y-138717889D01*
X119706737Y-138706558D01*
X119718849Y-138696054D01*
X119720456Y-138692839D01*
X119722997Y-138690299D01*
X119729131Y-138675490D01*
X119736299Y-138661155D01*
X119736553Y-138657571D01*
X119737929Y-138654251D01*
X119737929Y-138638219D01*
X119739065Y-138622235D01*
X119737929Y-138617239D01*
X119737929Y-138615233D01*
X119736917Y-138612790D01*
X119734718Y-138603119D01*
X119449004Y-137745977D01*
X119441013Y-137728077D01*
X119415448Y-137698601D01*
X119380549Y-137681151D01*
X119341629Y-137678385D01*
X119304613Y-137690723D01*
X119275137Y-137716288D01*
X119257687Y-137751187D01*
X119254921Y-137790107D01*
X119259268Y-137809223D01*
X119501108Y-138534742D01*
X119168422Y-138534742D01*
X119168422Y-138234742D01*
X119166501Y-138215233D01*
X119151569Y-138179185D01*
X119123979Y-138151595D01*
X119087931Y-138136663D01*
X119048913Y-138136663D01*
X119012865Y-138151595D01*
X118985275Y-138179185D01*
X118970343Y-138215233D01*
X118968422Y-138234742D01*
X118968422Y-138534742D01*
X118896993Y-138534742D01*
X118877484Y-138536663D01*
X118841436Y-138551595D01*
X118813846Y-138579185D01*
X118798914Y-138615233D01*
X118665581Y-138615233D01*
X118665581Y-137545052D01*
X119872398Y-137545052D01*
X119872398Y-139266154D01*
G37*
X131939850Y-124617219D02*
X131749374Y-124617219D01*
X131749374Y-124617219D02*
X131654136Y-124664838D01*
X131654136Y-124664838D02*
X131558898Y-124760076D01*
X131558898Y-124760076D02*
X131511279Y-124950552D01*
X131511279Y-124950552D02*
X131511279Y-125283885D01*
X131511279Y-125283885D02*
X131558898Y-125474361D01*
X131558898Y-125474361D02*
X131654136Y-125569600D01*
X131654136Y-125569600D02*
X131749374Y-125617219D01*
X131749374Y-125617219D02*
X131939850Y-125617219D01*
X131939850Y-125617219D02*
X132035088Y-125569600D01*
X132035088Y-125569600D02*
X132130326Y-125474361D01*
X132130326Y-125474361D02*
X132177945Y-125283885D01*
X132177945Y-125283885D02*
X132177945Y-124950552D01*
X132177945Y-124950552D02*
X132130326Y-124760076D01*
X132130326Y-124760076D02*
X132035088Y-124664838D01*
X132035088Y-124664838D02*
X131939850Y-124617219D01*
X131939850Y-142117219D02*
X131749374Y-142117219D01*
X131749374Y-142117219D02*
X131654136Y-142164838D01*
X131654136Y-142164838D02*
X131558898Y-142260076D01*
X131558898Y-142260076D02*
X131511279Y-142450552D01*
X131511279Y-142450552D02*
X131511279Y-142783885D01*
X131511279Y-142783885D02*
X131558898Y-142974361D01*
X131558898Y-142974361D02*
X131654136Y-143069600D01*
X131654136Y-143069600D02*
X131749374Y-143117219D01*
X131749374Y-143117219D02*
X131939850Y-143117219D01*
X131939850Y-143117219D02*
X132035088Y-143069600D01*
X132035088Y-143069600D02*
X132130326Y-142974361D01*
X132130326Y-142974361D02*
X132177945Y-142783885D01*
X132177945Y-142783885D02*
X132177945Y-142450552D01*
X132177945Y-142450552D02*
X132130326Y-142260076D01*
X132130326Y-142260076D02*
X132035088Y-142164838D01*
X132035088Y-142164838D02*
X131939850Y-142117219D01*
G36*
X127678405Y-139326075D02*
G01*
X126470803Y-139326075D01*
X126470803Y-138578457D01*
X126604136Y-138578457D01*
X126604136Y-138864171D01*
X126606057Y-138883680D01*
X126607432Y-138887000D01*
X126607687Y-138890584D01*
X126614693Y-138908892D01*
X126671836Y-139023179D01*
X126677122Y-139031577D01*
X126678132Y-139034014D01*
X126680383Y-139036757D01*
X126682279Y-139039769D01*
X126684276Y-139041501D01*
X126690568Y-139049168D01*
X126747711Y-139106310D01*
X126755380Y-139112605D01*
X126757111Y-139114600D01*
X126760116Y-139116491D01*
X126762864Y-139118747D01*
X126765305Y-139119758D01*
X126773701Y-139125043D01*
X126887986Y-139182185D01*
X126906294Y-139189191D01*
X126909877Y-139189445D01*
X126913198Y-139190821D01*
X126932707Y-139192742D01*
X127275564Y-139192742D01*
X127295073Y-139190821D01*
X127298393Y-139189445D01*
X127301976Y-139189191D01*
X127320285Y-139182185D01*
X127434571Y-139125043D01*
X127442967Y-139119757D01*
X127445407Y-139118747D01*
X127448153Y-139116493D01*
X127451161Y-139114600D01*
X127452891Y-139112605D01*
X127460561Y-139106311D01*
X127517703Y-139049168D01*
X127530140Y-139034015D01*
X127545071Y-138997966D01*
X127545071Y-138958948D01*
X127530140Y-138922900D01*
X127502550Y-138895310D01*
X127466502Y-138880379D01*
X127427484Y-138880379D01*
X127391435Y-138895310D01*
X127376282Y-138907747D01*
X127330613Y-138953414D01*
X127251957Y-138992742D01*
X126956314Y-138992742D01*
X126877657Y-138953414D01*
X126843464Y-138919220D01*
X126804136Y-138840564D01*
X126804136Y-138602064D01*
X126843464Y-138523407D01*
X126877656Y-138489214D01*
X126956314Y-138449885D01*
X127104136Y-138449885D01*
X127114453Y-138448869D01*
X127117078Y-138449044D01*
X127118885Y-138448432D01*
X127123645Y-138447964D01*
X127138650Y-138441748D01*
X127154039Y-138436544D01*
X127156578Y-138434322D01*
X127159693Y-138433032D01*
X127171177Y-138421547D01*
X127183403Y-138410850D01*
X127184898Y-138407826D01*
X127187283Y-138405442D01*
X127193499Y-138390435D01*
X127200700Y-138375875D01*
X127200924Y-138372509D01*
X127202215Y-138369394D01*
X127202215Y-138353145D01*
X127203295Y-138336943D01*
X127202215Y-138333749D01*
X127202215Y-138330376D01*
X127195999Y-138315370D01*
X127190795Y-138299982D01*
X127188013Y-138296091D01*
X127187283Y-138294328D01*
X127185423Y-138292468D01*
X127179394Y-138284035D01*
X126924513Y-137992742D01*
X127446993Y-137992742D01*
X127466502Y-137990821D01*
X127502550Y-137975889D01*
X127530140Y-137948299D01*
X127545072Y-137912251D01*
X127545072Y-137873233D01*
X127530140Y-137837185D01*
X127502550Y-137809595D01*
X127466502Y-137794663D01*
X127446993Y-137792742D01*
X126704136Y-137792742D01*
X126693818Y-137793757D01*
X126691194Y-137793583D01*
X126689386Y-137794194D01*
X126684627Y-137794663D01*
X126669621Y-137800878D01*
X126654233Y-137806083D01*
X126651693Y-137808304D01*
X126648579Y-137809595D01*
X126637094Y-137821079D01*
X126624869Y-137831777D01*
X126623373Y-137834800D01*
X126620989Y-137837185D01*
X126614772Y-137852191D01*
X126607572Y-137866752D01*
X126607347Y-137870117D01*
X126606057Y-137873233D01*
X126606057Y-137889481D01*
X126604977Y-137905684D01*
X126606057Y-137908877D01*
X126606057Y-137912251D01*
X126612272Y-137927256D01*
X126617477Y-137942645D01*
X126620258Y-137946535D01*
X126620989Y-137948299D01*
X126622848Y-137950158D01*
X126628878Y-137958592D01*
X126891739Y-138259005D01*
X126887986Y-138260442D01*
X126773700Y-138317585D01*
X126765302Y-138322870D01*
X126762864Y-138323881D01*
X126760119Y-138326133D01*
X126757110Y-138328028D01*
X126755377Y-138330025D01*
X126747711Y-138336318D01*
X126690568Y-138393460D01*
X126684276Y-138401126D01*
X126682279Y-138402859D01*
X126680383Y-138405870D01*
X126678132Y-138408614D01*
X126677122Y-138411050D01*
X126671836Y-138419449D01*
X126614693Y-138533736D01*
X126607687Y-138552044D01*
X126607432Y-138555627D01*
X126606057Y-138558948D01*
X126604136Y-138578457D01*
X126470803Y-138578457D01*
X126470803Y-137659409D01*
X127678405Y-137659409D01*
X127678405Y-139326075D01*
G37*
X133689850Y-136867219D02*
X133499374Y-136867219D01*
X133499374Y-136867219D02*
X133404136Y-136914838D01*
X133404136Y-136914838D02*
X133308898Y-137010076D01*
X133308898Y-137010076D02*
X133261279Y-137200552D01*
X133261279Y-137200552D02*
X133261279Y-137533885D01*
X133261279Y-137533885D02*
X133308898Y-137724361D01*
X133308898Y-137724361D02*
X133404136Y-137819600D01*
X133404136Y-137819600D02*
X133499374Y-137867219D01*
X133499374Y-137867219D02*
X133689850Y-137867219D01*
X133689850Y-137867219D02*
X133785088Y-137819600D01*
X133785088Y-137819600D02*
X133880326Y-137724361D01*
X133880326Y-137724361D02*
X133927945Y-137533885D01*
X133927945Y-137533885D02*
X133927945Y-137200552D01*
X133927945Y-137200552D02*
X133880326Y-137010076D01*
X133880326Y-137010076D02*
X133785088Y-136914838D01*
X133785088Y-136914838D02*
X133689850Y-136867219D01*
X138332707Y-56317742D02*
X138332707Y-55117742D01*
X138332707Y-55117742D02*
X137875564Y-55117742D01*
X137875564Y-55117742D02*
X137761279Y-55174885D01*
X137761279Y-55174885D02*
X137704136Y-55232028D01*
X137704136Y-55232028D02*
X137646993Y-55346314D01*
X137646993Y-55346314D02*
X137646993Y-55517742D01*
X137646993Y-55517742D02*
X137704136Y-55632028D01*
X137704136Y-55632028D02*
X137761279Y-55689171D01*
X137761279Y-55689171D02*
X137875564Y-55746314D01*
X137875564Y-55746314D02*
X138332707Y-55746314D01*
X137132707Y-56317742D02*
X137132707Y-55517742D01*
X137132707Y-55746314D02*
X137075564Y-55632028D01*
X137075564Y-55632028D02*
X137018422Y-55574885D01*
X137018422Y-55574885D02*
X136904136Y-55517742D01*
X136904136Y-55517742D02*
X136789850Y-55517742D01*
X136218422Y-56317742D02*
X136332707Y-56260600D01*
X136332707Y-56260600D02*
X136389850Y-56203457D01*
X136389850Y-56203457D02*
X136446993Y-56089171D01*
X136446993Y-56089171D02*
X136446993Y-55746314D01*
X136446993Y-55746314D02*
X136389850Y-55632028D01*
X136389850Y-55632028D02*
X136332707Y-55574885D01*
X136332707Y-55574885D02*
X136218422Y-55517742D01*
X136218422Y-55517742D02*
X136046993Y-55517742D01*
X136046993Y-55517742D02*
X135932707Y-55574885D01*
X135932707Y-55574885D02*
X135875565Y-55632028D01*
X135875565Y-55632028D02*
X135818422Y-55746314D01*
X135818422Y-55746314D02*
X135818422Y-56089171D01*
X135818422Y-56089171D02*
X135875565Y-56203457D01*
X135875565Y-56203457D02*
X135932707Y-56260600D01*
X135932707Y-56260600D02*
X136046993Y-56317742D01*
X136046993Y-56317742D02*
X136218422Y-56317742D01*
X135304136Y-55517742D02*
X135304136Y-56546314D01*
X135304136Y-56546314D02*
X135361279Y-56660600D01*
X135361279Y-56660600D02*
X135475565Y-56717742D01*
X135475565Y-56717742D02*
X135532708Y-56717742D01*
X135304136Y-55117742D02*
X135361279Y-55174885D01*
X135361279Y-55174885D02*
X135304136Y-55232028D01*
X135304136Y-55232028D02*
X135246993Y-55174885D01*
X135246993Y-55174885D02*
X135304136Y-55117742D01*
X135304136Y-55117742D02*
X135304136Y-55232028D01*
X134275564Y-56260600D02*
X134389850Y-56317742D01*
X134389850Y-56317742D02*
X134618422Y-56317742D01*
X134618422Y-56317742D02*
X134732707Y-56260600D01*
X134732707Y-56260600D02*
X134789850Y-56146314D01*
X134789850Y-56146314D02*
X134789850Y-55689171D01*
X134789850Y-55689171D02*
X134732707Y-55574885D01*
X134732707Y-55574885D02*
X134618422Y-55517742D01*
X134618422Y-55517742D02*
X134389850Y-55517742D01*
X134389850Y-55517742D02*
X134275564Y-55574885D01*
X134275564Y-55574885D02*
X134218422Y-55689171D01*
X134218422Y-55689171D02*
X134218422Y-55803457D01*
X134218422Y-55803457D02*
X134789850Y-55917742D01*
X133189851Y-56260600D02*
X133304136Y-56317742D01*
X133304136Y-56317742D02*
X133532708Y-56317742D01*
X133532708Y-56317742D02*
X133646993Y-56260600D01*
X133646993Y-56260600D02*
X133704136Y-56203457D01*
X133704136Y-56203457D02*
X133761279Y-56089171D01*
X133761279Y-56089171D02*
X133761279Y-55746314D01*
X133761279Y-55746314D02*
X133704136Y-55632028D01*
X133704136Y-55632028D02*
X133646993Y-55574885D01*
X133646993Y-55574885D02*
X133532708Y-55517742D01*
X133532708Y-55517742D02*
X133304136Y-55517742D01*
X133304136Y-55517742D02*
X133189851Y-55574885D01*
X132846994Y-55517742D02*
X132389851Y-55517742D01*
X132675565Y-55117742D02*
X132675565Y-56146314D01*
X132675565Y-56146314D02*
X132618422Y-56260600D01*
X132618422Y-56260600D02*
X132504137Y-56317742D01*
X132504137Y-56317742D02*
X132389851Y-56317742D01*
X140082707Y-136117219D02*
X139892231Y-136117219D01*
X139892231Y-136117219D02*
X139796993Y-136069600D01*
X139796993Y-136069600D02*
X139749374Y-136021980D01*
X139749374Y-136021980D02*
X139654136Y-135879123D01*
X139654136Y-135879123D02*
X139606517Y-135688647D01*
X139606517Y-135688647D02*
X139606517Y-135307695D01*
X139606517Y-135307695D02*
X139654136Y-135212457D01*
X139654136Y-135212457D02*
X139701755Y-135164838D01*
X139701755Y-135164838D02*
X139796993Y-135117219D01*
X139796993Y-135117219D02*
X139987469Y-135117219D01*
X139987469Y-135117219D02*
X140082707Y-135164838D01*
X140082707Y-135164838D02*
X140130326Y-135212457D01*
X140130326Y-135212457D02*
X140177945Y-135307695D01*
X140177945Y-135307695D02*
X140177945Y-135545790D01*
X140177945Y-135545790D02*
X140130326Y-135641028D01*
X140130326Y-135641028D02*
X140082707Y-135688647D01*
X140082707Y-135688647D02*
X139987469Y-135736266D01*
X139987469Y-135736266D02*
X139796993Y-135736266D01*
X139796993Y-135736266D02*
X139701755Y-135688647D01*
X139701755Y-135688647D02*
X139654136Y-135641028D01*
X139654136Y-135641028D02*
X139606517Y-135545790D01*
X135439850Y-129867219D02*
X135249374Y-129867219D01*
X135249374Y-129867219D02*
X135154136Y-129914838D01*
X135154136Y-129914838D02*
X135058898Y-130010076D01*
X135058898Y-130010076D02*
X135011279Y-130200552D01*
X135011279Y-130200552D02*
X135011279Y-130533885D01*
X135011279Y-130533885D02*
X135058898Y-130724361D01*
X135058898Y-130724361D02*
X135154136Y-130819600D01*
X135154136Y-130819600D02*
X135249374Y-130867219D01*
X135249374Y-130867219D02*
X135439850Y-130867219D01*
X135439850Y-130867219D02*
X135535088Y-130819600D01*
X135535088Y-130819600D02*
X135630326Y-130724361D01*
X135630326Y-130724361D02*
X135677945Y-130533885D01*
X135677945Y-130533885D02*
X135677945Y-130200552D01*
X135677945Y-130200552D02*
X135630326Y-130010076D01*
X135630326Y-130010076D02*
X135535088Y-129914838D01*
X135535088Y-129914838D02*
X135439850Y-129867219D01*
X135296993Y-135593409D02*
X135630326Y-135593409D01*
X135630326Y-136117219D02*
X135630326Y-135117219D01*
X135630326Y-135117219D02*
X135154136Y-135117219D01*
X130504136Y-57935809D02*
X129818422Y-57935809D01*
X130161279Y-59135809D02*
X130161279Y-57935809D01*
X129532707Y-58335809D02*
X129304136Y-59135809D01*
X129304136Y-59135809D02*
X129075564Y-58564381D01*
X129075564Y-58564381D02*
X128846993Y-59135809D01*
X128846993Y-59135809D02*
X128618421Y-58335809D01*
X127704135Y-59078667D02*
X127818421Y-59135809D01*
X127818421Y-59135809D02*
X128046993Y-59135809D01*
X128046993Y-59135809D02*
X128161278Y-59078667D01*
X128161278Y-59078667D02*
X128218421Y-58964381D01*
X128218421Y-58964381D02*
X128218421Y-58507238D01*
X128218421Y-58507238D02*
X128161278Y-58392952D01*
X128161278Y-58392952D02*
X128046993Y-58335809D01*
X128046993Y-58335809D02*
X127818421Y-58335809D01*
X127818421Y-58335809D02*
X127704135Y-58392952D01*
X127704135Y-58392952D02*
X127646993Y-58507238D01*
X127646993Y-58507238D02*
X127646993Y-58621524D01*
X127646993Y-58621524D02*
X128218421Y-58735809D01*
X126561279Y-59135809D02*
X127132707Y-59135809D01*
X127132707Y-59135809D02*
X127132707Y-57935809D01*
X126161278Y-59135809D02*
X126161278Y-58335809D01*
X126161278Y-57935809D02*
X126218421Y-57992952D01*
X126218421Y-57992952D02*
X126161278Y-58050095D01*
X126161278Y-58050095D02*
X126104135Y-57992952D01*
X126104135Y-57992952D02*
X126161278Y-57935809D01*
X126161278Y-57935809D02*
X126161278Y-58050095D01*
X125761278Y-58335809D02*
X125304135Y-58335809D01*
X125589849Y-57935809D02*
X125589849Y-58964381D01*
X125589849Y-58964381D02*
X125532706Y-59078667D01*
X125532706Y-59078667D02*
X125418421Y-59135809D01*
X125418421Y-59135809D02*
X125304135Y-59135809D01*
X124446992Y-59078667D02*
X124561278Y-59135809D01*
X124561278Y-59135809D02*
X124789850Y-59135809D01*
X124789850Y-59135809D02*
X124904135Y-59078667D01*
X124904135Y-59078667D02*
X124961278Y-58964381D01*
X124961278Y-58964381D02*
X124961278Y-58507238D01*
X124961278Y-58507238D02*
X124904135Y-58392952D01*
X124904135Y-58392952D02*
X124789850Y-58335809D01*
X124789850Y-58335809D02*
X124561278Y-58335809D01*
X124561278Y-58335809D02*
X124446992Y-58392952D01*
X124446992Y-58392952D02*
X124389850Y-58507238D01*
X124389850Y-58507238D02*
X124389850Y-58621524D01*
X124389850Y-58621524D02*
X124961278Y-58735809D01*
X130332707Y-61067742D02*
X130332707Y-59867742D01*
X130332707Y-59867742D02*
X129932707Y-60724885D01*
X129932707Y-60724885D02*
X129532707Y-59867742D01*
X129532707Y-59867742D02*
X129532707Y-61067742D01*
X128446993Y-61067742D02*
X128446993Y-60439171D01*
X128446993Y-60439171D02*
X128504135Y-60324885D01*
X128504135Y-60324885D02*
X128618421Y-60267742D01*
X128618421Y-60267742D02*
X128846993Y-60267742D01*
X128846993Y-60267742D02*
X128961278Y-60324885D01*
X128446993Y-61010600D02*
X128561278Y-61067742D01*
X128561278Y-61067742D02*
X128846993Y-61067742D01*
X128846993Y-61067742D02*
X128961278Y-61010600D01*
X128961278Y-61010600D02*
X129018421Y-60896314D01*
X129018421Y-60896314D02*
X129018421Y-60782028D01*
X129018421Y-60782028D02*
X128961278Y-60667742D01*
X128961278Y-60667742D02*
X128846993Y-60610600D01*
X128846993Y-60610600D02*
X128561278Y-60610600D01*
X128561278Y-60610600D02*
X128446993Y-60553457D01*
X127875564Y-61067742D02*
X127875564Y-60267742D01*
X127875564Y-59867742D02*
X127932707Y-59924885D01*
X127932707Y-59924885D02*
X127875564Y-59982028D01*
X127875564Y-59982028D02*
X127818421Y-59924885D01*
X127818421Y-59924885D02*
X127875564Y-59867742D01*
X127875564Y-59867742D02*
X127875564Y-59982028D01*
X127304135Y-60267742D02*
X127304135Y-61067742D01*
X127304135Y-60382028D02*
X127246992Y-60324885D01*
X127246992Y-60324885D02*
X127132707Y-60267742D01*
X127132707Y-60267742D02*
X126961278Y-60267742D01*
X126961278Y-60267742D02*
X126846992Y-60324885D01*
X126846992Y-60324885D02*
X126789850Y-60439171D01*
X126789850Y-60439171D02*
X126789850Y-61067742D01*
X124904135Y-60439171D02*
X124732707Y-60496314D01*
X124732707Y-60496314D02*
X124675564Y-60553457D01*
X124675564Y-60553457D02*
X124618421Y-60667742D01*
X124618421Y-60667742D02*
X124618421Y-60839171D01*
X124618421Y-60839171D02*
X124675564Y-60953457D01*
X124675564Y-60953457D02*
X124732707Y-61010600D01*
X124732707Y-61010600D02*
X124846992Y-61067742D01*
X124846992Y-61067742D02*
X125304135Y-61067742D01*
X125304135Y-61067742D02*
X125304135Y-59867742D01*
X125304135Y-59867742D02*
X124904135Y-59867742D01*
X124904135Y-59867742D02*
X124789850Y-59924885D01*
X124789850Y-59924885D02*
X124732707Y-59982028D01*
X124732707Y-59982028D02*
X124675564Y-60096314D01*
X124675564Y-60096314D02*
X124675564Y-60210600D01*
X124675564Y-60210600D02*
X124732707Y-60324885D01*
X124732707Y-60324885D02*
X124789850Y-60382028D01*
X124789850Y-60382028D02*
X124904135Y-60439171D01*
X124904135Y-60439171D02*
X125304135Y-60439171D01*
X123932707Y-61067742D02*
X124046992Y-61010600D01*
X124046992Y-61010600D02*
X124104135Y-60953457D01*
X124104135Y-60953457D02*
X124161278Y-60839171D01*
X124161278Y-60839171D02*
X124161278Y-60496314D01*
X124161278Y-60496314D02*
X124104135Y-60382028D01*
X124104135Y-60382028D02*
X124046992Y-60324885D01*
X124046992Y-60324885D02*
X123932707Y-60267742D01*
X123932707Y-60267742D02*
X123761278Y-60267742D01*
X123761278Y-60267742D02*
X123646992Y-60324885D01*
X123646992Y-60324885D02*
X123589850Y-60382028D01*
X123589850Y-60382028D02*
X123532707Y-60496314D01*
X123532707Y-60496314D02*
X123532707Y-60839171D01*
X123532707Y-60839171D02*
X123589850Y-60953457D01*
X123589850Y-60953457D02*
X123646992Y-61010600D01*
X123646992Y-61010600D02*
X123761278Y-61067742D01*
X123761278Y-61067742D02*
X123932707Y-61067742D01*
X122504136Y-61067742D02*
X122504136Y-60439171D01*
X122504136Y-60439171D02*
X122561278Y-60324885D01*
X122561278Y-60324885D02*
X122675564Y-60267742D01*
X122675564Y-60267742D02*
X122904136Y-60267742D01*
X122904136Y-60267742D02*
X123018421Y-60324885D01*
X122504136Y-61010600D02*
X122618421Y-61067742D01*
X122618421Y-61067742D02*
X122904136Y-61067742D01*
X122904136Y-61067742D02*
X123018421Y-61010600D01*
X123018421Y-61010600D02*
X123075564Y-60896314D01*
X123075564Y-60896314D02*
X123075564Y-60782028D01*
X123075564Y-60782028D02*
X123018421Y-60667742D01*
X123018421Y-60667742D02*
X122904136Y-60610600D01*
X122904136Y-60610600D02*
X122618421Y-60610600D01*
X122618421Y-60610600D02*
X122504136Y-60553457D01*
X121932707Y-61067742D02*
X121932707Y-60267742D01*
X121932707Y-60496314D02*
X121875564Y-60382028D01*
X121875564Y-60382028D02*
X121818422Y-60324885D01*
X121818422Y-60324885D02*
X121704136Y-60267742D01*
X121704136Y-60267742D02*
X121589850Y-60267742D01*
X120675565Y-61067742D02*
X120675565Y-59867742D01*
X120675565Y-61010600D02*
X120789850Y-61067742D01*
X120789850Y-61067742D02*
X121018422Y-61067742D01*
X121018422Y-61067742D02*
X121132707Y-61010600D01*
X121132707Y-61010600D02*
X121189850Y-60953457D01*
X121189850Y-60953457D02*
X121246993Y-60839171D01*
X121246993Y-60839171D02*
X121246993Y-60496314D01*
X121246993Y-60496314D02*
X121189850Y-60382028D01*
X121189850Y-60382028D02*
X121132707Y-60324885D01*
X121132707Y-60324885D02*
X121018422Y-60267742D01*
X121018422Y-60267742D02*
X120789850Y-60267742D01*
X120789850Y-60267742D02*
X120675565Y-60324885D01*
X140106517Y-139617219D02*
X140677945Y-139617219D01*
X140392231Y-139617219D02*
X140392231Y-138617219D01*
X140392231Y-138617219D02*
X140487469Y-138760076D01*
X140487469Y-138760076D02*
X140582707Y-138855314D01*
X140582707Y-138855314D02*
X140677945Y-138902933D01*
X139154136Y-139617219D02*
X139725564Y-139617219D01*
X139439850Y-139617219D02*
X139439850Y-138617219D01*
X139439850Y-138617219D02*
X139535088Y-138760076D01*
X139535088Y-138760076D02*
X139630326Y-138855314D01*
X139630326Y-138855314D02*
X139725564Y-138902933D01*
G36*
X132388270Y-118828330D02*
G01*
X131397327Y-118828330D01*
X131397327Y-118597710D01*
X131508438Y-118597710D01*
X131508438Y-118636728D01*
X131523370Y-118672776D01*
X131550960Y-118700366D01*
X131587008Y-118715298D01*
X131606517Y-118717219D01*
X132177945Y-118717219D01*
X132197454Y-118715298D01*
X132233502Y-118700366D01*
X132261092Y-118672776D01*
X132276024Y-118636728D01*
X132276024Y-118597710D01*
X132261092Y-118561662D01*
X132233502Y-118534072D01*
X132197454Y-118519140D01*
X132177945Y-118517219D01*
X131992231Y-118517219D01*
X131992231Y-117906260D01*
X132011996Y-117926025D01*
X132019662Y-117932316D01*
X132021395Y-117934314D01*
X132024406Y-117936209D01*
X132027150Y-117938461D01*
X132029587Y-117939470D01*
X132037986Y-117944757D01*
X132133223Y-117992376D01*
X132151532Y-117999382D01*
X132190452Y-118002148D01*
X132227468Y-117989809D01*
X132256945Y-117964244D01*
X132274394Y-117929346D01*
X132277159Y-117890426D01*
X132264821Y-117853410D01*
X132239256Y-117823933D01*
X132222666Y-117813490D01*
X132141944Y-117773129D01*
X132065180Y-117696365D01*
X131975436Y-117561749D01*
X131975391Y-117561694D01*
X131975378Y-117561662D01*
X131975304Y-117561588D01*
X131963016Y-117546582D01*
X131954787Y-117541071D01*
X131947788Y-117534072D01*
X131938736Y-117530322D01*
X131930596Y-117524871D01*
X131920888Y-117522929D01*
X131911740Y-117519140D01*
X131901941Y-117519140D01*
X131892336Y-117517219D01*
X131882625Y-117519140D01*
X131872722Y-117519140D01*
X131863669Y-117522889D01*
X131854059Y-117524791D01*
X131845820Y-117530283D01*
X131836674Y-117534072D01*
X131829747Y-117540998D01*
X131821594Y-117546434D01*
X131816083Y-117554662D01*
X131809084Y-117561662D01*
X131805334Y-117570713D01*
X131799883Y-117578854D01*
X131797941Y-117588561D01*
X131794152Y-117597710D01*
X131792251Y-117617012D01*
X131792231Y-117617114D01*
X131792237Y-117617148D01*
X131792231Y-117617219D01*
X131792231Y-118517219D01*
X131606517Y-118517219D01*
X131587008Y-118519140D01*
X131550960Y-118534072D01*
X131523370Y-118561662D01*
X131508438Y-118597710D01*
X131397327Y-118597710D01*
X131397327Y-117406108D01*
X132388270Y-117406108D01*
X132388270Y-118828330D01*
G37*
G36*
X130122398Y-139324154D02*
G01*
X128915581Y-139324154D01*
X128915581Y-138673233D01*
X129048914Y-138673233D01*
X129048914Y-138712251D01*
X129063846Y-138748299D01*
X129091436Y-138775889D01*
X129127484Y-138790821D01*
X129146993Y-138792742D01*
X129218422Y-138792742D01*
X129218422Y-139092742D01*
X129220343Y-139112251D01*
X129235275Y-139148299D01*
X129262865Y-139175889D01*
X129298913Y-139190821D01*
X129337931Y-139190821D01*
X129373979Y-139175889D01*
X129401569Y-139148299D01*
X129416501Y-139112251D01*
X129418422Y-139092742D01*
X129418422Y-138792742D01*
X129889850Y-138792742D01*
X129899723Y-138791769D01*
X129902357Y-138791957D01*
X129904258Y-138791323D01*
X129909359Y-138790821D01*
X129924163Y-138784688D01*
X129939373Y-138779619D01*
X129942088Y-138777263D01*
X129945407Y-138775889D01*
X129956737Y-138764558D01*
X129968849Y-138754054D01*
X129970456Y-138750839D01*
X129972997Y-138748299D01*
X129979131Y-138733490D01*
X129986299Y-138719155D01*
X129986553Y-138715571D01*
X129987929Y-138712251D01*
X129987929Y-138696219D01*
X129989065Y-138680235D01*
X129987929Y-138675239D01*
X129987929Y-138673233D01*
X129986917Y-138670790D01*
X129984718Y-138661119D01*
X129699004Y-137803977D01*
X129691013Y-137786077D01*
X129665448Y-137756601D01*
X129630549Y-137739151D01*
X129591629Y-137736385D01*
X129554613Y-137748723D01*
X129525137Y-137774288D01*
X129507687Y-137809187D01*
X129504921Y-137848107D01*
X129509268Y-137867223D01*
X129751108Y-138592742D01*
X129418422Y-138592742D01*
X129418422Y-138292742D01*
X129416501Y-138273233D01*
X129401569Y-138237185D01*
X129373979Y-138209595D01*
X129337931Y-138194663D01*
X129298913Y-138194663D01*
X129262865Y-138209595D01*
X129235275Y-138237185D01*
X129220343Y-138273233D01*
X129218422Y-138292742D01*
X129218422Y-138592742D01*
X129146993Y-138592742D01*
X129127484Y-138594663D01*
X129091436Y-138609595D01*
X129063846Y-138637185D01*
X129048914Y-138673233D01*
X128915581Y-138673233D01*
X128915581Y-137603052D01*
X130122398Y-137603052D01*
X130122398Y-139324154D01*
G37*
X139606517Y-122117219D02*
X140177945Y-122117219D01*
X139892231Y-122117219D02*
X139892231Y-121117219D01*
X139892231Y-121117219D02*
X139987469Y-121260076D01*
X139987469Y-121260076D02*
X140082707Y-121355314D01*
X140082707Y-121355314D02*
X140177945Y-121402933D01*
X135439850Y-128117219D02*
X135249374Y-128117219D01*
X135249374Y-128117219D02*
X135154136Y-128164838D01*
X135154136Y-128164838D02*
X135058898Y-128260076D01*
X135058898Y-128260076D02*
X135011279Y-128450552D01*
X135011279Y-128450552D02*
X135011279Y-128783885D01*
X135011279Y-128783885D02*
X135058898Y-128974361D01*
X135058898Y-128974361D02*
X135154136Y-129069600D01*
X135154136Y-129069600D02*
X135249374Y-129117219D01*
X135249374Y-129117219D02*
X135439850Y-129117219D01*
X135439850Y-129117219D02*
X135535088Y-129069600D01*
X135535088Y-129069600D02*
X135630326Y-128974361D01*
X135630326Y-128974361D02*
X135677945Y-128783885D01*
X135677945Y-128783885D02*
X135677945Y-128450552D01*
X135677945Y-128450552D02*
X135630326Y-128260076D01*
X135630326Y-128260076D02*
X135535088Y-128164838D01*
X135535088Y-128164838D02*
X135439850Y-128117219D01*
X139701755Y-129867219D02*
X139892231Y-129867219D01*
X139892231Y-129867219D02*
X139987469Y-129914838D01*
X139987469Y-129914838D02*
X140035088Y-129962457D01*
X140035088Y-129962457D02*
X140130326Y-130105314D01*
X140130326Y-130105314D02*
X140177945Y-130295790D01*
X140177945Y-130295790D02*
X140177945Y-130676742D01*
X140177945Y-130676742D02*
X140130326Y-130771980D01*
X140130326Y-130771980D02*
X140082707Y-130819600D01*
X140082707Y-130819600D02*
X139987469Y-130867219D01*
X139987469Y-130867219D02*
X139796993Y-130867219D01*
X139796993Y-130867219D02*
X139701755Y-130819600D01*
X139701755Y-130819600D02*
X139654136Y-130771980D01*
X139654136Y-130771980D02*
X139606517Y-130676742D01*
X139606517Y-130676742D02*
X139606517Y-130438647D01*
X139606517Y-130438647D02*
X139654136Y-130343409D01*
X139654136Y-130343409D02*
X139701755Y-130295790D01*
X139701755Y-130295790D02*
X139796993Y-130248171D01*
X139796993Y-130248171D02*
X139987469Y-130248171D01*
X139987469Y-130248171D02*
X140082707Y-130295790D01*
X140082707Y-130295790D02*
X140130326Y-130343409D01*
X140130326Y-130343409D02*
X140177945Y-130438647D01*
X131796993Y-137343409D02*
X132130326Y-137343409D01*
X132130326Y-137867219D02*
X132130326Y-136867219D01*
X132130326Y-136867219D02*
X131654136Y-136867219D01*
X133546993Y-135593409D02*
X133880326Y-135593409D01*
X133880326Y-136117219D02*
X133880326Y-135117219D01*
X133880326Y-135117219D02*
X133404136Y-135117219D01*
X139939850Y-119367219D02*
X139844612Y-119367219D01*
X139844612Y-119367219D02*
X139749374Y-119414838D01*
X139749374Y-119414838D02*
X139701755Y-119462457D01*
X139701755Y-119462457D02*
X139654136Y-119557695D01*
X139654136Y-119557695D02*
X139606517Y-119748171D01*
X139606517Y-119748171D02*
X139606517Y-119986266D01*
X139606517Y-119986266D02*
X139654136Y-120176742D01*
X139654136Y-120176742D02*
X139701755Y-120271980D01*
X139701755Y-120271980D02*
X139749374Y-120319600D01*
X139749374Y-120319600D02*
X139844612Y-120367219D01*
X139844612Y-120367219D02*
X139939850Y-120367219D01*
X139939850Y-120367219D02*
X140035088Y-120319600D01*
X140035088Y-120319600D02*
X140082707Y-120271980D01*
X140082707Y-120271980D02*
X140130326Y-120176742D01*
X140130326Y-120176742D02*
X140177945Y-119986266D01*
X140177945Y-119986266D02*
X140177945Y-119748171D01*
X140177945Y-119748171D02*
X140130326Y-119557695D01*
X140130326Y-119557695D02*
X140082707Y-119462457D01*
X140082707Y-119462457D02*
X140035088Y-119414838D01*
X140035088Y-119414838D02*
X139939850Y-119367219D01*
X140106517Y-137867219D02*
X140677945Y-137867219D01*
X140392231Y-137867219D02*
X140392231Y-136867219D01*
X140392231Y-136867219D02*
X140487469Y-137010076D01*
X140487469Y-137010076D02*
X140582707Y-137105314D01*
X140582707Y-137105314D02*
X140677945Y-137152933D01*
X139487469Y-136867219D02*
X139392231Y-136867219D01*
X139392231Y-136867219D02*
X139296993Y-136914838D01*
X139296993Y-136914838D02*
X139249374Y-136962457D01*
X139249374Y-136962457D02*
X139201755Y-137057695D01*
X139201755Y-137057695D02*
X139154136Y-137248171D01*
X139154136Y-137248171D02*
X139154136Y-137486266D01*
X139154136Y-137486266D02*
X139201755Y-137676742D01*
X139201755Y-137676742D02*
X139249374Y-137771980D01*
X139249374Y-137771980D02*
X139296993Y-137819600D01*
X139296993Y-137819600D02*
X139392231Y-137867219D01*
X139392231Y-137867219D02*
X139487469Y-137867219D01*
X139487469Y-137867219D02*
X139582707Y-137819600D01*
X139582707Y-137819600D02*
X139630326Y-137771980D01*
X139630326Y-137771980D02*
X139677945Y-137676742D01*
X139677945Y-137676742D02*
X139725564Y-137486266D01*
X139725564Y-137486266D02*
X139725564Y-137248171D01*
X139725564Y-137248171D02*
X139677945Y-137057695D01*
X139677945Y-137057695D02*
X139630326Y-136962457D01*
X139630326Y-136962457D02*
X139582707Y-136914838D01*
X139582707Y-136914838D02*
X139487469Y-136867219D01*
X131939850Y-128117219D02*
X131749374Y-128117219D01*
X131749374Y-128117219D02*
X131654136Y-128164838D01*
X131654136Y-128164838D02*
X131558898Y-128260076D01*
X131558898Y-128260076D02*
X131511279Y-128450552D01*
X131511279Y-128450552D02*
X131511279Y-128783885D01*
X131511279Y-128783885D02*
X131558898Y-128974361D01*
X131558898Y-128974361D02*
X131654136Y-129069600D01*
X131654136Y-129069600D02*
X131749374Y-129117219D01*
X131749374Y-129117219D02*
X131939850Y-129117219D01*
X131939850Y-129117219D02*
X132035088Y-129069600D01*
X132035088Y-129069600D02*
X132130326Y-128974361D01*
X132130326Y-128974361D02*
X132177945Y-128783885D01*
X132177945Y-128783885D02*
X132177945Y-128450552D01*
X132177945Y-128450552D02*
X132130326Y-128260076D01*
X132130326Y-128260076D02*
X132035088Y-128164838D01*
X132035088Y-128164838D02*
X131939850Y-128117219D01*
X135296993Y-125093409D02*
X135630326Y-125093409D01*
X135630326Y-125617219D02*
X135630326Y-124617219D01*
X135630326Y-124617219D02*
X135154136Y-124617219D01*
X140106517Y-146617219D02*
X140677945Y-146617219D01*
X140392231Y-146617219D02*
X140392231Y-145617219D01*
X140392231Y-145617219D02*
X140487469Y-145760076D01*
X140487469Y-145760076D02*
X140582707Y-145855314D01*
X140582707Y-145855314D02*
X140677945Y-145902933D01*
X139201755Y-145617219D02*
X139677945Y-145617219D01*
X139677945Y-145617219D02*
X139725564Y-146093409D01*
X139725564Y-146093409D02*
X139677945Y-146045790D01*
X139677945Y-146045790D02*
X139582707Y-145998171D01*
X139582707Y-145998171D02*
X139344612Y-145998171D01*
X139344612Y-145998171D02*
X139249374Y-146045790D01*
X139249374Y-146045790D02*
X139201755Y-146093409D01*
X139201755Y-146093409D02*
X139154136Y-146188647D01*
X139154136Y-146188647D02*
X139154136Y-146426742D01*
X139154136Y-146426742D02*
X139201755Y-146521980D01*
X139201755Y-146521980D02*
X139249374Y-146569600D01*
X139249374Y-146569600D02*
X139344612Y-146617219D01*
X139344612Y-146617219D02*
X139582707Y-146617219D01*
X139582707Y-146617219D02*
X139677945Y-146569600D01*
X139677945Y-146569600D02*
X139725564Y-146521980D01*
X137046993Y-130343409D02*
X137380326Y-130343409D01*
X137380326Y-130867219D02*
X137380326Y-129867219D01*
X137380326Y-129867219D02*
X136904136Y-129867219D01*
G36*
X112354136Y-136742742D02*
G01*
X112184649Y-136742742D01*
X112051011Y-136698197D01*
X111964894Y-136612079D01*
X111919916Y-136522123D01*
X111868422Y-136316147D01*
X111868422Y-136169338D01*
X111919916Y-135963362D01*
X111964894Y-135873405D01*
X112051011Y-135787287D01*
X112184649Y-135742742D01*
X112354136Y-135742742D01*
X112354136Y-136742742D01*
G37*
G36*
X114737756Y-136182070D02*
G01*
X114771950Y-136216263D01*
X114811279Y-136294921D01*
X114811279Y-136590563D01*
X114771950Y-136669221D01*
X114737756Y-136703414D01*
X114659101Y-136742742D01*
X114534886Y-136742742D01*
X114456229Y-136703414D01*
X114422037Y-136669222D01*
X114382708Y-136590564D01*
X114382708Y-136294921D01*
X114422037Y-136216263D01*
X114456229Y-136182070D01*
X114534887Y-136142742D01*
X114659100Y-136142742D01*
X114737756Y-136182070D01*
G37*
G36*
X117865314Y-136174420D02*
G01*
X117896993Y-136237778D01*
X117896993Y-136320761D01*
X117525565Y-136246476D01*
X117525565Y-136237777D01*
X117557242Y-136174420D01*
X117620601Y-136142742D01*
X117801957Y-136142742D01*
X117865314Y-136174420D01*
G37*
G36*
X119373183Y-137076075D02*
G01*
X111535089Y-137076075D01*
X111535089Y-136157028D01*
X111668422Y-136157028D01*
X111668422Y-136328457D01*
X111668757Y-136331859D01*
X111668540Y-136333318D01*
X111669619Y-136340615D01*
X111670343Y-136347966D01*
X111670907Y-136349329D01*
X111671408Y-136352711D01*
X111728551Y-136581282D01*
X111729064Y-136582720D01*
X111729116Y-136583441D01*
X111732219Y-136591551D01*
X111735146Y-136599743D01*
X111735576Y-136600324D01*
X111736122Y-136601749D01*
X111793265Y-136716036D01*
X111798549Y-136724430D01*
X111799560Y-136726871D01*
X111801814Y-136729617D01*
X111803708Y-136732626D01*
X111805704Y-136734357D01*
X111811997Y-136742024D01*
X111926282Y-136856310D01*
X111941435Y-136868747D01*
X111944754Y-136870122D01*
X111947470Y-136872477D01*
X111965371Y-136880468D01*
X112136800Y-136937611D01*
X112146472Y-136939810D01*
X112148913Y-136940821D01*
X112152450Y-136941169D01*
X112155915Y-136941957D01*
X112158548Y-136941769D01*
X112168422Y-136942742D01*
X112454136Y-136942742D01*
X112473645Y-136940821D01*
X112509693Y-136925889D01*
X112537283Y-136898299D01*
X112552215Y-136862251D01*
X112554136Y-136842742D01*
X112554136Y-135642742D01*
X112925565Y-135642742D01*
X112925565Y-136842742D01*
X112927486Y-136862251D01*
X112942418Y-136898299D01*
X112970008Y-136925889D01*
X113006056Y-136940821D01*
X113045074Y-136940821D01*
X113081122Y-136925889D01*
X113108712Y-136898299D01*
X113123644Y-136862251D01*
X113125565Y-136842742D01*
X113125565Y-136023233D01*
X113327486Y-136023233D01*
X113327486Y-136062251D01*
X113342418Y-136098299D01*
X113370008Y-136125889D01*
X113406056Y-136140821D01*
X113425565Y-136142742D01*
X113516244Y-136142742D01*
X113594901Y-136182070D01*
X113629092Y-136216262D01*
X113668422Y-136294921D01*
X113668422Y-136842742D01*
X113670343Y-136862251D01*
X113685275Y-136898299D01*
X113712865Y-136925889D01*
X113748913Y-136940821D01*
X113787931Y-136940821D01*
X113823979Y-136925889D01*
X113851569Y-136898299D01*
X113866501Y-136862251D01*
X113868422Y-136842742D01*
X113868422Y-136271314D01*
X114182708Y-136271314D01*
X114182708Y-136614171D01*
X114184629Y-136633680D01*
X114186004Y-136637000D01*
X114186259Y-136640584D01*
X114193265Y-136658892D01*
X114250408Y-136773179D01*
X114255692Y-136781573D01*
X114256703Y-136784014D01*
X114258957Y-136786760D01*
X114260851Y-136789769D01*
X114262847Y-136791500D01*
X114269140Y-136799167D01*
X114326282Y-136856310D01*
X114333951Y-136862604D01*
X114335682Y-136864600D01*
X114338687Y-136866491D01*
X114341435Y-136868747D01*
X114343876Y-136869758D01*
X114352272Y-136875043D01*
X114466558Y-136932185D01*
X114484867Y-136939191D01*
X114488449Y-136939445D01*
X114491770Y-136940821D01*
X114511279Y-136942742D01*
X114682708Y-136942742D01*
X114702217Y-136940821D01*
X114705537Y-136939445D01*
X114709121Y-136939191D01*
X114727429Y-136932185D01*
X114841714Y-136875043D01*
X114850110Y-136869757D01*
X114852550Y-136868747D01*
X114855296Y-136866493D01*
X114858304Y-136864600D01*
X114860034Y-136862605D01*
X114867704Y-136856311D01*
X114924846Y-136799168D01*
X114931138Y-136791501D01*
X114933136Y-136789769D01*
X114935029Y-136786760D01*
X114937283Y-136784015D01*
X114938293Y-136781574D01*
X114943579Y-136773178D01*
X115000722Y-136658892D01*
X115007728Y-136640584D01*
X115007982Y-136637000D01*
X115009358Y-136633680D01*
X115011279Y-136614171D01*
X115268422Y-136614171D01*
X115268422Y-136671314D01*
X115270343Y-136690823D01*
X115271718Y-136694143D01*
X115271973Y-136697727D01*
X115278979Y-136716035D01*
X115336122Y-136830322D01*
X115338175Y-136833585D01*
X115338689Y-136835124D01*
X115340350Y-136837040D01*
X115346565Y-136846912D01*
X115356039Y-136855128D01*
X115364254Y-136864600D01*
X115374125Y-136870813D01*
X115376042Y-136872476D01*
X115377580Y-136872989D01*
X115380844Y-136875043D01*
X115495130Y-136932185D01*
X115513439Y-136939191D01*
X115517021Y-136939445D01*
X115520342Y-136940821D01*
X115539851Y-136942742D01*
X115768422Y-136942742D01*
X115787931Y-136940821D01*
X115791251Y-136939445D01*
X115794834Y-136939191D01*
X115813143Y-136932185D01*
X115927429Y-136875043D01*
X115944019Y-136864600D01*
X115969584Y-136835124D01*
X115981923Y-136798108D01*
X115979157Y-136759188D01*
X115961708Y-136724289D01*
X115932232Y-136698724D01*
X115895216Y-136686385D01*
X115856296Y-136689151D01*
X115837987Y-136696157D01*
X115744815Y-136742742D01*
X115563458Y-136742742D01*
X115500100Y-136711063D01*
X115468422Y-136647707D01*
X115468422Y-136637778D01*
X115500100Y-136574420D01*
X115563459Y-136542742D01*
X115711280Y-136542742D01*
X115730789Y-136540821D01*
X115734109Y-136539445D01*
X115737693Y-136539191D01*
X115756001Y-136532185D01*
X115870286Y-136475043D01*
X115873549Y-136472989D01*
X115875088Y-136472476D01*
X115877004Y-136470813D01*
X115886876Y-136464600D01*
X115895090Y-136455128D01*
X115904565Y-136446912D01*
X115910777Y-136437041D01*
X115912441Y-136435124D01*
X115912954Y-136433583D01*
X115915008Y-136430321D01*
X115972151Y-136316035D01*
X115979157Y-136297727D01*
X115979411Y-136294143D01*
X115980787Y-136290823D01*
X115982708Y-136271314D01*
X115982708Y-136214171D01*
X116296994Y-136214171D01*
X116296994Y-136842742D01*
X116298915Y-136862251D01*
X116313847Y-136898299D01*
X116341437Y-136925889D01*
X116377485Y-136940821D01*
X116416503Y-136940821D01*
X116452551Y-136925889D01*
X116480141Y-136898299D01*
X116495073Y-136862251D01*
X116496994Y-136842742D01*
X116496994Y-136237777D01*
X116528671Y-136174420D01*
X116592030Y-136142742D01*
X116716243Y-136142742D01*
X116794899Y-136182070D01*
X116811279Y-136198449D01*
X116811279Y-136842742D01*
X116813200Y-136862251D01*
X116828132Y-136898299D01*
X116855722Y-136925889D01*
X116891770Y-136940821D01*
X116930788Y-136940821D01*
X116966836Y-136925889D01*
X116994426Y-136898299D01*
X117009358Y-136862251D01*
X117011279Y-136842742D01*
X117011279Y-136214171D01*
X117325565Y-136214171D01*
X117325565Y-136328457D01*
X117327486Y-136347966D01*
X117331235Y-136357018D01*
X117333137Y-136366629D01*
X117338629Y-136374867D01*
X117342418Y-136384014D01*
X117349344Y-136390940D01*
X117354780Y-136399094D01*
X117363008Y-136404604D01*
X117370008Y-136411604D01*
X117379059Y-136415353D01*
X117387200Y-136420805D01*
X117405953Y-136426515D01*
X117406054Y-136426535D01*
X117406056Y-136426536D01*
X117406058Y-136426536D01*
X117896993Y-136524722D01*
X117896993Y-136647706D01*
X117865314Y-136711064D01*
X117801958Y-136742742D01*
X117620600Y-136742742D01*
X117527428Y-136696157D01*
X117509119Y-136689151D01*
X117470199Y-136686385D01*
X117433183Y-136698724D01*
X117403707Y-136724289D01*
X117386258Y-136759188D01*
X117383492Y-136798108D01*
X117395831Y-136835124D01*
X117421396Y-136864600D01*
X117437986Y-136875043D01*
X117552272Y-136932185D01*
X117570581Y-136939191D01*
X117574163Y-136939445D01*
X117577484Y-136940821D01*
X117596993Y-136942742D01*
X117825565Y-136942742D01*
X117845074Y-136940821D01*
X117848394Y-136939445D01*
X117851978Y-136939191D01*
X117870286Y-136932185D01*
X117984571Y-136875043D01*
X117987834Y-136872989D01*
X117989373Y-136872476D01*
X117991289Y-136870813D01*
X118001161Y-136864600D01*
X118009375Y-136855128D01*
X118018850Y-136846912D01*
X118025062Y-136837041D01*
X118026726Y-136835124D01*
X118027239Y-136833583D01*
X118029293Y-136830321D01*
X118086436Y-136716035D01*
X118093442Y-136697727D01*
X118093696Y-136694143D01*
X118095072Y-136690823D01*
X118096993Y-136671314D01*
X118096993Y-136499885D01*
X118354136Y-136499885D01*
X118354136Y-136614171D01*
X118356057Y-136633680D01*
X118357432Y-136637000D01*
X118357687Y-136640584D01*
X118364693Y-136658892D01*
X118421836Y-136773179D01*
X118427122Y-136781577D01*
X118428132Y-136784014D01*
X118430383Y-136786757D01*
X118432279Y-136789769D01*
X118434276Y-136791501D01*
X118440568Y-136799168D01*
X118497711Y-136856310D01*
X118505380Y-136862605D01*
X118507111Y-136864600D01*
X118510116Y-136866491D01*
X118512864Y-136868747D01*
X118515305Y-136869758D01*
X118523701Y-136875043D01*
X118637986Y-136932185D01*
X118656294Y-136939191D01*
X118659877Y-136939445D01*
X118663198Y-136940821D01*
X118682707Y-136942742D01*
X118968422Y-136942742D01*
X118978295Y-136941769D01*
X118980929Y-136941957D01*
X118984391Y-136941169D01*
X118987931Y-136940821D01*
X118990373Y-136939809D01*
X119000044Y-136937610D01*
X119171473Y-136880468D01*
X119189373Y-136872477D01*
X119218849Y-136846912D01*
X119236299Y-136812013D01*
X119239065Y-136773093D01*
X119226727Y-136736077D01*
X119201162Y-136706601D01*
X119166263Y-136689151D01*
X119127343Y-136686385D01*
X119108228Y-136690731D01*
X118952196Y-136742742D01*
X118706314Y-136742742D01*
X118627657Y-136703414D01*
X118593464Y-136669220D01*
X118554136Y-136590564D01*
X118554136Y-136523493D01*
X118593464Y-136444836D01*
X118627656Y-136410643D01*
X118717609Y-136365665D01*
X118935533Y-136311185D01*
X118936971Y-136310671D01*
X118937692Y-136310620D01*
X118945808Y-136307514D01*
X118953994Y-136304590D01*
X118954574Y-136304159D01*
X118956001Y-136303614D01*
X119070286Y-136246470D01*
X119078682Y-136241185D01*
X119081121Y-136240175D01*
X119083864Y-136237923D01*
X119086876Y-136236028D01*
X119088608Y-136234030D01*
X119096275Y-136227739D01*
X119153417Y-136170596D01*
X119159709Y-136162929D01*
X119161707Y-136161197D01*
X119163601Y-136158187D01*
X119165854Y-136155443D01*
X119166864Y-136153004D01*
X119172150Y-136144607D01*
X119229293Y-136030321D01*
X119236299Y-136012013D01*
X119236553Y-136008429D01*
X119237929Y-136005109D01*
X119239850Y-135985600D01*
X119239850Y-135871314D01*
X119237929Y-135851805D01*
X119236553Y-135848484D01*
X119236299Y-135844901D01*
X119229293Y-135826593D01*
X119172150Y-135712307D01*
X119166864Y-135703910D01*
X119165854Y-135701470D01*
X119163600Y-135698724D01*
X119161707Y-135695716D01*
X119159709Y-135693983D01*
X119153417Y-135686317D01*
X119096275Y-135629174D01*
X119088608Y-135622882D01*
X119086876Y-135620885D01*
X119083864Y-135618989D01*
X119081121Y-135616738D01*
X119078682Y-135615727D01*
X119070286Y-135610443D01*
X118956001Y-135553299D01*
X118937692Y-135546293D01*
X118934108Y-135546038D01*
X118930788Y-135544663D01*
X118911279Y-135542742D01*
X118625564Y-135542742D01*
X118615690Y-135543714D01*
X118613056Y-135543527D01*
X118609592Y-135544314D01*
X118606055Y-135544663D01*
X118603613Y-135545674D01*
X118593941Y-135547874D01*
X118422513Y-135605017D01*
X118404613Y-135613008D01*
X118375137Y-135638574D01*
X118357687Y-135673473D01*
X118354921Y-135712393D01*
X118367259Y-135749408D01*
X118392825Y-135778884D01*
X118427724Y-135796334D01*
X118466644Y-135799100D01*
X118485759Y-135794753D01*
X118641791Y-135742742D01*
X118887671Y-135742742D01*
X118966327Y-135782070D01*
X119000521Y-135816263D01*
X119039850Y-135894921D01*
X119039850Y-135961993D01*
X119000520Y-136040650D01*
X118966327Y-136074842D01*
X118876372Y-136119820D01*
X118658453Y-136174300D01*
X118657014Y-136174813D01*
X118656294Y-136174865D01*
X118648175Y-136177971D01*
X118639993Y-136180895D01*
X118639412Y-136181325D01*
X118637986Y-136181871D01*
X118523700Y-136239014D01*
X118515302Y-136244299D01*
X118512864Y-136245310D01*
X118510119Y-136247562D01*
X118507110Y-136249457D01*
X118505377Y-136251454D01*
X118497711Y-136257747D01*
X118440568Y-136314889D01*
X118434276Y-136322555D01*
X118432279Y-136324288D01*
X118430383Y-136327299D01*
X118428132Y-136330043D01*
X118427121Y-136332481D01*
X118421837Y-136340878D01*
X118364693Y-136455163D01*
X118357687Y-136473472D01*
X118357432Y-136477055D01*
X118356057Y-136480376D01*
X118354136Y-136499885D01*
X118096993Y-136499885D01*
X118096993Y-136214171D01*
X118095072Y-136194662D01*
X118093696Y-136191341D01*
X118093442Y-136187758D01*
X118086436Y-136169450D01*
X118029293Y-136055164D01*
X118027240Y-136051903D01*
X118026727Y-136050362D01*
X118025062Y-136048442D01*
X118018850Y-136038573D01*
X118009378Y-136030358D01*
X118001162Y-136020885D01*
X117991289Y-136014671D01*
X117989373Y-136013009D01*
X117987833Y-136012495D01*
X117984572Y-136010443D01*
X117870287Y-135953299D01*
X117851978Y-135946293D01*
X117848394Y-135946038D01*
X117845074Y-135944663D01*
X117825565Y-135942742D01*
X117596993Y-135942742D01*
X117577484Y-135944663D01*
X117574163Y-135946038D01*
X117570580Y-135946293D01*
X117552272Y-135953299D01*
X117437986Y-136010442D01*
X117434723Y-136012495D01*
X117433183Y-136013009D01*
X117431265Y-136014672D01*
X117421395Y-136020885D01*
X117413178Y-136030359D01*
X117403707Y-136038574D01*
X117397493Y-136048445D01*
X117395831Y-136050362D01*
X117395317Y-136051900D01*
X117393264Y-136055164D01*
X117336122Y-136169450D01*
X117329116Y-136187759D01*
X117328861Y-136191341D01*
X117327486Y-136194662D01*
X117325565Y-136214171D01*
X117011279Y-136214171D01*
X117011279Y-136042742D01*
X117009358Y-136023233D01*
X116994426Y-135987185D01*
X116966836Y-135959595D01*
X116930788Y-135944663D01*
X116891770Y-135944663D01*
X116855722Y-135959595D01*
X116836202Y-135979114D01*
X116784573Y-135953299D01*
X116766264Y-135946293D01*
X116762680Y-135946038D01*
X116759360Y-135944663D01*
X116739851Y-135942742D01*
X116568422Y-135942742D01*
X116548913Y-135944663D01*
X116545592Y-135946038D01*
X116542009Y-135946293D01*
X116523701Y-135953299D01*
X116409415Y-136010442D01*
X116406152Y-136012495D01*
X116404612Y-136013009D01*
X116402694Y-136014672D01*
X116392824Y-136020885D01*
X116384607Y-136030359D01*
X116375136Y-136038574D01*
X116368922Y-136048445D01*
X116367260Y-136050362D01*
X116366746Y-136051900D01*
X116364693Y-136055164D01*
X116307551Y-136169450D01*
X116300545Y-136187759D01*
X116300290Y-136191341D01*
X116298915Y-136194662D01*
X116296994Y-136214171D01*
X115982708Y-136214171D01*
X115980787Y-136194662D01*
X115979411Y-136191341D01*
X115979157Y-136187758D01*
X115972151Y-136169450D01*
X115915008Y-136055164D01*
X115912955Y-136051903D01*
X115912442Y-136050362D01*
X115910777Y-136048442D01*
X115904565Y-136038573D01*
X115895093Y-136030358D01*
X115886877Y-136020885D01*
X115877004Y-136014671D01*
X115875088Y-136013009D01*
X115873548Y-136012495D01*
X115870287Y-136010443D01*
X115756002Y-135953299D01*
X115737693Y-135946293D01*
X115734109Y-135946038D01*
X115730789Y-135944663D01*
X115711280Y-135942742D01*
X115539851Y-135942742D01*
X115520342Y-135944663D01*
X115517021Y-135946038D01*
X115513438Y-135946293D01*
X115495130Y-135953299D01*
X115380844Y-136010442D01*
X115364253Y-136020885D01*
X115338689Y-136050362D01*
X115326350Y-136087378D01*
X115329116Y-136126298D01*
X115346565Y-136161197D01*
X115376042Y-136186761D01*
X115413058Y-136199100D01*
X115451978Y-136196334D01*
X115470286Y-136189328D01*
X115563459Y-136142742D01*
X115687672Y-136142742D01*
X115751029Y-136174420D01*
X115782708Y-136237778D01*
X115782708Y-136247706D01*
X115751029Y-136311064D01*
X115687673Y-136342742D01*
X115539851Y-136342742D01*
X115520342Y-136344663D01*
X115517021Y-136346038D01*
X115513438Y-136346293D01*
X115495130Y-136353299D01*
X115380844Y-136410442D01*
X115377580Y-136412496D01*
X115376042Y-136413009D01*
X115374126Y-136414670D01*
X115364253Y-136420885D01*
X115356037Y-136430357D01*
X115346565Y-136438573D01*
X115340348Y-136448447D01*
X115338689Y-136450362D01*
X115338176Y-136451898D01*
X115336122Y-136455163D01*
X115278979Y-136569450D01*
X115271973Y-136587758D01*
X115271718Y-136591341D01*
X115270343Y-136594662D01*
X115268422Y-136614171D01*
X115011279Y-136614171D01*
X115011279Y-136271314D01*
X115009358Y-136251805D01*
X115007982Y-136248484D01*
X115007728Y-136244901D01*
X115000722Y-136226593D01*
X114943579Y-136112307D01*
X114938293Y-136103910D01*
X114937283Y-136101470D01*
X114935029Y-136098724D01*
X114933136Y-136095716D01*
X114931138Y-136093983D01*
X114924846Y-136086317D01*
X114867704Y-136029174D01*
X114860037Y-136022882D01*
X114858305Y-136020885D01*
X114855293Y-136018989D01*
X114852550Y-136016738D01*
X114850111Y-136015727D01*
X114841715Y-136010443D01*
X114727430Y-135953299D01*
X114709121Y-135946293D01*
X114705537Y-135946038D01*
X114702217Y-135944663D01*
X114682708Y-135942742D01*
X114511279Y-135942742D01*
X114491770Y-135944663D01*
X114488449Y-135946038D01*
X114484866Y-135946293D01*
X114466558Y-135953299D01*
X114352272Y-136010442D01*
X114343875Y-136015727D01*
X114341435Y-136016738D01*
X114338689Y-136018991D01*
X114335681Y-136020885D01*
X114333948Y-136022882D01*
X114326282Y-136029175D01*
X114269140Y-136086318D01*
X114262847Y-136093984D01*
X114260851Y-136095716D01*
X114258957Y-136098724D01*
X114256703Y-136101471D01*
X114255692Y-136103911D01*
X114250408Y-136112306D01*
X114193265Y-136226593D01*
X114186259Y-136244901D01*
X114186004Y-136248484D01*
X114184629Y-136251805D01*
X114182708Y-136271314D01*
X113868422Y-136271314D01*
X113868422Y-136042742D01*
X113866501Y-136023233D01*
X113851569Y-135987185D01*
X113823979Y-135959595D01*
X113787931Y-135944663D01*
X113748913Y-135944663D01*
X113712865Y-135959595D01*
X113685275Y-135987185D01*
X113679624Y-136000825D01*
X113584572Y-135953299D01*
X113566264Y-135946293D01*
X113562680Y-135946038D01*
X113559360Y-135944663D01*
X113539851Y-135942742D01*
X113425565Y-135942742D01*
X113406056Y-135944663D01*
X113370008Y-135959595D01*
X113342418Y-135987185D01*
X113327486Y-136023233D01*
X113125565Y-136023233D01*
X113125565Y-135642742D01*
X113123644Y-135623233D01*
X113108712Y-135587185D01*
X113081122Y-135559595D01*
X113045074Y-135544663D01*
X113006056Y-135544663D01*
X112970008Y-135559595D01*
X112942418Y-135587185D01*
X112927486Y-135623233D01*
X112925565Y-135642742D01*
X112554136Y-135642742D01*
X112552215Y-135623233D01*
X112537283Y-135587185D01*
X112509693Y-135559595D01*
X112473645Y-135544663D01*
X112454136Y-135542742D01*
X112168422Y-135542742D01*
X112158548Y-135543714D01*
X112155915Y-135543527D01*
X112152451Y-135544314D01*
X112148913Y-135544663D01*
X112146470Y-135545674D01*
X112136799Y-135547874D01*
X111965370Y-135605017D01*
X111947470Y-135613008D01*
X111944754Y-135615362D01*
X111941435Y-135616738D01*
X111926282Y-135629175D01*
X111811997Y-135743461D01*
X111805704Y-135751127D01*
X111803708Y-135752859D01*
X111801814Y-135755867D01*
X111799560Y-135758614D01*
X111798549Y-135761054D01*
X111793265Y-135769449D01*
X111736122Y-135883736D01*
X111735576Y-135885160D01*
X111735146Y-135885742D01*
X111732219Y-135893933D01*
X111729116Y-135902044D01*
X111729064Y-135902764D01*
X111728551Y-135904203D01*
X111671408Y-136132774D01*
X111670907Y-136136155D01*
X111670343Y-136137519D01*
X111669619Y-136144869D01*
X111668540Y-136152167D01*
X111668757Y-136153625D01*
X111668422Y-136157028D01*
X111535089Y-136157028D01*
X111535089Y-135409409D01*
X119373183Y-135409409D01*
X119373183Y-137076075D01*
G37*
X135439850Y-140367219D02*
X135249374Y-140367219D01*
X135249374Y-140367219D02*
X135154136Y-140414838D01*
X135154136Y-140414838D02*
X135058898Y-140510076D01*
X135058898Y-140510076D02*
X135011279Y-140700552D01*
X135011279Y-140700552D02*
X135011279Y-141033885D01*
X135011279Y-141033885D02*
X135058898Y-141224361D01*
X135058898Y-141224361D02*
X135154136Y-141319600D01*
X135154136Y-141319600D02*
X135249374Y-141367219D01*
X135249374Y-141367219D02*
X135439850Y-141367219D01*
X135439850Y-141367219D02*
X135535088Y-141319600D01*
X135535088Y-141319600D02*
X135630326Y-141224361D01*
X135630326Y-141224361D02*
X135677945Y-141033885D01*
X135677945Y-141033885D02*
X135677945Y-140700552D01*
X135677945Y-140700552D02*
X135630326Y-140510076D01*
X135630326Y-140510076D02*
X135535088Y-140414838D01*
X135535088Y-140414838D02*
X135439850Y-140367219D01*
X135439850Y-131617219D02*
X135249374Y-131617219D01*
X135249374Y-131617219D02*
X135154136Y-131664838D01*
X135154136Y-131664838D02*
X135058898Y-131760076D01*
X135058898Y-131760076D02*
X135011279Y-131950552D01*
X135011279Y-131950552D02*
X135011279Y-132283885D01*
X135011279Y-132283885D02*
X135058898Y-132474361D01*
X135058898Y-132474361D02*
X135154136Y-132569600D01*
X135154136Y-132569600D02*
X135249374Y-132617219D01*
X135249374Y-132617219D02*
X135439850Y-132617219D01*
X135439850Y-132617219D02*
X135535088Y-132569600D01*
X135535088Y-132569600D02*
X135630326Y-132474361D01*
X135630326Y-132474361D02*
X135677945Y-132283885D01*
X135677945Y-132283885D02*
X135677945Y-131950552D01*
X135677945Y-131950552D02*
X135630326Y-131760076D01*
X135630326Y-131760076D02*
X135535088Y-131664838D01*
X135535088Y-131664838D02*
X135439850Y-131617219D01*
X133546993Y-142593409D02*
X133880326Y-142593409D01*
X133880326Y-143117219D02*
X133880326Y-142117219D01*
X133880326Y-142117219D02*
X133404136Y-142117219D01*
X131796993Y-144343409D02*
X132130326Y-144343409D01*
X132130326Y-144867219D02*
X132130326Y-143867219D01*
X132130326Y-143867219D02*
X131654136Y-143867219D01*
X137646993Y-63817742D02*
X138046993Y-63246314D01*
X138332707Y-63817742D02*
X138332707Y-62617742D01*
X138332707Y-62617742D02*
X137875564Y-62617742D01*
X137875564Y-62617742D02*
X137761279Y-62674885D01*
X137761279Y-62674885D02*
X137704136Y-62732028D01*
X137704136Y-62732028D02*
X137646993Y-62846314D01*
X137646993Y-62846314D02*
X137646993Y-63017742D01*
X137646993Y-63017742D02*
X137704136Y-63132028D01*
X137704136Y-63132028D02*
X137761279Y-63189171D01*
X137761279Y-63189171D02*
X137875564Y-63246314D01*
X137875564Y-63246314D02*
X138332707Y-63246314D01*
X136675564Y-63760600D02*
X136789850Y-63817742D01*
X136789850Y-63817742D02*
X137018422Y-63817742D01*
X137018422Y-63817742D02*
X137132707Y-63760600D01*
X137132707Y-63760600D02*
X137189850Y-63646314D01*
X137189850Y-63646314D02*
X137189850Y-63189171D01*
X137189850Y-63189171D02*
X137132707Y-63074885D01*
X137132707Y-63074885D02*
X137018422Y-63017742D01*
X137018422Y-63017742D02*
X136789850Y-63017742D01*
X136789850Y-63017742D02*
X136675564Y-63074885D01*
X136675564Y-63074885D02*
X136618422Y-63189171D01*
X136618422Y-63189171D02*
X136618422Y-63303457D01*
X136618422Y-63303457D02*
X137189850Y-63417742D01*
X136218422Y-63017742D02*
X135932708Y-63817742D01*
X135932708Y-63817742D02*
X135646993Y-63017742D01*
X135189850Y-63703457D02*
X135132707Y-63760600D01*
X135132707Y-63760600D02*
X135189850Y-63817742D01*
X135189850Y-63817742D02*
X135246993Y-63760600D01*
X135246993Y-63760600D02*
X135189850Y-63703457D01*
X135189850Y-63703457D02*
X135189850Y-63817742D01*
X137189850Y-136867219D02*
X136999374Y-136867219D01*
X136999374Y-136867219D02*
X136904136Y-136914838D01*
X136904136Y-136914838D02*
X136808898Y-137010076D01*
X136808898Y-137010076D02*
X136761279Y-137200552D01*
X136761279Y-137200552D02*
X136761279Y-137533885D01*
X136761279Y-137533885D02*
X136808898Y-137724361D01*
X136808898Y-137724361D02*
X136904136Y-137819600D01*
X136904136Y-137819600D02*
X136999374Y-137867219D01*
X136999374Y-137867219D02*
X137189850Y-137867219D01*
X137189850Y-137867219D02*
X137285088Y-137819600D01*
X137285088Y-137819600D02*
X137380326Y-137724361D01*
X137380326Y-137724361D02*
X137427945Y-137533885D01*
X137427945Y-137533885D02*
X137427945Y-137200552D01*
X137427945Y-137200552D02*
X137380326Y-137010076D01*
X137380326Y-137010076D02*
X137285088Y-136914838D01*
X137285088Y-136914838D02*
X137189850Y-136867219D01*
X137189850Y-133367219D02*
X136999374Y-133367219D01*
X136999374Y-133367219D02*
X136904136Y-133414838D01*
X136904136Y-133414838D02*
X136808898Y-133510076D01*
X136808898Y-133510076D02*
X136761279Y-133700552D01*
X136761279Y-133700552D02*
X136761279Y-134033885D01*
X136761279Y-134033885D02*
X136808898Y-134224361D01*
X136808898Y-134224361D02*
X136904136Y-134319600D01*
X136904136Y-134319600D02*
X136999374Y-134367219D01*
X136999374Y-134367219D02*
X137189850Y-134367219D01*
X137189850Y-134367219D02*
X137285088Y-134319600D01*
X137285088Y-134319600D02*
X137380326Y-134224361D01*
X137380326Y-134224361D02*
X137427945Y-134033885D01*
X137427945Y-134033885D02*
X137427945Y-133700552D01*
X137427945Y-133700552D02*
X137380326Y-133510076D01*
X137380326Y-133510076D02*
X137285088Y-133414838D01*
X137285088Y-133414838D02*
X137189850Y-133367219D01*
X131939850Y-121117219D02*
X131749374Y-121117219D01*
X131749374Y-121117219D02*
X131654136Y-121164838D01*
X131654136Y-121164838D02*
X131558898Y-121260076D01*
X131558898Y-121260076D02*
X131511279Y-121450552D01*
X131511279Y-121450552D02*
X131511279Y-121783885D01*
X131511279Y-121783885D02*
X131558898Y-121974361D01*
X131558898Y-121974361D02*
X131654136Y-122069600D01*
X131654136Y-122069600D02*
X131749374Y-122117219D01*
X131749374Y-122117219D02*
X131939850Y-122117219D01*
X131939850Y-122117219D02*
X132035088Y-122069600D01*
X132035088Y-122069600D02*
X132130326Y-121974361D01*
X132130326Y-121974361D02*
X132177945Y-121783885D01*
X132177945Y-121783885D02*
X132177945Y-121450552D01*
X132177945Y-121450552D02*
X132130326Y-121260076D01*
X132130326Y-121260076D02*
X132035088Y-121164838D01*
X132035088Y-121164838D02*
X131939850Y-121117219D01*
X131796993Y-119843409D02*
X132130326Y-119843409D01*
X132130326Y-120367219D02*
X132130326Y-119367219D01*
X132130326Y-119367219D02*
X131654136Y-119367219D01*
X140225564Y-131617219D02*
X139558898Y-131617219D01*
X139558898Y-131617219D02*
X139987469Y-132617219D01*
X135439850Y-126367219D02*
X135249374Y-126367219D01*
X135249374Y-126367219D02*
X135154136Y-126414838D01*
X135154136Y-126414838D02*
X135058898Y-126510076D01*
X135058898Y-126510076D02*
X135011279Y-126700552D01*
X135011279Y-126700552D02*
X135011279Y-127033885D01*
X135011279Y-127033885D02*
X135058898Y-127224361D01*
X135058898Y-127224361D02*
X135154136Y-127319600D01*
X135154136Y-127319600D02*
X135249374Y-127367219D01*
X135249374Y-127367219D02*
X135439850Y-127367219D01*
X135439850Y-127367219D02*
X135535088Y-127319600D01*
X135535088Y-127319600D02*
X135630326Y-127224361D01*
X135630326Y-127224361D02*
X135677945Y-127033885D01*
X135677945Y-127033885D02*
X135677945Y-126700552D01*
X135677945Y-126700552D02*
X135630326Y-126510076D01*
X135630326Y-126510076D02*
X135535088Y-126414838D01*
X135535088Y-126414838D02*
X135439850Y-126367219D01*
X139654136Y-128117219D02*
X140130326Y-128117219D01*
X140130326Y-128117219D02*
X140177945Y-128593409D01*
X140177945Y-128593409D02*
X140130326Y-128545790D01*
X140130326Y-128545790D02*
X140035088Y-128498171D01*
X140035088Y-128498171D02*
X139796993Y-128498171D01*
X139796993Y-128498171D02*
X139701755Y-128545790D01*
X139701755Y-128545790D02*
X139654136Y-128593409D01*
X139654136Y-128593409D02*
X139606517Y-128688647D01*
X139606517Y-128688647D02*
X139606517Y-128926742D01*
X139606517Y-128926742D02*
X139654136Y-129021980D01*
X139654136Y-129021980D02*
X139701755Y-129069600D01*
X139701755Y-129069600D02*
X139796993Y-129117219D01*
X139796993Y-129117219D02*
X140035088Y-129117219D01*
X140035088Y-129117219D02*
X140130326Y-129069600D01*
X140130326Y-129069600D02*
X140177945Y-129021980D01*
X140177945Y-122962457D02*
X140130326Y-122914838D01*
X140130326Y-122914838D02*
X140035088Y-122867219D01*
X140035088Y-122867219D02*
X139796993Y-122867219D01*
X139796993Y-122867219D02*
X139701755Y-122914838D01*
X139701755Y-122914838D02*
X139654136Y-122962457D01*
X139654136Y-122962457D02*
X139606517Y-123057695D01*
X139606517Y-123057695D02*
X139606517Y-123152933D01*
X139606517Y-123152933D02*
X139654136Y-123295790D01*
X139654136Y-123295790D02*
X140225564Y-123867219D01*
X140225564Y-123867219D02*
X139606517Y-123867219D01*
X131796993Y-133843409D02*
X132130326Y-133843409D01*
X132130326Y-134367219D02*
X132130326Y-133367219D01*
X132130326Y-133367219D02*
X131654136Y-133367219D01*
X137046993Y-126843409D02*
X137380326Y-126843409D01*
X137380326Y-127367219D02*
X137380326Y-126367219D01*
X137380326Y-126367219D02*
X136904136Y-126367219D01*
X140106517Y-144867219D02*
X140677945Y-144867219D01*
X140392231Y-144867219D02*
X140392231Y-143867219D01*
X140392231Y-143867219D02*
X140487469Y-144010076D01*
X140487469Y-144010076D02*
X140582707Y-144105314D01*
X140582707Y-144105314D02*
X140677945Y-144152933D01*
X139249374Y-144200552D02*
X139249374Y-144867219D01*
X139487469Y-143819600D02*
X139725564Y-144533885D01*
X139725564Y-144533885D02*
X139106517Y-144533885D01*
X133689850Y-145617219D02*
X133499374Y-145617219D01*
X133499374Y-145617219D02*
X133404136Y-145664838D01*
X133404136Y-145664838D02*
X133308898Y-145760076D01*
X133308898Y-145760076D02*
X133261279Y-145950552D01*
X133261279Y-145950552D02*
X133261279Y-146283885D01*
X133261279Y-146283885D02*
X133308898Y-146474361D01*
X133308898Y-146474361D02*
X133404136Y-146569600D01*
X133404136Y-146569600D02*
X133499374Y-146617219D01*
X133499374Y-146617219D02*
X133689850Y-146617219D01*
X133689850Y-146617219D02*
X133785088Y-146569600D01*
X133785088Y-146569600D02*
X133880326Y-146474361D01*
X133880326Y-146474361D02*
X133927945Y-146283885D01*
X133927945Y-146283885D02*
X133927945Y-145950552D01*
X133927945Y-145950552D02*
X133880326Y-145760076D01*
X133880326Y-145760076D02*
X133785088Y-145664838D01*
X133785088Y-145664838D02*
X133689850Y-145617219D01*
X135296993Y-123343409D02*
X135630326Y-123343409D01*
X135630326Y-123867219D02*
X135630326Y-122867219D01*
X135630326Y-122867219D02*
X135154136Y-122867219D01*
G36*
X117428405Y-139268075D02*
G01*
X116220803Y-139268075D01*
X116220803Y-138520457D01*
X116354136Y-138520457D01*
X116354136Y-138806171D01*
X116356057Y-138825680D01*
X116357432Y-138829000D01*
X116357687Y-138832584D01*
X116364693Y-138850892D01*
X116421836Y-138965179D01*
X116427122Y-138973577D01*
X116428132Y-138976014D01*
X116430383Y-138978757D01*
X116432279Y-138981769D01*
X116434276Y-138983501D01*
X116440568Y-138991168D01*
X116497711Y-139048310D01*
X116505380Y-139054605D01*
X116507111Y-139056600D01*
X116510116Y-139058491D01*
X116512864Y-139060747D01*
X116515305Y-139061758D01*
X116523701Y-139067043D01*
X116637986Y-139124185D01*
X116656294Y-139131191D01*
X116659877Y-139131445D01*
X116663198Y-139132821D01*
X116682707Y-139134742D01*
X117025564Y-139134742D01*
X117045073Y-139132821D01*
X117048393Y-139131445D01*
X117051976Y-139131191D01*
X117070285Y-139124185D01*
X117184571Y-139067043D01*
X117192967Y-139061757D01*
X117195407Y-139060747D01*
X117198153Y-139058493D01*
X117201161Y-139056600D01*
X117202891Y-139054605D01*
X117210561Y-139048311D01*
X117267703Y-138991168D01*
X117280140Y-138976015D01*
X117295071Y-138939966D01*
X117295071Y-138900948D01*
X117280140Y-138864900D01*
X117252550Y-138837310D01*
X117216502Y-138822379D01*
X117177484Y-138822379D01*
X117141435Y-138837310D01*
X117126282Y-138849747D01*
X117080613Y-138895414D01*
X117001957Y-138934742D01*
X116706314Y-138934742D01*
X116627657Y-138895414D01*
X116593464Y-138861220D01*
X116554136Y-138782564D01*
X116554136Y-138544064D01*
X116593464Y-138465407D01*
X116627656Y-138431214D01*
X116706314Y-138391885D01*
X116854136Y-138391885D01*
X116864453Y-138390869D01*
X116867078Y-138391044D01*
X116868885Y-138390432D01*
X116873645Y-138389964D01*
X116888650Y-138383748D01*
X116904039Y-138378544D01*
X116906578Y-138376322D01*
X116909693Y-138375032D01*
X116921177Y-138363547D01*
X116933403Y-138352850D01*
X116934898Y-138349826D01*
X116937283Y-138347442D01*
X116943499Y-138332435D01*
X116950700Y-138317875D01*
X116950924Y-138314509D01*
X116952215Y-138311394D01*
X116952215Y-138295145D01*
X116953295Y-138278943D01*
X116952215Y-138275749D01*
X116952215Y-138272376D01*
X116945999Y-138257370D01*
X116940795Y-138241982D01*
X116938013Y-138238091D01*
X116937283Y-138236328D01*
X116935423Y-138234468D01*
X116929394Y-138226035D01*
X116674513Y-137934742D01*
X117196993Y-137934742D01*
X117216502Y-137932821D01*
X117252550Y-137917889D01*
X117280140Y-137890299D01*
X117295072Y-137854251D01*
X117295072Y-137815233D01*
X117280140Y-137779185D01*
X117252550Y-137751595D01*
X117216502Y-137736663D01*
X117196993Y-137734742D01*
X116454136Y-137734742D01*
X116443818Y-137735757D01*
X116441194Y-137735583D01*
X116439386Y-137736194D01*
X116434627Y-137736663D01*
X116419621Y-137742878D01*
X116404233Y-137748083D01*
X116401693Y-137750304D01*
X116398579Y-137751595D01*
X116387094Y-137763079D01*
X116374869Y-137773777D01*
X116373373Y-137776800D01*
X116370989Y-137779185D01*
X116364772Y-137794191D01*
X116357572Y-137808752D01*
X116357347Y-137812117D01*
X116356057Y-137815233D01*
X116356057Y-137831481D01*
X116354977Y-137847684D01*
X116356057Y-137850877D01*
X116356057Y-137854251D01*
X116362272Y-137869256D01*
X116367477Y-137884645D01*
X116370258Y-137888535D01*
X116370989Y-137890299D01*
X116372848Y-137892158D01*
X116378878Y-137900592D01*
X116641739Y-138201005D01*
X116637986Y-138202442D01*
X116523700Y-138259585D01*
X116515302Y-138264870D01*
X116512864Y-138265881D01*
X116510119Y-138268133D01*
X116507110Y-138270028D01*
X116505377Y-138272025D01*
X116497711Y-138278318D01*
X116440568Y-138335460D01*
X116434276Y-138343126D01*
X116432279Y-138344859D01*
X116430383Y-138347870D01*
X116428132Y-138350614D01*
X116427122Y-138353050D01*
X116421836Y-138361449D01*
X116364693Y-138475736D01*
X116357687Y-138494044D01*
X116357432Y-138497627D01*
X116356057Y-138500948D01*
X116354136Y-138520457D01*
X116220803Y-138520457D01*
X116220803Y-137601409D01*
X117428405Y-137601409D01*
X117428405Y-139268075D01*
G37*
X135439850Y-142117219D02*
X135249374Y-142117219D01*
X135249374Y-142117219D02*
X135154136Y-142164838D01*
X135154136Y-142164838D02*
X135058898Y-142260076D01*
X135058898Y-142260076D02*
X135011279Y-142450552D01*
X135011279Y-142450552D02*
X135011279Y-142783885D01*
X135011279Y-142783885D02*
X135058898Y-142974361D01*
X135058898Y-142974361D02*
X135154136Y-143069600D01*
X135154136Y-143069600D02*
X135249374Y-143117219D01*
X135249374Y-143117219D02*
X135439850Y-143117219D01*
X135439850Y-143117219D02*
X135535088Y-143069600D01*
X135535088Y-143069600D02*
X135630326Y-142974361D01*
X135630326Y-142974361D02*
X135677945Y-142783885D01*
X135677945Y-142783885D02*
X135677945Y-142450552D01*
X135677945Y-142450552D02*
X135630326Y-142260076D01*
X135630326Y-142260076D02*
X135535088Y-142164838D01*
X135535088Y-142164838D02*
X135439850Y-142117219D01*
X137046993Y-132093409D02*
X137380326Y-132093409D01*
X137380326Y-132617219D02*
X137380326Y-131617219D01*
X137380326Y-131617219D02*
X136904136Y-131617219D01*
G36*
X137638271Y-118826409D02*
G01*
X136599708Y-118826409D01*
X136599708Y-118264376D01*
X136710819Y-118264376D01*
X136710819Y-118303394D01*
X136725751Y-118339442D01*
X136753341Y-118367032D01*
X136789389Y-118381964D01*
X136808898Y-118383885D01*
X136851755Y-118383885D01*
X136851755Y-118617219D01*
X136853676Y-118636728D01*
X136868608Y-118672776D01*
X136896198Y-118700366D01*
X136932246Y-118715298D01*
X136971264Y-118715298D01*
X137007312Y-118700366D01*
X137034902Y-118672776D01*
X137049834Y-118636728D01*
X137051755Y-118617219D01*
X137051755Y-118383885D01*
X137427945Y-118383885D01*
X137437818Y-118382912D01*
X137440452Y-118383100D01*
X137442353Y-118382466D01*
X137447454Y-118381964D01*
X137462266Y-118375828D01*
X137477468Y-118370761D01*
X137480181Y-118368407D01*
X137483502Y-118367032D01*
X137494840Y-118355693D01*
X137506944Y-118345196D01*
X137508550Y-118341983D01*
X137511092Y-118339442D01*
X137517228Y-118324627D01*
X137524394Y-118310297D01*
X137524648Y-118306714D01*
X137526024Y-118303394D01*
X137526024Y-118287361D01*
X137527160Y-118271377D01*
X137526024Y-118266381D01*
X137526024Y-118264376D01*
X137525012Y-118261934D01*
X137522813Y-118252262D01*
X137284718Y-117537977D01*
X137276727Y-117520077D01*
X137251162Y-117490601D01*
X137216263Y-117473151D01*
X137177343Y-117470385D01*
X137140327Y-117482723D01*
X137110851Y-117508288D01*
X137093401Y-117543187D01*
X137090635Y-117582107D01*
X137094982Y-117601223D01*
X137289203Y-118183885D01*
X137051755Y-118183885D01*
X137051755Y-117950552D01*
X137049834Y-117931043D01*
X137034902Y-117894995D01*
X137007312Y-117867405D01*
X136971264Y-117852473D01*
X136932246Y-117852473D01*
X136896198Y-117867405D01*
X136868608Y-117894995D01*
X136853676Y-117931043D01*
X136851755Y-117950552D01*
X136851755Y-118183885D01*
X136808898Y-118183885D01*
X136789389Y-118185806D01*
X136753341Y-118200738D01*
X136725751Y-118228328D01*
X136710819Y-118264376D01*
X136599708Y-118264376D01*
X136599708Y-117359274D01*
X137638271Y-117359274D01*
X137638271Y-118826409D01*
G37*
X135296993Y-133843409D02*
X135630326Y-133843409D01*
X135630326Y-134367219D02*
X135630326Y-133367219D01*
X135630326Y-133367219D02*
X135154136Y-133367219D01*
X135439850Y-143867219D02*
X135249374Y-143867219D01*
X135249374Y-143867219D02*
X135154136Y-143914838D01*
X135154136Y-143914838D02*
X135058898Y-144010076D01*
X135058898Y-144010076D02*
X135011279Y-144200552D01*
X135011279Y-144200552D02*
X135011279Y-144533885D01*
X135011279Y-144533885D02*
X135058898Y-144724361D01*
X135058898Y-144724361D02*
X135154136Y-144819600D01*
X135154136Y-144819600D02*
X135249374Y-144867219D01*
X135249374Y-144867219D02*
X135439850Y-144867219D01*
X135439850Y-144867219D02*
X135535088Y-144819600D01*
X135535088Y-144819600D02*
X135630326Y-144724361D01*
X135630326Y-144724361D02*
X135677945Y-144533885D01*
X135677945Y-144533885D02*
X135677945Y-144200552D01*
X135677945Y-144200552D02*
X135630326Y-144010076D01*
X135630326Y-144010076D02*
X135535088Y-143914838D01*
X135535088Y-143914838D02*
X135439850Y-143867219D01*
X139987469Y-133795790D02*
X140082707Y-133748171D01*
X140082707Y-133748171D02*
X140130326Y-133700552D01*
X140130326Y-133700552D02*
X140177945Y-133605314D01*
X140177945Y-133605314D02*
X140177945Y-133557695D01*
X140177945Y-133557695D02*
X140130326Y-133462457D01*
X140130326Y-133462457D02*
X140082707Y-133414838D01*
X140082707Y-133414838D02*
X139987469Y-133367219D01*
X139987469Y-133367219D02*
X139796993Y-133367219D01*
X139796993Y-133367219D02*
X139701755Y-133414838D01*
X139701755Y-133414838D02*
X139654136Y-133462457D01*
X139654136Y-133462457D02*
X139606517Y-133557695D01*
X139606517Y-133557695D02*
X139606517Y-133605314D01*
X139606517Y-133605314D02*
X139654136Y-133700552D01*
X139654136Y-133700552D02*
X139701755Y-133748171D01*
X139701755Y-133748171D02*
X139796993Y-133795790D01*
X139796993Y-133795790D02*
X139987469Y-133795790D01*
X139987469Y-133795790D02*
X140082707Y-133843409D01*
X140082707Y-133843409D02*
X140130326Y-133891028D01*
X140130326Y-133891028D02*
X140177945Y-133986266D01*
X140177945Y-133986266D02*
X140177945Y-134176742D01*
X140177945Y-134176742D02*
X140130326Y-134271980D01*
X140130326Y-134271980D02*
X140082707Y-134319600D01*
X140082707Y-134319600D02*
X139987469Y-134367219D01*
X139987469Y-134367219D02*
X139796993Y-134367219D01*
X139796993Y-134367219D02*
X139701755Y-134319600D01*
X139701755Y-134319600D02*
X139654136Y-134271980D01*
X139654136Y-134271980D02*
X139606517Y-134176742D01*
X139606517Y-134176742D02*
X139606517Y-133986266D01*
X139606517Y-133986266D02*
X139654136Y-133891028D01*
X139654136Y-133891028D02*
X139701755Y-133843409D01*
X139701755Y-133843409D02*
X139796993Y-133795790D01*
G36*
X126543965Y-136399885D02*
G01*
X126250021Y-136399885D01*
X126396993Y-135958969D01*
X126543965Y-136399885D01*
G37*
G36*
X129373183Y-137076075D02*
G01*
X121194153Y-137076075D01*
X121194153Y-136823233D01*
X121327486Y-136823233D01*
X121327486Y-136862251D01*
X121342418Y-136898299D01*
X121370008Y-136925889D01*
X121406056Y-136940821D01*
X121425565Y-136942742D01*
X121996993Y-136942742D01*
X122016502Y-136940821D01*
X122052550Y-136925889D01*
X122080140Y-136898299D01*
X122095072Y-136862251D01*
X122096993Y-136842742D01*
X122096993Y-135642742D01*
X122095072Y-135623233D01*
X122413200Y-135623233D01*
X122413200Y-135662251D01*
X122428132Y-135698299D01*
X122455722Y-135725889D01*
X122491770Y-135740821D01*
X122511279Y-135742742D01*
X122982707Y-135742742D01*
X122982707Y-136114171D01*
X122682707Y-136114171D01*
X122663198Y-136116092D01*
X122627150Y-136131024D01*
X122599560Y-136158614D01*
X122584628Y-136194662D01*
X122584628Y-136233680D01*
X122599560Y-136269728D01*
X122627150Y-136297318D01*
X122663198Y-136312250D01*
X122682707Y-136314171D01*
X122982707Y-136314171D01*
X122982707Y-136742742D01*
X122511279Y-136742742D01*
X122491770Y-136744663D01*
X122455722Y-136759595D01*
X122428132Y-136787185D01*
X122413200Y-136823233D01*
X122413200Y-136862251D01*
X122428132Y-136898299D01*
X122455722Y-136925889D01*
X122491770Y-136940821D01*
X122511279Y-136942742D01*
X123082707Y-136942742D01*
X123102216Y-136940821D01*
X123138264Y-136925889D01*
X123165854Y-136898299D01*
X123180786Y-136862251D01*
X123182707Y-136842742D01*
X123182707Y-135642742D01*
X123554136Y-135642742D01*
X123554136Y-136842742D01*
X123554630Y-136847759D01*
X123554380Y-136849727D01*
X123555074Y-136852273D01*
X123556057Y-136862251D01*
X123561148Y-136874541D01*
X123564647Y-136887370D01*
X123568549Y-136892408D01*
X123570989Y-136898299D01*
X123580394Y-136907704D01*
X123588537Y-136918219D01*
X123594071Y-136921381D01*
X123598579Y-136925889D01*
X123610864Y-136930977D01*
X123622414Y-136937578D01*
X123628738Y-136938381D01*
X123634627Y-136940821D01*
X123647928Y-136940821D01*
X123661121Y-136942498D01*
X123667270Y-136940821D01*
X123673645Y-136940821D01*
X123685935Y-136935729D01*
X123698764Y-136932231D01*
X123703802Y-136928328D01*
X123709693Y-136925889D01*
X123719098Y-136916483D01*
X123729613Y-136908341D01*
X123735416Y-136900165D01*
X123737283Y-136898299D01*
X123738041Y-136896466D01*
X123740960Y-136892356D01*
X124239850Y-136019298D01*
X124239850Y-136842742D01*
X124241771Y-136862251D01*
X124256703Y-136898299D01*
X124284293Y-136925889D01*
X124320341Y-136940821D01*
X124359359Y-136940821D01*
X124395407Y-136925889D01*
X124422997Y-136898299D01*
X124437929Y-136862251D01*
X124439850Y-136842742D01*
X124439850Y-135642742D01*
X124811279Y-135642742D01*
X124811279Y-136842742D01*
X124811773Y-136847759D01*
X124811523Y-136849727D01*
X124812217Y-136852273D01*
X124813200Y-136862251D01*
X124818291Y-136874541D01*
X124821790Y-136887370D01*
X124825692Y-136892408D01*
X124828132Y-136898299D01*
X124837537Y-136907704D01*
X124845680Y-136918219D01*
X124851214Y-136921381D01*
X124855722Y-136925889D01*
X124868007Y-136930977D01*
X124879557Y-136937578D01*
X124885881Y-136938381D01*
X124891770Y-136940821D01*
X124905071Y-136940821D01*
X124918264Y-136942498D01*
X124924413Y-136940821D01*
X124930788Y-136940821D01*
X124943078Y-136935729D01*
X124955907Y-136932231D01*
X124960945Y-136928328D01*
X124966836Y-136925889D01*
X124976241Y-136916483D01*
X124986756Y-136908341D01*
X124992559Y-136900165D01*
X124994426Y-136898299D01*
X124995184Y-136896466D01*
X124998103Y-136892356D01*
X125496993Y-136019298D01*
X125496993Y-136842742D01*
X125498914Y-136862251D01*
X125513846Y-136898299D01*
X125541436Y-136925889D01*
X125577484Y-136940821D01*
X125616502Y-136940821D01*
X125652550Y-136925889D01*
X125680140Y-136898299D01*
X125695072Y-136862251D01*
X125696993Y-136842742D01*
X125696993Y-136830235D01*
X125897778Y-136830235D01*
X125900544Y-136869155D01*
X125917994Y-136904054D01*
X125947470Y-136929619D01*
X125984486Y-136941957D01*
X126023406Y-136939191D01*
X126058305Y-136921741D01*
X126083870Y-136892265D01*
X126091861Y-136874365D01*
X126183354Y-136599885D01*
X126610632Y-136599885D01*
X126702125Y-136874365D01*
X126710116Y-136892265D01*
X126735681Y-136921741D01*
X126770580Y-136939191D01*
X126809500Y-136941957D01*
X126846516Y-136929619D01*
X126875992Y-136904053D01*
X126893442Y-136869155D01*
X126896208Y-136830234D01*
X126891861Y-136811119D01*
X126502402Y-135642742D01*
X127096993Y-135642742D01*
X127096993Y-136842742D01*
X127098914Y-136862251D01*
X127113846Y-136898299D01*
X127141436Y-136925889D01*
X127177484Y-136940821D01*
X127216502Y-136940821D01*
X127252550Y-136925889D01*
X127280140Y-136898299D01*
X127295072Y-136862251D01*
X127296993Y-136842742D01*
X127296993Y-136314171D01*
X127782707Y-136314171D01*
X127782707Y-136842742D01*
X127784628Y-136862251D01*
X127799560Y-136898299D01*
X127827150Y-136925889D01*
X127863198Y-136940821D01*
X127902216Y-136940821D01*
X127938264Y-136925889D01*
X127965854Y-136898299D01*
X127980786Y-136862251D01*
X127982707Y-136842742D01*
X127982707Y-135737519D01*
X128298914Y-135737519D01*
X128298914Y-135776537D01*
X128313846Y-135812585D01*
X128341436Y-135840175D01*
X128377484Y-135855107D01*
X128416502Y-135855107D01*
X128452550Y-135840175D01*
X128467704Y-135827739D01*
X128508154Y-135787287D01*
X128641791Y-135742742D01*
X128723623Y-135742742D01*
X128857260Y-135787287D01*
X128943377Y-135873405D01*
X128988355Y-135963362D01*
X129039850Y-136169338D01*
X129039850Y-136316146D01*
X128988355Y-136522122D01*
X128943377Y-136612079D01*
X128857261Y-136698196D01*
X128723624Y-136742742D01*
X128641791Y-136742742D01*
X128508154Y-136698197D01*
X128467704Y-136657746D01*
X128452550Y-136645310D01*
X128416502Y-136630378D01*
X128377484Y-136630378D01*
X128341436Y-136645310D01*
X128313846Y-136672900D01*
X128298914Y-136708948D01*
X128298914Y-136747966D01*
X128313846Y-136784014D01*
X128326282Y-136799168D01*
X128383425Y-136856310D01*
X128398578Y-136868747D01*
X128401897Y-136870121D01*
X128404613Y-136872477D01*
X128422514Y-136880468D01*
X128593942Y-136937611D01*
X128603614Y-136939810D01*
X128606055Y-136940821D01*
X128609592Y-136941169D01*
X128613057Y-136941957D01*
X128615690Y-136941769D01*
X128625564Y-136942742D01*
X128739850Y-136942742D01*
X128749723Y-136941769D01*
X128752357Y-136941957D01*
X128755819Y-136941169D01*
X128759359Y-136940821D01*
X128761801Y-136939809D01*
X128771472Y-136937610D01*
X128942902Y-136880468D01*
X128960802Y-136872477D01*
X128963517Y-136870122D01*
X128966837Y-136868747D01*
X128981990Y-136856310D01*
X129096275Y-136742024D01*
X129102565Y-136734359D01*
X129104564Y-136732626D01*
X129106459Y-136729613D01*
X129108711Y-136726871D01*
X129109720Y-136724433D01*
X129115007Y-136716035D01*
X129172150Y-136601749D01*
X129172695Y-136600322D01*
X129173126Y-136599742D01*
X129176049Y-136591559D01*
X129179156Y-136583441D01*
X129179207Y-136582720D01*
X129179721Y-136581282D01*
X129236864Y-136352710D01*
X129237363Y-136349330D01*
X129237929Y-136347966D01*
X129238652Y-136340614D01*
X129239732Y-136333318D01*
X129239514Y-136331859D01*
X129239850Y-136328457D01*
X129239850Y-136157028D01*
X129239514Y-136153625D01*
X129239732Y-136152167D01*
X129238652Y-136144870D01*
X129237929Y-136137519D01*
X129237363Y-136136154D01*
X129236864Y-136132775D01*
X129179721Y-135904203D01*
X129179207Y-135902764D01*
X129179156Y-135902044D01*
X129176049Y-135893925D01*
X129173126Y-135885743D01*
X129172695Y-135885162D01*
X129172150Y-135883736D01*
X129115007Y-135769450D01*
X129109720Y-135761051D01*
X129108711Y-135758614D01*
X129106459Y-135755871D01*
X129104564Y-135752859D01*
X129102565Y-135751125D01*
X129096275Y-135743461D01*
X128981990Y-135629175D01*
X128966837Y-135616738D01*
X128963517Y-135615362D01*
X128960802Y-135613008D01*
X128942902Y-135605017D01*
X128771473Y-135547874D01*
X128761801Y-135545674D01*
X128759359Y-135544663D01*
X128755820Y-135544314D01*
X128752357Y-135543527D01*
X128749723Y-135543714D01*
X128739850Y-135542742D01*
X128625564Y-135542742D01*
X128615690Y-135543714D01*
X128613056Y-135543527D01*
X128609592Y-135544314D01*
X128606055Y-135544663D01*
X128603613Y-135545674D01*
X128593941Y-135547874D01*
X128422513Y-135605017D01*
X128404613Y-135613008D01*
X128401897Y-135615362D01*
X128398578Y-135616738D01*
X128383425Y-135629175D01*
X128326282Y-135686317D01*
X128313846Y-135701471D01*
X128298914Y-135737519D01*
X127982707Y-135737519D01*
X127982707Y-135642742D01*
X127980786Y-135623233D01*
X127965854Y-135587185D01*
X127938264Y-135559595D01*
X127902216Y-135544663D01*
X127863198Y-135544663D01*
X127827150Y-135559595D01*
X127799560Y-135587185D01*
X127784628Y-135623233D01*
X127782707Y-135642742D01*
X127782707Y-136114171D01*
X127296993Y-136114171D01*
X127296993Y-135642742D01*
X127295072Y-135623233D01*
X127280140Y-135587185D01*
X127252550Y-135559595D01*
X127216502Y-135544663D01*
X127177484Y-135544663D01*
X127141436Y-135559595D01*
X127113846Y-135587185D01*
X127098914Y-135623233D01*
X127096993Y-135642742D01*
X126502402Y-135642742D01*
X126491861Y-135611119D01*
X126483870Y-135593219D01*
X126479185Y-135587818D01*
X126475992Y-135581431D01*
X126466522Y-135573217D01*
X126458305Y-135563743D01*
X126451915Y-135560548D01*
X126446516Y-135555865D01*
X126434618Y-135551899D01*
X126423406Y-135546293D01*
X126416278Y-135545786D01*
X126409500Y-135543527D01*
X126396993Y-135544415D01*
X126384486Y-135543527D01*
X126377707Y-135545786D01*
X126370580Y-135546293D01*
X126359367Y-135551899D01*
X126347470Y-135555865D01*
X126342070Y-135560548D01*
X126335681Y-135563743D01*
X126327465Y-135573214D01*
X126317994Y-135581430D01*
X126314799Y-135587819D01*
X126310116Y-135593219D01*
X126302125Y-135611119D01*
X125902125Y-136811119D01*
X125897778Y-136830235D01*
X125696993Y-136830235D01*
X125696993Y-135642742D01*
X125696498Y-135637724D01*
X125696749Y-135635758D01*
X125696054Y-135633212D01*
X125695072Y-135623233D01*
X125689980Y-135610941D01*
X125686482Y-135598114D01*
X125682579Y-135593075D01*
X125680140Y-135587185D01*
X125670734Y-135577779D01*
X125662592Y-135567265D01*
X125657057Y-135564102D01*
X125652550Y-135559595D01*
X125640260Y-135554504D01*
X125628715Y-135547907D01*
X125622393Y-135547103D01*
X125616502Y-135544663D01*
X125603199Y-135544663D01*
X125590008Y-135542986D01*
X125583859Y-135544663D01*
X125577484Y-135544663D01*
X125565193Y-135549754D01*
X125552365Y-135553253D01*
X125547326Y-135557155D01*
X125541436Y-135559595D01*
X125532030Y-135569000D01*
X125521516Y-135577143D01*
X125515712Y-135585318D01*
X125513846Y-135587185D01*
X125513087Y-135589017D01*
X125510169Y-135593128D01*
X125011279Y-136466185D01*
X125011279Y-135642742D01*
X125009358Y-135623233D01*
X124994426Y-135587185D01*
X124966836Y-135559595D01*
X124930788Y-135544663D01*
X124891770Y-135544663D01*
X124855722Y-135559595D01*
X124828132Y-135587185D01*
X124813200Y-135623233D01*
X124811279Y-135642742D01*
X124439850Y-135642742D01*
X124439355Y-135637724D01*
X124439606Y-135635758D01*
X124438911Y-135633212D01*
X124437929Y-135623233D01*
X124432837Y-135610941D01*
X124429339Y-135598114D01*
X124425436Y-135593075D01*
X124422997Y-135587185D01*
X124413591Y-135577779D01*
X124405449Y-135567265D01*
X124399914Y-135564102D01*
X124395407Y-135559595D01*
X124383117Y-135554504D01*
X124371572Y-135547907D01*
X124365250Y-135547103D01*
X124359359Y-135544663D01*
X124346056Y-135544663D01*
X124332865Y-135542986D01*
X124326716Y-135544663D01*
X124320341Y-135544663D01*
X124308050Y-135549754D01*
X124295222Y-135553253D01*
X124290183Y-135557155D01*
X124284293Y-135559595D01*
X124274887Y-135569000D01*
X124264373Y-135577143D01*
X124258569Y-135585318D01*
X124256703Y-135587185D01*
X124255944Y-135589017D01*
X124253026Y-135593128D01*
X123754136Y-136466185D01*
X123754136Y-135642742D01*
X123752215Y-135623233D01*
X123737283Y-135587185D01*
X123709693Y-135559595D01*
X123673645Y-135544663D01*
X123634627Y-135544663D01*
X123598579Y-135559595D01*
X123570989Y-135587185D01*
X123556057Y-135623233D01*
X123554136Y-135642742D01*
X123182707Y-135642742D01*
X123180786Y-135623233D01*
X123165854Y-135587185D01*
X123138264Y-135559595D01*
X123102216Y-135544663D01*
X123082707Y-135542742D01*
X122511279Y-135542742D01*
X122491770Y-135544663D01*
X122455722Y-135559595D01*
X122428132Y-135587185D01*
X122413200Y-135623233D01*
X122095072Y-135623233D01*
X122080140Y-135587185D01*
X122052550Y-135559595D01*
X122016502Y-135544663D01*
X121977484Y-135544663D01*
X121941436Y-135559595D01*
X121913846Y-135587185D01*
X121898914Y-135623233D01*
X121896993Y-135642742D01*
X121896993Y-136742742D01*
X121425565Y-136742742D01*
X121406056Y-136744663D01*
X121370008Y-136759595D01*
X121342418Y-136787185D01*
X121327486Y-136823233D01*
X121194153Y-136823233D01*
X121194153Y-135409409D01*
X129373183Y-135409409D01*
X129373183Y-137076075D01*
G37*
X137046993Y-121593409D02*
X137380326Y-121593409D01*
X137380326Y-122117219D02*
X137380326Y-121117219D01*
X137380326Y-121117219D02*
X136904136Y-121117219D01*
X135439850Y-145617219D02*
X135249374Y-145617219D01*
X135249374Y-145617219D02*
X135154136Y-145664838D01*
X135154136Y-145664838D02*
X135058898Y-145760076D01*
X135058898Y-145760076D02*
X135011279Y-145950552D01*
X135011279Y-145950552D02*
X135011279Y-146283885D01*
X135011279Y-146283885D02*
X135058898Y-146474361D01*
X135058898Y-146474361D02*
X135154136Y-146569600D01*
X135154136Y-146569600D02*
X135249374Y-146617219D01*
X135249374Y-146617219D02*
X135439850Y-146617219D01*
X135439850Y-146617219D02*
X135535088Y-146569600D01*
X135535088Y-146569600D02*
X135630326Y-146474361D01*
X135630326Y-146474361D02*
X135677945Y-146283885D01*
X135677945Y-146283885D02*
X135677945Y-145950552D01*
X135677945Y-145950552D02*
X135630326Y-145760076D01*
X135630326Y-145760076D02*
X135535088Y-145664838D01*
X135535088Y-145664838D02*
X135439850Y-145617219D01*
X137189850Y-140367219D02*
X136999374Y-140367219D01*
X136999374Y-140367219D02*
X136904136Y-140414838D01*
X136904136Y-140414838D02*
X136808898Y-140510076D01*
X136808898Y-140510076D02*
X136761279Y-140700552D01*
X136761279Y-140700552D02*
X136761279Y-141033885D01*
X136761279Y-141033885D02*
X136808898Y-141224361D01*
X136808898Y-141224361D02*
X136904136Y-141319600D01*
X136904136Y-141319600D02*
X136999374Y-141367219D01*
X136999374Y-141367219D02*
X137189850Y-141367219D01*
X137189850Y-141367219D02*
X137285088Y-141319600D01*
X137285088Y-141319600D02*
X137380326Y-141224361D01*
X137380326Y-141224361D02*
X137427945Y-141033885D01*
X137427945Y-141033885D02*
X137427945Y-140700552D01*
X137427945Y-140700552D02*
X137380326Y-140510076D01*
X137380326Y-140510076D02*
X137285088Y-140414838D01*
X137285088Y-140414838D02*
X137189850Y-140367219D01*
X137932707Y-58507238D02*
X137761279Y-58564381D01*
X137761279Y-58564381D02*
X137704136Y-58621524D01*
X137704136Y-58621524D02*
X137646993Y-58735809D01*
X137646993Y-58735809D02*
X137646993Y-58907238D01*
X137646993Y-58907238D02*
X137704136Y-59021524D01*
X137704136Y-59021524D02*
X137761279Y-59078667D01*
X137761279Y-59078667D02*
X137875564Y-59135809D01*
X137875564Y-59135809D02*
X138332707Y-59135809D01*
X138332707Y-59135809D02*
X138332707Y-57935809D01*
X138332707Y-57935809D02*
X137932707Y-57935809D01*
X137932707Y-57935809D02*
X137818422Y-57992952D01*
X137818422Y-57992952D02*
X137761279Y-58050095D01*
X137761279Y-58050095D02*
X137704136Y-58164381D01*
X137704136Y-58164381D02*
X137704136Y-58278667D01*
X137704136Y-58278667D02*
X137761279Y-58392952D01*
X137761279Y-58392952D02*
X137818422Y-58450095D01*
X137818422Y-58450095D02*
X137932707Y-58507238D01*
X137932707Y-58507238D02*
X138332707Y-58507238D01*
X136961279Y-59135809D02*
X137075564Y-59078667D01*
X137075564Y-59078667D02*
X137132707Y-59021524D01*
X137132707Y-59021524D02*
X137189850Y-58907238D01*
X137189850Y-58907238D02*
X137189850Y-58564381D01*
X137189850Y-58564381D02*
X137132707Y-58450095D01*
X137132707Y-58450095D02*
X137075564Y-58392952D01*
X137075564Y-58392952D02*
X136961279Y-58335809D01*
X136961279Y-58335809D02*
X136789850Y-58335809D01*
X136789850Y-58335809D02*
X136675564Y-58392952D01*
X136675564Y-58392952D02*
X136618422Y-58450095D01*
X136618422Y-58450095D02*
X136561279Y-58564381D01*
X136561279Y-58564381D02*
X136561279Y-58907238D01*
X136561279Y-58907238D02*
X136618422Y-59021524D01*
X136618422Y-59021524D02*
X136675564Y-59078667D01*
X136675564Y-59078667D02*
X136789850Y-59135809D01*
X136789850Y-59135809D02*
X136961279Y-59135809D01*
X135532708Y-59135809D02*
X135532708Y-58507238D01*
X135532708Y-58507238D02*
X135589850Y-58392952D01*
X135589850Y-58392952D02*
X135704136Y-58335809D01*
X135704136Y-58335809D02*
X135932708Y-58335809D01*
X135932708Y-58335809D02*
X136046993Y-58392952D01*
X135532708Y-59078667D02*
X135646993Y-59135809D01*
X135646993Y-59135809D02*
X135932708Y-59135809D01*
X135932708Y-59135809D02*
X136046993Y-59078667D01*
X136046993Y-59078667D02*
X136104136Y-58964381D01*
X136104136Y-58964381D02*
X136104136Y-58850095D01*
X136104136Y-58850095D02*
X136046993Y-58735809D01*
X136046993Y-58735809D02*
X135932708Y-58678667D01*
X135932708Y-58678667D02*
X135646993Y-58678667D01*
X135646993Y-58678667D02*
X135532708Y-58621524D01*
X134961279Y-59135809D02*
X134961279Y-58335809D01*
X134961279Y-58564381D02*
X134904136Y-58450095D01*
X134904136Y-58450095D02*
X134846994Y-58392952D01*
X134846994Y-58392952D02*
X134732708Y-58335809D01*
X134732708Y-58335809D02*
X134618422Y-58335809D01*
X133704137Y-59135809D02*
X133704137Y-57935809D01*
X133704137Y-59078667D02*
X133818422Y-59135809D01*
X133818422Y-59135809D02*
X134046994Y-59135809D01*
X134046994Y-59135809D02*
X134161279Y-59078667D01*
X134161279Y-59078667D02*
X134218422Y-59021524D01*
X134218422Y-59021524D02*
X134275565Y-58907238D01*
X134275565Y-58907238D02*
X134275565Y-58564381D01*
X134275565Y-58564381D02*
X134218422Y-58450095D01*
X134218422Y-58450095D02*
X134161279Y-58392952D01*
X134161279Y-58392952D02*
X134046994Y-58335809D01*
X134046994Y-58335809D02*
X133818422Y-58335809D01*
X133818422Y-58335809D02*
X133704137Y-58392952D01*
X138332707Y-61067742D02*
X138332707Y-59867742D01*
X138332707Y-59867742D02*
X137646993Y-61067742D01*
X137646993Y-61067742D02*
X137646993Y-59867742D01*
X136561279Y-61067742D02*
X136561279Y-60439171D01*
X136561279Y-60439171D02*
X136618421Y-60324885D01*
X136618421Y-60324885D02*
X136732707Y-60267742D01*
X136732707Y-60267742D02*
X136961279Y-60267742D01*
X136961279Y-60267742D02*
X137075564Y-60324885D01*
X136561279Y-61010600D02*
X136675564Y-61067742D01*
X136675564Y-61067742D02*
X136961279Y-61067742D01*
X136961279Y-61067742D02*
X137075564Y-61010600D01*
X137075564Y-61010600D02*
X137132707Y-60896314D01*
X137132707Y-60896314D02*
X137132707Y-60782028D01*
X137132707Y-60782028D02*
X137075564Y-60667742D01*
X137075564Y-60667742D02*
X136961279Y-60610600D01*
X136961279Y-60610600D02*
X136675564Y-60610600D01*
X136675564Y-60610600D02*
X136561279Y-60553457D01*
X135989850Y-61067742D02*
X135989850Y-60267742D01*
X135989850Y-60382028D02*
X135932707Y-60324885D01*
X135932707Y-60324885D02*
X135818422Y-60267742D01*
X135818422Y-60267742D02*
X135646993Y-60267742D01*
X135646993Y-60267742D02*
X135532707Y-60324885D01*
X135532707Y-60324885D02*
X135475565Y-60439171D01*
X135475565Y-60439171D02*
X135475565Y-61067742D01*
X135475565Y-60439171D02*
X135418422Y-60324885D01*
X135418422Y-60324885D02*
X135304136Y-60267742D01*
X135304136Y-60267742D02*
X135132707Y-60267742D01*
X135132707Y-60267742D02*
X135018422Y-60324885D01*
X135018422Y-60324885D02*
X134961279Y-60439171D01*
X134961279Y-60439171D02*
X134961279Y-61067742D01*
X133932707Y-61010600D02*
X134046993Y-61067742D01*
X134046993Y-61067742D02*
X134275565Y-61067742D01*
X134275565Y-61067742D02*
X134389850Y-61010600D01*
X134389850Y-61010600D02*
X134446993Y-60896314D01*
X134446993Y-60896314D02*
X134446993Y-60439171D01*
X134446993Y-60439171D02*
X134389850Y-60324885D01*
X134389850Y-60324885D02*
X134275565Y-60267742D01*
X134275565Y-60267742D02*
X134046993Y-60267742D01*
X134046993Y-60267742D02*
X133932707Y-60324885D01*
X133932707Y-60324885D02*
X133875565Y-60439171D01*
X133875565Y-60439171D02*
X133875565Y-60553457D01*
X133875565Y-60553457D02*
X134446993Y-60667742D01*
X133546993Y-133843409D02*
X133880326Y-133843409D01*
X133880326Y-134367219D02*
X133880326Y-133367219D01*
X133880326Y-133367219D02*
X133404136Y-133367219D01*
G36*
X112304398Y-139210075D02*
G01*
X111154724Y-139210075D01*
X111154724Y-138957233D01*
X111288057Y-138957233D01*
X111288057Y-138996251D01*
X111302989Y-139032299D01*
X111330579Y-139059889D01*
X111366627Y-139074821D01*
X111386136Y-139076742D01*
X112071850Y-139076742D01*
X112091359Y-139074821D01*
X112127407Y-139059889D01*
X112154997Y-139032299D01*
X112169929Y-138996251D01*
X112169929Y-138957233D01*
X112154997Y-138921185D01*
X112127407Y-138893595D01*
X112091359Y-138878663D01*
X112071850Y-138876742D01*
X111828993Y-138876742D01*
X111828993Y-138075306D01*
X111886853Y-138133167D01*
X111894519Y-138139459D01*
X111896252Y-138141457D01*
X111899260Y-138143350D01*
X111902006Y-138145604D01*
X111904446Y-138146614D01*
X111912843Y-138151900D01*
X112027129Y-138209043D01*
X112045437Y-138216049D01*
X112084358Y-138218815D01*
X112121373Y-138206476D01*
X112150850Y-138180912D01*
X112168300Y-138146013D01*
X112171065Y-138107093D01*
X112158726Y-138070077D01*
X112133162Y-138040600D01*
X112116572Y-138030157D01*
X112016799Y-137980270D01*
X111920992Y-137884463D01*
X111812198Y-137721272D01*
X111812153Y-137721217D01*
X111812140Y-137721185D01*
X111812066Y-137721111D01*
X111799778Y-137706105D01*
X111791549Y-137700594D01*
X111784550Y-137693595D01*
X111775498Y-137689845D01*
X111767358Y-137684394D01*
X111757650Y-137682452D01*
X111748502Y-137678663D01*
X111738703Y-137678663D01*
X111729098Y-137676742D01*
X111719387Y-137678663D01*
X111709484Y-137678663D01*
X111700431Y-137682412D01*
X111690821Y-137684314D01*
X111682582Y-137689806D01*
X111673436Y-137693595D01*
X111666509Y-137700521D01*
X111658356Y-137705957D01*
X111652845Y-137714185D01*
X111645846Y-137721185D01*
X111642096Y-137730236D01*
X111636645Y-137738377D01*
X111634703Y-137748084D01*
X111630914Y-137757233D01*
X111629013Y-137776535D01*
X111628993Y-137776637D01*
X111628999Y-137776671D01*
X111628993Y-137776742D01*
X111628993Y-138876742D01*
X111386136Y-138876742D01*
X111366627Y-138878663D01*
X111330579Y-138893595D01*
X111302989Y-138921185D01*
X111288057Y-138957233D01*
X111154724Y-138957233D01*
X111154724Y-137543409D01*
X112304398Y-137543409D01*
X112304398Y-139210075D01*
G37*
X133689850Y-143867219D02*
X133499374Y-143867219D01*
X133499374Y-143867219D02*
X133404136Y-143914838D01*
X133404136Y-143914838D02*
X133308898Y-144010076D01*
X133308898Y-144010076D02*
X133261279Y-144200552D01*
X133261279Y-144200552D02*
X133261279Y-144533885D01*
X133261279Y-144533885D02*
X133308898Y-144724361D01*
X133308898Y-144724361D02*
X133404136Y-144819600D01*
X133404136Y-144819600D02*
X133499374Y-144867219D01*
X133499374Y-144867219D02*
X133689850Y-144867219D01*
X133689850Y-144867219D02*
X133785088Y-144819600D01*
X133785088Y-144819600D02*
X133880326Y-144724361D01*
X133880326Y-144724361D02*
X133927945Y-144533885D01*
X133927945Y-144533885D02*
X133927945Y-144200552D01*
X133927945Y-144200552D02*
X133880326Y-144010076D01*
X133880326Y-144010076D02*
X133785088Y-143914838D01*
X133785088Y-143914838D02*
X133689850Y-143867219D01*
%LPC*%
D11*
X68580000Y-140970000D03*
D12*
X71120000Y-140970000D03*
X73660000Y-140970000D03*
X76200000Y-140970000D03*
X78740000Y-140970000D03*
X81280000Y-140970000D03*
X83820000Y-140970000D03*
D13*
X143925000Y-126215000D03*
D14*
X55000000Y-145000000D03*
D11*
X64770000Y-53340000D03*
D12*
X67310000Y-53340000D03*
X69850000Y-53340000D03*
D11*
X139700000Y-73660000D03*
D12*
X139700000Y-76200000D03*
X139700000Y-78740000D03*
X139700000Y-81280000D03*
D11*
X53340000Y-81280000D03*
D12*
X55880000Y-81280000D03*
X58420000Y-81280000D03*
X60960000Y-81280000D03*
X63500000Y-81280000D03*
D14*
X55000000Y-55000000D03*
D11*
X147320000Y-81280000D03*
D12*
X147320000Y-78740000D03*
X147320000Y-76200000D03*
X147320000Y-73660000D03*
X147320000Y-71120000D03*
X147320000Y-68580000D03*
X147320000Y-66040000D03*
D11*
X77470000Y-53340000D03*
D12*
X80010000Y-53340000D03*
X82550000Y-53340000D03*
D11*
X53340000Y-121920000D03*
D12*
X55880000Y-121920000D03*
X58420000Y-121920000D03*
D14*
X145000000Y-145000000D03*
D11*
X53340000Y-124460000D03*
D12*
X55880000Y-124460000D03*
X58420000Y-124460000D03*
D15*
X129540000Y-140970000D03*
D16*
X127000000Y-140970000D03*
X124460000Y-140970000D03*
X121920000Y-140970000D03*
X119380000Y-140970000D03*
X116840000Y-140970000D03*
X114300000Y-140970000D03*
X111760000Y-140970000D03*
X111760000Y-148590000D03*
X114300000Y-148590000D03*
X116840000Y-148590000D03*
X119380000Y-148590000D03*
X121920000Y-148590000D03*
X124460000Y-148590000D03*
X127000000Y-148590000D03*
X129540000Y-148590000D03*
D14*
X145000000Y-55000000D03*
D11*
X53340000Y-129540000D03*
D12*
X55880000Y-129540000D03*
X58420000Y-129540000D03*
D11*
X91440000Y-140970000D03*
D12*
X93980000Y-140970000D03*
X96520000Y-140970000D03*
X99060000Y-140970000D03*
X101600000Y-140970000D03*
X104140000Y-140970000D03*
D17*
X58420000Y-71120000D03*
D18*
X58420000Y-73620000D03*
D19*
X96000000Y-58500000D03*
D20*
X98000000Y-58500000D03*
X100000000Y-58500000D03*
X102000000Y-58500000D03*
X104000000Y-58500000D03*
D19*
X141500000Y-96000000D03*
D20*
X141500000Y-98000000D03*
X141500000Y-100000000D03*
X141500000Y-102000000D03*
X141500000Y-104000000D03*
D11*
X53340000Y-132080000D03*
D12*
X55880000Y-132080000D03*
X58420000Y-132080000D03*
%LPD*%
M02*
