M48
; DRILL file {KiCad 8.0.7} date 2025-12-14T15:56:23+0900
; FORMAT={-:-/ absolute / metric / decimal}
; #@! TF.CreationDate,2025-12-14T15:56:23+09:00
; #@! TF.GenerationSoftware,Kicad,Pcbnew,8.0.7
; #@! TF.FileFunction,Plated,1,2,PTH
FMAT,2
METRIC
; #@! TA.AperFunction,Plated,PTH,ViaDrill
T1C0.300
; #@! TA.AperFunction,Plated,PTH,ComponentDrill
T2C0.800
; #@! TA.AperFunction,Plated,PTH,ComponentDrill
T3C1.000
%
G90
G05
T1
X52.5Y-62.5
X52.5Y-67.5
X55.0Y-90.0
X55.0Y-95.0
X55.0Y-100.0
X55.0Y-105.0
X55.0Y-110.0
X55.0Y-115.0
X55.0Y-137.5
X60.0Y-57.5
X60.0Y-62.5
X60.0Y-67.5
X60.0Y-90.0
X60.0Y-95.0
X60.0Y-100.0
X60.0Y-105.0
X60.0Y-110.0
X60.0Y-115.0
X62.35Y-121.8
X62.5Y-147.5
X62.95Y-127.25
X63.125Y-123.4
X63.8Y-125.05
X65.0Y-90.0
X65.0Y-115.0
X65.0Y-137.5
X66.35Y-129.55
X70.027Y-131.823
X72.5Y-137.5
X74.852Y-64.852
X75.0Y-147.5
X78.6Y-135.4
X80.0Y-62.5
X85.0Y-62.5
X87.5Y-147.5
X90.0Y-55.0
X90.0Y-62.5
X95.0Y-55.0
X95.0Y-62.5
X97.5Y-147.5
X102.5Y-52.5
X107.5Y-52.5
X108.065Y-60.55
X110.0Y-145.0
X110.0Y-147.5
X112.5Y-52.5
X113.0Y-145.0
X117.5Y-52.5
X120.0Y-67.5
X122.5Y-52.5
X125.0Y-72.5
X125.098Y-67.402
X125.645Y-124.69
X127.5Y-52.5
X127.5Y-124.7
X127.55Y-127.25
X128.4Y-132.75
X129.25Y-56.225
X129.527Y-132.923
X129.885Y-72.19
X130.0Y-67.5
X130.0Y-77.5
X131.527Y-128.077
X131.85Y-126.8
X132.05Y-131.8
X132.5Y-52.5
X132.5Y-120.0
X133.4Y-115.95
X133.75Y-141.9
X133.75Y-142.7
X133.75Y-143.5
X133.75Y-144.3
X133.75Y-145.1
X133.75Y-145.9
X133.75Y-146.7
X133.75Y-147.5
X134.75Y-118.65
X135.0Y-72.5
X136.1Y-133.75
X136.8Y-124.6
X137.35Y-135.55
X137.4Y-133.852
X137.407Y-134.702
X137.5Y-52.5
X138.025Y-138.95
X138.1Y-124.65
X138.925Y-139.125
X139.8Y-138.05
X140.0Y-67.5
X140.0Y-72.1
X140.213Y-139.787
X142.3Y-112.8
X142.3Y-116.0
X142.5Y-75.0
X142.5Y-77.5
X142.5Y-85.0
X142.5Y-90.0
X142.5Y-140.0
X142.5Y-142.5
X142.5Y-148.0
X143.85Y-116.0
X144.85Y-138.05
X145.0Y-140.0
X145.0Y-142.5
X145.0Y-148.0
X145.1Y-112.8
X147.5Y-60.0
X147.5Y-85.0
X147.5Y-90.0
X147.5Y-95.0
X147.5Y-100.0
X147.5Y-105.0
X147.5Y-110.0
X147.5Y-115.0
X147.5Y-120.0
X147.5Y-140.0
X147.5Y-142.5
X147.5Y-148.0
X148.0Y-128.05
X148.05Y-126.75
X148.05Y-130.5
X148.1Y-125.5
T2
X96.0Y-58.5
X98.0Y-58.5
X100.0Y-58.5
X102.0Y-58.5
X104.0Y-58.5
X111.76Y-140.97
X111.76Y-148.59
X114.3Y-140.97
X114.3Y-148.59
X116.84Y-140.97
X116.84Y-148.59
X119.38Y-140.97
X119.38Y-148.59
X121.92Y-140.97
X121.92Y-148.59
X124.46Y-140.97
X124.46Y-148.59
X127.0Y-140.97
X127.0Y-148.59
X129.54Y-140.97
X129.54Y-148.59
X141.5Y-96.0
X141.5Y-98.0
X141.5Y-100.0
X141.5Y-102.0
X141.5Y-104.0
T3
X53.34Y-81.28
X53.34Y-121.92
X53.34Y-124.46
X53.34Y-129.54
X53.34Y-132.08
X55.88Y-81.28
X55.88Y-121.92
X55.88Y-124.46
X55.88Y-129.54
X55.88Y-132.08
X58.42Y-71.12
X58.42Y-73.62
X58.42Y-81.28
X58.42Y-121.92
X58.42Y-124.46
X58.42Y-129.54
X58.42Y-132.08
X60.96Y-81.28
X63.5Y-81.28
X64.77Y-53.34
X67.31Y-53.34
X68.58Y-140.97
X69.85Y-53.34
X71.12Y-140.97
X73.66Y-140.97
X76.2Y-140.97
X77.47Y-53.34
X78.74Y-140.97
X80.01Y-53.34
X81.28Y-140.97
X82.55Y-53.34
X83.82Y-140.97
X91.44Y-140.97
X93.98Y-140.97
X96.52Y-140.97
X99.06Y-140.97
X101.6Y-140.97
X104.14Y-140.97
X139.7Y-73.66
X139.7Y-76.2
X139.7Y-78.74
X139.7Y-81.28
X147.32Y-66.04
X147.32Y-68.58
X147.32Y-71.12
X147.32Y-73.66
X147.32Y-76.2
X147.32Y-78.74
X147.32Y-81.28
M30
