G04 #@! TF.GenerationSoftware,KiCad,Pcbnew,8.0.7*
G04 #@! TF.CreationDate,2025-12-14T15:56:06+09:00*
G04 #@! TF.ProjectId,GBA_Main,4742415f-4d61-4696-9e2e-6b696361645f,rev?*
G04 #@! TF.SameCoordinates,Original*
G04 #@! TF.FileFunction,Copper,L2,Bot*
G04 #@! TF.FilePolarity,Positive*
%FSLAX46Y46*%
G04 Gerber Fmt 4.6, Leading zero omitted, Abs format (unit mm)*
G04 Created by KiCad (PCBNEW 8.0.7) date 2025-12-14 15:56:06*
%MOMM*%
%LPD*%
G01*
G04 APERTURE LIST*
G04 Aperture macros list*
%AMRoundRect*
0 Rectangle with rounded corners*
0 $1 Rounding radius*
0 $2 $3 $4 $5 $6 $7 $8 $9 X,Y pos of 4 corners*
0 Add a 4 corners polygon primitive as box body*
4,1,4,$2,$3,$4,$5,$6,$7,$8,$9,$2,$3,0*
0 Add four circle primitives for the rounded corners*
1,1,$1+$1,$2,$3*
1,1,$1+$1,$4,$5*
1,1,$1+$1,$6,$7*
1,1,$1+$1,$8,$9*
0 Add four rect primitives between the rounded corners*
20,1,$1+$1,$2,$3,$4,$5,0*
20,1,$1+$1,$4,$5,$6,$7,0*
20,1,$1+$1,$6,$7,$8,$9,0*
20,1,$1+$1,$8,$9,$2,$3,0*%
G04 Aperture macros list end*
G04 #@! TA.AperFunction,ComponentPad*
%ADD10R,1.700000X1.700000*%
G04 #@! TD*
G04 #@! TA.AperFunction,ComponentPad*
%ADD11O,1.700000X1.700000*%
G04 #@! TD*
G04 #@! TA.AperFunction,ComponentPad*
%ADD12R,1.600000X1.600000*%
G04 #@! TD*
G04 #@! TA.AperFunction,ComponentPad*
%ADD13O,1.600000X1.600000*%
G04 #@! TD*
G04 #@! TA.AperFunction,ComponentPad*
%ADD14RoundRect,0.250000X-0.750000X0.600000X-0.750000X-0.600000X0.750000X-0.600000X0.750000X0.600000X0*%
G04 #@! TD*
G04 #@! TA.AperFunction,ComponentPad*
%ADD15O,2.000000X1.700000*%
G04 #@! TD*
G04 #@! TA.AperFunction,ComponentPad*
%ADD16R,1.350000X1.350000*%
G04 #@! TD*
G04 #@! TA.AperFunction,ComponentPad*
%ADD17O,1.350000X1.350000*%
G04 #@! TD*
G04 #@! TA.AperFunction,ViaPad*
%ADD18C,0.600000*%
G04 #@! TD*
G04 #@! TA.AperFunction,Conductor*
%ADD19C,1.000000*%
G04 #@! TD*
G04 #@! TA.AperFunction,Conductor*
%ADD20C,0.250000*%
G04 #@! TD*
G04 APERTURE END LIST*
D10*
X68580000Y-140970000D03*
D11*
X71120000Y-140970000D03*
X73660000Y-140970000D03*
X76200000Y-140970000D03*
X78740000Y-140970000D03*
X81280000Y-140970000D03*
X83820000Y-140970000D03*
D10*
X64770000Y-53340000D03*
D11*
X67310000Y-53340000D03*
X69850000Y-53340000D03*
D10*
X139700000Y-73660000D03*
D11*
X139700000Y-76200000D03*
X139700000Y-78740000D03*
X139700000Y-81280000D03*
D10*
X53340000Y-81280000D03*
D11*
X55880000Y-81280000D03*
X58420000Y-81280000D03*
X60960000Y-81280000D03*
X63500000Y-81280000D03*
D10*
X147320000Y-81280000D03*
D11*
X147320000Y-78740000D03*
X147320000Y-76200000D03*
X147320000Y-73660000D03*
X147320000Y-71120000D03*
X147320000Y-68580000D03*
X147320000Y-66040000D03*
D10*
X77470000Y-53340000D03*
D11*
X80010000Y-53340000D03*
X82550000Y-53340000D03*
D10*
X53340000Y-121920000D03*
D11*
X55880000Y-121920000D03*
X58420000Y-121920000D03*
D10*
X53340000Y-124460000D03*
D11*
X55880000Y-124460000D03*
X58420000Y-124460000D03*
D12*
X129540000Y-140970000D03*
D13*
X127000000Y-140970000D03*
X124460000Y-140970000D03*
X121920000Y-140970000D03*
X119380000Y-140970000D03*
X116840000Y-140970000D03*
X114300000Y-140970000D03*
X111760000Y-140970000D03*
X111760000Y-148590000D03*
X114300000Y-148590000D03*
X116840000Y-148590000D03*
X119380000Y-148590000D03*
X121920000Y-148590000D03*
X124460000Y-148590000D03*
X127000000Y-148590000D03*
X129540000Y-148590000D03*
D10*
X53340000Y-129540000D03*
D11*
X55880000Y-129540000D03*
X58420000Y-129540000D03*
D10*
X91440000Y-140970000D03*
D11*
X93980000Y-140970000D03*
X96520000Y-140970000D03*
X99060000Y-140970000D03*
X101600000Y-140970000D03*
X104140000Y-140970000D03*
D14*
X58420000Y-71120000D03*
D15*
X58420000Y-73620000D03*
D16*
X96000000Y-58500000D03*
D17*
X98000000Y-58500000D03*
X100000000Y-58500000D03*
X102000000Y-58500000D03*
X104000000Y-58500000D03*
D16*
X141500000Y-96000000D03*
D17*
X141500000Y-98000000D03*
X141500000Y-100000000D03*
X141500000Y-102000000D03*
X141500000Y-104000000D03*
D10*
X53340000Y-132080000D03*
D11*
X55880000Y-132080000D03*
X58420000Y-132080000D03*
D18*
X140000000Y-67500000D03*
X147500000Y-140000000D03*
X147500000Y-115000000D03*
X60000000Y-90000000D03*
X60000000Y-57500000D03*
X139800000Y-138050000D03*
X110000000Y-145000000D03*
X132500000Y-52500000D03*
X90000000Y-62500000D03*
X112500000Y-52500000D03*
X107500000Y-52500000D03*
X130000000Y-67500000D03*
X129885202Y-72189798D03*
X135000000Y-72500000D03*
X145000000Y-140000000D03*
X60000000Y-105000000D03*
X147500000Y-120000000D03*
X95000000Y-55000000D03*
X60000000Y-62500000D03*
X145000000Y-148000000D03*
X113000000Y-145000000D03*
X148050000Y-126750000D03*
X60000000Y-115000000D03*
X55000000Y-105000000D03*
X142500000Y-148000000D03*
X144850000Y-138050000D03*
X145000000Y-142500000D03*
X125000000Y-72500000D03*
X60000000Y-67500000D03*
X137500000Y-52500000D03*
X147500000Y-110000000D03*
X148000000Y-128050000D03*
X147500000Y-85000000D03*
X102500000Y-52500000D03*
X125097702Y-67402298D03*
X147500000Y-105000000D03*
X120000000Y-67500000D03*
X55000000Y-137500000D03*
X65000000Y-115000000D03*
X55000000Y-95000000D03*
X129250000Y-56225000D03*
X142500000Y-142500000D03*
X74852463Y-64852463D03*
X55000000Y-90000000D03*
X132500000Y-120000000D03*
X147500000Y-95000000D03*
X52500000Y-67500000D03*
X142500000Y-90000000D03*
X147500000Y-90000000D03*
X55000000Y-100000000D03*
X122500000Y-52500000D03*
X110000000Y-147500000D03*
X130000000Y-77500000D03*
X87500000Y-147500000D03*
X147500000Y-100000000D03*
X127500000Y-52500000D03*
X55000000Y-110000000D03*
X97500000Y-147500000D03*
X60000000Y-100000000D03*
X65000000Y-137500000D03*
X142500000Y-75000000D03*
X148050000Y-130500000D03*
X62500000Y-147500000D03*
X147500000Y-142500000D03*
X142500000Y-140000000D03*
X147500000Y-148000000D03*
X148100000Y-125500000D03*
X55000000Y-115000000D03*
X117500000Y-52500000D03*
X60000000Y-110000000D03*
X60000000Y-95000000D03*
X80000000Y-62500000D03*
X127550000Y-127250000D03*
X65000000Y-90000000D03*
X52500000Y-62500000D03*
X85000000Y-62500000D03*
X142500000Y-85000000D03*
X90000000Y-55000000D03*
X142500000Y-77500000D03*
X75000000Y-147500000D03*
X147500000Y-60000000D03*
X72500000Y-137500000D03*
X95000000Y-62500000D03*
X142300000Y-116000000D03*
X143850000Y-116000000D03*
X78600000Y-135400000D03*
X125644558Y-124689884D03*
X127500000Y-124700000D03*
X142300000Y-112800000D03*
X145100000Y-112800000D03*
X108065424Y-60550000D03*
X132050000Y-131800000D03*
X133400000Y-115950000D03*
X140000000Y-72100000D03*
X136100000Y-133750000D03*
X134750000Y-118650000D03*
X63800000Y-125050000D03*
X128400000Y-132750000D03*
X129527298Y-132922702D03*
X131527298Y-128077298D03*
X63125000Y-123400000D03*
X70027298Y-131822702D03*
X137407029Y-134701912D03*
X137350000Y-135550000D03*
X66350000Y-129550000D03*
X62950000Y-127250000D03*
X137399704Y-133851942D03*
X131850000Y-126800000D03*
X62350000Y-121800000D03*
X140212500Y-139787500D03*
X133750000Y-142700000D03*
X133750000Y-145100000D03*
X133750000Y-145900000D03*
X133750000Y-141900000D03*
X136800000Y-124600000D03*
X138025000Y-138950000D03*
X133750000Y-146700000D03*
X133750000Y-143500000D03*
X133750000Y-144300000D03*
X133750000Y-147500000D03*
X138925000Y-139125000D03*
X138100000Y-124650000D03*
D19*
X51400000Y-84100000D02*
X51400000Y-73100000D01*
X53340000Y-121920000D02*
X53340000Y-132080000D01*
X141500000Y-104000000D02*
X140125000Y-102625000D01*
X144100000Y-79072032D02*
X144100000Y-69950000D01*
X53340000Y-121740000D02*
X51400000Y-119800000D01*
X148100000Y-130450000D02*
X148050000Y-130500000D01*
X54262081Y-84100000D02*
X51400000Y-84100000D01*
X51400000Y-99660000D02*
X51400000Y-87520000D01*
X82400000Y-51790000D02*
X80290000Y-51790000D01*
X148100000Y-125500000D02*
X148100000Y-130450000D01*
X51400000Y-104100000D02*
X51400000Y-99660000D01*
X55880000Y-81280000D02*
X55880000Y-82482081D01*
X85850000Y-51790000D02*
X82400000Y-51790000D01*
X144100000Y-69950000D02*
X136650000Y-62500000D01*
X139800000Y-117200000D02*
X148100000Y-125500000D01*
X140125000Y-102625000D02*
X140125000Y-83047032D01*
X148050000Y-136200000D02*
X148050000Y-130500000D01*
X68860000Y-51790000D02*
X81560000Y-51790000D01*
X86540000Y-51790000D02*
X85850000Y-51790000D01*
X139800000Y-138050000D02*
X144850000Y-138050000D01*
X136650000Y-62500000D02*
X97250000Y-62500000D01*
X141500000Y-106100000D02*
X139800000Y-107800000D01*
X58420000Y-73620000D02*
X51920000Y-73620000D01*
X51400000Y-73100000D02*
X58500000Y-66000000D01*
X51400000Y-112360000D02*
X51400000Y-104100000D01*
X51920000Y-73620000D02*
X51400000Y-73100000D01*
X67310000Y-53340000D02*
X68860000Y-51790000D01*
X97290000Y-51790000D02*
X85850000Y-51790000D01*
X80010000Y-53340000D02*
X81560000Y-51790000D01*
X97250000Y-62500000D02*
X86540000Y-51790000D01*
X146200000Y-138050000D02*
X148050000Y-136200000D01*
X58420000Y-66080000D02*
X58500000Y-66000000D01*
X58500000Y-66000000D02*
X67310000Y-57190000D01*
X104000000Y-58500000D02*
X97290000Y-51790000D01*
X55880000Y-82482081D02*
X54262081Y-84100000D01*
X140125000Y-83047032D02*
X144100000Y-79072032D01*
X139800000Y-107800000D02*
X139800000Y-117200000D01*
X67310000Y-57190000D02*
X67310000Y-53340000D01*
X51400000Y-87520000D02*
X51400000Y-84100000D01*
X144850000Y-138050000D02*
X146200000Y-138050000D01*
X51400000Y-119800000D02*
X51400000Y-112360000D01*
X81560000Y-51790000D02*
X82400000Y-51790000D01*
X141500000Y-104000000D02*
X141500000Y-106100000D01*
X51400000Y-104740000D02*
X51400000Y-104100000D01*
X53340000Y-121920000D02*
X53340000Y-121740000D01*
X55880000Y-135530000D02*
X55880000Y-132080000D01*
X63850000Y-143500000D02*
X55880000Y-135530000D01*
X114300000Y-148590000D02*
X129540000Y-148590000D01*
X99170000Y-142930000D02*
X98600000Y-143500000D01*
X99060000Y-140970000D02*
X99170000Y-141080000D01*
X99170000Y-141080000D02*
X99170000Y-142930000D01*
X114300000Y-148590000D02*
X104830000Y-148590000D01*
X104830000Y-148590000D02*
X99170000Y-142930000D01*
X98600000Y-143500000D02*
X63850000Y-143500000D01*
X55400000Y-78400000D02*
X63650000Y-78400000D01*
X77470000Y-64580000D02*
X77470000Y-53340000D01*
X53340000Y-80460000D02*
X55400000Y-78400000D01*
X63650000Y-78400000D02*
X77470000Y-64580000D01*
X53340000Y-81280000D02*
X53340000Y-80460000D01*
D20*
X145175000Y-96325000D02*
X141500000Y-100000000D01*
X142300000Y-116000000D02*
X143850000Y-116000000D01*
X136991726Y-61675000D02*
X145175000Y-69858274D01*
X100000000Y-58500000D02*
X103175000Y-61675000D01*
X103175000Y-61675000D02*
X136991726Y-61675000D01*
X145175000Y-69858274D02*
X145175000Y-96325000D01*
X137178122Y-61225000D02*
X145625000Y-69671878D01*
X125644558Y-124689884D02*
X127489884Y-124689884D01*
X73660000Y-138790000D02*
X73660000Y-140970000D01*
X127489884Y-124689884D02*
X127500000Y-124700000D01*
X102000000Y-58500000D02*
X104725000Y-61225000D01*
X104725000Y-61225000D02*
X137178122Y-61225000D01*
X145625000Y-69671878D02*
X145625000Y-97875000D01*
X77050000Y-135400000D02*
X73660000Y-138790000D01*
X78600000Y-135400000D02*
X77050000Y-135400000D01*
X145625000Y-97875000D02*
X141500000Y-102000000D01*
X137139518Y-60550000D02*
X108065424Y-60550000D01*
X142300000Y-112800000D02*
X145100000Y-112800000D01*
X146075000Y-111825000D02*
X146075000Y-69485482D01*
X145100000Y-112800000D02*
X146075000Y-111825000D01*
X146075000Y-69485482D02*
X137139518Y-60550000D01*
X133400000Y-115950000D02*
X135432559Y-113917441D01*
X135432559Y-113917441D02*
X135432559Y-77927441D01*
X135432559Y-77927441D02*
X139700000Y-73660000D01*
X133400000Y-115950000D02*
X133400000Y-130450000D01*
X133400000Y-130450000D02*
X132050000Y-131800000D01*
X134750000Y-132400000D02*
X134750000Y-118650000D01*
X134750000Y-116150000D02*
X136650000Y-114250000D01*
X136650000Y-114250000D02*
X136650000Y-81790000D01*
X140490000Y-72100000D02*
X140000000Y-72100000D01*
X139700000Y-78740000D02*
X140875000Y-77565000D01*
X136100000Y-133750000D02*
X134750000Y-132400000D01*
X140875000Y-72485000D02*
X140490000Y-72100000D01*
X134750000Y-118650000D02*
X134750000Y-116150000D01*
X140875000Y-73350000D02*
X140875000Y-72485000D01*
X140875000Y-77565000D02*
X140875000Y-73350000D01*
X136650000Y-81790000D02*
X139700000Y-78740000D01*
X125539645Y-133050000D02*
X116840812Y-133050000D01*
X125539645Y-133050000D02*
X128100000Y-133050000D01*
X116840812Y-133050000D02*
X113363308Y-136527504D01*
X73650000Y-125050000D02*
X63800000Y-125050000D01*
X128100000Y-133050000D02*
X128400000Y-132750000D01*
X113363308Y-136527504D02*
X85127504Y-136527504D01*
X85127504Y-136527504D02*
X73650000Y-125050000D01*
X129527298Y-132922702D02*
X128950000Y-133500000D01*
X113549704Y-136977504D02*
X84927504Y-136977504D01*
X84927504Y-136977504D02*
X74300000Y-126350000D01*
X63813604Y-126350000D02*
X60950000Y-123486396D01*
X60950000Y-120100000D02*
X63500000Y-117550000D01*
X128950000Y-133500000D02*
X117027208Y-133500000D01*
X63500000Y-117550000D02*
X63500000Y-81280000D01*
X117027208Y-133500000D02*
X113549704Y-136977504D01*
X74300000Y-126350000D02*
X63813604Y-126350000D01*
X60950000Y-123486396D02*
X60950000Y-120100000D01*
X129612347Y-128077298D02*
X125469823Y-132219823D01*
X85327504Y-136077504D02*
X72650000Y-123400000D01*
X72650000Y-123400000D02*
X63125000Y-123400000D01*
X125469823Y-132219823D02*
X125089646Y-132600000D01*
X125089646Y-132600000D02*
X116654416Y-132600000D01*
X131527298Y-128077298D02*
X129612347Y-128077298D01*
X113176912Y-136077504D02*
X85327504Y-136077504D01*
X116654416Y-132600000D02*
X113176912Y-136077504D01*
X95345000Y-142145000D02*
X96520000Y-140970000D01*
X77375000Y-142145000D02*
X95345000Y-142145000D01*
X76200000Y-140970000D02*
X77375000Y-142145000D01*
X117625000Y-134875000D02*
X137233941Y-134875000D01*
X137233941Y-134875000D02*
X137407029Y-134701912D01*
X114150000Y-138350000D02*
X117625000Y-134875000D01*
X77659098Y-131822702D02*
X84186396Y-138350000D01*
X70027298Y-131822702D02*
X77659098Y-131822702D01*
X84186396Y-138350000D02*
X114150000Y-138350000D01*
X114450000Y-138850000D02*
X84050000Y-138850000D01*
X135914714Y-135510917D02*
X117789083Y-135510917D01*
X84050000Y-138850000D02*
X83800000Y-138850000D01*
X117789083Y-135510917D02*
X114450000Y-138850000D01*
X77550000Y-132600000D02*
X69500000Y-132600000D01*
X66450000Y-129550000D02*
X66350000Y-129550000D01*
X69500000Y-132600000D02*
X66450000Y-129550000D01*
X137310917Y-135510917D02*
X137350000Y-135550000D01*
X135914714Y-135510917D02*
X137310917Y-135510917D01*
X83800000Y-138850000D02*
X77550000Y-132600000D01*
X113922496Y-137877504D02*
X117400000Y-134400000D01*
X84427504Y-137877504D02*
X113922496Y-137877504D01*
X136650000Y-134400000D02*
X137198058Y-133851942D01*
X117400000Y-134400000D02*
X136650000Y-134400000D01*
X137198058Y-133851942D02*
X137399704Y-133851942D01*
X62950000Y-127250000D02*
X73800000Y-127250000D01*
X73800000Y-127250000D02*
X84427504Y-137877504D01*
X71692584Y-121800000D02*
X85520088Y-135627504D01*
X85520088Y-135627504D02*
X112990516Y-135627504D01*
X62350000Y-121800000D02*
X71692584Y-121800000D01*
X124900000Y-132150000D02*
X130250000Y-126800000D01*
X112990516Y-135627504D02*
X116468020Y-132150000D01*
X130250000Y-126800000D02*
X131850000Y-126800000D01*
X116468020Y-132150000D02*
X124900000Y-132150000D01*
X114850000Y-139800000D02*
X104631701Y-139800000D01*
X114850000Y-139800000D02*
X140200000Y-139800000D01*
X83645000Y-139800000D02*
X81771701Y-139800000D01*
X83650000Y-139795000D02*
X83645000Y-139800000D01*
X81766701Y-139795000D02*
X79915000Y-139795000D01*
X79915000Y-139795000D02*
X78740000Y-140970000D01*
X140200000Y-139800000D02*
X140212500Y-139787500D01*
X104626701Y-139795000D02*
X83650000Y-139795000D01*
X104631701Y-139800000D02*
X104626701Y-139795000D01*
X81771701Y-139800000D02*
X81766701Y-139795000D01*
X133750000Y-142700000D02*
X128730000Y-142700000D01*
X128730000Y-142700000D02*
X127000000Y-140970000D01*
X123510000Y-145100000D02*
X119380000Y-140970000D01*
X133750000Y-145100000D02*
X123510000Y-145100000D01*
X121770000Y-145900000D02*
X116840000Y-140970000D01*
X133750000Y-145900000D02*
X121770000Y-145900000D01*
X133750000Y-141900000D02*
X130250000Y-141900000D01*
X129540000Y-141190000D02*
X129540000Y-140970000D01*
X130250000Y-141900000D02*
X129540000Y-141190000D01*
X133750000Y-146700000D02*
X120030000Y-146700000D01*
X138076220Y-138898780D02*
X138025000Y-138950000D01*
X138076220Y-125876220D02*
X138076220Y-138898780D01*
X120030000Y-146700000D02*
X114300000Y-140970000D01*
X136800000Y-124600000D02*
X138076220Y-125876220D01*
X126990000Y-143500000D02*
X124460000Y-140970000D01*
X133750000Y-143500000D02*
X126990000Y-143500000D01*
X125250000Y-144300000D02*
X121920000Y-140970000D01*
X133750000Y-144300000D02*
X125250000Y-144300000D01*
X138925000Y-139125000D02*
X138925000Y-125475000D01*
X133750000Y-147500000D02*
X133715000Y-147465000D01*
X118255000Y-147465000D02*
X111760000Y-140970000D01*
X138925000Y-125475000D02*
X138100000Y-124650000D01*
X133715000Y-147465000D02*
X118255000Y-147465000D01*
G04 #@! TA.AperFunction,Conductor*
G36*
X145002702Y-50300617D02*
G01*
X145404202Y-50318147D01*
X145414937Y-50319087D01*
X145810693Y-50371189D01*
X145821331Y-50373064D01*
X146211043Y-50459462D01*
X146221483Y-50462260D01*
X146602168Y-50582289D01*
X146612315Y-50585982D01*
X146981102Y-50738739D01*
X146990893Y-50743305D01*
X147344942Y-50927611D01*
X147354310Y-50933019D01*
X147690959Y-51147488D01*
X147699820Y-51153693D01*
X148016487Y-51396680D01*
X148024774Y-51403634D01*
X148319056Y-51673294D01*
X148326705Y-51680943D01*
X148596365Y-51975225D01*
X148603319Y-51983512D01*
X148846306Y-52300179D01*
X148852511Y-52309040D01*
X149066980Y-52645689D01*
X149072388Y-52655057D01*
X149256691Y-53009099D01*
X149261263Y-53018903D01*
X149414013Y-53387674D01*
X149417713Y-53397840D01*
X149537738Y-53778512D01*
X149540538Y-53788960D01*
X149626933Y-54178660D01*
X149628811Y-54189314D01*
X149680910Y-54585042D01*
X149681853Y-54595818D01*
X149699382Y-54997297D01*
X149699500Y-55002706D01*
X149699500Y-144997293D01*
X149699382Y-145002702D01*
X149681853Y-145404181D01*
X149680910Y-145414957D01*
X149628811Y-145810685D01*
X149626933Y-145821339D01*
X149540538Y-146211039D01*
X149537738Y-146221487D01*
X149417713Y-146602159D01*
X149414013Y-146612325D01*
X149261263Y-146981096D01*
X149256691Y-146990900D01*
X149072388Y-147344942D01*
X149066980Y-147354310D01*
X148852511Y-147690959D01*
X148846306Y-147699820D01*
X148603319Y-148016487D01*
X148596365Y-148024774D01*
X148326705Y-148319056D01*
X148319056Y-148326705D01*
X148024774Y-148596365D01*
X148016487Y-148603319D01*
X147699820Y-148846306D01*
X147690959Y-148852511D01*
X147354310Y-149066980D01*
X147344942Y-149072388D01*
X146990900Y-149256691D01*
X146981096Y-149261263D01*
X146612325Y-149414013D01*
X146602159Y-149417713D01*
X146221487Y-149537738D01*
X146211039Y-149540538D01*
X145821339Y-149626933D01*
X145810685Y-149628811D01*
X145414957Y-149680910D01*
X145404181Y-149681853D01*
X145002703Y-149699382D01*
X144997294Y-149699500D01*
X130569049Y-149699500D01*
X130502010Y-149679815D01*
X130456255Y-149627011D01*
X130446311Y-149557853D01*
X130475336Y-149494297D01*
X130481368Y-149487819D01*
X130540045Y-149429141D01*
X130540047Y-149429139D01*
X130670568Y-149242734D01*
X130766739Y-149036496D01*
X130825635Y-148816692D01*
X130845468Y-148590000D01*
X130825635Y-148363308D01*
X130810163Y-148305565D01*
X130794362Y-148246593D01*
X130796025Y-148176743D01*
X130835188Y-148118881D01*
X130899417Y-148091377D01*
X130914137Y-148090500D01*
X133157060Y-148090500D01*
X133224099Y-148110185D01*
X133244741Y-148126819D01*
X133247738Y-148129816D01*
X133400478Y-148225789D01*
X133570745Y-148285368D01*
X133570750Y-148285369D01*
X133749996Y-148305565D01*
X133750000Y-148305565D01*
X133750004Y-148305565D01*
X133929249Y-148285369D01*
X133929252Y-148285368D01*
X133929255Y-148285368D01*
X134099522Y-148225789D01*
X134252262Y-148129816D01*
X134379816Y-148002262D01*
X134475789Y-147849522D01*
X134535368Y-147679255D01*
X134555565Y-147500000D01*
X134550994Y-147459432D01*
X134535369Y-147320750D01*
X134535366Y-147320737D01*
X134473489Y-147143905D01*
X134475637Y-147143153D01*
X134466035Y-147084872D01*
X134474392Y-147056411D01*
X134473489Y-147056095D01*
X134535366Y-146879262D01*
X134535369Y-146879249D01*
X134555565Y-146700003D01*
X134555565Y-146699996D01*
X134535369Y-146520750D01*
X134535366Y-146520737D01*
X134473489Y-146343905D01*
X134475637Y-146343153D01*
X134466035Y-146284872D01*
X134474392Y-146256411D01*
X134473489Y-146256095D01*
X134535366Y-146079262D01*
X134535369Y-146079249D01*
X134555565Y-145900003D01*
X134555565Y-145899996D01*
X134535369Y-145720750D01*
X134535366Y-145720737D01*
X134473489Y-145543905D01*
X134475637Y-145543153D01*
X134466035Y-145484872D01*
X134474392Y-145456411D01*
X134473489Y-145456095D01*
X134535366Y-145279262D01*
X134535369Y-145279249D01*
X134555565Y-145100003D01*
X134555565Y-145099996D01*
X134535369Y-144920750D01*
X134535366Y-144920737D01*
X134517217Y-144868872D01*
X142999500Y-144868872D01*
X142999500Y-145131127D01*
X143015785Y-145254815D01*
X143033730Y-145391116D01*
X143076431Y-145550478D01*
X143101602Y-145644418D01*
X143101605Y-145644428D01*
X143201953Y-145886690D01*
X143201958Y-145886700D01*
X143333075Y-146113803D01*
X143492718Y-146321851D01*
X143492726Y-146321860D01*
X143678140Y-146507274D01*
X143678148Y-146507281D01*
X143678149Y-146507282D01*
X143695684Y-146520737D01*
X143886196Y-146666924D01*
X144113299Y-146798041D01*
X144113309Y-146798046D01*
X144355571Y-146898394D01*
X144355581Y-146898398D01*
X144608884Y-146966270D01*
X144868880Y-147000500D01*
X144868887Y-147000500D01*
X145131113Y-147000500D01*
X145131120Y-147000500D01*
X145391116Y-146966270D01*
X145644419Y-146898398D01*
X145886697Y-146798043D01*
X146113803Y-146666924D01*
X146321851Y-146507282D01*
X146321855Y-146507277D01*
X146321860Y-146507274D01*
X146507274Y-146321860D01*
X146507277Y-146321855D01*
X146507282Y-146321851D01*
X146666924Y-146113803D01*
X146798043Y-145886697D01*
X146898398Y-145644419D01*
X146966270Y-145391116D01*
X147000500Y-145131120D01*
X147000500Y-144868880D01*
X146966270Y-144608884D01*
X146898398Y-144355581D01*
X146808181Y-144137778D01*
X146798046Y-144113309D01*
X146798041Y-144113299D01*
X146666924Y-143886196D01*
X146508136Y-143679262D01*
X146507282Y-143678149D01*
X146507281Y-143678148D01*
X146507274Y-143678140D01*
X146321860Y-143492726D01*
X146321851Y-143492718D01*
X146113803Y-143333075D01*
X145886700Y-143201958D01*
X145886690Y-143201953D01*
X145644428Y-143101605D01*
X145644421Y-143101603D01*
X145644419Y-143101602D01*
X145391116Y-143033730D01*
X145333339Y-143026123D01*
X145131127Y-142999500D01*
X145131120Y-142999500D01*
X144868880Y-142999500D01*
X144868872Y-142999500D01*
X144637772Y-143029926D01*
X144608884Y-143033730D01*
X144418019Y-143084872D01*
X144355581Y-143101602D01*
X144355571Y-143101605D01*
X144113309Y-143201953D01*
X144113299Y-143201958D01*
X143886196Y-143333075D01*
X143678148Y-143492718D01*
X143492718Y-143678148D01*
X143333075Y-143886196D01*
X143201958Y-144113299D01*
X143201953Y-144113309D01*
X143101605Y-144355571D01*
X143101602Y-144355581D01*
X143068466Y-144479249D01*
X143033730Y-144608885D01*
X142999500Y-144868872D01*
X134517217Y-144868872D01*
X134473489Y-144743905D01*
X134475637Y-144743153D01*
X134466035Y-144684872D01*
X134474392Y-144656411D01*
X134473489Y-144656095D01*
X134535366Y-144479262D01*
X134535369Y-144479249D01*
X134555565Y-144300003D01*
X134555565Y-144299996D01*
X134535369Y-144120750D01*
X134535366Y-144120737D01*
X134473489Y-143943905D01*
X134475637Y-143943153D01*
X134466035Y-143884872D01*
X134474392Y-143856411D01*
X134473489Y-143856095D01*
X134535366Y-143679262D01*
X134535369Y-143679249D01*
X134555565Y-143500003D01*
X134555565Y-143499996D01*
X134535369Y-143320750D01*
X134535366Y-143320737D01*
X134473489Y-143143905D01*
X134475637Y-143143153D01*
X134466035Y-143084872D01*
X134474392Y-143056411D01*
X134473489Y-143056095D01*
X134535366Y-142879262D01*
X134535369Y-142879249D01*
X134555565Y-142700003D01*
X134555565Y-142699996D01*
X134535369Y-142520750D01*
X134535366Y-142520737D01*
X134473489Y-142343905D01*
X134475637Y-142343153D01*
X134466035Y-142284872D01*
X134474392Y-142256411D01*
X134473489Y-142256095D01*
X134535366Y-142079262D01*
X134535369Y-142079249D01*
X134555565Y-141900003D01*
X134555565Y-141899996D01*
X134535369Y-141720750D01*
X134535368Y-141720745D01*
X134475788Y-141550476D01*
X134379815Y-141397737D01*
X134252262Y-141270184D01*
X134099523Y-141174211D01*
X133929254Y-141114631D01*
X133929249Y-141114630D01*
X133750004Y-141094435D01*
X133749996Y-141094435D01*
X133570750Y-141114630D01*
X133570745Y-141114631D01*
X133400476Y-141174211D01*
X133271117Y-141255494D01*
X133205145Y-141274500D01*
X130964500Y-141274500D01*
X130897461Y-141254815D01*
X130851706Y-141202011D01*
X130840500Y-141150500D01*
X130840499Y-140549500D01*
X130860183Y-140482461D01*
X130912987Y-140436706D01*
X130964499Y-140425500D01*
X139687539Y-140425500D01*
X139753510Y-140444505D01*
X139862978Y-140513289D01*
X140002606Y-140562147D01*
X140033245Y-140572868D01*
X140033250Y-140572869D01*
X140212496Y-140593065D01*
X140212500Y-140593065D01*
X140212504Y-140593065D01*
X140391749Y-140572869D01*
X140391752Y-140572868D01*
X140391755Y-140572868D01*
X140562022Y-140513289D01*
X140714762Y-140417316D01*
X140842316Y-140289762D01*
X140938289Y-140137022D01*
X140997868Y-139966755D01*
X141017068Y-139796348D01*
X141018065Y-139787503D01*
X141018065Y-139787496D01*
X140997869Y-139608250D01*
X140997868Y-139608245D01*
X140938288Y-139437976D01*
X140857336Y-139309142D01*
X140842316Y-139285238D01*
X140714762Y-139157684D01*
X140662746Y-139125000D01*
X140562023Y-139061711D01*
X140391754Y-139002131D01*
X140391749Y-139002130D01*
X140212504Y-138981935D01*
X140212496Y-138981935D01*
X140033250Y-139002130D01*
X140033237Y-139002133D01*
X139875493Y-139057331D01*
X139805714Y-139060893D01*
X139745087Y-139026165D01*
X139712859Y-138964171D01*
X139711317Y-138954171D01*
X139710368Y-138945745D01*
X139650789Y-138775478D01*
X139569505Y-138646116D01*
X139550500Y-138580145D01*
X139550500Y-126521245D01*
X141700236Y-126521245D01*
X141700236Y-126757282D01*
X141731043Y-126991274D01*
X141731044Y-126991278D01*
X141786359Y-127197717D01*
X141792132Y-127219260D01*
X141792136Y-127219273D01*
X141882447Y-127437305D01*
X141882455Y-127437321D01*
X142000458Y-127641706D01*
X142000469Y-127641722D01*
X142144142Y-127828961D01*
X142144148Y-127828968D01*
X142311031Y-127995851D01*
X142311037Y-127995856D01*
X142498286Y-128139537D01*
X142498293Y-128139541D01*
X142702678Y-128257544D01*
X142702694Y-128257552D01*
X142920726Y-128347863D01*
X142920731Y-128347864D01*
X142920742Y-128347869D01*
X143148722Y-128408956D01*
X143382725Y-128439764D01*
X143382732Y-128439764D01*
X143618740Y-128439764D01*
X143618747Y-128439764D01*
X143852750Y-128408956D01*
X144080730Y-128347869D01*
X144080742Y-128347863D01*
X144080745Y-128347863D01*
X144298777Y-128257552D01*
X144298780Y-128257550D01*
X144298786Y-128257548D01*
X144503186Y-128139537D01*
X144690435Y-127995856D01*
X145193431Y-127492860D01*
X145705848Y-126980444D01*
X145705851Y-126980439D01*
X145705856Y-126980435D01*
X145849538Y-126793186D01*
X145967548Y-126588786D01*
X146057870Y-126370730D01*
X146118957Y-126142750D01*
X146149764Y-125908747D01*
X146149764Y-125672725D01*
X146118957Y-125438722D01*
X146057870Y-125210742D01*
X146011548Y-125098911D01*
X145967553Y-124992697D01*
X145967550Y-124992691D01*
X145967548Y-124992686D01*
X145965502Y-124989142D01*
X145849541Y-124788289D01*
X145849539Y-124788285D01*
X145705855Y-124601035D01*
X145705848Y-124601027D01*
X145538973Y-124434152D01*
X145538964Y-124434144D01*
X145351714Y-124290460D01*
X145351710Y-124290458D01*
X145147324Y-124172457D01*
X145147302Y-124172446D01*
X144929256Y-124082129D01*
X144701276Y-124021042D01*
X144467284Y-123990237D01*
X144467281Y-123990236D01*
X144467275Y-123990236D01*
X144231253Y-123990236D01*
X144231247Y-123990236D01*
X144231243Y-123990237D01*
X143997251Y-124021042D01*
X143769271Y-124082129D01*
X143551225Y-124172446D01*
X143551210Y-124172453D01*
X143346813Y-124290461D01*
X143159564Y-124434144D01*
X143159556Y-124434152D01*
X142144148Y-125449559D01*
X142144142Y-125449566D01*
X142000469Y-125636805D01*
X142000458Y-125636821D01*
X141882455Y-125841206D01*
X141882447Y-125841222D01*
X141792136Y-126059254D01*
X141792132Y-126059267D01*
X141731043Y-126287253D01*
X141700236Y-126521245D01*
X139550500Y-126521245D01*
X139550500Y-125413395D01*
X139546946Y-125395530D01*
X139544925Y-125385368D01*
X139531005Y-125315384D01*
X139526463Y-125292548D01*
X139479311Y-125178714D01*
X139479310Y-125178713D01*
X139479307Y-125178707D01*
X139410858Y-125076267D01*
X139410855Y-125076263D01*
X139320637Y-124986045D01*
X139320606Y-124986016D01*
X138926211Y-124591621D01*
X138892726Y-124530298D01*
X138890673Y-124517838D01*
X138885368Y-124470745D01*
X138825789Y-124300478D01*
X138816905Y-124286340D01*
X138753461Y-124185369D01*
X138729816Y-124147738D01*
X138602262Y-124020184D01*
X138537229Y-123979321D01*
X138449523Y-123924211D01*
X138279254Y-123864631D01*
X138279249Y-123864630D01*
X138100004Y-123844435D01*
X138099996Y-123844435D01*
X137920750Y-123864630D01*
X137920745Y-123864631D01*
X137750476Y-123924211D01*
X137597737Y-124020184D01*
X137562681Y-124055241D01*
X137501358Y-124088726D01*
X137431666Y-124083742D01*
X137387319Y-124055241D01*
X137302262Y-123970184D01*
X137149523Y-123874211D01*
X136979254Y-123814631D01*
X136979249Y-123814630D01*
X136800004Y-123794435D01*
X136799996Y-123794435D01*
X136620750Y-123814630D01*
X136620745Y-123814631D01*
X136450476Y-123874211D01*
X136297737Y-123970184D01*
X136170184Y-124097737D01*
X136074211Y-124250476D01*
X136014631Y-124420745D01*
X136014630Y-124420750D01*
X135994435Y-124599996D01*
X135994435Y-124600003D01*
X136014630Y-124779249D01*
X136014631Y-124779254D01*
X136074211Y-124949523D01*
X136114058Y-125012938D01*
X136170184Y-125102262D01*
X136297738Y-125229816D01*
X136388080Y-125286582D01*
X136440785Y-125319699D01*
X136450478Y-125325789D01*
X136620745Y-125385368D01*
X136667823Y-125390672D01*
X136732236Y-125417737D01*
X136741621Y-125426211D01*
X137414401Y-126098991D01*
X137447886Y-126160314D01*
X137450720Y-126186672D01*
X137450720Y-132929815D01*
X137431035Y-132996854D01*
X137378231Y-133042609D01*
X137340604Y-133053035D01*
X137220453Y-133066572D01*
X137220449Y-133066573D01*
X137050180Y-133126153D01*
X136897438Y-133222128D01*
X136897436Y-133222129D01*
X136888500Y-133231066D01*
X136827176Y-133264549D01*
X136757484Y-133259562D01*
X136713141Y-133231063D01*
X136602262Y-133120184D01*
X136449521Y-133024210D01*
X136279249Y-132964630D01*
X136232173Y-132959326D01*
X136167759Y-132932259D01*
X136158377Y-132923787D01*
X135411819Y-132177229D01*
X135378334Y-132115906D01*
X135375500Y-132089548D01*
X135375500Y-119194854D01*
X135394507Y-119128881D01*
X135475788Y-118999524D01*
X135476590Y-118997232D01*
X135535368Y-118829255D01*
X135555565Y-118650000D01*
X135535368Y-118470745D01*
X135475789Y-118300478D01*
X135394505Y-118171116D01*
X135375500Y-118105145D01*
X135375500Y-116460451D01*
X135395185Y-116393412D01*
X135411814Y-116372775D01*
X135784593Y-115999996D01*
X141494435Y-115999996D01*
X141494435Y-116000003D01*
X141514630Y-116179249D01*
X141514631Y-116179254D01*
X141574211Y-116349523D01*
X141638767Y-116452262D01*
X141670184Y-116502262D01*
X141797738Y-116629816D01*
X141950478Y-116725789D01*
X142120745Y-116785368D01*
X142120750Y-116785369D01*
X142299996Y-116805565D01*
X142300000Y-116805565D01*
X142300004Y-116805565D01*
X142479249Y-116785369D01*
X142479252Y-116785368D01*
X142479255Y-116785368D01*
X142649522Y-116725789D01*
X142778883Y-116644505D01*
X142844855Y-116625500D01*
X143305145Y-116625500D01*
X143371116Y-116644505D01*
X143500478Y-116725789D01*
X143670745Y-116785368D01*
X143670750Y-116785369D01*
X143849996Y-116805565D01*
X143850000Y-116805565D01*
X143850004Y-116805565D01*
X144029249Y-116785369D01*
X144029252Y-116785368D01*
X144029255Y-116785368D01*
X144199522Y-116725789D01*
X144352262Y-116629816D01*
X144479816Y-116502262D01*
X144575789Y-116349522D01*
X144635368Y-116179255D01*
X144641002Y-116129254D01*
X144655565Y-116000003D01*
X144655565Y-115999996D01*
X144635369Y-115820750D01*
X144635368Y-115820745D01*
X144575788Y-115650476D01*
X144479815Y-115497737D01*
X144352262Y-115370184D01*
X144199523Y-115274211D01*
X144029254Y-115214631D01*
X144029249Y-115214630D01*
X143850004Y-115194435D01*
X143849996Y-115194435D01*
X143670750Y-115214630D01*
X143670745Y-115214631D01*
X143500476Y-115274211D01*
X143371117Y-115355494D01*
X143305145Y-115374500D01*
X142844855Y-115374500D01*
X142778883Y-115355494D01*
X142649523Y-115274211D01*
X142479254Y-115214631D01*
X142479249Y-115214630D01*
X142300004Y-115194435D01*
X142299996Y-115194435D01*
X142120750Y-115214630D01*
X142120745Y-115214631D01*
X141950476Y-115274211D01*
X141797737Y-115370184D01*
X141670184Y-115497737D01*
X141574211Y-115650476D01*
X141514631Y-115820745D01*
X141514630Y-115820750D01*
X141494435Y-115999996D01*
X135784593Y-115999996D01*
X137048729Y-114735860D01*
X137048733Y-114735858D01*
X137135858Y-114648733D01*
X137204311Y-114546286D01*
X137204312Y-114546285D01*
X137204313Y-114546282D01*
X137204315Y-114546279D01*
X137214672Y-114521272D01*
X137251463Y-114432451D01*
X137275500Y-114311607D01*
X137275500Y-114188393D01*
X137275500Y-82100452D01*
X137295185Y-82033413D01*
X137311819Y-82012771D01*
X138132660Y-81191930D01*
X138193983Y-81158445D01*
X138263675Y-81163429D01*
X138319608Y-81205301D01*
X138344025Y-81270765D01*
X138344341Y-81279611D01*
X138344341Y-81280000D01*
X138364936Y-81515403D01*
X138364938Y-81515413D01*
X138426094Y-81743655D01*
X138426096Y-81743659D01*
X138426097Y-81743663D01*
X138430000Y-81752032D01*
X138525965Y-81957830D01*
X138525967Y-81957834D01*
X138589866Y-82049090D01*
X138661505Y-82151401D01*
X138828599Y-82318495D01*
X138925384Y-82386265D01*
X139022165Y-82454032D01*
X139022167Y-82454033D01*
X139022170Y-82454035D01*
X139236337Y-82553903D01*
X139236343Y-82553904D01*
X139236344Y-82553905D01*
X139291285Y-82568626D01*
X139464592Y-82615063D01*
X139641034Y-82630500D01*
X139699999Y-82635659D01*
X139700000Y-82635659D01*
X139700001Y-82635659D01*
X139758966Y-82630500D01*
X139935408Y-82615063D01*
X140163663Y-82553903D01*
X140377830Y-82454035D01*
X140571401Y-82318495D01*
X140738495Y-82151401D01*
X140874035Y-81957830D01*
X140973903Y-81743663D01*
X141035063Y-81515408D01*
X141055659Y-81280000D01*
X141035063Y-81044592D01*
X140973903Y-80816337D01*
X140874035Y-80602171D01*
X140868425Y-80594158D01*
X140738494Y-80408597D01*
X140571402Y-80241506D01*
X140571396Y-80241501D01*
X140385842Y-80111575D01*
X140342217Y-80056998D01*
X140335023Y-79987500D01*
X140366546Y-79925145D01*
X140385842Y-79908425D01*
X140508961Y-79822216D01*
X140571401Y-79778495D01*
X140738495Y-79611401D01*
X140874035Y-79417830D01*
X140973903Y-79203663D01*
X141035063Y-78975408D01*
X141055659Y-78740000D01*
X141035063Y-78504592D01*
X141008143Y-78404125D01*
X141009806Y-78334276D01*
X141040235Y-78284353D01*
X141273729Y-78050860D01*
X141273733Y-78050858D01*
X141360858Y-77963733D01*
X141424425Y-77868599D01*
X141429312Y-77861285D01*
X141456932Y-77794603D01*
X141476463Y-77747452D01*
X141500500Y-77626606D01*
X141500500Y-73288394D01*
X141500500Y-72423394D01*
X141496746Y-72404523D01*
X141480916Y-72324937D01*
X141476463Y-72302548D01*
X141450737Y-72240440D01*
X141429314Y-72188720D01*
X141429307Y-72188707D01*
X141360858Y-72086267D01*
X141360855Y-72086263D01*
X141270637Y-71996045D01*
X141270606Y-71996016D01*
X140980198Y-71705608D01*
X140980178Y-71705586D01*
X140888735Y-71614143D01*
X140869865Y-71601534D01*
X140832631Y-71576656D01*
X140832632Y-71576656D01*
X140832630Y-71576654D01*
X140786290Y-71545690D01*
X140786286Y-71545688D01*
X140705792Y-71512347D01*
X140672453Y-71498537D01*
X140662427Y-71496543D01*
X140612029Y-71486518D01*
X140551610Y-71474500D01*
X140551607Y-71474500D01*
X140551606Y-71474500D01*
X140544855Y-71474500D01*
X140478883Y-71455494D01*
X140349523Y-71374211D01*
X140179254Y-71314631D01*
X140179249Y-71314630D01*
X140000004Y-71294435D01*
X139999996Y-71294435D01*
X139820750Y-71314630D01*
X139820745Y-71314631D01*
X139650476Y-71374211D01*
X139497737Y-71470184D01*
X139370184Y-71597737D01*
X139274211Y-71750476D01*
X139214631Y-71920745D01*
X139214630Y-71920750D01*
X139194435Y-72099996D01*
X139194435Y-72100005D01*
X139202503Y-72171618D01*
X139190448Y-72240440D01*
X139143098Y-72291818D01*
X139079283Y-72309500D01*
X138802130Y-72309500D01*
X138802123Y-72309501D01*
X138742516Y-72315908D01*
X138607671Y-72366202D01*
X138607664Y-72366206D01*
X138492455Y-72452452D01*
X138492452Y-72452455D01*
X138406206Y-72567664D01*
X138406202Y-72567671D01*
X138355908Y-72702517D01*
X138349501Y-72762116D01*
X138349500Y-72762135D01*
X138349500Y-74074547D01*
X138329815Y-74141586D01*
X138313181Y-74162228D01*
X135033829Y-77441580D01*
X135033826Y-77441583D01*
X135011044Y-77464365D01*
X134946701Y-77528707D01*
X134921806Y-77565966D01*
X134921805Y-77565967D01*
X134878249Y-77631149D01*
X134878245Y-77631157D01*
X134849108Y-77701503D01*
X134831097Y-77744984D01*
X134831097Y-77744986D01*
X134831096Y-77744989D01*
X134807964Y-77861285D01*
X134807059Y-77865837D01*
X134807059Y-92777850D01*
X134787374Y-92844889D01*
X134734570Y-92890644D01*
X134665412Y-92900588D01*
X134601856Y-92871563D01*
X134564082Y-92812785D01*
X134561976Y-92804591D01*
X134343662Y-91815490D01*
X134050998Y-90672468D01*
X133720303Y-89539864D01*
X133351948Y-88418942D01*
X132946342Y-87310954D01*
X132503939Y-86217139D01*
X132025234Y-85138718D01*
X131510760Y-84076894D01*
X130961093Y-83032855D01*
X130376847Y-82007766D01*
X130351059Y-81965842D01*
X129758670Y-81002767D01*
X129431551Y-80508743D01*
X129107263Y-80018995D01*
X128423344Y-79057535D01*
X127707679Y-78119464D01*
X127707674Y-78119459D01*
X127707665Y-78119446D01*
X126961080Y-77205846D01*
X126961068Y-77205832D01*
X126184346Y-76317657D01*
X126184336Y-76317646D01*
X125378380Y-75455933D01*
X124544066Y-74621619D01*
X123682353Y-73815663D01*
X123235171Y-73424596D01*
X122794168Y-73038932D01*
X122794165Y-73038930D01*
X122794153Y-73038919D01*
X121880553Y-72292334D01*
X121863409Y-72279255D01*
X120942465Y-71576656D01*
X119981005Y-70892737D01*
X119467123Y-70552469D01*
X118997232Y-70241329D01*
X117992243Y-69623158D01*
X116967133Y-69038900D01*
X115923101Y-68489237D01*
X114861297Y-67974773D01*
X114861290Y-67974770D01*
X114861282Y-67974766D01*
X113782861Y-67496061D01*
X113322836Y-67310000D01*
X112689037Y-67053654D01*
X111977432Y-66793154D01*
X111581058Y-66648052D01*
X111581046Y-66648048D01*
X110460141Y-66279698D01*
X109327535Y-65949002D01*
X108184520Y-65656340D01*
X107032334Y-65402029D01*
X105872322Y-65186365D01*
X104705772Y-65009586D01*
X104414253Y-64975329D01*
X103533921Y-64871881D01*
X103533900Y-64871879D01*
X103533898Y-64871879D01*
X102358147Y-64773412D01*
X101179745Y-64714287D01*
X100000000Y-64694571D01*
X98820254Y-64714287D01*
X97641852Y-64773412D01*
X96466101Y-64871879D01*
X96466096Y-64871879D01*
X96466079Y-64871881D01*
X95732954Y-64958031D01*
X95294227Y-65009586D01*
X94127677Y-65186365D01*
X92967665Y-65402029D01*
X91815479Y-65656340D01*
X90672464Y-65949002D01*
X89539858Y-66279698D01*
X88418953Y-66648048D01*
X87310962Y-67053654D01*
X86217131Y-67496064D01*
X85138702Y-67974773D01*
X84076898Y-68489237D01*
X83032866Y-69038900D01*
X82007756Y-69623158D01*
X81002767Y-70241329D01*
X80019008Y-70892728D01*
X79057534Y-71576656D01*
X78119446Y-72292334D01*
X77205846Y-73038919D01*
X76317646Y-73815663D01*
X75455933Y-74621619D01*
X74621619Y-75455933D01*
X73815663Y-76317646D01*
X73038919Y-77205846D01*
X72292334Y-78119446D01*
X71576656Y-79057534D01*
X71182676Y-79611396D01*
X70899136Y-80010000D01*
X70892728Y-80019008D01*
X70241329Y-81002767D01*
X69623158Y-82007756D01*
X69038900Y-83032866D01*
X68489237Y-84076898D01*
X67974773Y-85138702D01*
X67496064Y-86217131D01*
X67053654Y-87310962D01*
X66648048Y-88418953D01*
X66279698Y-89539858D01*
X65949002Y-90672464D01*
X65656340Y-91815479D01*
X65402029Y-92967665D01*
X65186365Y-94127677D01*
X65009586Y-95294227D01*
X65009584Y-95294247D01*
X64871881Y-96466079D01*
X64871879Y-96466096D01*
X64871879Y-96466101D01*
X64773412Y-97641852D01*
X64714287Y-98820254D01*
X64694571Y-100000000D01*
X64714287Y-101179745D01*
X64773412Y-102358147D01*
X64841864Y-103175500D01*
X64871881Y-103533921D01*
X64975329Y-104414253D01*
X65009586Y-104705772D01*
X65186365Y-105872322D01*
X65402029Y-107032334D01*
X65656340Y-108184520D01*
X65949002Y-109327535D01*
X66279698Y-110460141D01*
X66621423Y-111500024D01*
X66648052Y-111581058D01*
X66655802Y-111602228D01*
X67053654Y-112689037D01*
X67351523Y-113425500D01*
X67496061Y-113782861D01*
X67926750Y-114753113D01*
X67974773Y-114861297D01*
X68489237Y-115923101D01*
X69038900Y-116967133D01*
X69623158Y-117992243D01*
X70241329Y-118997232D01*
X70649818Y-119614142D01*
X70892737Y-119981005D01*
X71135847Y-120322771D01*
X71576659Y-120942470D01*
X71601696Y-120975287D01*
X71626709Y-121040526D01*
X71612481Y-121108932D01*
X71563528Y-121158786D01*
X71503111Y-121174500D01*
X62894855Y-121174500D01*
X62828883Y-121155494D01*
X62699523Y-121074211D01*
X62529254Y-121014631D01*
X62529249Y-121014630D01*
X62350004Y-120994435D01*
X62349996Y-120994435D01*
X62170750Y-121014630D01*
X62170745Y-121014631D01*
X62000476Y-121074211D01*
X61847737Y-121170184D01*
X61787181Y-121230741D01*
X61725858Y-121264226D01*
X61656166Y-121259242D01*
X61600233Y-121217370D01*
X61575816Y-121151906D01*
X61575500Y-121143060D01*
X61575500Y-120410452D01*
X61595185Y-120343413D01*
X61611819Y-120322771D01*
X62782329Y-119152262D01*
X63985858Y-117948733D01*
X64054312Y-117846285D01*
X64101463Y-117732451D01*
X64125501Y-117611606D01*
X64125501Y-117488393D01*
X64125501Y-117483283D01*
X64125500Y-117483257D01*
X64125500Y-82555226D01*
X64145185Y-82488187D01*
X64178374Y-82453654D01*
X64371401Y-82318495D01*
X64538495Y-82151401D01*
X64674035Y-81957830D01*
X64773903Y-81743663D01*
X64835063Y-81515408D01*
X64855659Y-81280000D01*
X64835063Y-81044592D01*
X64773903Y-80816337D01*
X64674035Y-80602171D01*
X64668425Y-80594158D01*
X64538494Y-80408597D01*
X64371402Y-80241506D01*
X64371395Y-80241501D01*
X64177834Y-80105967D01*
X64177830Y-80105965D01*
X64177828Y-80105964D01*
X63963663Y-80006097D01*
X63963659Y-80006096D01*
X63963655Y-80006094D01*
X63735413Y-79944938D01*
X63735403Y-79944936D01*
X63500001Y-79924341D01*
X63499999Y-79924341D01*
X63264596Y-79944936D01*
X63264586Y-79944938D01*
X63036344Y-80006094D01*
X63036335Y-80006098D01*
X62822171Y-80105964D01*
X62822169Y-80105965D01*
X62628597Y-80241505D01*
X62461505Y-80408597D01*
X62331575Y-80594158D01*
X62276998Y-80637783D01*
X62207500Y-80644977D01*
X62145145Y-80613454D01*
X62128425Y-80594158D01*
X61998494Y-80408597D01*
X61831402Y-80241506D01*
X61831395Y-80241501D01*
X61637834Y-80105967D01*
X61637830Y-80105965D01*
X61637828Y-80105964D01*
X61423663Y-80006097D01*
X61423659Y-80006096D01*
X61423655Y-80006094D01*
X61195413Y-79944938D01*
X61195403Y-79944936D01*
X60960001Y-79924341D01*
X60959999Y-79924341D01*
X60724596Y-79944936D01*
X60724586Y-79944938D01*
X60496344Y-80006094D01*
X60496335Y-80006098D01*
X60282171Y-80105964D01*
X60282169Y-80105965D01*
X60088597Y-80241505D01*
X59921505Y-80408597D01*
X59791575Y-80594158D01*
X59736998Y-80637783D01*
X59667500Y-80644977D01*
X59605145Y-80613454D01*
X59588425Y-80594158D01*
X59458494Y-80408597D01*
X59291402Y-80241506D01*
X59291395Y-80241501D01*
X59097834Y-80105967D01*
X59097830Y-80105965D01*
X59097828Y-80105964D01*
X58883663Y-80006097D01*
X58883659Y-80006096D01*
X58883655Y-80006094D01*
X58655413Y-79944938D01*
X58655403Y-79944936D01*
X58420001Y-79924341D01*
X58419999Y-79924341D01*
X58184596Y-79944936D01*
X58184586Y-79944938D01*
X57956344Y-80006094D01*
X57956335Y-80006098D01*
X57742171Y-80105964D01*
X57742169Y-80105965D01*
X57548597Y-80241505D01*
X57381505Y-80408597D01*
X57245965Y-80602169D01*
X57245964Y-80602171D01*
X57146098Y-80816335D01*
X57146094Y-80816344D01*
X57084938Y-81044586D01*
X57084936Y-81044596D01*
X57064341Y-81279999D01*
X57064341Y-81280000D01*
X57084936Y-81515403D01*
X57084938Y-81515413D01*
X57146094Y-81743655D01*
X57146096Y-81743659D01*
X57146097Y-81743663D01*
X57150000Y-81752032D01*
X57245965Y-81957830D01*
X57245967Y-81957834D01*
X57309866Y-82049090D01*
X57381505Y-82151401D01*
X57548599Y-82318495D01*
X57645384Y-82386265D01*
X57742165Y-82454032D01*
X57742167Y-82454033D01*
X57742170Y-82454035D01*
X57956337Y-82553903D01*
X57956343Y-82553904D01*
X57956344Y-82553905D01*
X58011285Y-82568626D01*
X58184592Y-82615063D01*
X58361034Y-82630500D01*
X58419999Y-82635659D01*
X58420000Y-82635659D01*
X58420001Y-82635659D01*
X58478966Y-82630500D01*
X58655408Y-82615063D01*
X58883663Y-82553903D01*
X59097830Y-82454035D01*
X59291401Y-82318495D01*
X59458495Y-82151401D01*
X59588425Y-81965842D01*
X59643002Y-81922217D01*
X59712500Y-81915023D01*
X59774855Y-81946546D01*
X59791575Y-81965842D01*
X59921500Y-82151395D01*
X59921505Y-82151401D01*
X60088599Y-82318495D01*
X60185384Y-82386265D01*
X60282165Y-82454032D01*
X60282167Y-82454033D01*
X60282170Y-82454035D01*
X60496337Y-82553903D01*
X60496343Y-82553904D01*
X60496344Y-82553905D01*
X60551285Y-82568626D01*
X60724592Y-82615063D01*
X60901034Y-82630500D01*
X60959999Y-82635659D01*
X60960000Y-82635659D01*
X60960001Y-82635659D01*
X61018966Y-82630500D01*
X61195408Y-82615063D01*
X61423663Y-82553903D01*
X61637830Y-82454035D01*
X61831401Y-82318495D01*
X61998495Y-82151401D01*
X62128425Y-81965842D01*
X62183002Y-81922217D01*
X62252500Y-81915023D01*
X62314855Y-81946546D01*
X62331575Y-81965842D01*
X62461500Y-82151395D01*
X62461505Y-82151401D01*
X62628599Y-82318495D01*
X62821624Y-82453653D01*
X62865248Y-82508228D01*
X62874500Y-82555226D01*
X62874500Y-117239547D01*
X62854815Y-117306586D01*
X62838181Y-117327228D01*
X60464144Y-119701264D01*
X60464138Y-119701272D01*
X60395692Y-119803705D01*
X60395684Y-119803719D01*
X60362347Y-119884207D01*
X60356823Y-119897543D01*
X60348537Y-119917545D01*
X60348535Y-119917553D01*
X60324500Y-120038389D01*
X60324500Y-123548003D01*
X60329544Y-123573367D01*
X60348534Y-123668840D01*
X60348536Y-123668846D01*
X60348537Y-123668848D01*
X60359902Y-123696286D01*
X60395688Y-123782682D01*
X60417035Y-123814629D01*
X60417036Y-123814632D01*
X60417037Y-123814632D01*
X60464140Y-123885127D01*
X60464141Y-123885128D01*
X60464142Y-123885129D01*
X60551267Y-123972254D01*
X60551268Y-123972254D01*
X60558335Y-123979321D01*
X60558334Y-123979321D01*
X60558338Y-123979324D01*
X62834284Y-126255271D01*
X62867769Y-126316594D01*
X62862785Y-126386286D01*
X62820913Y-126442219D01*
X62774204Y-126463841D01*
X62770755Y-126464628D01*
X62600476Y-126524211D01*
X62447737Y-126620184D01*
X62320184Y-126747737D01*
X62224211Y-126900476D01*
X62164631Y-127070745D01*
X62164630Y-127070750D01*
X62144435Y-127249996D01*
X62144435Y-127250003D01*
X62164630Y-127429249D01*
X62164631Y-127429254D01*
X62224211Y-127599523D01*
X62304797Y-127727774D01*
X62320184Y-127752262D01*
X62447738Y-127879816D01*
X62600478Y-127975789D01*
X62770745Y-128035368D01*
X62770750Y-128035369D01*
X62949996Y-128055565D01*
X62950000Y-128055565D01*
X62950004Y-128055565D01*
X63129249Y-128035369D01*
X63129252Y-128035368D01*
X63129255Y-128035368D01*
X63299522Y-127975789D01*
X63428883Y-127894505D01*
X63494855Y-127875500D01*
X73489548Y-127875500D01*
X73556587Y-127895185D01*
X73577229Y-127911819D01*
X76650931Y-130985521D01*
X76684416Y-131046844D01*
X76679432Y-131116536D01*
X76637560Y-131172469D01*
X76572096Y-131196886D01*
X76563250Y-131197202D01*
X70572153Y-131197202D01*
X70506181Y-131178196D01*
X70376821Y-131096913D01*
X70206552Y-131037333D01*
X70206547Y-131037332D01*
X70027302Y-131017137D01*
X70027294Y-131017137D01*
X69848048Y-131037332D01*
X69848043Y-131037333D01*
X69677774Y-131096913D01*
X69525035Y-131192886D01*
X69397483Y-131320438D01*
X69367356Y-131368384D01*
X69315020Y-131414674D01*
X69245967Y-131425321D01*
X69182119Y-131396945D01*
X69174682Y-131390091D01*
X67144633Y-129360043D01*
X67115272Y-129313316D01*
X67112219Y-129304592D01*
X67075789Y-129200478D01*
X66979816Y-129047738D01*
X66852262Y-128920184D01*
X66777892Y-128873454D01*
X66699523Y-128824211D01*
X66529254Y-128764631D01*
X66529249Y-128764630D01*
X66350004Y-128744435D01*
X66349996Y-128744435D01*
X66170750Y-128764630D01*
X66170745Y-128764631D01*
X66000476Y-128824211D01*
X65847737Y-128920184D01*
X65720184Y-129047737D01*
X65624211Y-129200476D01*
X65564631Y-129370745D01*
X65564630Y-129370750D01*
X65544435Y-129549996D01*
X65544435Y-129550003D01*
X65564630Y-129729249D01*
X65564631Y-129729254D01*
X65624211Y-129899523D01*
X65689642Y-130003655D01*
X65720184Y-130052262D01*
X65847738Y-130179816D01*
X66000478Y-130275789D01*
X66170745Y-130335368D01*
X66170750Y-130335369D01*
X66289355Y-130348732D01*
X66330520Y-130353370D01*
X66394934Y-130380436D01*
X66404318Y-130388909D01*
X69014141Y-132998732D01*
X69014142Y-132998733D01*
X69058018Y-133042609D01*
X69101268Y-133085859D01*
X69203707Y-133154307D01*
X69203713Y-133154310D01*
X69203714Y-133154311D01*
X69317548Y-133201463D01*
X69377971Y-133213481D01*
X69438393Y-133225500D01*
X69438394Y-133225500D01*
X77239548Y-133225500D01*
X77306587Y-133245185D01*
X77327229Y-133261819D01*
X78473284Y-134407874D01*
X78506769Y-134469197D01*
X78501785Y-134538889D01*
X78459913Y-134594822D01*
X78426558Y-134612596D01*
X78250480Y-134674209D01*
X78121117Y-134755494D01*
X78055145Y-134774500D01*
X76988389Y-134774500D01*
X76927971Y-134786518D01*
X76890259Y-134794019D01*
X76867550Y-134798536D01*
X76867548Y-134798537D01*
X76834207Y-134812347D01*
X76753719Y-134845684D01*
X76753705Y-134845692D01*
X76651272Y-134914138D01*
X76651264Y-134914144D01*
X73261270Y-138304139D01*
X73261267Y-138304142D01*
X73224569Y-138340840D01*
X73174140Y-138391268D01*
X73159672Y-138412922D01*
X73105686Y-138493716D01*
X73105685Y-138493718D01*
X73072347Y-138574207D01*
X73066823Y-138587543D01*
X73058537Y-138607545D01*
X73058535Y-138607553D01*
X73034500Y-138728389D01*
X73034500Y-139694773D01*
X73014815Y-139761812D01*
X72981623Y-139796348D01*
X72788597Y-139931505D01*
X72621505Y-140098597D01*
X72491575Y-140284158D01*
X72436998Y-140327783D01*
X72367500Y-140334977D01*
X72305145Y-140303454D01*
X72288425Y-140284158D01*
X72158494Y-140098597D01*
X71991402Y-139931506D01*
X71991395Y-139931501D01*
X71797834Y-139795967D01*
X71797830Y-139795965D01*
X71745500Y-139771563D01*
X71583663Y-139696097D01*
X71583659Y-139696096D01*
X71583655Y-139696094D01*
X71355413Y-139634938D01*
X71355403Y-139634936D01*
X71120001Y-139614341D01*
X71119999Y-139614341D01*
X70884596Y-139634936D01*
X70884586Y-139634938D01*
X70656344Y-139696094D01*
X70656335Y-139696098D01*
X70442171Y-139795964D01*
X70442169Y-139795965D01*
X70248597Y-139931505D01*
X70081505Y-140098597D01*
X69945965Y-140292169D01*
X69945964Y-140292171D01*
X69846098Y-140506335D01*
X69846094Y-140506344D01*
X69784938Y-140734586D01*
X69784936Y-140734596D01*
X69764341Y-140969999D01*
X69764341Y-140970000D01*
X69784936Y-141205403D01*
X69784938Y-141205413D01*
X69846094Y-141433655D01*
X69846096Y-141433659D01*
X69846097Y-141433663D01*
X69880898Y-141508294D01*
X69945965Y-141647830D01*
X69945967Y-141647834D01*
X70036876Y-141777664D01*
X70081505Y-141841401D01*
X70248599Y-142008495D01*
X70345384Y-142076265D01*
X70442165Y-142144032D01*
X70442167Y-142144033D01*
X70442170Y-142144035D01*
X70656337Y-142243903D01*
X70656343Y-142243904D01*
X70656344Y-142243905D01*
X70700457Y-142255725D01*
X70760118Y-142292090D01*
X70790647Y-142354936D01*
X70782353Y-142424312D01*
X70737868Y-142478190D01*
X70671316Y-142499465D01*
X70668364Y-142499500D01*
X64315782Y-142499500D01*
X64248743Y-142479815D01*
X64228101Y-142463181D01*
X56916819Y-135151899D01*
X56883334Y-135090576D01*
X56880500Y-135064218D01*
X56880500Y-133040758D01*
X56900185Y-132973719D01*
X56916819Y-132953077D01*
X56918495Y-132951401D01*
X57048425Y-132765842D01*
X57103002Y-132722217D01*
X57172500Y-132715023D01*
X57234855Y-132746546D01*
X57251575Y-132765842D01*
X57381500Y-132951395D01*
X57381505Y-132951401D01*
X57548599Y-133118495D01*
X57559536Y-133126153D01*
X57742165Y-133254032D01*
X57742167Y-133254033D01*
X57742170Y-133254035D01*
X57956337Y-133353903D01*
X58184592Y-133415063D01*
X58372918Y-133431539D01*
X58419999Y-133435659D01*
X58420000Y-133435659D01*
X58420001Y-133435659D01*
X58459234Y-133432226D01*
X58655408Y-133415063D01*
X58883663Y-133353903D01*
X59097830Y-133254035D01*
X59291401Y-133118495D01*
X59458495Y-132951401D01*
X59594035Y-132757830D01*
X59693903Y-132543663D01*
X59755063Y-132315408D01*
X59775659Y-132080000D01*
X59755063Y-131844592D01*
X59695871Y-131623683D01*
X59693905Y-131616344D01*
X59693904Y-131616343D01*
X59693903Y-131616337D01*
X59594035Y-131402171D01*
X59588425Y-131394158D01*
X59458494Y-131208597D01*
X59291402Y-131041506D01*
X59291396Y-131041501D01*
X59105842Y-130911575D01*
X59062217Y-130856998D01*
X59055023Y-130787500D01*
X59086546Y-130725145D01*
X59105842Y-130708425D01*
X59214342Y-130632452D01*
X59291401Y-130578495D01*
X59458495Y-130411401D01*
X59594035Y-130217830D01*
X59693903Y-130003663D01*
X59755063Y-129775408D01*
X59775659Y-129540000D01*
X59755063Y-129304592D01*
X59702192Y-129107271D01*
X59693905Y-129076344D01*
X59693904Y-129076343D01*
X59693903Y-129076337D01*
X59594035Y-128862171D01*
X59588425Y-128854158D01*
X59458494Y-128668597D01*
X59291402Y-128501506D01*
X59291395Y-128501501D01*
X59097834Y-128365967D01*
X59097830Y-128365965D01*
X59059010Y-128347863D01*
X58883663Y-128266097D01*
X58883659Y-128266096D01*
X58883655Y-128266094D01*
X58655413Y-128204938D01*
X58655403Y-128204936D01*
X58420001Y-128184341D01*
X58419999Y-128184341D01*
X58184596Y-128204936D01*
X58184586Y-128204938D01*
X57956344Y-128266094D01*
X57956335Y-128266098D01*
X57742171Y-128365964D01*
X57742169Y-128365965D01*
X57548597Y-128501505D01*
X57381505Y-128668597D01*
X57251575Y-128854158D01*
X57196998Y-128897783D01*
X57127500Y-128904977D01*
X57065145Y-128873454D01*
X57048425Y-128854158D01*
X56918494Y-128668597D01*
X56751402Y-128501506D01*
X56751395Y-128501501D01*
X56557834Y-128365967D01*
X56557830Y-128365965D01*
X56519010Y-128347863D01*
X56343663Y-128266097D01*
X56343659Y-128266096D01*
X56343655Y-128266094D01*
X56115413Y-128204938D01*
X56115403Y-128204936D01*
X55880001Y-128184341D01*
X55879999Y-128184341D01*
X55644596Y-128204936D01*
X55644586Y-128204938D01*
X55416344Y-128266094D01*
X55416335Y-128266098D01*
X55202171Y-128365964D01*
X55202169Y-128365965D01*
X55008597Y-128501505D01*
X54841505Y-128668597D01*
X54705965Y-128862169D01*
X54705964Y-128862171D01*
X54606098Y-129076335D01*
X54606094Y-129076344D01*
X54544938Y-129304586D01*
X54544936Y-129304596D01*
X54524341Y-129539999D01*
X54524341Y-129540000D01*
X54544936Y-129775403D01*
X54544938Y-129775413D01*
X54606094Y-130003655D01*
X54606096Y-130003659D01*
X54606097Y-130003663D01*
X54669461Y-130139547D01*
X54705965Y-130217830D01*
X54705967Y-130217834D01*
X54746548Y-130275789D01*
X54841501Y-130411396D01*
X54841506Y-130411402D01*
X55008597Y-130578493D01*
X55008603Y-130578498D01*
X55194158Y-130708425D01*
X55237783Y-130763002D01*
X55244977Y-130832500D01*
X55213454Y-130894855D01*
X55194158Y-130911575D01*
X55008597Y-131041505D01*
X54841505Y-131208597D01*
X54705965Y-131402169D01*
X54705964Y-131402171D01*
X54606098Y-131616335D01*
X54606094Y-131616344D01*
X54544938Y-131844586D01*
X54544936Y-131844596D01*
X54524341Y-132079999D01*
X54524341Y-132080000D01*
X54544936Y-132315403D01*
X54544938Y-132315413D01*
X54606094Y-132543655D01*
X54606096Y-132543659D01*
X54606097Y-132543663D01*
X54677269Y-132696292D01*
X54705965Y-132757830D01*
X54705967Y-132757834D01*
X54795611Y-132885858D01*
X54841501Y-132951396D01*
X54841506Y-132951402D01*
X54843181Y-132953077D01*
X54843682Y-132953995D01*
X54844982Y-132955544D01*
X54844670Y-132955805D01*
X54876666Y-133014400D01*
X54879500Y-133040758D01*
X54879500Y-135628541D01*
X54879500Y-135628543D01*
X54879499Y-135628543D01*
X54917947Y-135821829D01*
X54917950Y-135821839D01*
X54993364Y-136003907D01*
X54993371Y-136003920D01*
X55102860Y-136167781D01*
X55102863Y-136167785D01*
X55246537Y-136311459D01*
X55246559Y-136311479D01*
X63069735Y-144134655D01*
X63069764Y-144134686D01*
X63212214Y-144277136D01*
X63212218Y-144277139D01*
X63376079Y-144386628D01*
X63376092Y-144386635D01*
X63504833Y-144439961D01*
X63558159Y-144462049D01*
X63558164Y-144462051D01*
X63644654Y-144479255D01*
X63671355Y-144484566D01*
X63751456Y-144500500D01*
X63751459Y-144500500D01*
X98698543Y-144500500D01*
X98769744Y-144486336D01*
X98805346Y-144479255D01*
X98891836Y-144462051D01*
X98945165Y-144439961D01*
X99073914Y-144386632D01*
X99073917Y-144386629D01*
X99079281Y-144383763D01*
X99080155Y-144385398D01*
X99138542Y-144367096D01*
X99205928Y-144385560D01*
X99228474Y-144403394D01*
X104052860Y-149227781D01*
X104052861Y-149227782D01*
X104142572Y-149317493D01*
X104192219Y-149367140D01*
X104349748Y-149472398D01*
X104394553Y-149526010D01*
X104403260Y-149595335D01*
X104373105Y-149658363D01*
X104313662Y-149695082D01*
X104280857Y-149699500D01*
X55002706Y-149699500D01*
X54997297Y-149699382D01*
X54595818Y-149681853D01*
X54585042Y-149680910D01*
X54189314Y-149628811D01*
X54178660Y-149626933D01*
X53788960Y-149540538D01*
X53778512Y-149537738D01*
X53397840Y-149417713D01*
X53387674Y-149414013D01*
X53018903Y-149261263D01*
X53009099Y-149256691D01*
X52655057Y-149072388D01*
X52645689Y-149066980D01*
X52309040Y-148852511D01*
X52300179Y-148846306D01*
X51983512Y-148603319D01*
X51975225Y-148596365D01*
X51680943Y-148326705D01*
X51673294Y-148319056D01*
X51403634Y-148024774D01*
X51396680Y-148016487D01*
X51153693Y-147699820D01*
X51147488Y-147690959D01*
X50933019Y-147354310D01*
X50927611Y-147344942D01*
X50919808Y-147329952D01*
X50743305Y-146990893D01*
X50738736Y-146981096D01*
X50732595Y-146966270D01*
X50585982Y-146612315D01*
X50582286Y-146602159D01*
X50556616Y-146520745D01*
X50462260Y-146221483D01*
X50459461Y-146211039D01*
X50421139Y-146038181D01*
X50373064Y-145821331D01*
X50371188Y-145810685D01*
X50359348Y-145720750D01*
X50319087Y-145414937D01*
X50318147Y-145404202D01*
X50300618Y-145002702D01*
X50300500Y-144997293D01*
X50300500Y-144868872D01*
X52999500Y-144868872D01*
X52999500Y-145131127D01*
X53015785Y-145254815D01*
X53033730Y-145391116D01*
X53076431Y-145550478D01*
X53101602Y-145644418D01*
X53101605Y-145644428D01*
X53201953Y-145886690D01*
X53201958Y-145886700D01*
X53333075Y-146113803D01*
X53492718Y-146321851D01*
X53492726Y-146321860D01*
X53678140Y-146507274D01*
X53678148Y-146507281D01*
X53678149Y-146507282D01*
X53695684Y-146520737D01*
X53886196Y-146666924D01*
X54113299Y-146798041D01*
X54113309Y-146798046D01*
X54355571Y-146898394D01*
X54355581Y-146898398D01*
X54608884Y-146966270D01*
X54868880Y-147000500D01*
X54868887Y-147000500D01*
X55131113Y-147000500D01*
X55131120Y-147000500D01*
X55391116Y-146966270D01*
X55644419Y-146898398D01*
X55886697Y-146798043D01*
X56113803Y-146666924D01*
X56321851Y-146507282D01*
X56321855Y-146507277D01*
X56321860Y-146507274D01*
X56507274Y-146321860D01*
X56507277Y-146321855D01*
X56507282Y-146321851D01*
X56666924Y-146113803D01*
X56798043Y-145886697D01*
X56898398Y-145644419D01*
X56966270Y-145391116D01*
X57000500Y-145131120D01*
X57000500Y-144868880D01*
X56966270Y-144608884D01*
X56898398Y-144355581D01*
X56808181Y-144137778D01*
X56798046Y-144113309D01*
X56798041Y-144113299D01*
X56666924Y-143886196D01*
X56508136Y-143679262D01*
X56507282Y-143678149D01*
X56507281Y-143678148D01*
X56507274Y-143678140D01*
X56321860Y-143492726D01*
X56321851Y-143492718D01*
X56113803Y-143333075D01*
X55886700Y-143201958D01*
X55886690Y-143201953D01*
X55644428Y-143101605D01*
X55644421Y-143101603D01*
X55644419Y-143101602D01*
X55391116Y-143033730D01*
X55333339Y-143026123D01*
X55131127Y-142999500D01*
X55131120Y-142999500D01*
X54868880Y-142999500D01*
X54868872Y-142999500D01*
X54637772Y-143029926D01*
X54608884Y-143033730D01*
X54418019Y-143084872D01*
X54355581Y-143101602D01*
X54355571Y-143101605D01*
X54113309Y-143201953D01*
X54113299Y-143201958D01*
X53886196Y-143333075D01*
X53678148Y-143492718D01*
X53492718Y-143678148D01*
X53333075Y-143886196D01*
X53201958Y-144113299D01*
X53201953Y-144113309D01*
X53101605Y-144355571D01*
X53101602Y-144355581D01*
X53068466Y-144479249D01*
X53033730Y-144608885D01*
X52999500Y-144868872D01*
X50300500Y-144868872D01*
X50300500Y-121919999D01*
X54524341Y-121919999D01*
X54524341Y-121920000D01*
X54544936Y-122155403D01*
X54544938Y-122155413D01*
X54606094Y-122383655D01*
X54606096Y-122383659D01*
X54606097Y-122383663D01*
X54640267Y-122456940D01*
X54705965Y-122597830D01*
X54705967Y-122597834D01*
X54789213Y-122716721D01*
X54841501Y-122791396D01*
X54841506Y-122791402D01*
X55008597Y-122958493D01*
X55008603Y-122958498D01*
X55194158Y-123088425D01*
X55237783Y-123143002D01*
X55244977Y-123212500D01*
X55213454Y-123274855D01*
X55194158Y-123291575D01*
X55008597Y-123421505D01*
X54841505Y-123588597D01*
X54705965Y-123782169D01*
X54705964Y-123782171D01*
X54621775Y-123962715D01*
X54608942Y-123990237D01*
X54606098Y-123996335D01*
X54606094Y-123996344D01*
X54544938Y-124224586D01*
X54544936Y-124224596D01*
X54524341Y-124459999D01*
X54524341Y-124460000D01*
X54544936Y-124695403D01*
X54544938Y-124695413D01*
X54606094Y-124923655D01*
X54606096Y-124923659D01*
X54606097Y-124923663D01*
X54647727Y-125012938D01*
X54705965Y-125137830D01*
X54705967Y-125137834D01*
X54770374Y-125229816D01*
X54841505Y-125331401D01*
X55008599Y-125498495D01*
X55105384Y-125566265D01*
X55202165Y-125634032D01*
X55202167Y-125634033D01*
X55202170Y-125634035D01*
X55416337Y-125733903D01*
X55644592Y-125795063D01*
X55832918Y-125811539D01*
X55879999Y-125815659D01*
X55880000Y-125815659D01*
X55880001Y-125815659D01*
X55919234Y-125812226D01*
X56115408Y-125795063D01*
X56343663Y-125733903D01*
X56557830Y-125634035D01*
X56751401Y-125498495D01*
X56918495Y-125331401D01*
X57048425Y-125145842D01*
X57103002Y-125102217D01*
X57172500Y-125095023D01*
X57234855Y-125126546D01*
X57251575Y-125145842D01*
X57381500Y-125331395D01*
X57381505Y-125331401D01*
X57548599Y-125498495D01*
X57645384Y-125566265D01*
X57742165Y-125634032D01*
X57742167Y-125634033D01*
X57742170Y-125634035D01*
X57956337Y-125733903D01*
X58184592Y-125795063D01*
X58372918Y-125811539D01*
X58419999Y-125815659D01*
X58420000Y-125815659D01*
X58420001Y-125815659D01*
X58459234Y-125812226D01*
X58655408Y-125795063D01*
X58883663Y-125733903D01*
X59097830Y-125634035D01*
X59291401Y-125498495D01*
X59458495Y-125331401D01*
X59594035Y-125137830D01*
X59693903Y-124923663D01*
X59755063Y-124695408D01*
X59775659Y-124460000D01*
X59755063Y-124224592D01*
X59693903Y-123996337D01*
X59594035Y-123782171D01*
X59588425Y-123774158D01*
X59458494Y-123588597D01*
X59291402Y-123421506D01*
X59291396Y-123421501D01*
X59105842Y-123291575D01*
X59062217Y-123236998D01*
X59055023Y-123167500D01*
X59086546Y-123105145D01*
X59105842Y-123088425D01*
X59160039Y-123050476D01*
X59291401Y-122958495D01*
X59458495Y-122791401D01*
X59594035Y-122597830D01*
X59693903Y-122383663D01*
X59755063Y-122155408D01*
X59775659Y-121920000D01*
X59755063Y-121684592D01*
X59693903Y-121456337D01*
X59594035Y-121242171D01*
X59588425Y-121234158D01*
X59458494Y-121048597D01*
X59291402Y-120881506D01*
X59291395Y-120881501D01*
X59097834Y-120745967D01*
X59097830Y-120745965D01*
X59097828Y-120745964D01*
X58883663Y-120646097D01*
X58883659Y-120646096D01*
X58883655Y-120646094D01*
X58655413Y-120584938D01*
X58655403Y-120584936D01*
X58420001Y-120564341D01*
X58419999Y-120564341D01*
X58184596Y-120584936D01*
X58184586Y-120584938D01*
X57956344Y-120646094D01*
X57956335Y-120646098D01*
X57742171Y-120745964D01*
X57742169Y-120745965D01*
X57548597Y-120881505D01*
X57381505Y-121048597D01*
X57251575Y-121234158D01*
X57196998Y-121277783D01*
X57127500Y-121284977D01*
X57065145Y-121253454D01*
X57048425Y-121234158D01*
X56918494Y-121048597D01*
X56751402Y-120881506D01*
X56751395Y-120881501D01*
X56557834Y-120745967D01*
X56557830Y-120745965D01*
X56557828Y-120745964D01*
X56343663Y-120646097D01*
X56343659Y-120646096D01*
X56343655Y-120646094D01*
X56115413Y-120584938D01*
X56115403Y-120584936D01*
X55880001Y-120564341D01*
X55879999Y-120564341D01*
X55644596Y-120584936D01*
X55644586Y-120584938D01*
X55416344Y-120646094D01*
X55416335Y-120646098D01*
X55202171Y-120745964D01*
X55202169Y-120745965D01*
X55008597Y-120881505D01*
X54841505Y-121048597D01*
X54705965Y-121242169D01*
X54705964Y-121242171D01*
X54606098Y-121456335D01*
X54606094Y-121456344D01*
X54544938Y-121684586D01*
X54544936Y-121684596D01*
X54524341Y-121919999D01*
X50300500Y-121919999D01*
X50300500Y-80382135D01*
X51989500Y-80382135D01*
X51989500Y-82177870D01*
X51989501Y-82177876D01*
X51995908Y-82237483D01*
X52046202Y-82372328D01*
X52046206Y-82372335D01*
X52132452Y-82487544D01*
X52132455Y-82487547D01*
X52247664Y-82573793D01*
X52247671Y-82573797D01*
X52382517Y-82624091D01*
X52382516Y-82624091D01*
X52389444Y-82624835D01*
X52442127Y-82630500D01*
X54237872Y-82630499D01*
X54297483Y-82624091D01*
X54432331Y-82573796D01*
X54547546Y-82487546D01*
X54633796Y-82372331D01*
X54684091Y-82237483D01*
X54690500Y-82177873D01*
X54690499Y-80575781D01*
X54710184Y-80508743D01*
X54726818Y-80488101D01*
X55778101Y-79436819D01*
X55839424Y-79403334D01*
X55865782Y-79400500D01*
X63748543Y-79400500D01*
X63824681Y-79385354D01*
X63862751Y-79377782D01*
X63941836Y-79362051D01*
X63995165Y-79339961D01*
X64123914Y-79286632D01*
X64287782Y-79177139D01*
X64427139Y-79037782D01*
X64427139Y-79037780D01*
X64437347Y-79027573D01*
X64437348Y-79027570D01*
X78247139Y-65217782D01*
X78284129Y-65162421D01*
X78356631Y-65053916D01*
X78356636Y-65053906D01*
X78432032Y-64871881D01*
X78432051Y-64871835D01*
X78453084Y-64766097D01*
X78470500Y-64678543D01*
X78470500Y-57777135D01*
X94824500Y-57777135D01*
X94824500Y-59222870D01*
X94824501Y-59222876D01*
X94830908Y-59282483D01*
X94881202Y-59417328D01*
X94881206Y-59417335D01*
X94967452Y-59532544D01*
X94967455Y-59532547D01*
X95082664Y-59618793D01*
X95082671Y-59618797D01*
X95217517Y-59669091D01*
X95217516Y-59669091D01*
X95224444Y-59669835D01*
X95277127Y-59675500D01*
X96722872Y-59675499D01*
X96782483Y-59669091D01*
X96917331Y-59618796D01*
X97032546Y-59532546D01*
X97094785Y-59449404D01*
X97150718Y-59407535D01*
X97220410Y-59402551D01*
X97277588Y-59432078D01*
X97288568Y-59442088D01*
X97288570Y-59442089D01*
X97288571Y-59442090D01*
X97473786Y-59556770D01*
X97473792Y-59556773D01*
X97496664Y-59565633D01*
X97676931Y-59635470D01*
X97891074Y-59675500D01*
X97891076Y-59675500D01*
X98108924Y-59675500D01*
X98108926Y-59675500D01*
X98323069Y-59635470D01*
X98526210Y-59556772D01*
X98711432Y-59442088D01*
X98872427Y-59295322D01*
X98901047Y-59257422D01*
X98957153Y-59215787D01*
X99026865Y-59211094D01*
X99088048Y-59244836D01*
X99098946Y-59257414D01*
X99127573Y-59295322D01*
X99288568Y-59442088D01*
X99288575Y-59442092D01*
X99288576Y-59442093D01*
X99473786Y-59556770D01*
X99473792Y-59556773D01*
X99496664Y-59565633D01*
X99676931Y-59635470D01*
X99891074Y-59675500D01*
X99891076Y-59675500D01*
X100108925Y-59675500D01*
X100108926Y-59675500D01*
X100198000Y-59658849D01*
X100267514Y-59665879D01*
X100308466Y-59693056D01*
X102686016Y-62070606D01*
X102686045Y-62070637D01*
X102776264Y-62160856D01*
X102776267Y-62160858D01*
X102827490Y-62195084D01*
X102878714Y-62229312D01*
X102959207Y-62262652D01*
X102992548Y-62276463D01*
X103052971Y-62288481D01*
X103113393Y-62300500D01*
X103113394Y-62300500D01*
X136681274Y-62300500D01*
X136748313Y-62320185D01*
X136768955Y-62336819D01*
X144513181Y-70081045D01*
X144546666Y-70142368D01*
X144549500Y-70168726D01*
X144549500Y-96014547D01*
X144529815Y-96081586D01*
X144513181Y-96102228D01*
X142847713Y-97767695D01*
X142786390Y-97801180D01*
X142716698Y-97796196D01*
X142660765Y-97754324D01*
X142640767Y-97713951D01*
X142600817Y-97573541D01*
X142600815Y-97573537D01*
X142506979Y-97385090D01*
X142503712Y-97378528D01*
X142422251Y-97270656D01*
X142397560Y-97205297D01*
X142412125Y-97136962D01*
X142446895Y-97096665D01*
X142494545Y-97060993D01*
X142532546Y-97032546D01*
X142618796Y-96917331D01*
X142669091Y-96782483D01*
X142675500Y-96722873D01*
X142675499Y-95277128D01*
X142669091Y-95217517D01*
X142618796Y-95082669D01*
X142618795Y-95082668D01*
X142618793Y-95082664D01*
X142532547Y-94967455D01*
X142532544Y-94967452D01*
X142417335Y-94881206D01*
X142417328Y-94881202D01*
X142282482Y-94830908D01*
X142282483Y-94830908D01*
X142222883Y-94824501D01*
X142222881Y-94824500D01*
X142222873Y-94824500D01*
X142222864Y-94824500D01*
X140777129Y-94824500D01*
X140777123Y-94824501D01*
X140717516Y-94830908D01*
X140582671Y-94881202D01*
X140582664Y-94881206D01*
X140467455Y-94967452D01*
X140467452Y-94967455D01*
X140381206Y-95082664D01*
X140381202Y-95082671D01*
X140330908Y-95217517D01*
X140324501Y-95277116D01*
X140324501Y-95277123D01*
X140324500Y-95277135D01*
X140324500Y-96722870D01*
X140324501Y-96722876D01*
X140330908Y-96782483D01*
X140381202Y-96917328D01*
X140381206Y-96917335D01*
X140450358Y-97009709D01*
X140467454Y-97032546D01*
X140553105Y-97096664D01*
X140594975Y-97152597D01*
X140599959Y-97222289D01*
X140577748Y-97270656D01*
X140496288Y-97378528D01*
X140399184Y-97573537D01*
X140339564Y-97783081D01*
X140319464Y-97999999D01*
X140319464Y-98000000D01*
X140339564Y-98216918D01*
X140399184Y-98426462D01*
X140496288Y-98621472D01*
X140627574Y-98795324D01*
X140751572Y-98908363D01*
X140787854Y-98968074D01*
X140786093Y-99037922D01*
X140751572Y-99091637D01*
X140627574Y-99204675D01*
X140496288Y-99378527D01*
X140399184Y-99573537D01*
X140339564Y-99783081D01*
X140319464Y-99999999D01*
X140319464Y-100000000D01*
X140339564Y-100216918D01*
X140399184Y-100426462D01*
X140496288Y-100621472D01*
X140627574Y-100795324D01*
X140751572Y-100908363D01*
X140787854Y-100968074D01*
X140786093Y-101037922D01*
X140751572Y-101091637D01*
X140627574Y-101204675D01*
X140496288Y-101378527D01*
X140399184Y-101573537D01*
X140399183Y-101573541D01*
X140357927Y-101718543D01*
X140339564Y-101783081D01*
X140319464Y-101999999D01*
X140319464Y-102000000D01*
X140339564Y-102216918D01*
X140339564Y-102216920D01*
X140339565Y-102216923D01*
X140399183Y-102426459D01*
X140496288Y-102621472D01*
X140627573Y-102795322D01*
X140788568Y-102942088D01*
X140788575Y-102942092D01*
X140788576Y-102942093D01*
X140973786Y-103056770D01*
X140973792Y-103056773D01*
X140996664Y-103065633D01*
X141176931Y-103135470D01*
X141391074Y-103175500D01*
X141391076Y-103175500D01*
X141608924Y-103175500D01*
X141608926Y-103175500D01*
X141823069Y-103135470D01*
X142026210Y-103056772D01*
X142211432Y-102942088D01*
X142372427Y-102795322D01*
X142503712Y-102621472D01*
X142600817Y-102426459D01*
X142660435Y-102216923D01*
X142680536Y-102000000D01*
X142660808Y-101787109D01*
X142674223Y-101718543D01*
X142696595Y-101687993D01*
X145237821Y-99146768D01*
X145299142Y-99113285D01*
X145368834Y-99118269D01*
X145424767Y-99160141D01*
X145449184Y-99225605D01*
X145449500Y-99234451D01*
X145449500Y-111514547D01*
X145429815Y-111581586D01*
X145413181Y-111602228D01*
X145041621Y-111973787D01*
X144980298Y-112007272D01*
X144967825Y-112009326D01*
X144920750Y-112014630D01*
X144750478Y-112074210D01*
X144621117Y-112155494D01*
X144555145Y-112174500D01*
X142844855Y-112174500D01*
X142778883Y-112155494D01*
X142649523Y-112074211D01*
X142479254Y-112014631D01*
X142479249Y-112014630D01*
X142300004Y-111994435D01*
X142299996Y-111994435D01*
X142120750Y-112014630D01*
X142120745Y-112014631D01*
X141950476Y-112074211D01*
X141797737Y-112170184D01*
X141670184Y-112297737D01*
X141574211Y-112450476D01*
X141514631Y-112620745D01*
X141514630Y-112620750D01*
X141494435Y-112799996D01*
X141494435Y-112800003D01*
X141514630Y-112979249D01*
X141514631Y-112979254D01*
X141574211Y-113149523D01*
X141670184Y-113302262D01*
X141797738Y-113429816D01*
X141950478Y-113525789D01*
X142120745Y-113585368D01*
X142120750Y-113585369D01*
X142299996Y-113605565D01*
X142300000Y-113605565D01*
X142300004Y-113605565D01*
X142479249Y-113585369D01*
X142479252Y-113585368D01*
X142479255Y-113585368D01*
X142649522Y-113525789D01*
X142778883Y-113444505D01*
X142844855Y-113425500D01*
X144555145Y-113425500D01*
X144621116Y-113444505D01*
X144750478Y-113525789D01*
X144920745Y-113585368D01*
X144920750Y-113585369D01*
X145099996Y-113605565D01*
X145100000Y-113605565D01*
X145100004Y-113605565D01*
X145279249Y-113585369D01*
X145279252Y-113585368D01*
X145279255Y-113585368D01*
X145449522Y-113525789D01*
X145602262Y-113429816D01*
X145729816Y-113302262D01*
X145825789Y-113149522D01*
X145885368Y-112979255D01*
X145890672Y-112932173D01*
X145917737Y-112867763D01*
X145926201Y-112858387D01*
X146473729Y-112310860D01*
X146473733Y-112310858D01*
X146560858Y-112223733D01*
X146629311Y-112121286D01*
X146676463Y-112007452D01*
X146700500Y-111886606D01*
X146700500Y-82754499D01*
X146720185Y-82687460D01*
X146772989Y-82641705D01*
X146824500Y-82630499D01*
X148217871Y-82630499D01*
X148217872Y-82630499D01*
X148277483Y-82624091D01*
X148412331Y-82573796D01*
X148527546Y-82487546D01*
X148613796Y-82372331D01*
X148664091Y-82237483D01*
X148670500Y-82177873D01*
X148670499Y-80382128D01*
X148664091Y-80322517D01*
X148613796Y-80187669D01*
X148613795Y-80187668D01*
X148613793Y-80187664D01*
X148527547Y-80072455D01*
X148527544Y-80072452D01*
X148412335Y-79986206D01*
X148412328Y-79986202D01*
X148280917Y-79937189D01*
X148224983Y-79895318D01*
X148200566Y-79829853D01*
X148215418Y-79761580D01*
X148236563Y-79733332D01*
X148358495Y-79611401D01*
X148494035Y-79417830D01*
X148593903Y-79203663D01*
X148655063Y-78975408D01*
X148675659Y-78740000D01*
X148655063Y-78504592D01*
X148593903Y-78276337D01*
X148494035Y-78062171D01*
X148491067Y-78057931D01*
X148358494Y-77868597D01*
X148191402Y-77701506D01*
X148191395Y-77701501D01*
X147997834Y-77565967D01*
X147997830Y-77565965D01*
X147997828Y-77565964D01*
X147783663Y-77466097D01*
X147783659Y-77466096D01*
X147783655Y-77466094D01*
X147555413Y-77404938D01*
X147555403Y-77404936D01*
X147320001Y-77384341D01*
X147319999Y-77384341D01*
X147084596Y-77404936D01*
X147084586Y-77404938D01*
X146856593Y-77466028D01*
X146786743Y-77464365D01*
X146728881Y-77425202D01*
X146701377Y-77360974D01*
X146700500Y-77346253D01*
X146700500Y-75053746D01*
X146720185Y-74986707D01*
X146772989Y-74940952D01*
X146842147Y-74931008D01*
X146856583Y-74933969D01*
X147084592Y-74995063D01*
X147272918Y-75011539D01*
X147319999Y-75015659D01*
X147320000Y-75015659D01*
X147320001Y-75015659D01*
X147359234Y-75012226D01*
X147555408Y-74995063D01*
X147783663Y-74933903D01*
X147997830Y-74834035D01*
X148191401Y-74698495D01*
X148358495Y-74531401D01*
X148494035Y-74337830D01*
X148593903Y-74123663D01*
X148655063Y-73895408D01*
X148675659Y-73660000D01*
X148655063Y-73424592D01*
X148593903Y-73196337D01*
X148494035Y-72982171D01*
X148358495Y-72788599D01*
X148358494Y-72788597D01*
X148191402Y-72621506D01*
X148191396Y-72621501D01*
X148005842Y-72491575D01*
X147962217Y-72436998D01*
X147955023Y-72367500D01*
X147986546Y-72305145D01*
X148005842Y-72288425D01*
X148028026Y-72272891D01*
X148191401Y-72158495D01*
X148358495Y-71991401D01*
X148494035Y-71797830D01*
X148593903Y-71583663D01*
X148655063Y-71355408D01*
X148675659Y-71120000D01*
X148655063Y-70884592D01*
X148593903Y-70656337D01*
X148494035Y-70442171D01*
X148358495Y-70248599D01*
X148358494Y-70248597D01*
X148191402Y-70081506D01*
X148191396Y-70081501D01*
X148005842Y-69951575D01*
X147962217Y-69896998D01*
X147955023Y-69827500D01*
X147986546Y-69765145D01*
X148005842Y-69748425D01*
X148028026Y-69732891D01*
X148191401Y-69618495D01*
X148358495Y-69451401D01*
X148494035Y-69257830D01*
X148593903Y-69043663D01*
X148655063Y-68815408D01*
X148675659Y-68580000D01*
X148655063Y-68344592D01*
X148593903Y-68116337D01*
X148494035Y-67902171D01*
X148358495Y-67708599D01*
X148358494Y-67708597D01*
X148191402Y-67541506D01*
X148191396Y-67541501D01*
X148005842Y-67411575D01*
X147962217Y-67356998D01*
X147955023Y-67287500D01*
X147986546Y-67225145D01*
X148005842Y-67208425D01*
X148028026Y-67192891D01*
X148191401Y-67078495D01*
X148358495Y-66911401D01*
X148494035Y-66717830D01*
X148593903Y-66503663D01*
X148655063Y-66275408D01*
X148675659Y-66040000D01*
X148655063Y-65804592D01*
X148593903Y-65576337D01*
X148494035Y-65362171D01*
X148392936Y-65217785D01*
X148358494Y-65168597D01*
X148191402Y-65001506D01*
X148191395Y-65001501D01*
X147997834Y-64865967D01*
X147997830Y-64865965D01*
X147997828Y-64865964D01*
X147783663Y-64766097D01*
X147783659Y-64766096D01*
X147783655Y-64766094D01*
X147555413Y-64704938D01*
X147555403Y-64704936D01*
X147320001Y-64684341D01*
X147319999Y-64684341D01*
X147084596Y-64704936D01*
X147084586Y-64704938D01*
X146856344Y-64766094D01*
X146856335Y-64766098D01*
X146642171Y-64865964D01*
X146642169Y-64865965D01*
X146448597Y-65001505D01*
X146281505Y-65168597D01*
X146145965Y-65362169D01*
X146145964Y-65362171D01*
X146046098Y-65576335D01*
X146046094Y-65576344D01*
X145984938Y-65804586D01*
X145984936Y-65804596D01*
X145964341Y-66039999D01*
X145964341Y-66040000D01*
X145984936Y-66275403D01*
X145984938Y-66275413D01*
X146046094Y-66503655D01*
X146046096Y-66503659D01*
X146046097Y-66503663D01*
X146113425Y-66648048D01*
X146145965Y-66717830D01*
X146145967Y-66717834D01*
X146281501Y-66911395D01*
X146281506Y-66911402D01*
X146448597Y-67078493D01*
X146448603Y-67078498D01*
X146634158Y-67208425D01*
X146677783Y-67263002D01*
X146684977Y-67332500D01*
X146653454Y-67394855D01*
X146634158Y-67411575D01*
X146448597Y-67541505D01*
X146281505Y-67708597D01*
X146145965Y-67902169D01*
X146145964Y-67902171D01*
X146046098Y-68116335D01*
X146046094Y-68116344D01*
X146005394Y-68268242D01*
X145969029Y-68327903D01*
X145906182Y-68358432D01*
X145836807Y-68350137D01*
X145797938Y-68323830D01*
X137629716Y-60155608D01*
X137629696Y-60155586D01*
X137538251Y-60064141D01*
X137487027Y-60029915D01*
X137435805Y-59995689D01*
X137435804Y-59995688D01*
X137435801Y-59995686D01*
X137435798Y-59995685D01*
X137355310Y-59962347D01*
X137321971Y-59948537D01*
X137311945Y-59946543D01*
X137261547Y-59936518D01*
X137201128Y-59924500D01*
X137201125Y-59924500D01*
X137201124Y-59924500D01*
X108610279Y-59924500D01*
X108544307Y-59905494D01*
X108414947Y-59824211D01*
X108244678Y-59764631D01*
X108244673Y-59764630D01*
X108065428Y-59744435D01*
X108065420Y-59744435D01*
X107886174Y-59764630D01*
X107886169Y-59764631D01*
X107715900Y-59824211D01*
X107563161Y-59920184D01*
X107435608Y-60047737D01*
X107339635Y-60200476D01*
X107280055Y-60370745D01*
X107280054Y-60370749D01*
X107266688Y-60489384D01*
X107239621Y-60553798D01*
X107182027Y-60593353D01*
X107143468Y-60599500D01*
X105035452Y-60599500D01*
X104968413Y-60579815D01*
X104947771Y-60563181D01*
X103196599Y-58812009D01*
X103163114Y-58750686D01*
X103160809Y-58712887D01*
X103180536Y-58500000D01*
X103180536Y-58499999D01*
X103160435Y-58283081D01*
X103160435Y-58283077D01*
X103100817Y-58073541D01*
X103003712Y-57878528D01*
X102872427Y-57704678D01*
X102845016Y-57679690D01*
X102755996Y-57598537D01*
X102711432Y-57557912D01*
X102711428Y-57557909D01*
X102711423Y-57557906D01*
X102526213Y-57443229D01*
X102526207Y-57443226D01*
X102441113Y-57410260D01*
X102323069Y-57364530D01*
X102108926Y-57324500D01*
X101891074Y-57324500D01*
X101676931Y-57364530D01*
X101633896Y-57381202D01*
X101473792Y-57443226D01*
X101473786Y-57443229D01*
X101288576Y-57557906D01*
X101288566Y-57557913D01*
X101127573Y-57704676D01*
X101098953Y-57742576D01*
X101042844Y-57784211D01*
X100973132Y-57788902D01*
X100911950Y-57755159D01*
X100901047Y-57742576D01*
X100872426Y-57704676D01*
X100711433Y-57557913D01*
X100711423Y-57557906D01*
X100526213Y-57443229D01*
X100526207Y-57443226D01*
X100441113Y-57410260D01*
X100323069Y-57364530D01*
X100108926Y-57324500D01*
X99891074Y-57324500D01*
X99676931Y-57364530D01*
X99633896Y-57381202D01*
X99473792Y-57443226D01*
X99473786Y-57443229D01*
X99288576Y-57557906D01*
X99288566Y-57557913D01*
X99127573Y-57704676D01*
X99098953Y-57742576D01*
X99042844Y-57784211D01*
X98973132Y-57788902D01*
X98911950Y-57755159D01*
X98901047Y-57742576D01*
X98872426Y-57704676D01*
X98711433Y-57557913D01*
X98711423Y-57557906D01*
X98526213Y-57443229D01*
X98526207Y-57443226D01*
X98441113Y-57410260D01*
X98323069Y-57364530D01*
X98108926Y-57324500D01*
X97891074Y-57324500D01*
X97676931Y-57364530D01*
X97633896Y-57381202D01*
X97473792Y-57443226D01*
X97473786Y-57443229D01*
X97288565Y-57557913D01*
X97277585Y-57567923D01*
X97214780Y-57598537D01*
X97145393Y-57590336D01*
X97094785Y-57550594D01*
X97068848Y-57515948D01*
X97032546Y-57467454D01*
X97032544Y-57467453D01*
X97032544Y-57467452D01*
X96917335Y-57381206D01*
X96917328Y-57381202D01*
X96782482Y-57330908D01*
X96782483Y-57330908D01*
X96722883Y-57324501D01*
X96722881Y-57324500D01*
X96722873Y-57324500D01*
X96722864Y-57324500D01*
X95277129Y-57324500D01*
X95277123Y-57324501D01*
X95217516Y-57330908D01*
X95082671Y-57381202D01*
X95082664Y-57381206D01*
X94967455Y-57467452D01*
X94967452Y-57467455D01*
X94881206Y-57582664D01*
X94881202Y-57582671D01*
X94830908Y-57717517D01*
X94824501Y-57777116D01*
X94824500Y-57777135D01*
X78470500Y-57777135D01*
X78470500Y-54868872D01*
X142999500Y-54868872D01*
X142999500Y-55131127D01*
X143026123Y-55333339D01*
X143033730Y-55391116D01*
X143101602Y-55644418D01*
X143101605Y-55644428D01*
X143201953Y-55886690D01*
X143201958Y-55886700D01*
X143333075Y-56113803D01*
X143492718Y-56321851D01*
X143492726Y-56321860D01*
X143678140Y-56507274D01*
X143678148Y-56507281D01*
X143886196Y-56666924D01*
X144113299Y-56798041D01*
X144113309Y-56798046D01*
X144355571Y-56898394D01*
X144355581Y-56898398D01*
X144608884Y-56966270D01*
X144868880Y-57000500D01*
X144868887Y-57000500D01*
X145131113Y-57000500D01*
X145131120Y-57000500D01*
X145391116Y-56966270D01*
X145644419Y-56898398D01*
X145886697Y-56798043D01*
X146113803Y-56666924D01*
X146321851Y-56507282D01*
X146321855Y-56507277D01*
X146321860Y-56507274D01*
X146507274Y-56321860D01*
X146507277Y-56321855D01*
X146507282Y-56321851D01*
X146666924Y-56113803D01*
X146798043Y-55886697D01*
X146898398Y-55644419D01*
X146966270Y-55391116D01*
X147000500Y-55131120D01*
X147000500Y-54868880D01*
X146966270Y-54608884D01*
X146898398Y-54355581D01*
X146849642Y-54237873D01*
X146798046Y-54113309D01*
X146798041Y-54113299D01*
X146666924Y-53886196D01*
X146507281Y-53678148D01*
X146507274Y-53678140D01*
X146321860Y-53492726D01*
X146321851Y-53492718D01*
X146113803Y-53333075D01*
X145886700Y-53201958D01*
X145886690Y-53201953D01*
X145644428Y-53101605D01*
X145644421Y-53101603D01*
X145644419Y-53101602D01*
X145391116Y-53033730D01*
X145333339Y-53026123D01*
X145131127Y-52999500D01*
X145131120Y-52999500D01*
X144868880Y-52999500D01*
X144868872Y-52999500D01*
X144637772Y-53029926D01*
X144608884Y-53033730D01*
X144467629Y-53071579D01*
X144355581Y-53101602D01*
X144355571Y-53101605D01*
X144113309Y-53201953D01*
X144113299Y-53201958D01*
X143886196Y-53333075D01*
X143678148Y-53492718D01*
X143492718Y-53678148D01*
X143333075Y-53886196D01*
X143201958Y-54113299D01*
X143201953Y-54113309D01*
X143101605Y-54355571D01*
X143101602Y-54355581D01*
X143033730Y-54608884D01*
X143033069Y-54613903D01*
X142999500Y-54868872D01*
X78470500Y-54868872D01*
X78470500Y-54754141D01*
X78490185Y-54687102D01*
X78542989Y-54641347D01*
X78551149Y-54637966D01*
X78562331Y-54633796D01*
X78677546Y-54547546D01*
X78763796Y-54432331D01*
X78814091Y-54297483D01*
X78820500Y-54237873D01*
X78820499Y-53339999D01*
X81194341Y-53339999D01*
X81194341Y-53340000D01*
X81214936Y-53575403D01*
X81214938Y-53575413D01*
X81276094Y-53803655D01*
X81276096Y-53803659D01*
X81276097Y-53803663D01*
X81326301Y-53911326D01*
X81375965Y-54017830D01*
X81375967Y-54017834D01*
X81442813Y-54113299D01*
X81511505Y-54211401D01*
X81678599Y-54378495D01*
X81775384Y-54446265D01*
X81872165Y-54514032D01*
X81872167Y-54514033D01*
X81872170Y-54514035D01*
X82086337Y-54613903D01*
X82314592Y-54675063D01*
X82491034Y-54690500D01*
X82549999Y-54695659D01*
X82550000Y-54695659D01*
X82550001Y-54695659D01*
X82608966Y-54690500D01*
X82785408Y-54675063D01*
X83013663Y-54613903D01*
X83227830Y-54514035D01*
X83421401Y-54378495D01*
X83588495Y-54211401D01*
X83724035Y-54017830D01*
X83823903Y-53803663D01*
X83885063Y-53575408D01*
X83905659Y-53340000D01*
X83885063Y-53104592D01*
X83823903Y-52876337D01*
X83724035Y-52662171D01*
X83712495Y-52645689D01*
X83588494Y-52468597D01*
X83421402Y-52301506D01*
X83421395Y-52301501D01*
X83227834Y-52165967D01*
X83227830Y-52165965D01*
X83227828Y-52165964D01*
X83013663Y-52066097D01*
X83013659Y-52066096D01*
X83013655Y-52066094D01*
X82785413Y-52004938D01*
X82785403Y-52004936D01*
X82550001Y-51984341D01*
X82549999Y-51984341D01*
X82314596Y-52004936D01*
X82314586Y-52004938D01*
X82086344Y-52066094D01*
X82086335Y-52066098D01*
X81872171Y-52165964D01*
X81872169Y-52165965D01*
X81678597Y-52301505D01*
X81511505Y-52468597D01*
X81375965Y-52662169D01*
X81375964Y-52662171D01*
X81276098Y-52876335D01*
X81276094Y-52876344D01*
X81214938Y-53104586D01*
X81214936Y-53104596D01*
X81194341Y-53339999D01*
X78820499Y-53339999D01*
X78820499Y-52442128D01*
X78814091Y-52382517D01*
X78784984Y-52304478D01*
X78763797Y-52247671D01*
X78763793Y-52247664D01*
X78677547Y-52132455D01*
X78677544Y-52132452D01*
X78562335Y-52046206D01*
X78562328Y-52046202D01*
X78427482Y-51995908D01*
X78427483Y-51995908D01*
X78367883Y-51989501D01*
X78367881Y-51989500D01*
X78367873Y-51989500D01*
X78367864Y-51989500D01*
X76572129Y-51989500D01*
X76572123Y-51989501D01*
X76512516Y-51995908D01*
X76377671Y-52046202D01*
X76377664Y-52046206D01*
X76262455Y-52132452D01*
X76262452Y-52132455D01*
X76176206Y-52247664D01*
X76176202Y-52247671D01*
X76125908Y-52382517D01*
X76119501Y-52442116D01*
X76119501Y-52442123D01*
X76119500Y-52442135D01*
X76119500Y-54237870D01*
X76119501Y-54237876D01*
X76125908Y-54297483D01*
X76176202Y-54432328D01*
X76176206Y-54432335D01*
X76262452Y-54547544D01*
X76262455Y-54547547D01*
X76377665Y-54633794D01*
X76377667Y-54633794D01*
X76377669Y-54633796D01*
X76388830Y-54637958D01*
X76444764Y-54679826D01*
X76469184Y-54745289D01*
X76469500Y-54754141D01*
X76469500Y-64114217D01*
X76449815Y-64181256D01*
X76433181Y-64201898D01*
X63271899Y-77363181D01*
X63210576Y-77396666D01*
X63184218Y-77399500D01*
X55301458Y-77399500D01*
X55287792Y-77402218D01*
X55274126Y-77404937D01*
X55274125Y-77404937D01*
X55108167Y-77437947D01*
X55108159Y-77437950D01*
X55054834Y-77460037D01*
X55054834Y-77460038D01*
X55009315Y-77478892D01*
X54926089Y-77513366D01*
X54926079Y-77513371D01*
X54762219Y-77622859D01*
X54692540Y-77692538D01*
X54622861Y-77762218D01*
X54622858Y-77762221D01*
X52702221Y-79682858D01*
X52702218Y-79682861D01*
X52651754Y-79733325D01*
X52562862Y-79822216D01*
X52527177Y-79875620D01*
X52473563Y-79920423D01*
X52437332Y-79930016D01*
X52382516Y-79935909D01*
X52247671Y-79986202D01*
X52247664Y-79986206D01*
X52132455Y-80072452D01*
X52132452Y-80072455D01*
X52046206Y-80187664D01*
X52046202Y-80187671D01*
X51995908Y-80322517D01*
X51989501Y-80382116D01*
X51989501Y-80382123D01*
X51989500Y-80382135D01*
X50300500Y-80382135D01*
X50300500Y-70469983D01*
X56919500Y-70469983D01*
X56919500Y-71770001D01*
X56919501Y-71770018D01*
X56930000Y-71872796D01*
X56930001Y-71872799D01*
X56969303Y-71991402D01*
X56985186Y-72039334D01*
X57077288Y-72188656D01*
X57201344Y-72312712D01*
X57350666Y-72404814D01*
X57517203Y-72459999D01*
X57619991Y-72470500D01*
X59220008Y-72470499D01*
X59322797Y-72459999D01*
X59489334Y-72404814D01*
X59638656Y-72312712D01*
X59762712Y-72188656D01*
X59854814Y-72039334D01*
X59909999Y-71872797D01*
X59920500Y-71770009D01*
X59920499Y-70469992D01*
X59909999Y-70367203D01*
X59854814Y-70200666D01*
X59762712Y-70051344D01*
X59638656Y-69927288D01*
X59545888Y-69870069D01*
X59489336Y-69835187D01*
X59489331Y-69835185D01*
X59466139Y-69827500D01*
X59322797Y-69780001D01*
X59322795Y-69780000D01*
X59220010Y-69769500D01*
X57619998Y-69769500D01*
X57619981Y-69769501D01*
X57517203Y-69780000D01*
X57517200Y-69780001D01*
X57350668Y-69835185D01*
X57350663Y-69835187D01*
X57201342Y-69927289D01*
X57077289Y-70051342D01*
X56985187Y-70200663D01*
X56985185Y-70200668D01*
X56957349Y-70284670D01*
X56930001Y-70367203D01*
X56930001Y-70367204D01*
X56930000Y-70367204D01*
X56919500Y-70469983D01*
X50300500Y-70469983D01*
X50300500Y-55002706D01*
X50300618Y-54997297D01*
X50302227Y-54960438D01*
X50306225Y-54868872D01*
X52999500Y-54868872D01*
X52999500Y-55131127D01*
X53026123Y-55333339D01*
X53033730Y-55391116D01*
X53101602Y-55644418D01*
X53101605Y-55644428D01*
X53201953Y-55886690D01*
X53201958Y-55886700D01*
X53333075Y-56113803D01*
X53492718Y-56321851D01*
X53492726Y-56321860D01*
X53678140Y-56507274D01*
X53678148Y-56507281D01*
X53886196Y-56666924D01*
X54113299Y-56798041D01*
X54113309Y-56798046D01*
X54355571Y-56898394D01*
X54355581Y-56898398D01*
X54608884Y-56966270D01*
X54868880Y-57000500D01*
X54868887Y-57000500D01*
X55131113Y-57000500D01*
X55131120Y-57000500D01*
X55391116Y-56966270D01*
X55644419Y-56898398D01*
X55886697Y-56798043D01*
X56113803Y-56666924D01*
X56321851Y-56507282D01*
X56321855Y-56507277D01*
X56321860Y-56507274D01*
X56507274Y-56321860D01*
X56507277Y-56321855D01*
X56507282Y-56321851D01*
X56666924Y-56113803D01*
X56798043Y-55886697D01*
X56898398Y-55644419D01*
X56966270Y-55391116D01*
X57000500Y-55131120D01*
X57000500Y-54868880D01*
X56966270Y-54608884D01*
X56898398Y-54355581D01*
X56849642Y-54237873D01*
X56798046Y-54113309D01*
X56798041Y-54113299D01*
X56666924Y-53886196D01*
X56507281Y-53678148D01*
X56507274Y-53678140D01*
X56321860Y-53492726D01*
X56321851Y-53492718D01*
X56113803Y-53333075D01*
X55886700Y-53201958D01*
X55886690Y-53201953D01*
X55644428Y-53101605D01*
X55644421Y-53101603D01*
X55644419Y-53101602D01*
X55391116Y-53033730D01*
X55333339Y-53026123D01*
X55131127Y-52999500D01*
X55131120Y-52999500D01*
X54868880Y-52999500D01*
X54868872Y-52999500D01*
X54637772Y-53029926D01*
X54608884Y-53033730D01*
X54467629Y-53071579D01*
X54355581Y-53101602D01*
X54355571Y-53101605D01*
X54113309Y-53201953D01*
X54113299Y-53201958D01*
X53886196Y-53333075D01*
X53678148Y-53492718D01*
X53492718Y-53678148D01*
X53333075Y-53886196D01*
X53201958Y-54113299D01*
X53201953Y-54113309D01*
X53101605Y-54355571D01*
X53101602Y-54355581D01*
X53033730Y-54608884D01*
X53033069Y-54613903D01*
X52999500Y-54868872D01*
X50306225Y-54868872D01*
X50318147Y-54595795D01*
X50319087Y-54585064D01*
X50371189Y-54189302D01*
X50373063Y-54178672D01*
X50459463Y-53788950D01*
X50462261Y-53778512D01*
X50582291Y-53397823D01*
X50585979Y-53387691D01*
X50738742Y-53018888D01*
X50743300Y-53009114D01*
X50927617Y-52655045D01*
X50933012Y-52645700D01*
X51062697Y-52442135D01*
X63419500Y-52442135D01*
X63419500Y-54237870D01*
X63419501Y-54237876D01*
X63425908Y-54297483D01*
X63476202Y-54432328D01*
X63476206Y-54432335D01*
X63562452Y-54547544D01*
X63562455Y-54547547D01*
X63677664Y-54633793D01*
X63677671Y-54633797D01*
X63812517Y-54684091D01*
X63812516Y-54684091D01*
X63819444Y-54684835D01*
X63872127Y-54690500D01*
X65667872Y-54690499D01*
X65727483Y-54684091D01*
X65862331Y-54633796D01*
X65977546Y-54547546D01*
X66063796Y-54432331D01*
X66114091Y-54297483D01*
X66120500Y-54237873D01*
X66120499Y-53339999D01*
X68494341Y-53339999D01*
X68494341Y-53340000D01*
X68514936Y-53575403D01*
X68514938Y-53575413D01*
X68576094Y-53803655D01*
X68576096Y-53803659D01*
X68576097Y-53803663D01*
X68626301Y-53911326D01*
X68675965Y-54017830D01*
X68675967Y-54017834D01*
X68742813Y-54113299D01*
X68811505Y-54211401D01*
X68978599Y-54378495D01*
X69075384Y-54446265D01*
X69172165Y-54514032D01*
X69172167Y-54514033D01*
X69172170Y-54514035D01*
X69386337Y-54613903D01*
X69614592Y-54675063D01*
X69791034Y-54690500D01*
X69849999Y-54695659D01*
X69850000Y-54695659D01*
X69850001Y-54695659D01*
X69908966Y-54690500D01*
X70085408Y-54675063D01*
X70313663Y-54613903D01*
X70527830Y-54514035D01*
X70721401Y-54378495D01*
X70888495Y-54211401D01*
X71024035Y-54017830D01*
X71123903Y-53803663D01*
X71185063Y-53575408D01*
X71205659Y-53340000D01*
X71185063Y-53104592D01*
X71123903Y-52876337D01*
X71024035Y-52662171D01*
X71012495Y-52645689D01*
X70888494Y-52468597D01*
X70721402Y-52301506D01*
X70721395Y-52301501D01*
X70527834Y-52165967D01*
X70527830Y-52165965D01*
X70527828Y-52165964D01*
X70313663Y-52066097D01*
X70313659Y-52066096D01*
X70313655Y-52066094D01*
X70085413Y-52004938D01*
X70085403Y-52004936D01*
X69850001Y-51984341D01*
X69849999Y-51984341D01*
X69614596Y-52004936D01*
X69614586Y-52004938D01*
X69386344Y-52066094D01*
X69386335Y-52066098D01*
X69172171Y-52165964D01*
X69172169Y-52165965D01*
X68978597Y-52301505D01*
X68811505Y-52468597D01*
X68675965Y-52662169D01*
X68675964Y-52662171D01*
X68576098Y-52876335D01*
X68576094Y-52876344D01*
X68514938Y-53104586D01*
X68514936Y-53104596D01*
X68494341Y-53339999D01*
X66120499Y-53339999D01*
X66120499Y-52442128D01*
X66114091Y-52382517D01*
X66084984Y-52304478D01*
X66063797Y-52247671D01*
X66063793Y-52247664D01*
X65977547Y-52132455D01*
X65977544Y-52132452D01*
X65862335Y-52046206D01*
X65862328Y-52046202D01*
X65727482Y-51995908D01*
X65727483Y-51995908D01*
X65667883Y-51989501D01*
X65667881Y-51989500D01*
X65667873Y-51989500D01*
X65667864Y-51989500D01*
X63872129Y-51989500D01*
X63872123Y-51989501D01*
X63812516Y-51995908D01*
X63677671Y-52046202D01*
X63677664Y-52046206D01*
X63562455Y-52132452D01*
X63562452Y-52132455D01*
X63476206Y-52247664D01*
X63476202Y-52247671D01*
X63425908Y-52382517D01*
X63419501Y-52442116D01*
X63419501Y-52442123D01*
X63419500Y-52442135D01*
X51062697Y-52442135D01*
X51147495Y-52309029D01*
X51153685Y-52300189D01*
X51396687Y-51983503D01*
X51403625Y-51975234D01*
X51673304Y-51680932D01*
X51680932Y-51673304D01*
X51975234Y-51403625D01*
X51983503Y-51396687D01*
X52300189Y-51153685D01*
X52309029Y-51147495D01*
X52645700Y-50933012D01*
X52655045Y-50927617D01*
X53009114Y-50743300D01*
X53018888Y-50738742D01*
X53387691Y-50585979D01*
X53397823Y-50582291D01*
X53778521Y-50462258D01*
X53788950Y-50459463D01*
X54178672Y-50373063D01*
X54189302Y-50371189D01*
X54585064Y-50319087D01*
X54595795Y-50318147D01*
X54997297Y-50300617D01*
X55002706Y-50300500D01*
X55047595Y-50300500D01*
X144952405Y-50300500D01*
X144997294Y-50300500D01*
X145002702Y-50300617D01*
G37*
G04 #@! TD.AperFunction*
G04 #@! TA.AperFunction,Conductor*
G36*
X102794536Y-140440185D02*
G01*
X102840291Y-140492989D01*
X102850235Y-140562147D01*
X102847272Y-140576593D01*
X102804938Y-140734586D01*
X102804936Y-140734596D01*
X102784341Y-140969999D01*
X102784341Y-140970000D01*
X102804936Y-141205403D01*
X102804938Y-141205413D01*
X102866094Y-141433655D01*
X102866096Y-141433659D01*
X102866097Y-141433663D01*
X102900898Y-141508294D01*
X102965965Y-141647830D01*
X102965967Y-141647834D01*
X103056876Y-141777664D01*
X103101505Y-141841401D01*
X103268599Y-142008495D01*
X103365384Y-142076265D01*
X103462165Y-142144032D01*
X103462167Y-142144033D01*
X103462170Y-142144035D01*
X103676337Y-142243903D01*
X103676343Y-142243904D01*
X103676344Y-142243905D01*
X103720111Y-142255632D01*
X103904592Y-142305063D01*
X104092918Y-142321539D01*
X104139999Y-142325659D01*
X104140000Y-142325659D01*
X104140001Y-142325659D01*
X104179234Y-142322226D01*
X104375408Y-142305063D01*
X104603663Y-142243903D01*
X104817830Y-142144035D01*
X105011401Y-142008495D01*
X105178495Y-141841401D01*
X105314035Y-141647830D01*
X105413903Y-141433663D01*
X105475063Y-141205408D01*
X105495659Y-140970000D01*
X105475063Y-140734592D01*
X105456203Y-140664205D01*
X105434068Y-140581593D01*
X105435731Y-140511743D01*
X105474894Y-140453881D01*
X105539123Y-140426377D01*
X105553843Y-140425500D01*
X110397921Y-140425500D01*
X110464960Y-140445185D01*
X110510715Y-140497989D01*
X110520659Y-140567147D01*
X110517696Y-140581593D01*
X110474366Y-140743302D01*
X110474364Y-140743313D01*
X110454532Y-140969998D01*
X110454532Y-140970001D01*
X110474364Y-141196686D01*
X110474366Y-141196697D01*
X110533258Y-141416488D01*
X110533261Y-141416497D01*
X110629431Y-141622732D01*
X110629432Y-141622734D01*
X110759954Y-141809141D01*
X110920858Y-141970045D01*
X110920861Y-141970047D01*
X111107266Y-142100568D01*
X111313504Y-142196739D01*
X111533308Y-142255635D01*
X111690780Y-142269412D01*
X111759998Y-142275468D01*
X111760000Y-142275468D01*
X111760002Y-142275468D01*
X111816673Y-142270509D01*
X111986692Y-142255635D01*
X112055048Y-142237319D01*
X112124896Y-142238980D01*
X112174822Y-142269412D01*
X116982591Y-147077181D01*
X117016076Y-147138504D01*
X117011092Y-147208196D01*
X116969220Y-147264129D01*
X116903756Y-147288546D01*
X116884104Y-147288390D01*
X116840003Y-147284532D01*
X116839998Y-147284532D01*
X116613313Y-147304364D01*
X116613302Y-147304366D01*
X116393511Y-147363258D01*
X116393502Y-147363261D01*
X116187267Y-147459431D01*
X116187265Y-147459432D01*
X116129334Y-147499996D01*
X116053378Y-147553181D01*
X116033535Y-147567075D01*
X115967329Y-147589402D01*
X115962412Y-147589500D01*
X115177588Y-147589500D01*
X115110549Y-147569815D01*
X115106465Y-147567075D01*
X115086622Y-147553181D01*
X114952734Y-147459432D01*
X114952732Y-147459431D01*
X114746497Y-147363261D01*
X114746488Y-147363258D01*
X114526697Y-147304366D01*
X114526693Y-147304365D01*
X114526692Y-147304365D01*
X114526691Y-147304364D01*
X114526686Y-147304364D01*
X114300002Y-147284532D01*
X114299998Y-147284532D01*
X114073313Y-147304364D01*
X114073302Y-147304366D01*
X113853511Y-147363258D01*
X113853502Y-147363261D01*
X113647267Y-147459431D01*
X113647265Y-147459432D01*
X113589334Y-147499996D01*
X113513378Y-147553181D01*
X113493535Y-147567075D01*
X113427329Y-147589402D01*
X113422412Y-147589500D01*
X112637588Y-147589500D01*
X112570549Y-147569815D01*
X112566465Y-147567075D01*
X112546622Y-147553181D01*
X112412734Y-147459432D01*
X112412732Y-147459431D01*
X112206497Y-147363261D01*
X112206488Y-147363258D01*
X111986697Y-147304366D01*
X111986693Y-147304365D01*
X111986692Y-147304365D01*
X111986691Y-147304364D01*
X111986686Y-147304364D01*
X111760002Y-147284532D01*
X111759998Y-147284532D01*
X111533313Y-147304364D01*
X111533302Y-147304366D01*
X111313511Y-147363258D01*
X111313502Y-147363261D01*
X111107267Y-147459431D01*
X111107265Y-147459432D01*
X111049334Y-147499996D01*
X110973378Y-147553181D01*
X110953535Y-147567075D01*
X110887329Y-147589402D01*
X110882412Y-147589500D01*
X105295783Y-147589500D01*
X105228744Y-147569815D01*
X105208102Y-147553181D01*
X100206819Y-142551898D01*
X100173334Y-142490575D01*
X100170500Y-142464217D01*
X100170500Y-141777664D01*
X100190185Y-141710625D01*
X100192910Y-141706561D01*
X100234035Y-141647830D01*
X100333903Y-141433663D01*
X100395063Y-141205408D01*
X100415659Y-140970000D01*
X100395063Y-140734592D01*
X100366550Y-140628180D01*
X100352728Y-140576593D01*
X100354391Y-140506743D01*
X100393554Y-140448881D01*
X100457782Y-140421377D01*
X100472503Y-140420500D01*
X102727497Y-140420500D01*
X102794536Y-140440185D01*
G37*
G04 #@! TD.AperFunction*
G04 #@! TA.AperFunction,Conductor*
G36*
X134726745Y-107106099D02*
G01*
X134782551Y-107148140D01*
X134806769Y-107213679D01*
X134807059Y-107222149D01*
X134807059Y-113606988D01*
X134787374Y-113674027D01*
X134770740Y-113694669D01*
X133341621Y-115123787D01*
X133280298Y-115157272D01*
X133267825Y-115159326D01*
X133220750Y-115164630D01*
X133050478Y-115224210D01*
X132897737Y-115320184D01*
X132770184Y-115447737D01*
X132674211Y-115600476D01*
X132614631Y-115770745D01*
X132614630Y-115770750D01*
X132594435Y-115949996D01*
X132594435Y-115950003D01*
X132614630Y-116129249D01*
X132614631Y-116129254D01*
X132674211Y-116299524D01*
X132755493Y-116428881D01*
X132774500Y-116494854D01*
X132774500Y-126336310D01*
X132754815Y-126403349D01*
X132702011Y-126449104D01*
X132632853Y-126459048D01*
X132569297Y-126430023D01*
X132545507Y-126402283D01*
X132479817Y-126297739D01*
X132352262Y-126170184D01*
X132199523Y-126074211D01*
X132029254Y-126014631D01*
X132029249Y-126014630D01*
X131850004Y-125994435D01*
X131849996Y-125994435D01*
X131670750Y-126014630D01*
X131670745Y-126014631D01*
X131500476Y-126074211D01*
X131371117Y-126155494D01*
X131305145Y-126174500D01*
X130317741Y-126174500D01*
X130317721Y-126174499D01*
X130311607Y-126174499D01*
X130188394Y-126174499D01*
X130087597Y-126194548D01*
X130087592Y-126194548D01*
X130067549Y-126198536D01*
X130067547Y-126198536D01*
X130020397Y-126218067D01*
X129953719Y-126245685D01*
X129953717Y-126245686D01*
X129851266Y-126314141D01*
X129851263Y-126314144D01*
X124677229Y-131488181D01*
X124615906Y-131521666D01*
X124589548Y-131524500D01*
X116400322Y-131524500D01*
X116400322Y-131522177D01*
X116341811Y-131511062D01*
X116291115Y-131462982D01*
X116274461Y-131395126D01*
X116297137Y-131329038D01*
X116340567Y-131290974D01*
X116967145Y-130961093D01*
X117992234Y-130376847D01*
X118997228Y-129758673D01*
X119981005Y-129107263D01*
X120942465Y-128423344D01*
X121880536Y-127707679D01*
X122794168Y-126961068D01*
X123682343Y-126184346D01*
X124479548Y-125438723D01*
X124544050Y-125378395D01*
X124544051Y-125378393D01*
X124544067Y-125378379D01*
X124795034Y-125127410D01*
X124856355Y-125093927D01*
X124926047Y-125098911D01*
X124981981Y-125140782D01*
X124987702Y-125149113D01*
X125014742Y-125192146D01*
X125142296Y-125319700D01*
X125160918Y-125331401D01*
X125291410Y-125413395D01*
X125295036Y-125415673D01*
X125391877Y-125449559D01*
X125465303Y-125475252D01*
X125465308Y-125475253D01*
X125644554Y-125495449D01*
X125644558Y-125495449D01*
X125644562Y-125495449D01*
X125823807Y-125475253D01*
X125823810Y-125475252D01*
X125823813Y-125475252D01*
X125994080Y-125415673D01*
X126123441Y-125334389D01*
X126189413Y-125315384D01*
X126939046Y-125315384D01*
X127005017Y-125334389D01*
X127150478Y-125425789D01*
X127291835Y-125475252D01*
X127320745Y-125485368D01*
X127320750Y-125485369D01*
X127499996Y-125505565D01*
X127500000Y-125505565D01*
X127500004Y-125505565D01*
X127679249Y-125485369D01*
X127679252Y-125485368D01*
X127679255Y-125485368D01*
X127849522Y-125425789D01*
X128002262Y-125329816D01*
X128129816Y-125202262D01*
X128225789Y-125049522D01*
X128285368Y-124879255D01*
X128285369Y-124879249D01*
X128305565Y-124700003D01*
X128305565Y-124699996D01*
X128285369Y-124520750D01*
X128285368Y-124520745D01*
X128250376Y-124420745D01*
X128225789Y-124350478D01*
X128221614Y-124343834D01*
X128162955Y-124250478D01*
X128129816Y-124197738D01*
X128002262Y-124070184D01*
X127988949Y-124061819D01*
X127849523Y-123974211D01*
X127679254Y-123914631D01*
X127679249Y-123914630D01*
X127500004Y-123894435D01*
X127499996Y-123894435D01*
X127320750Y-123914630D01*
X127320745Y-123914631D01*
X127150477Y-123974211D01*
X127068852Y-124025500D01*
X127037219Y-124045377D01*
X127037217Y-124045378D01*
X126971245Y-124064384D01*
X126189413Y-124064384D01*
X126123440Y-124045377D01*
X126075176Y-124015050D01*
X126028885Y-123962715D01*
X126018238Y-123893661D01*
X126046614Y-123829813D01*
X126050568Y-123825374D01*
X126184346Y-123682343D01*
X126961068Y-122794168D01*
X127707679Y-121880536D01*
X128423344Y-120942465D01*
X129107263Y-119981005D01*
X129758673Y-118997228D01*
X130376847Y-117992234D01*
X130961093Y-116967145D01*
X131510760Y-115923106D01*
X132025234Y-114861282D01*
X132503939Y-113782861D01*
X132946342Y-112689046D01*
X133351948Y-111581058D01*
X133720303Y-110460136D01*
X134050998Y-109327532D01*
X134343662Y-108184510D01*
X134561974Y-107195420D01*
X134595644Y-107134202D01*
X134657069Y-107100903D01*
X134726745Y-107106099D01*
G37*
G04 #@! TD.AperFunction*
G04 #@! TA.AperFunction,Conductor*
G36*
X140192539Y-75030184D02*
G01*
X140238294Y-75082988D01*
X140249500Y-75134499D01*
X140249500Y-77254546D01*
X140229815Y-77321585D01*
X140213181Y-77342227D01*
X140155646Y-77399762D01*
X140094323Y-77433247D01*
X140035872Y-77431856D01*
X139935413Y-77404938D01*
X139935403Y-77404936D01*
X139700001Y-77384341D01*
X139699999Y-77384341D01*
X139464596Y-77404936D01*
X139464586Y-77404938D01*
X139236344Y-77466094D01*
X139236335Y-77466098D01*
X139022171Y-77565964D01*
X139022169Y-77565965D01*
X138828597Y-77701505D01*
X138661505Y-77868597D01*
X138525965Y-78062169D01*
X138525964Y-78062171D01*
X138426098Y-78276335D01*
X138426094Y-78276344D01*
X138364938Y-78504586D01*
X138364936Y-78504596D01*
X138344341Y-78739999D01*
X138344341Y-78740000D01*
X138364937Y-78975408D01*
X138391855Y-79075873D01*
X138390192Y-79145723D01*
X138359761Y-79195646D01*
X136269740Y-81285668D01*
X136208417Y-81319153D01*
X136138725Y-81314169D01*
X136082792Y-81272297D01*
X136058375Y-81206833D01*
X136058059Y-81197987D01*
X136058059Y-78237892D01*
X136077744Y-78170853D01*
X136094373Y-78150216D01*
X139197771Y-75046817D01*
X139259094Y-75013333D01*
X139285452Y-75010499D01*
X140125500Y-75010499D01*
X140192539Y-75030184D01*
G37*
G04 #@! TD.AperFunction*
M02*
